<svg width="35" height="35" viewBox="0 0 35 35" fill="none" xmlns="http://www.w3.org/2000/svg"
    name="adobexd" class="mr-2 h-9 w-9 ListItems_ListItemIcon__JEBXv">
    <path fill-rule="evenodd" clip-rule="evenodd"
        d="M8.45833 3.5H26.5417C29.2833 3.5 31.5 5.67878 31.5 8.37358V25.4598C31.5 28.1546 29.2833 30.3333 26.5417 30.3333H8.45833C5.71667 30.3333 3.5 28.1546 3.5 25.4598V8.37358C3.5 5.67878 5.71667 3.5 8.45833 3.5ZM18.2234 10.5524L14.7234 16.2286L18.4567 22.2489C18.48 22.2948 18.4917 22.3407 18.48 22.3865C18.4729 22.4147 18.4525 22.4126 18.4217 22.4094C18.4023 22.4075 18.3787 22.405 18.3517 22.4095H15.68C15.4934 22.4095 15.365 22.398 15.2834 22.2833C15.1609 22.0426 15.0355 21.8047 14.9101 21.5668L14.91 21.5666L14.9099 21.5665C14.7845 21.3286 14.6592 21.0907 14.5367 20.8499C14.2917 20.3798 14.0234 19.8981 13.7434 19.4051C13.4634 18.912 13.1834 18.4189 12.9034 17.9143H12.88C12.635 18.4074 12.3667 18.9005 12.0984 19.3935L12.0984 19.3936L12.0983 19.3936L12.0983 19.3936C11.83 19.8867 11.5617 20.3798 11.305 20.8614C11.2156 21.022 11.1261 21.1838 11.0367 21.3456C10.8578 21.6692 10.6789 21.9928 10.5 22.3063C10.4534 22.4209 10.36 22.4324 10.2317 22.4324H7.66502C7.65365 22.4324 7.64297 22.4338 7.63332 22.435C7.60337 22.4388 7.58335 22.4414 7.58335 22.398C7.57169 22.3521 7.58335 22.3063 7.60669 22.2719L11.235 16.4236L7.70002 10.5409C7.66502 10.495 7.65335 10.4491 7.67669 10.4262C7.70002 10.3918 7.74669 10.3803 7.79335 10.3803H10.4417C10.5 10.3803 10.5584 10.3918 10.605 10.4033C10.6517 10.4262 10.6867 10.4606 10.7217 10.5065C10.9434 10.9996 11.2 11.4927 11.4684 11.9858L11.6199 12.2533L11.62 12.2533C11.8466 12.6538 12.0697 13.0479 12.3084 13.4421C12.5884 13.9237 12.845 14.4053 13.09 14.8984H13.1134C13.3584 14.3939 13.615 13.9008 13.8717 13.4192C14.1284 12.9375 14.3967 12.4559 14.665 11.9743C14.8238 11.6892 14.9786 11.4001 15.1317 11.1141C15.2372 10.917 15.3419 10.7213 15.4467 10.5294C15.4584 10.4835 15.4817 10.4377 15.5167 10.4147C15.5634 10.3918 15.61 10.3803 15.6684 10.3918H18.13C18.1884 10.3803 18.2467 10.4147 18.2584 10.4721C18.27 10.4835 18.2467 10.5294 18.2234 10.5524ZM21.1047 22.1343C21.8864 22.4898 22.7497 22.6618 23.613 22.6503C24.2197 22.6503 24.8147 22.593 25.4097 22.4898C26.063 22.3751 26.7047 22.1916 27.3114 21.9393C27.393 21.9049 27.428 21.8361 27.428 21.7559C27.4262 21.7258 27.4244 21.6949 27.4226 21.6633C27.4125 21.4899 27.4011 21.2944 27.3814 21.0908C27.3803 21.0677 27.3792 21.0448 27.3782 21.0221C27.3677 20.7967 27.358 20.5902 27.358 20.4027V9.46298C27.3464 9.41711 27.2997 9.37124 27.2414 9.3827H24.873C24.7914 9.3827 24.7564 9.42857 24.7564 9.50884V13.1325C24.6916 13.1272 24.6318 13.1243 24.5758 13.1217C24.5109 13.1186 24.4511 13.1157 24.3947 13.1096C24.2897 13.0981 24.208 13.0981 24.1497 13.0981C22.9947 13.0981 22.0147 13.316 21.198 13.7632C20.428 14.176 19.7864 14.7952 19.343 15.5406C18.9114 16.2745 18.6897 17.1116 18.7014 17.9602C18.7014 19.0037 18.9114 19.8752 19.343 20.5747C19.763 21.2513 20.3697 21.8017 21.1047 22.1343ZM24.7564 15.3113V20.3568C24.6164 20.4027 24.488 20.4257 24.3364 20.4142C24.1847 20.4257 24.0214 20.4371 23.8464 20.4371C23.5197 20.4371 23.193 20.3913 22.878 20.288C22.5747 20.1963 22.3064 20.0358 22.0847 19.8294C21.8514 19.6 21.6764 19.3248 21.5597 19.0152C21.4197 18.6368 21.3497 18.2354 21.3614 17.8341C21.3614 17.2378 21.4897 16.7447 21.7464 16.3777C22.003 16.0108 22.3414 15.7241 22.738 15.5291C23.1464 15.3227 23.6014 15.231 24.0564 15.231C24.1847 15.231 24.313 15.2425 24.4414 15.2539C24.5464 15.2654 24.6514 15.2883 24.7564 15.3113Z"
        fill="currentColor"></path>
</svg>