<svg width="24" height="24" viewBox="0 0 24 24" fill="none" xmlns="http://www.w3.org/2000/svg"
    name="approval" class="mr-2 hidden h-6 w-6 text-primary 4sm:block">
    <path
        d="M14.7588 2.5097C14.3116 2.50643 13.8585 2.63412 13.4589 2.914L12.5839 3.52728C12.3122 3.71773 11.9578 3.71842 11.6845 3.52728L10.8105 2.914C10.4909 2.6901 10.1362 2.56421 9.77828 2.52435C8.70464 2.4048 7.59843 3.06223 7.29586 4.1933L7.0195 5.22553C6.93388 5.54562 6.66212 5.77388 6.332 5.80267L5.26852 5.89545C3.7134 6.03115 2.73811 7.71924 3.3984 9.13373C3.3984 9.13405 3.3984 9.13438 3.3984 9.13471L3.85055 10.1025C3.99072 10.4029 3.92872 10.7521 3.6943 10.9863L2.93844 11.7411C1.83474 12.8449 2.173 14.7654 3.58785 15.4247L4.5566 15.8759C4.85714 16.0158 5.03488 16.3231 5.00582 16.6533L4.91207 17.7177C4.77563 19.2728 6.26955 20.526 7.77731 20.121L8.80856 19.8447C9.12877 19.7588 9.46219 19.8796 9.65231 20.1513L10.2646 21.0263C11.1595 22.3056 13.1099 22.3056 14.0048 21.0263L14.6172 20.1513C14.8073 19.8796 15.1407 19.7588 15.4609 19.8447L16.4922 20.121C17.9999 20.526 19.4938 19.2728 19.3574 17.7177L19.2636 16.6533C19.2346 16.3231 19.4123 16.0158 19.7129 15.8759L20.6806 15.4247C22.0957 14.7653 22.4342 12.8446 21.33 11.7411L20.5742 10.9863C20.3398 10.7521 20.2787 10.4029 20.4189 10.1025L20.8701 9.13471C20.8701 9.13438 20.8701 9.13405 20.8701 9.13373C21.5304 7.71924 20.5561 6.03115 19.0009 5.89545C19.0006 5.89545 19.0003 5.89545 19 5.89545L17.9365 5.80267C17.6064 5.77388 17.3346 5.54562 17.249 5.22553L16.9726 4.1933C16.6953 3.15649 15.7424 2.51691 14.7588 2.5097ZM9.40328 3.99408C9.58316 3.97493 9.775 4.0205 9.94918 4.14252L10.8242 4.7558C11.6089 5.30467 12.6611 5.30535 13.4453 4.7558L14.3193 4.14252C14.7838 3.81714 15.3778 4.03308 15.5244 4.58099L15.7998 5.61322C16.0472 6.53812 16.8527 7.21361 17.8066 7.29681L18.8701 7.38959C19.435 7.43888 19.7514 7.98643 19.5117 8.49994L19.0595 9.46771C18.6547 10.3353 18.837 11.371 19.5146 12.0478L20.2695 12.8027C20.6704 13.2033 20.5608 13.8258 20.0468 14.0654L19.0791 14.5165V14.5156C18.2109 14.9196 17.686 15.8306 17.7695 16.7841L17.8632 17.8486C17.9128 18.4134 17.4281 18.8198 16.8808 18.6728L15.8496 18.3954C14.9248 18.1474 13.9365 18.5066 13.3877 19.291L12.7754 20.166C12.7754 20.1663 12.7754 20.1666 12.7754 20.1669C12.4503 20.6317 11.8182 20.6317 11.4931 20.1669C11.4931 20.1666 11.4931 20.1663 11.4931 20.166L10.8808 19.291C10.3319 18.5066 9.34467 18.1474 8.41989 18.3954L7.38766 18.6728C6.84042 18.8198 6.35665 18.4134 6.40621 17.8486L6.49996 16.7851C6.58391 15.8312 6.05788 14.9197 5.18942 14.5156V14.5165L4.22164 14.0654C3.70749 13.8258 3.59769 13.204 3.99899 12.8027L4.75485 12.0478C5.43243 11.371 5.61476 10.3353 5.20993 9.46771L4.75778 8.49994C4.51807 7.98643 4.83352 7.43888 5.3984 7.38959L6.46285 7.29681C7.41673 7.21361 8.22133 6.53812 8.46871 5.61322L8.74508 4.58099C8.81837 4.30704 9.0037 4.11594 9.22848 4.03412C9.28468 4.01366 9.34333 4.00046 9.40328 3.99408ZM15.7353 8.9931C15.5405 8.99878 15.3556 9.08004 15.2197 9.21967L10.75 13.6894L8.78024 11.7197C8.71113 11.6477 8.62835 11.5902 8.53676 11.5506C8.44516 11.511 8.34659 11.4901 8.24681 11.4891C8.14703 11.4881 8.04805 11.507 7.95567 11.5447C7.86328 11.5824 7.77936 11.6382 7.7088 11.7088C7.63824 11.7793 7.58247 11.8633 7.54475 11.9556C7.50704 12.048 7.48813 12.147 7.48915 12.2468C7.49016 12.3466 7.51107 12.4451 7.55066 12.5367C7.59025 12.6283 7.64771 12.7111 7.71969 12.7802L10.2197 15.2802C10.3603 15.4208 10.5511 15.4998 10.75 15.4998C10.9488 15.4998 11.1396 15.4208 11.2802 15.2802L16.2802 10.2802C16.3884 10.1748 16.4623 10.0392 16.4922 9.89119C16.522 9.74314 16.5065 9.58952 16.4476 9.45044C16.3887 9.31135 16.2892 9.19328 16.1622 9.11169C16.0351 9.03009 15.8863 8.98876 15.7353 8.9931Z"
        fill="currentColor"></path>
</svg>