<svg width="48" height="48" viewBox="0 0 48 48" fill="none" xmlns="http://www.w3.org/2000/svg"
    name="archive" class="mr-2 hidden h-6 w-6 text-primary 4sm:block">
    <path
        d="M12.5 4C10.0325 4 8 6.0325 8 8.5V39.5C8 41.9675 10.0325 44 12.5 44H35.5C37.9675 44 40 41.9675 40 39.5V18.5C39.9999 18.1022 39.8419 17.7207 39.5605 17.4395L39.5449 17.4238L26.5605 4.43945C26.2793 4.15815 25.8978 4.00008 25.5 4H12.5ZM12.5 7H24V15.5C24 17.9675 26.0325 20 28.5 20H37V39.5C37 40.3465 36.3465 41 35.5 41H12.5C11.6535 41 11 40.3465 11 39.5V8.5C11 7.6535 11.6535 7 12.5 7ZM27 9.12109L34.8789 17H28.5C27.6535 17 27 16.3465 27 15.5V9.12109ZM17.5 25C17.3012 24.9972 17.1039 25.0339 16.9194 25.108C16.735 25.1822 16.5671 25.2922 16.4255 25.4318C16.284 25.5713 16.1716 25.7376 16.0949 25.921C16.0181 26.1044 15.9786 26.3012 15.9786 26.5C15.9786 26.6988 16.0181 26.8956 16.0949 27.079C16.1716 27.2624 16.284 27.4287 16.4255 27.5682C16.5671 27.7078 16.735 27.8178 16.9194 27.892C17.1039 27.9661 17.3012 28.0028 17.5 28H30.5C30.6988 28.0028 30.8961 27.9661 31.0806 27.892C31.265 27.8178 31.4329 27.7078 31.5745 27.5682C31.716 27.4287 31.8284 27.2624 31.9051 27.079C31.9819 26.8956 32.0214 26.6988 32.0214 26.5C32.0214 26.3012 31.9819 26.1044 31.9051 25.921C31.8284 25.7376 31.716 25.5713 31.5745 25.4318C31.4329 25.2922 31.265 25.1822 31.0806 25.108C30.8961 25.0339 30.6988 24.9972 30.5 25H17.5ZM17.5 32C17.3012 31.9972 17.1039 32.0339 16.9194 32.108C16.735 32.1822 16.5671 32.2922 16.4255 32.4318C16.284 32.5713 16.1716 32.7376 16.0949 32.921C16.0181 33.1044 15.9786 33.3012 15.9786 33.5C15.9786 33.6988 16.0181 33.8956 16.0949 34.079C16.1716 34.2624 16.284 34.4287 16.4255 34.5682C16.5671 34.7078 16.735 34.8178 16.9194 34.892C17.1039 34.9661 17.3012 35.0028 17.5 35H26.5C26.6988 35.0028 26.8961 34.9661 27.0806 34.892C27.265 34.8178 27.4329 34.7078 27.5745 34.5682C27.716 34.4287 27.8284 34.2624 27.9051 34.079C27.9819 33.8956 28.0214 33.6988 28.0214 33.5C28.0214 33.3012 27.9819 33.1044 27.9051 32.921C27.8284 32.7376 27.716 32.5713 27.5745 32.4318C27.4329 32.2922 27.265 32.1822 27.0806 32.108C26.8961 32.0339 26.6988 31.9972 26.5 32H17.5Z"
        fill="currentColor"></path>
</svg>