<svg width="35" height="35" viewBox="0 0 35 35" fill="none" xmlns="http://www.w3.org/2000/svg"
    name="asana" class="mr-2 h-9 w-9 ListItems_ListItemIcon__JEBXv">
    <path
        d="M26.07 18.3234C22.4262 18.3234 19.4727 21.2728 19.4727 24.9112C19.4727 28.5499 22.4262 31.5 26.07 31.5C29.7133 31.5 32.6667 28.5499 32.6667 24.9112C32.6667 21.2728 29.7133 18.3234 26.07 18.3234ZM8.93035 18.3237C5.28708 18.324 2.33337 21.2728 2.33337 24.9115C2.33337 28.5499 5.28708 31.4997 8.93035 31.4997C12.5739 31.4997 15.5276 28.5499 15.5276 24.9115C15.5276 21.2728 12.5739 18.3237 8.93003 18.3237H8.93035ZM24.097 10.0882C24.097 13.7266 21.1436 16.677 17.5004 16.677C13.8565 16.677 10.9031 13.7266 10.9031 10.0882C10.9031 6.44976 13.8565 3.5 17.5003 3.5C21.1436 3.5 24.0967 6.44976 24.0967 10.0882H24.097Z"
        fill="currentColor"></path>
</svg>