<svg width="19" height="19" viewBox="0 0 19 19" fill="none" xmlns="http://www.w3.org/2000/svg"
    name="automation" class="h-8 w-8 text-white">
    <path
        d="M7.75 0C3.75482 0 0.5 3.25482 0.5 7.25C0.5 11.2452 3.75482 14.5 7.75 14.5C9.47818 14.5 11.0669 13.8895 12.3145 12.875L17.2197 17.7803C17.2888 17.8523 17.3716 17.9097 17.4632 17.9493C17.5548 17.9889 17.6534 18.0098 17.7532 18.0108C17.8529 18.0118 17.9519 17.9929 18.0443 17.9552C18.1367 17.9175 18.2206 17.8617 18.2912 17.7912C18.3617 17.7206 18.4175 17.6367 18.4552 17.5443C18.4929 17.4519 18.5118 17.3529 18.5108 17.2532C18.5098 17.1534 18.4889 17.0548 18.4493 16.9632C18.4097 16.8716 18.3523 16.7888 18.2803 16.7197L13.375 11.8145C14.3895 10.5669 15 8.97818 15 7.25C15 3.25482 11.7452 0 7.75 0ZM7.75 1.5C10.9345 1.5 13.5 4.06548 13.5 7.25C13.5 8.80131 12.8881 10.2029 11.8955 11.2354C11.8343 11.2803 11.7803 11.3343 11.7354 11.3955C10.7029 12.3881 9.30131 13 7.75 13C4.56548 13 2 10.4345 2 7.25C2 4.06548 4.56548 1.5 7.75 1.5Z"
        fill="currentColor"></path>
</svg>