<svg
    width="32"
    height="32"
    viewBox="0 0 35 35"
    fill="none"
    xmlns="http://www.w3.org/2000/svg"
    name="aws"
    class="w-10 min-w-10 text-primary-500"
    style="color: rgb(255, 255, 255);"
>
    <path
        fill-rule="evenodd"
        clip-rule="evenodd"
        d="M9.86327 14.6268C9.86327 15.059 9.90984 15.4094 9.99132 15.6663C10.0844 15.9233 10.2009 16.2036 10.3638 16.5073C10.422 16.6007 10.4453 16.6941 10.4453 16.7759C10.4453 16.8927 10.3755 17.0095 10.2241 17.1263L9.49078 17.6168C9.38601 17.6869 9.28124 17.7219 9.18812 17.7219C9.07171 17.7219 8.95531 17.6635 8.8389 17.5584C8.67593 17.3832 8.53625 17.1964 8.41984 17.0095C8.30343 16.8109 8.18703 16.589 8.05898 16.3204C7.15101 17.3949 6.01023 17.9322 4.63664 17.9322C3.65883 17.9322 2.87891 17.6519 2.30852 17.0912C1.73813 16.5306 1.44711 15.7831 1.44711 14.8487C1.44711 13.856 1.79633 13.0501 2.50641 12.4427C3.21649 11.8354 4.15938 11.5317 5.35836 11.5317C5.75414 11.5317 6.16156 11.5668 6.59226 11.6252C7.02297 11.6835 7.46531 11.777 7.93093 11.8821V11.0295C7.93093 10.1418 7.74468 9.52281 7.38382 9.16074C7.01132 8.79867 6.38273 8.62347 5.4864 8.62347C5.07898 8.62347 4.65992 8.67019 4.22922 8.77531C3.79852 8.88043 3.37945 9.0089 2.97203 9.17242C2.78578 9.25418 2.6461 9.3009 2.56461 9.32425C2.48313 9.34761 2.42492 9.35929 2.37836 9.35929C2.21539 9.35929 2.13391 9.2425 2.13391 8.99722V8.42492C2.13391 8.23805 2.15719 8.09789 2.21539 8.01613C2.2736 7.93437 2.37836 7.85262 2.54133 7.77086C2.94875 7.56062 3.43766 7.38543 4.00805 7.24527C4.57844 7.09344 5.18375 7.02336 5.82398 7.02336C7.20922 7.02336 8.22195 7.33871 8.87382 7.96941C9.51406 8.60012 9.83999 9.55785 9.83999 10.8426V14.6268H9.86327ZM5.13719 16.4021C5.52133 16.4021 5.91711 16.3321 6.33617 16.1919C6.75523 16.0517 7.12773 15.7948 7.44203 15.4444C7.62828 15.2225 7.76797 14.9772 7.83781 14.6969C7.90765 14.4166 7.95421 14.0779 7.95421 13.6808V13.1902C7.61664 13.1085 7.25578 13.0384 6.88328 12.9917C6.51078 12.945 6.14992 12.9216 5.78906 12.9216C5.00914 12.9216 4.43875 13.0734 4.05461 13.3888C3.67047 13.7041 3.48422 14.148 3.48422 14.7319C3.48422 15.2809 3.62391 15.6897 3.91492 15.97C4.1943 16.262 4.60172 16.4021 5.13719 16.4021Z"
        fill="currentColor"
    ></path>
    <path
        d="M14.4846 17.6635C14.2751 17.6635 14.1354 17.6285 14.0423 17.5467C13.9491 17.4767 13.8676 17.3132 13.7978 17.0912L11.0623 8.06285C10.9924 7.82926 10.9575 7.67742 10.9575 7.59566C10.9575 7.40879 11.0506 7.30367 11.2369 7.30367H12.3776C12.5988 7.30367 12.7501 7.33871 12.8316 7.42047C12.9248 7.49055 12.9946 7.65406 13.0644 7.87598L15.0201 15.6079L16.836 7.87598C16.8942 7.64238 16.9641 7.49055 17.0572 7.42047C17.1503 7.35039 17.3133 7.30367 17.5228 7.30367H18.454C18.6752 7.30367 18.8265 7.33871 18.9197 7.42047C19.0128 7.49055 19.0943 7.65406 19.1408 7.87598L20.9801 15.7014L22.9939 7.87598C23.0637 7.64238 23.1452 7.49055 23.2267 7.42047C23.3198 7.35039 23.4711 7.30367 23.6807 7.30367H24.7633C24.9495 7.30367 25.0543 7.39711 25.0543 7.59566C25.0543 7.64554 25.0458 7.69542 25.0361 7.75257L25.031 7.78254C25.0194 7.85262 24.9961 7.94605 24.9495 8.07453L22.1441 17.1029C22.0743 17.3365 21.9928 17.4883 21.8997 17.5584C21.8065 17.6285 21.6552 17.6752 21.4573 17.6752H20.4562C20.2351 17.6752 20.0837 17.6402 19.9906 17.5584C19.8975 17.4767 19.816 17.3248 19.7694 17.0912L17.9651 9.55785L16.1725 17.0796C16.1143 17.3132 16.0444 17.465 15.9513 17.5467C15.8582 17.6285 15.6952 17.6635 15.4857 17.6635H14.4846Z"
        fill="currentColor"
    ></path>
    <path
        d="M29.4428 17.9789C28.8375 17.9789 28.2322 17.9088 27.6501 17.7687C27.0681 17.6285 26.6141 17.4767 26.3115 17.3015C26.1252 17.1964 25.9972 17.0796 25.9506 16.9744C25.904 16.8693 25.8808 16.7525 25.8808 16.6474V16.0517C25.8808 15.8065 25.9739 15.6897 26.1485 15.6897C26.2183 15.6897 26.2882 15.7014 26.358 15.7247C26.4031 15.7398 26.4628 15.7646 26.5307 15.7929C26.568 15.8084 26.6078 15.825 26.649 15.8415C27.0448 16.0167 27.4755 16.1569 27.9295 16.2503C28.3951 16.3437 28.8491 16.3905 29.3147 16.3905C30.0481 16.3905 30.6185 16.262 31.0143 16.005C31.41 15.7481 31.6196 15.3743 31.6196 14.8955C31.6196 14.5684 31.5148 14.2998 31.3053 14.0779C31.0957 13.856 30.7 13.6574 30.1296 13.4705L28.4417 12.945C27.5919 12.6763 26.9633 12.2792 26.5792 11.7536C26.1951 11.2397 25.9972 10.6674 25.9972 10.0601C25.9972 9.56953 26.1019 9.13738 26.3115 8.76363C26.521 8.38988 26.8004 8.06285 27.1496 7.8059C27.4988 7.53727 27.8946 7.33871 28.3602 7.19855C28.8258 7.0584 29.3147 7 29.8269 7C30.083 7 30.3508 7.01168 30.6068 7.04672C30.8746 7.08176 31.119 7.12848 31.3635 7.1752C31.5963 7.23359 31.8175 7.29199 32.027 7.36207C32.2365 7.43215 32.3995 7.50223 32.5159 7.5723C32.6789 7.66574 32.7953 7.75918 32.8651 7.8643C32.935 7.95773 32.9699 8.08621 32.9699 8.24972V8.79867C32.9699 9.04394 32.8768 9.17242 32.7022 9.17242C32.609 9.17242 32.4577 9.1257 32.2598 9.03226C31.5963 8.72859 30.8513 8.57676 30.0248 8.57676C29.3613 8.57676 28.8375 8.68187 28.4766 8.90379C28.1158 9.1257 27.9295 9.46441 27.9295 9.94328C27.9295 10.2703 28.0459 10.5506 28.2787 10.7725C28.5115 10.9944 28.9422 11.2164 29.5592 11.4149L31.2122 11.9405C32.0503 12.2091 32.6556 12.5829 33.0165 13.0618C33.3773 13.5406 33.5519 14.0896 33.5519 14.6969C33.5519 15.1991 33.4472 15.6546 33.2493 16.0517C33.0397 16.4489 32.7604 16.7992 32.3995 17.0796C32.0386 17.3716 31.6079 17.5818 31.1074 17.7336C30.5836 17.8971 30.0365 17.9789 29.4428 17.9789Z"
        fill="currentColor"
    ></path>
    <path
        d="M31.6429 23.6552C27.8131 26.4933 22.2489 28 17.4646 28C10.7596 28 4.71817 25.5122 0.155055 21.3776C-0.205804 21.0506 0.120133 20.6068 0.550835 20.8637C5.48645 23.7369 11.5745 25.4772 17.872 25.4772C22.1209 25.4772 26.7887 24.5895 31.0841 22.7675C31.7243 22.4755 32.2715 23.188 31.6429 23.6552Z"
        fill="currentColor"
    ></path>
    <path
        d="M28.7562 21.6814C30.0017 21.5295 32.7489 21.2025 33.2378 21.8332C33.7267 22.4522 32.6906 25.0568 32.225 26.2131C32.0853 26.5634 32.388 26.7036 32.7023 26.435C34.751 24.7064 35.2865 21.0974 34.8674 20.5718C34.4484 20.0579 30.8514 19.6141 28.663 21.1558C28.3255 21.4011 28.3837 21.7281 28.7562 21.6814Z"
        fill="currentColor"
    ></path>
</svg>