<svg
    width="35"
    height="36"
    viewBox="0 0 35 36"
    fill="none"
    xmlns="http://www.w3.org/2000/svg"
    name="awsbedrock"
    class="mr-2 h-9 w-9 ListItems_ListItemIcon__JEBXv"
>
    <path
        fill-rule="evenodd"
        clip-rule="evenodd"
        d="M2.91675 3.41675H32.0834V32.5834H2.91675V3.41675ZM25.5223 16.9059C25.5223 17.3081 25.8494 17.6351 26.2515 17.6351C26.6536 17.6351 26.9807 17.3081 26.9807 16.9059C26.9807 16.5038 26.6536 16.1768 26.2515 16.1768C25.8494 16.1768 25.5223 16.5038 25.5223 16.9059ZM13.4419 26.7548L14.626 27.4453L17.5015 26.4868V20.831L12.5851 23.7809L12.2096 23.156L17.5015 19.9808V9.51255L14.626 8.55406L13.1265 9.4287V12.8955H12.3973V9.85417L10.5744 10.9173V14.1424L12.747 15.3838L14.5848 14.1588V11.8018H15.314V14.3539C15.314 14.4756 15.2531 14.5894 15.1518 14.6572L13.1265 16.0072V17.4287L14.7726 18.4164L14.3971 19.0413L12.7619 18.0602L11.1268 19.0413L10.7512 18.4164L12.3973 17.4287V16.0236L10.2098 14.7739L8.02234 16.0236V17.3715L10.029 16.2249L10.3907 16.8578L8.02234 18.2111V19.9757L10.1949 21.2171L12.195 19.8839L12.5997 20.4905L10.5744 21.8406V25.0821L12.7302 26.3395L15.4854 24.6176L15.8718 25.2359L13.4419 26.7548ZM24.7932 22.3747C25.1953 22.3747 25.5223 22.0477 25.5223 21.6455C25.5223 21.2434 25.1953 20.9164 24.7932 20.9164C24.391 20.9164 24.064 21.2434 24.064 21.6455C24.064 22.0477 24.391 22.3747 24.7932 22.3747ZM21.1473 26.0205C21.5495 26.0205 21.8765 25.6935 21.8765 25.2914C21.8765 24.8892 21.5495 24.5622 21.1473 24.5622C20.7452 24.5622 20.4182 24.8892 20.4182 25.2914C20.4182 25.6935 20.7452 26.0205 21.1473 26.0205ZM22.2411 9.97885C21.839 9.97885 21.5119 10.3059 21.5119 10.708C21.5119 11.1102 21.839 11.4372 22.2411 11.4372C22.6432 11.4372 22.9703 11.1102 22.9703 10.708C22.9703 10.3059 22.6432 9.97885 22.2411 9.97885ZM24.8449 16.5414C25.0079 15.9143 25.5737 15.4476 26.2515 15.4476C27.0558 15.4476 27.7098 16.1017 27.7098 16.9059C27.7098 17.7102 27.0558 18.3643 26.2515 18.3643C25.5737 18.3643 25.0079 17.8976 24.8449 17.2705H18.2307V19.0934H22.9703C23.0847 19.0934 23.193 19.1474 23.2619 19.2393L24.1074 20.3666C24.3127 20.2557 24.5438 20.1872 24.7932 20.1872C25.5974 20.1872 26.2515 20.8412 26.2515 21.6455C26.2515 22.4498 25.5974 23.1039 24.7932 23.1039C23.9889 23.1039 23.3348 22.4498 23.3348 21.6455C23.3348 21.3564 23.422 21.0884 23.5674 20.8617L22.788 19.8226H18.2307V21.6455H21.1473C21.349 21.6455 21.5119 21.8089 21.5119 22.0101V23.8848C22.139 24.0478 22.6057 24.614 22.6057 25.2914C22.6057 26.0956 21.9516 26.7497 21.1473 26.7497C20.3431 26.7497 19.689 26.0956 19.689 25.2914C19.689 24.614 20.1557 24.0478 20.7828 23.8848V22.3747H18.2307V26.7497C18.2307 26.9068 18.1304 27.0457 17.9813 27.0957L14.7 28.1894C14.6625 28.2018 14.6235 28.208 14.5848 28.208C14.521 28.208 14.4572 28.1912 14.4011 28.1584L10.0261 25.6064C9.9138 25.5411 9.84526 25.4208 9.84526 25.2914V21.857L7.47692 20.5036C7.36317 20.4387 7.29317 20.3181 7.29317 20.1872V15.8122C7.29317 15.6813 7.36317 15.5606 7.47692 15.4957L9.84526 14.1424V10.708C9.84526 10.5786 9.9138 10.4583 10.0261 10.393L14.4011 7.84094C14.4915 7.78807 14.6002 7.77713 14.7 7.80995L17.9813 8.9037C18.1304 8.95364 18.2307 9.09255 18.2307 9.24969V13.9893H21.8765V12.1146C21.2494 11.9516 20.7828 11.3854 20.7828 10.708C20.7828 9.90375 21.4368 9.24969 22.2411 9.24969C23.0454 9.24969 23.6994 9.90375 23.6994 10.708C23.6994 11.3854 23.2328 11.9516 22.6057 12.1146V14.3539C22.6057 14.5551 22.4427 14.7184 22.2411 14.7184H18.2307V16.5414H24.8449Z"
        fill="currentColor"
        fill-opacity="0.75"
    ></path>
</svg>