<svg width="19" height="18" viewBox="0 0 19 18" fill="none" xmlns="http://www.w3.org/2000/svg"
    name="backend" class="h-8 w-8 text-white">
    <path
        d="M2.25 0C1.29252 0 0.5 0.79252 0.5 1.75V16.25C0.5 17.2075 1.29252 18 2.25 18H16.75C17.7075 18 18.5 17.2075 18.5 16.25V1.75C18.5 0.79252 17.7075 0 16.75 0H2.25ZM2.25 1.5H16.75C16.8975 1.5 17 1.60248 17 1.75V5.5H2V1.75C2 1.60248 2.10248 1.5 2.25 1.5ZM14.5 2.5C14.2348 2.5 13.9804 2.60536 13.7929 2.79289C13.6054 2.98043 13.5 3.23478 13.5 3.5C13.5 3.76522 13.6054 4.01957 13.7929 4.20711C13.9804 4.39464 14.2348 4.5 14.5 4.5C14.7652 4.5 15.0196 4.39464 15.2071 4.20711C15.3946 4.01957 15.5 3.76522 15.5 3.5C15.5 3.23478 15.3946 2.98043 15.2071 2.79289C15.0196 2.60536 14.7652 2.5 14.5 2.5ZM4.25 2.75C4.15062 2.74859 4.05194 2.76696 3.95972 2.80402C3.86749 2.84108 3.78355 2.8961 3.71277 2.96588C3.642 3.03566 3.58579 3.11882 3.54743 3.21051C3.50907 3.3022 3.48932 3.40061 3.48932 3.5C3.48932 3.59939 3.50907 3.6978 3.54743 3.78949C3.58579 3.88118 3.642 3.96434 3.71277 4.03412C3.78355 4.1039 3.86749 4.15892 3.95972 4.19598C4.05194 4.23304 4.15062 4.25141 4.25 4.25H8.75C8.8494 4.25141 8.9481 4.23304 9.0403 4.19598C9.1325 4.15892 9.2164 4.1039 9.2872 4.03412C9.358 3.96434 9.4142 3.88118 9.4526 3.78949C9.4909 3.6978 9.5107 3.59939 9.5107 3.5C9.5107 3.40061 9.4909 3.3022 9.4526 3.21051C9.4142 3.11882 9.358 3.03566 9.2872 2.96588C9.2164 2.8961 9.1325 2.84108 9.0403 2.80402C8.9481 2.76696 8.8494 2.74859 8.75 2.75H4.25ZM2 7H17V11H2V7ZM14.5 8C14.2348 8 13.9804 8.1054 13.7929 8.2929C13.6054 8.4804 13.5 8.7348 13.5 9C13.5 9.2652 13.6054 9.5196 13.7929 9.7071C13.9804 9.8946 14.2348 10 14.5 10C14.7652 10 15.0196 9.8946 15.2071 9.7071C15.3946 9.5196 15.5 9.2652 15.5 9C15.5 8.7348 15.3946 8.4804 15.2071 8.2929C15.0196 8.1054 14.7652 8 14.5 8ZM4.25 8.25C4.15062 8.2486 4.05194 8.267 3.95972 8.304C3.86749 8.3411 3.78355 8.3961 3.71277 8.4659C3.642 8.5357 3.58579 8.6188 3.54743 8.7105C3.50907 8.8022 3.48932 8.9006 3.48932 9C3.48932 9.0994 3.50907 9.1978 3.54743 9.2895C3.58579 9.3812 3.642 9.4643 3.71277 9.5341C3.78355 9.6039 3.86749 9.6589 3.95972 9.696C4.05194 9.733 4.15062 9.7514 4.25 9.75H8.75C8.8494 9.7514 8.9481 9.733 9.0403 9.696C9.1325 9.6589 9.2164 9.6039 9.2872 9.5341C9.358 9.4643 9.4142 9.3812 9.4526 9.2895C9.4909 9.1978 9.5107 9.0994 9.5107 9C9.5107 8.9006 9.4909 8.8022 9.4526 8.7105C9.4142 8.6188 9.358 8.5357 9.2872 8.4659C9.2164 8.3961 9.1325 8.3411 9.0403 8.304C8.9481 8.267 8.8494 8.2486 8.75 8.25H4.25ZM2 12.5H17V16.25C17 16.3975 16.8975 16.5 16.75 16.5H2.25C2.10248 16.5 2 16.3975 2 16.25V12.5ZM14.5 13.5C14.2348 13.5 13.9804 13.6054 13.7929 13.7929C13.6054 13.9804 13.5 14.2348 13.5 14.5C13.5 14.7652 13.6054 15.0196 13.7929 15.2071C13.9804 15.3946 14.2348 15.5 14.5 15.5C14.7652 15.5 15.0196 15.3946 15.2071 15.2071C15.3946 15.0196 15.5 14.7652 15.5 14.5C15.5 14.2348 15.3946 13.9804 15.2071 13.7929C15.0196 13.6054 14.7652 13.5 14.5 13.5ZM4.25 13.75C4.15062 13.7486 4.05194 13.767 3.95972 13.804C3.86749 13.8411 3.78355 13.8961 3.71277 13.9659C3.642 14.0357 3.58579 14.1188 3.54743 14.2105C3.50907 14.3022 3.48932 14.4006 3.48932 14.5C3.48932 14.5994 3.50907 14.6978 3.54743 14.7895C3.58579 14.8812 3.642 14.9643 3.71277 15.0341C3.78355 15.1039 3.86749 15.1589 3.95972 15.196C4.05194 15.233 4.15062 15.2514 4.25 15.25H8.75C8.8494 15.2514 8.9481 15.233 9.0403 15.196C9.1325 15.1589 9.2164 15.1039 9.2872 15.0341C9.358 14.9643 9.4142 14.8812 9.4526 14.7895C9.4909 14.6978 9.5107 14.5994 9.5107 14.5C9.5107 14.4006 9.4909 14.3022 9.4526 14.2105C9.4142 14.1188 9.358 14.0357 9.2872 13.9659C9.2164 13.8961 9.1325 13.8411 9.0403 13.804C8.9481 13.767 8.8494 13.7486 8.75 13.75H4.25Z"
        fill="currentColor"></path>
</svg>