<svg width="19" height="18" viewBox="0 0 19 18" fill="none" xmlns="http://www.w3.org/2000/svg"
    name="blockchain" class="h-8 w-8 text-white">
    <path
        d="M2.25 0C1.29252 0 0.5 0.792523 0.5 1.75V5.25C0.5 6.20748 1.29252 7 2.25 7H2.5V7.75C2.49859 7.84938 2.51696 7.94806 2.55402 8.04028C2.59108 8.13251 2.6461 8.21645 2.71588 8.28723C2.78566 8.358 2.86882 8.41421 2.96051 8.45257C3.0522 8.49093 3.15061 8.51068 3.25 8.51068C3.34939 8.51068 3.4478 8.49093 3.53949 8.45257C3.63118 8.41421 3.71434 8.358 3.78412 8.28723C3.8539 8.21645 3.90892 8.13251 3.94598 8.04028C3.98304 7.94806 4.00141 7.84938 4 7.75V7H5.75C6.70748 7 7.5 6.20748 7.5 5.25V3.5H8.25C8.34938 3.50141 8.44806 3.48304 8.54028 3.44598C8.63251 3.40892 8.71645 3.3539 8.78723 3.28412C8.858 3.21434 8.91421 3.13118 8.95257 3.03949C8.99093 2.9478 9.01068 2.84939 9.01068 2.75C9.01068 2.65061 8.99093 2.5522 8.95257 2.46051C8.91421 2.36882 8.858 2.28566 8.78723 2.21588C8.71645 2.1461 8.63251 2.09108 8.54028 2.05402C8.44806 2.01696 8.34938 1.99859 8.25 2H7.5V1.75C7.5 0.792523 6.70748 0 5.75 0H2.25ZM13.25 0C12.2925 0 11.5 0.792523 11.5 1.75V2H10.75C10.6506 1.99859 10.5519 2.01696 10.4597 2.05402C10.3675 2.09108 10.2836 2.1461 10.2128 2.21588C10.142 2.28566 10.0858 2.36882 10.0474 2.46051C10.0091 2.5522 9.98932 2.65061 9.98932 2.75C9.98932 2.84939 10.0091 2.9478 10.0474 3.03949C10.0858 3.13118 10.142 3.21434 10.2128 3.28412C10.2836 3.3539 10.3675 3.40892 10.4597 3.44598C10.5519 3.48304 10.6506 3.50141 10.75 3.5H11.5V5.25C11.5 6.20748 12.2925 7 13.25 7H15V7.75C14.9986 7.84938 15.017 7.94806 15.054 8.04028C15.0911 8.13251 15.1461 8.21645 15.2159 8.28723C15.2857 8.358 15.3688 8.41421 15.4605 8.45257C15.5522 8.49093 15.6506 8.51068 15.75 8.51068C15.8494 8.51068 15.9478 8.49093 16.0395 8.45257C16.1312 8.41421 16.2143 8.358 16.2841 8.28723C16.3539 8.21645 16.4089 8.13251 16.446 8.04028C16.483 7.94806 16.5014 7.84938 16.5 7.75V7H16.75C17.7075 7 18.5 6.20748 18.5 5.25V1.75C18.5 0.792523 17.7075 0 16.75 0H13.25ZM2.25 1.5H5.75C5.89752 1.5 6 1.60248 6 1.75V2.62695C5.98677 2.70747 5.98677 2.7896 6 2.87012V5.25C6 5.39752 5.89752 5.5 5.75 5.5H3.37305C3.32854 5.49237 3.28343 5.48877 3.23828 5.48926C3.20161 5.49016 3.16505 5.49375 3.12891 5.5H2.25C2.10248 5.5 2 5.39752 2 5.25V1.75C2 1.60248 2.10248 1.5 2.25 1.5ZM13.25 1.5H16.75C16.8975 1.5 17 1.60248 17 1.75V5.25C17 5.39752 16.8975 5.5 16.75 5.5H15.873C15.8285 5.49237 15.7834 5.48877 15.7383 5.48926C15.7016 5.49016 15.6651 5.49375 15.6289 5.5H13.25C13.1025 5.5 13 5.39752 13 5.25V2.87305C13.0132 2.79253 13.0132 2.7104 13 2.62988V1.75C13 1.60248 13.1025 1.5 13.25 1.5ZM3.23828 9.48926C3.03954 9.49236 2.85016 9.57423 2.71173 9.71686C2.5733 9.8595 2.49715 10.0513 2.5 10.25V11H2.25C1.29252 11 0.5 11.7925 0.5 12.75V16.25C0.5 17.2075 1.29252 18 2.25 18H5.75C6.70748 18 7.5 17.2075 7.5 16.25V16H8.25C8.34938 16.0014 8.44806 15.983 8.54028 15.946C8.63251 15.9089 8.71645 15.8539 8.78723 15.7841C8.858 15.7143 8.91421 15.6312 8.95257 15.5395C8.99093 15.4478 9.01068 15.3494 9.01068 15.25C9.01068 15.1506 8.99093 15.0522 8.95257 14.9605C8.91421 14.8688 8.858 14.7857 8.78723 14.7159C8.71645 14.6461 8.63251 14.5911 8.54028 14.554C8.44806 14.517 8.34938 14.4986 8.25 14.5H7.5V12.75C7.5 11.7925 6.70748 11 5.75 11H4V10.25C4.00144 10.1496 3.98271 10.05 3.94493 9.95695C3.90715 9.86394 3.85108 9.77946 3.78005 9.70852C3.70901 9.63758 3.62446 9.58161 3.5314 9.54395C3.43834 9.50629 3.33866 9.48769 3.23828 9.48926ZM15.7383 9.48926C15.5395 9.49236 15.3502 9.57423 15.2117 9.71686C15.0733 9.8595 14.9971 10.0513 15 10.25V11H13.25C12.2925 11 11.5 11.7925 11.5 12.75V14.5H10.75C10.6506 14.4986 10.5519 14.517 10.4597 14.554C10.3675 14.5911 10.2836 14.6461 10.2128 14.7159C10.142 14.7857 10.0858 14.8688 10.0474 14.9605C10.0091 15.0522 9.98932 15.1506 9.98932 15.25C9.98932 15.3494 10.0091 15.4478 10.0474 15.5395C10.0858 15.6312 10.142 15.7143 10.2128 15.7841C10.2836 15.8539 10.3675 15.9089 10.4597 15.946C10.5519 15.983 10.6506 16.0014 10.75 16H11.5V16.25C11.5 17.2075 12.2925 18 13.25 18H16.75C17.7075 18 18.5 17.2075 18.5 16.25V12.75C18.5 11.7925 17.7075 11 16.75 11H16.5V10.25C16.5014 10.1496 16.4827 10.05 16.4449 9.95695C16.4071 9.86394 16.3511 9.77946 16.28 9.70852C16.209 9.63758 16.1245 9.58161 16.0314 9.54395C15.9383 9.50629 15.8387 9.48769 15.7383 9.48926ZM2.25 12.5H3.12695C3.20747 12.5132 3.2896 12.5132 3.37012 12.5H5.75C5.89752 12.5 6 12.6025 6 12.75V15.127C5.98677 15.2075 5.98677 15.2896 6 15.3701V16.25C6 16.3975 5.89752 16.5 5.75 16.5H2.25C2.10248 16.5 2 16.3975 2 16.25V12.75C2 12.6025 2.10248 12.5 2.25 12.5ZM13.25 12.5H15.627C15.7075 12.5132 15.7896 12.5132 15.8701 12.5H16.75C16.8975 12.5 17 12.6025 17 12.75V16.25C17 16.3975 16.8975 16.5 16.75 16.5H13.25C13.1025 16.5 13 16.3975 13 16.25V15.373C13.0132 15.2925 13.0132 15.2104 13 15.1299V12.75C13 12.6025 13.1025 12.5 13.25 12.5Z"
        fill="currentColor"></path>
</svg>