<svg
    width="32"
    height="32"
    viewBox="0 0 36 36"
    fill="none"
    xmlns="http://www.w3.org/2000/svg"
    name="brain-storm"
>
    <path
        d="M10.5 2.25C10.2016 2.25 9.91548 2.36853 9.7045 2.5795C9.49353 2.79048 9.375 3.07663 9.375 3.375C9.375 3.67337 9.49353 3.95952 9.7045 4.1705C9.91548 4.38147 10.2016 4.5 10.5 4.5C10.7984 4.5 11.0845 4.38147 11.2955 4.1705C11.5065 3.95952 11.625 3.67337 11.625 3.375C11.625 3.07663 11.5065 2.79048 11.2955 2.5795C11.0845 2.36853 10.7984 2.25 10.5 2.25ZM25.5 2.25C25.2016 2.25 24.9155 2.36853 24.7045 2.5795C24.4935 2.79048 24.375 3.07663 24.375 3.375C24.375 3.67337 24.4935 3.95952 24.7045 4.1705C24.9155 4.38147 25.2016 4.5 25.5 4.5C25.7984 4.5 26.0845 4.38147 26.2955 4.1705C26.5065 3.95952 26.625 3.67337 26.625 3.375C26.625 3.07663 26.5065 2.79048 26.2955 2.5795C26.0845 2.36853 25.7984 2.25 25.5 2.25ZM6.375 3.1875C6.07663 3.1875 5.79048 3.30603 5.5795 3.517C5.36853 3.72798 5.25 4.01413 5.25 4.3125C5.25 4.61087 5.36853 4.89702 5.5795 5.108C5.79048 5.31897 6.07663 5.4375 6.375 5.4375C6.67337 5.4375 6.95952 5.31897 7.1705 5.108C7.38147 4.89702 7.5 4.61087 7.5 4.3125C7.5 4.01413 7.38147 3.72798 7.1705 3.517C6.95952 3.30603 6.67337 3.1875 6.375 3.1875ZM14.625 3.1875C14.3266 3.1875 14.0405 3.30603 13.8295 3.517C13.6185 3.72798 13.5 4.01413 13.5 4.3125C13.5 4.61087 13.6185 4.89702 13.8295 5.108C14.0405 5.31897 14.3266 5.4375 14.625 5.4375C14.9234 5.4375 15.2095 5.31897 15.4205 5.108C15.6315 4.89702 15.75 4.61087 15.75 4.3125C15.75 4.01413 15.6315 3.72798 15.4205 3.517C15.2095 3.30603 14.9234 3.1875 14.625 3.1875ZM21.375 3.1875C21.0766 3.1875 20.7905 3.30603 20.5795 3.517C20.3685 3.72798 20.25 4.01413 20.25 4.3125C20.25 4.61087 20.3685 4.89702 20.5795 5.108C20.7905 5.31897 21.0766 5.4375 21.375 5.4375C21.6734 5.4375 21.9595 5.31897 22.1705 5.108C22.3815 4.89702 22.5 4.61087 22.5 4.3125C22.5 4.01413 22.3815 3.72798 22.1705 3.517C21.9595 3.30603 21.6734 3.1875 21.375 3.1875ZM29.625 3.1875C29.3266 3.1875 29.0405 3.30603 28.8295 3.517C28.6185 3.72798 28.5 4.01413 28.5 4.3125C28.5 4.61087 28.6185 4.89702 28.8295 5.108C29.0405 5.31897 29.3266 5.4375 29.625 5.4375C29.9234 5.4375 30.2095 5.31897 30.4205 5.108C30.6315 4.89702 30.75 4.61087 30.75 4.3125C30.75 4.01413 30.6315 3.72798 30.4205 3.517C30.2095 3.30603 29.9234 3.1875 29.625 3.1875ZM3 6C2.70163 6 2.41548 6.11853 2.2045 6.3295C1.99353 6.54048 1.875 6.82663 1.875 7.125C1.875 7.42337 1.99353 7.70952 2.2045 7.9205C2.41548 8.13147 2.70163 8.25 3 8.25C3.29837 8.25 3.58452 8.13147 3.7955 7.9205C4.00647 7.70952 4.125 7.42337 4.125 7.125C4.125 6.82663 4.00647 6.54048 3.7955 6.3295C3.58452 6.11853 3.29837 6 3 6ZM18 6C17.7016 6 17.4155 6.11853 17.2045 6.3295C16.9935 6.54048 16.875 6.82663 16.875 7.125C16.875 7.42337 16.9935 7.70952 17.2045 7.9205C17.4155 8.13147 17.7016 8.25 18 8.25C18.2984 8.25 18.5845 8.13147 18.7955 7.9205C19.0065 7.70952 19.125 7.42337 19.125 7.125C19.125 6.82663 19.0065 6.54048 18.7955 6.3295C18.5845 6.11853 18.2984 6 18 6ZM33 6C32.7016 6 32.4155 6.11853 32.2045 6.3295C31.9935 6.54048 31.875 6.82663 31.875 7.125C31.875 7.42337 31.9935 7.70952 32.2045 7.9205C32.4155 8.13147 32.7016 8.25 33 8.25C33.2984 8.25 33.5845 8.13147 33.7955 7.9205C34.0065 7.70952 34.125 7.42337 34.125 7.125C34.125 6.82663 34.0065 6.54048 33.7955 6.3295C33.5845 6.11853 33.2984 6 33 6ZM10.5 6.75439C7.20098 6.75439 4.5 9.44993 4.5 12.75C4.5 14.4487 5.21488 15.9931 6.35449 17.083H6.35303C6.43456 17.1612 6.4568 17.2164 6.46143 17.2354L7.43994 21.2476C7.72572 22.4168 8.78626 23.25 9.99023 23.25H10.5H11.0098C12.2137 23.25 13.2752 22.417 13.5601 21.2461L14.5386 17.2339C14.5434 17.2141 14.5655 17.1609 14.6455 17.0845C14.6455 17.084 14.6455 17.0835 14.6455 17.083C15.7851 15.9932 16.5 14.4487 16.5 12.75C16.5 9.44993 13.799 6.75439 10.5 6.75439ZM25.5 6.75439C22.2014 6.75531 19.5 9.44993 19.5 12.75C19.5 14.4487 20.2149 15.9931 21.3545 17.083H21.353C21.4346 17.1612 21.4568 17.2164 21.4614 17.2354L22.4399 21.2476C22.7258 22.4168 23.7863 23.25 24.9902 23.25H25.5H26.0098C27.2137 23.25 28.2752 22.417 28.5601 21.2461L29.5386 17.2339C29.5434 17.2141 29.5655 17.1609 29.6455 17.0845C29.6455 17.084 29.6455 17.0835 29.6455 17.083C30.7851 15.9932 31.5 14.4487 31.5 12.75C31.5 9.44993 28.799 6.75439 25.5 6.75439ZM10.5 9.00439C12.5845 9.00439 14.25 10.6666 14.25 12.75C14.25 13.8218 13.8072 14.7724 13.0913 15.457C12.7698 15.7641 12.4805 16.18 12.353 16.7007L11.8521 18.75H9.14795L8.64697 16.7007C8.51959 16.1796 8.23062 15.7658 7.91016 15.4585C7.90967 15.458 7.90918 15.4575 7.90869 15.457C7.19283 14.7724 6.75 13.8218 6.75 12.75C6.75 10.6666 8.41552 9.00439 10.5 9.00439ZM25.5 9.00439C27.5845 9.00439 29.25 10.6666 29.25 12.75C29.25 13.8218 28.8072 14.7724 28.0913 15.457C27.7698 15.7641 27.4805 16.18 27.353 16.7007L26.8521 18.75H24.1479L23.647 16.7007C23.5196 16.1796 23.2306 15.7658 22.9102 15.4585C22.9097 15.458 22.9092 15.4575 22.9087 15.457C22.1928 14.7724 21.75 13.8218 21.75 12.75C21.75 10.6666 23.4151 9.00498 25.5 9.00439ZM6.375 24.75C4.93878 24.75 3.75 25.9388 3.75 27.375V29.25C3.75 30.6886 4.70994 31.8609 5.94434 32.6016C7.17873 33.3422 8.76432 33.75 10.5 33.75C12.2357 33.75 13.8213 33.3422 15.0557 32.6016C16.2901 31.8609 17.25 30.6886 17.25 29.25V27.375C17.25 25.9388 16.0612 24.75 14.625 24.75H6.375ZM21.375 24.75C19.9388 24.75 18.75 25.9388 18.75 27.375V29.25C18.75 30.6886 19.7099 31.8609 20.9443 32.6016C22.1787 33.3422 23.7643 33.75 25.5 33.75C27.2357 33.75 28.8213 33.3422 30.0557 32.6016C31.2901 31.8609 32.25 30.6886 32.25 29.25V27.375C32.25 25.9388 31.0612 24.75 29.625 24.75H21.375ZM6.375 27H14.625C14.8463 27 15 27.1537 15 27.375V29.25C15 29.6751 14.6999 30.1915 13.8984 30.6724C13.097 31.1533 11.8708 31.5 10.5 31.5C9.12918 31.5 7.90304 31.1533 7.10156 30.6724C6.30008 30.1915 6 29.6751 6 29.25V27.375C6 27.1537 6.15372 27 6.375 27ZM21.375 27H29.625C29.8463 27 30 27.1537 30 27.375V29.25C30 29.6751 29.6999 30.1915 28.8984 30.6724C28.097 31.1533 26.8708 31.5 25.5 31.5C24.1292 31.5 22.903 31.1533 22.1016 30.6724C21.3001 30.1915 21 29.6751 21 29.25V27.375C21 27.1537 21.1537 27 21.375 27Z"
        fill="currentColor"
    ></path>
</svg>