<svg width="24" height="24" viewBox="0 0 24 24" fill="none" xmlns="http://www.w3.org/2000/svg"
    name="brain" class="mr-2 hidden h-8 w-8 text-primary 4sm:block lg:h-12 lg:w-[48px]">
    <path
        d="M9.54627 1.46385C9.3551 1.4588 9.15447 1.46534 8.95056 1.49217C8.54275 1.54584 8.12033 1.68139 7.72888 1.96776C7.05146 2.46333 6.68957 3.41902 6.58728 4.70116C6.05397 4.87745 4.865 5.31415 3.68494 6.38182C2.94455 7.0517 2.28089 7.96348 2.08142 9.13182C1.89018 10.252 2.18342 11.5599 3.03943 12.9765C2.86864 13.5126 2.75037 14.0927 2.75037 14.75C2.75037 16.9844 3.86824 18.3966 4.95935 19.124C5.6282 19.5699 6.19917 19.7591 6.61951 19.8672C6.75231 20.8035 7.09169 21.5679 7.6908 21.9658C8.42731 22.4549 9.26052 22.4934 9.99353 22.5C10.6919 22.5063 11.3662 22.3168 11.891 21.8896C11.9327 21.8557 11.9709 21.8174 12.0101 21.7803C12.0494 21.8174 12.0876 21.8557 12.1293 21.8896C12.6541 22.3168 13.3283 22.5063 14.0267 22.5C14.7597 22.4934 15.5939 22.4549 16.3304 21.9658C16.9296 21.5679 17.268 20.8035 17.4008 19.8672C17.8211 19.7591 18.3921 19.5699 19.0609 19.124C20.152 18.3966 21.2699 16.9844 21.2699 14.75C21.2699 14.0923 21.1528 13.5119 20.9818 12.9756C21.8372 11.5594 22.131 10.2516 21.9398 9.13182C21.7403 7.96348 21.0767 7.0517 20.3363 6.38182C19.157 5.31485 17.9681 4.87879 17.434 4.70213C17.3318 3.41936 16.969 2.46348 16.2914 1.96776C15.8999 1.68139 15.4775 1.54584 15.0697 1.49217C14.6619 1.43851 14.2683 1.46628 13.934 1.50487C13.2757 1.58114 12.6485 1.85432 12.1488 2.29491C12.099 2.33879 12.0573 2.39353 12.0101 2.44139C11.963 2.39353 11.9212 2.33879 11.8715 2.29491C11.3717 1.85432 10.7445 1.58114 10.0863 1.50487C9.91915 1.48557 9.73743 1.46891 9.54627 1.46385ZM9.52478 2.96776C9.64919 2.97017 9.77946 2.97952 9.91443 2.9951C10.2572 3.03483 10.6293 3.19949 10.8793 3.41991C11.1293 3.64032 11.2504 3.87754 11.2504 4.13377V20.0234C11.2504 20.3811 11.1415 20.5664 10.9447 20.7265C10.7479 20.8867 10.4223 21.0037 10.0072 21C9.35321 20.9941 8.81163 20.9105 8.5199 20.7168C8.22816 20.523 8.00037 20.2269 8.00037 19.25C8.0003 19.0684 7.93435 18.8929 7.81473 18.7563C7.69512 18.6196 7.52999 18.531 7.34998 18.5068C7.34998 18.5068 6.57527 18.3986 5.79138 17.876C5.00749 17.3534 4.25037 16.5156 4.25037 14.75C4.25037 12.9844 5.02793 12.0753 5.83435 11.7617C6.64077 11.4481 7.52138 11.66 8.10681 12.6357C8.15746 12.7203 8.22426 12.794 8.3034 12.8527C8.38254 12.9114 8.47248 12.954 8.56807 12.9779C8.66366 13.0019 8.76304 13.0068 8.86052 12.9923C8.958 12.9779 9.05168 12.9444 9.1362 12.8937C9.22073 12.843 9.29445 12.7762 9.35315 12.6971C9.41184 12.6179 9.45437 12.528 9.47831 12.4324C9.50224 12.3368 9.5071 12.2374 9.49262 12.1399C9.47815 12.0424 9.44461 11.9488 9.39392 11.8642C8.47936 10.34 6.73496 9.80188 5.29138 10.3633C4.7771 10.5633 4.33514 10.935 3.94275 11.3789C3.61895 10.6044 3.46853 9.91913 3.55994 9.38378C3.68859 8.63024 4.11869 8.01077 4.6908 7.49315C5.83502 6.4579 7.45642 5.97069 7.45642 5.97069C7.61305 5.92592 7.75085 5.83138 7.84899 5.70135C7.94712 5.57133 8.00026 5.41289 8.00037 5.24999C8.00037 3.87844 8.32464 3.38986 8.61462 3.17772C8.75962 3.07165 8.95016 3.01039 9.17127 2.98338C9.28182 2.96988 9.40037 2.96535 9.52478 2.96776ZM14.4965 2.96776C14.6209 2.96535 14.7394 2.96988 14.85 2.98338C15.0711 3.01039 15.2606 3.07165 15.4056 3.17772C15.6956 3.38986 16.0199 3.87844 16.0199 5.24999C16.02 5.41289 16.0731 5.57133 16.1713 5.70135C16.2694 5.83138 16.4072 5.92592 16.5638 5.97069C16.5638 5.97069 18.1852 6.4579 19.3295 7.49315C19.9016 8.01077 20.3317 8.63024 20.4603 9.38378C20.5517 9.91913 20.4023 10.6044 20.0785 11.3789C19.6861 10.9349 19.2442 10.5633 18.7299 10.3633C17.2863 9.80188 15.5419 10.34 14.6273 11.8642C14.574 11.9488 14.5381 12.0431 14.5218 12.1416C14.5054 12.2402 14.509 12.341 14.5321 12.4382C14.5553 12.5354 14.5976 12.627 14.6567 12.7076C14.7157 12.7882 14.7902 12.8562 14.8759 12.9076C14.9616 12.959 15.0567 12.9927 15.1556 13.0069C15.2545 13.021 15.3552 13.0153 15.4519 12.9899C15.5485 12.9646 15.6391 12.9202 15.7184 12.8594C15.7977 12.7986 15.864 12.7225 15.9135 12.6357C16.4989 11.66 17.3795 11.4481 18.1859 11.7617C18.9923 12.0753 19.7699 12.9844 19.7699 14.75C19.7699 16.5156 19.0128 17.3534 18.2289 17.876C17.445 18.3986 16.6713 18.5068 16.6713 18.5068C16.4911 18.5307 16.3257 18.6193 16.2059 18.756C16.0861 18.8927 16.02 19.0682 16.0199 19.25C16.0199 20.2269 15.7921 20.523 15.5004 20.7168C15.2086 20.9105 14.668 20.9941 14.014 21C13.5989 21.0037 13.2733 20.8867 13.0765 20.7265C12.8797 20.5664 12.7699 20.3811 12.7699 20.0234V4.13377C12.7699 3.87754 12.891 3.64032 13.141 3.41991C13.391 3.19949 13.764 3.03483 14.1068 2.9951C14.2418 2.97952 14.372 2.97017 14.4965 2.96776ZM9.52771 5.99022C9.41043 5.98556 9.29369 6.00849 9.18688 6.05716C9.08008 6.10584 8.98618 6.1789 8.91276 6.27047C8.83933 6.36204 8.78842 6.46957 8.76411 6.5844C8.73981 6.69923 8.74279 6.81816 8.77283 6.93163C8.77283 6.93163 8.82702 7.24284 8.73572 7.48631C8.64442 7.72979 8.55037 7.99999 7.50037 7.99999C7.40098 7.99858 7.30231 8.01694 7.21008 8.054C7.11786 8.09106 7.03392 8.14608 6.96314 8.21587C6.89236 8.28565 6.83616 8.3688 6.7978 8.4605C6.75944 8.55219 6.73969 8.65059 6.73969 8.74999C6.73969 8.84938 6.75944 8.94778 6.7978 9.03948C6.83616 9.13117 6.89236 9.21432 6.96314 9.28411C7.03392 9.35389 7.11786 9.40891 7.21008 9.44597C7.30231 9.48303 7.40098 9.50139 7.50037 9.49999C8.95037 9.49999 9.85632 8.77019 10.14 8.01366C10.4237 7.25713 10.2279 6.56835 10.2279 6.56835C10.1904 6.40869 10.1017 6.26571 9.97523 6.16129C9.84877 6.05688 9.69157 5.99679 9.52771 5.99022ZM14.5453 5.99022C14.3724 5.98497 14.2029 6.03966 14.0657 6.14502C13.9285 6.25038 13.8319 6.39993 13.7924 6.56835C13.7924 6.56835 13.5966 7.25713 13.8802 8.01366C14.1639 8.77019 15.0699 9.49999 16.5199 9.49999C16.6193 9.50139 16.718 9.48303 16.8102 9.44597C16.9024 9.40891 16.9863 9.35389 17.0571 9.28411C17.1279 9.21432 17.1841 9.13117 17.2225 9.03948C17.2608 8.94778 17.2806 8.84938 17.2806 8.74999C17.2806 8.65059 17.2608 8.55219 17.2225 8.4605C17.1841 8.3688 17.1279 8.28565 17.0571 8.21587C16.9863 8.14608 16.9024 8.09106 16.8102 8.054C16.718 8.01694 16.6193 7.99858 16.5199 7.99999C15.4699 7.99999 15.3768 7.72979 15.2855 7.48631C15.1942 7.24284 15.2484 6.93163 15.2484 6.93163C15.2773 6.8224 15.2811 6.70807 15.2596 6.59716C15.2381 6.48625 15.1918 6.38164 15.1242 6.29112C15.0566 6.20061 14.9694 6.12654 14.8692 6.07443C14.7689 6.02233 14.6582 5.99354 14.5453 5.99022ZM7.53943 14.4687C7.25614 14.4713 7.06873 14.5224 7.06873 14.5224C6.97119 14.5444 6.87903 14.5856 6.79765 14.6437C6.71628 14.7018 6.64733 14.7755 6.59487 14.8606C6.54241 14.9457 6.5075 15.0405 6.49218 15.1393C6.47685 15.2381 6.48143 15.3389 6.50565 15.4359C6.52987 15.5329 6.57323 15.6241 6.63319 15.7041C6.69315 15.7841 6.7685 15.8513 6.8548 15.9017C6.94111 15.9522 7.03663 15.9849 7.13575 15.9979C7.23488 16.0109 7.3356 16.004 7.43201 15.9775C7.43201 15.9775 7.68373 15.93 7.91541 16.0459C8.14708 16.1617 8.50037 16.4167 8.50037 17.75C8.49896 17.8494 8.51732 17.948 8.55438 18.0403C8.59144 18.1325 8.64646 18.2164 8.71625 18.2872C8.78603 18.358 8.86918 18.4142 8.96088 18.4526C9.05257 18.4909 9.15097 18.5107 9.25037 18.5107C9.34976 18.5107 9.44816 18.4909 9.53986 18.4526C9.63155 18.4142 9.7147 18.358 9.78449 18.2872C9.85427 18.2164 9.90929 18.1325 9.94635 18.0403C9.98341 17.948 10.0018 17.8494 10.0004 17.75C10.0004 16.0833 9.35366 15.0883 8.58533 14.7041C8.20116 14.512 7.82272 14.4662 7.53943 14.4687ZM16.4818 14.4687C16.1985 14.4662 15.8191 14.512 15.4349 14.7041C14.6666 15.0883 14.0199 16.0833 14.0199 17.75C14.0185 17.8494 14.0369 17.948 14.0739 18.0403C14.111 18.1325 14.166 18.2164 14.2358 18.2872C14.3056 18.358 14.3887 18.4142 14.4804 18.4526C14.5721 18.4909 14.6705 18.5107 14.7699 18.5107C14.8693 18.5107 14.9677 18.4909 15.0594 18.4526C15.1511 18.4142 15.2342 18.358 15.304 18.2872C15.3738 18.2164 15.4288 18.1325 15.4659 18.0403C15.5029 17.948 15.5213 17.8494 15.5199 17.75C15.5199 16.4167 15.8742 16.1617 16.1058 16.0459C16.3375 15.93 16.5883 15.9775 16.5883 15.9775C16.6844 16.0031 16.7846 16.0094 16.8831 15.9959C16.9817 15.9824 17.0765 15.9494 17.1622 15.8989C17.2479 15.8484 17.3227 15.7814 17.3822 15.7017C17.4418 15.6221 17.4849 15.5314 17.509 15.4349C17.5332 15.3384 17.5379 15.2381 17.5229 15.1398C17.5079 15.0415 17.4735 14.9471 17.4218 14.8622C17.37 14.7773 17.3018 14.7035 17.2213 14.6452C17.1407 14.5869 17.0493 14.5451 16.9525 14.5224C16.9525 14.5224 16.7651 14.4713 16.4818 14.4687Z"
        fill="currentColor"></path>
</svg>