<svg width="406" height="306" viewBox="0 0 406 306" fill="none" xmlns="http://www.w3.org/2000/svg">
<path d="M166.165 209.84L163.12 219.99L192.139 219.513C190.576 212.743 177.239 209.85 177.239 209.85L166.165 209.84Z" fill="white"/>
<path d="M163.172 220.457C163.093 220.456 163.016 220.438 162.945 220.402C162.875 220.367 162.813 220.316 162.766 220.254C162.72 220.19 162.69 220.117 162.676 220.04C162.662 219.963 162.665 219.883 162.684 219.807L165.679 209.657C165.708 209.551 165.772 209.458 165.86 209.391C165.948 209.325 166.056 209.29 166.166 209.292H177.392C177.95 209.414 191.074 212.337 192.688 219.33C192.705 219.404 192.704 219.481 192.687 219.555C192.669 219.629 192.635 219.698 192.586 219.757C192.541 219.817 192.483 219.866 192.416 219.901C192.349 219.936 192.276 219.956 192.201 219.96L163.182 220.437L163.172 220.457ZM166.541 210.307L163.852 219.442L191.521 218.985C189.491 213.23 178.102 210.52 177.229 210.327L166.541 210.307Z" fill="#303C42"/>
<path d="M196.778 124.438C197.083 124.438 203.01 122.469 203.01 122.469C203.01 122.469 206.38 116.237 207.304 117.262C207.831 117.806 208.122 118.535 208.116 119.292C208.116 119.292 210.461 116.643 211.384 117.861C212.308 119.079 214.429 125.524 212.511 126.742C210.592 127.96 197.499 133.197 197.499 133.197L196.778 124.438Z" fill="white"/>
<path d="M197.499 133.715C197.372 133.711 197.251 133.661 197.158 133.576C197.065 133.49 197.006 133.374 196.991 133.248L196.281 124.478C196.273 124.413 196.279 124.347 196.298 124.284C196.317 124.221 196.349 124.163 196.392 124.113C196.432 124.064 196.481 124.023 196.537 123.993C196.593 123.964 196.654 123.946 196.717 123.94C197.093 123.859 200.472 122.763 202.665 122.052C203.599 120.337 205.71 116.795 206.938 116.653C207.075 116.631 207.214 116.646 207.344 116.693C207.474 116.741 207.589 116.822 207.679 116.927C208.028 117.308 208.294 117.757 208.461 118.246C209.078 117.591 209.902 117.168 210.795 117.048C210.993 117.048 211.189 117.095 211.365 117.185C211.542 117.275 211.694 117.406 211.81 117.566C212.602 118.581 214.195 123.108 213.739 125.585C213.701 125.903 213.598 126.21 213.436 126.486C213.273 126.762 213.055 127.001 212.795 127.188C210.836 128.416 198.239 133.461 197.712 133.674C197.645 133.705 197.572 133.719 197.499 133.715ZM197.326 124.823L197.945 132.476C200.594 131.411 210.602 127.401 212.236 126.326C212.374 126.211 212.488 126.071 212.572 125.912C212.656 125.754 212.707 125.58 212.724 125.402C213.119 123.26 211.648 119.078 210.978 118.175C210.954 118.138 210.921 118.108 210.881 118.089C210.842 118.069 210.798 118.06 210.754 118.063C210.206 118.063 209.09 118.967 208.501 119.637C208.429 119.718 208.334 119.774 208.228 119.797C208.122 119.821 208.012 119.811 207.912 119.769C207.813 119.726 207.73 119.653 207.675 119.56C207.621 119.467 207.597 119.359 207.608 119.251C207.606 118.668 207.385 118.106 206.989 117.678C206.4 117.952 204.827 120.185 203.457 122.753C203.395 122.864 203.293 122.948 203.172 122.986C200.97 123.666 198.402 124.509 197.326 124.823Z" fill="#303C42"/>
<path d="M89.706 240.422C89.706 240.422 84.3468 252.673 84.631 254.815C84.9152 256.956 97.6535 261.168 97.6535 261.168L112.239 261.554C111.278 259.811 109.985 258.273 108.433 257.027C105.104 254.49 102.079 252.49 101.774 251.597C101.297 249.32 100.941 247.02 100.709 244.705L89.706 240.422Z" fill="white"/>
<path d="M112.259 262.062L97.6731 261.676H97.5208C94.4758 260.661 84.4781 257.19 84.1533 254.906C83.8285 252.622 88.6903 241.508 89.2283 240.239C89.2818 240.12 89.3792 240.026 89.5001 239.977C89.6211 239.928 89.7564 239.927 89.8779 239.976L100.901 244.249C100.986 244.285 101.06 244.342 101.117 244.415C101.173 244.488 101.211 244.574 101.226 244.665C101.443 246.948 101.781 249.218 102.241 251.465C102.413 251.973 104.352 253.404 106.24 254.795C107.011 255.363 107.854 255.982 108.716 256.642C110.369 257.954 111.731 259.596 112.715 261.463C112.732 261.539 112.732 261.617 112.714 261.693C112.697 261.768 112.662 261.839 112.614 261.9C112.52 261.996 112.393 262.054 112.259 262.062ZM97.7644 260.661L111.396 261.016C110.491 259.672 109.397 258.466 108.148 257.434C107.285 256.774 106.453 256.165 105.671 255.586C102.91 253.556 101.611 252.541 101.317 251.76C100.844 249.553 100.505 247.319 100.302 245.071L90.0098 241.072C87.9798 245.802 84.9348 253.333 85.1886 254.744C85.3104 255.87 91.8064 258.692 97.7644 260.661Z" fill="#303C42"/>
<path d="M159.223 99.418C159.223 99.418 175.757 129.716 178.203 129.107C180.649 128.498 198.219 122.682 198.219 122.682L201.325 133.207C201.325 133.207 179.868 150.868 174.123 147.194C165.079 141.409 159.223 125.229 159.223 125.229V99.418Z" fill="#FF5100"/>
<path d="M92.2428 159.8C92.2428 159.8 91.1162 162.845 90.5579 165.048C90.1934 167.135 90.0539 169.255 90.1418 171.371C89.5429 170.783 88.6599 170.701 88.0407 170.194C88.0632 171.107 87.9294 172.016 87.6449 172.884C87.5 173.317 87.2484 173.707 86.9131 174.017C86.5778 174.328 86.1697 174.549 85.7265 174.66C85.2477 174.727 84.76 174.693 84.2954 174.558C82.5902 174.183 79.7583 173.442 79.2204 171.513C79.08 170.742 79.161 169.947 79.4538 169.219C80.4688 166.174 85.3713 157.973 86.1833 156.654" fill="white"/>
<path d="M85.311 175.208C84.9309 175.2 84.553 175.148 84.1844 175.056C82.7431 174.731 79.3733 173.98 78.7237 171.615C78.5544 170.75 78.6391 169.855 78.9673 169.037C80.0635 165.637 85.6866 156.441 85.7475 156.349C85.8188 156.235 85.9327 156.153 86.064 156.123C86.1953 156.093 86.3334 156.116 86.4478 156.187C86.5622 156.258 86.6436 156.372 86.6741 156.503C86.7045 156.635 86.6816 156.773 86.6102 156.887C85.1588 159.242 80.8146 166.591 79.9315 169.341C79.6673 169.983 79.5899 170.687 79.7082 171.371C80.1345 172.945 82.4487 173.645 84.4077 174.081C84.8054 174.201 85.2239 174.236 85.6358 174.183C85.9926 174.083 86.3196 173.898 86.5885 173.643C86.8574 173.389 87.06 173.072 87.1786 172.721C87.4312 171.903 87.5511 171.05 87.5339 170.194C87.5374 170.098 87.5678 170.006 87.6217 169.927C87.6756 169.848 87.7507 169.785 87.8384 169.747C87.9245 169.71 88.0191 169.697 88.1121 169.71C88.2051 169.722 88.2929 169.76 88.3662 169.818C88.6259 170.012 88.9133 170.166 89.2188 170.275L89.6045 170.437C89.6 168.597 89.7528 166.76 90.0612 164.946C90.6195 162.713 91.7258 159.77 91.7664 159.648C91.789 159.585 91.8238 159.528 91.8689 159.479C91.914 159.43 91.9685 159.391 92.029 159.364C92.0896 159.336 92.155 159.321 92.2215 159.319C92.288 159.318 92.3541 159.329 92.416 159.354C92.5425 159.399 92.6456 159.494 92.7027 159.615C92.7598 159.737 92.7662 159.877 92.7205 160.003C92.7205 160.003 91.5939 163.048 91.0458 165.19C90.7028 167.231 90.5701 169.303 90.6499 171.371C90.6555 171.437 90.6476 171.504 90.6267 171.566C90.6057 171.629 90.5722 171.687 90.5281 171.737C90.4428 171.829 90.3267 171.887 90.2015 171.9C90.0763 171.914 89.9507 171.881 89.8481 171.808H89.7872C89.5047 171.564 89.1771 171.377 88.8229 171.26L88.5184 171.128C88.4878 171.82 88.3544 172.504 88.1226 173.158C87.9443 173.669 87.6411 174.129 87.2406 174.494C86.8401 174.859 86.3548 175.118 85.8287 175.249C85.6551 175.255 85.4814 175.241 85.311 175.208Z" fill="#303C42"/>
<path d="M129.007 118.267C128.144 118.744 96.9021 156.085 92.6695 163.586L82.5195 158.582C82.5195 158.582 92.9334 135.582 116.979 106.056C127.372 99.3774 129.007 118.267 129.007 118.267Z" fill="#FF5100"/>
<path d="M157.842 147.194C157.842 147.194 190.322 160.602 191.134 167.301C191.946 174 180.274 209.84 180.274 209.84H163.273C163.273 209.84 170.083 181.055 168.277 179.654C166.47 178.253 140.161 171.392 140.161 171.392L102.444 246.989L86.6807 242.736L114.086 151.447L157.842 147.194Z" fill="#303C42"/>
<path d="M102.443 247.466H102.312L86.5486 243.243C86.4182 243.203 86.3084 243.114 86.2422 242.995C86.176 242.876 86.1585 242.736 86.1933 242.604L113.598 151.315C113.629 151.22 113.687 151.136 113.764 151.073C113.841 151.01 113.936 150.971 114.035 150.96L157.751 146.717C157.831 146.697 157.914 146.697 157.994 146.717C159.334 147.265 190.789 160.318 191.591 167.23C192.372 173.96 181.187 208.49 180.71 209.951C180.681 210.054 180.618 210.144 180.531 210.206C180.445 210.269 180.34 210.301 180.233 210.297H163.272C163.197 210.299 163.122 210.284 163.053 210.252C162.984 210.22 162.924 210.173 162.877 210.114C162.83 210.053 162.797 209.982 162.781 209.906C162.766 209.83 162.767 209.752 162.785 209.677C166.003 196.076 168.814 181.257 167.941 179.979C166.723 179.035 150.971 174.701 140.425 171.95L102.87 247.172C102.833 247.255 102.773 247.327 102.698 247.379C102.623 247.431 102.535 247.461 102.443 247.466ZM87.3098 242.391L102.18 246.38L139.735 171.148C139.787 171.045 139.872 170.962 139.977 170.914C140.083 170.866 140.201 170.856 140.313 170.884C143.023 171.595 166.784 177.806 168.621 179.227C170.459 180.648 166.074 200.248 163.942 209.312H179.939C181.136 205.597 191.368 173.533 190.657 167.362C190.058 162.135 166.845 151.457 157.791 147.722L114.542 151.924L87.3098 242.391Z" fill="#303C42"/>
<path d="M157.843 147.194L120.938 154.015L130.072 99.4994C130.072 99.4994 135.645 95.5003 140.162 95.5206C145.551 95.5206 150.149 99.6821 151.956 100.717C155.295 102.666 157.843 147.194 157.843 147.194Z" fill="white"/>
<path d="M120.937 154.563C120.8 154.563 120.668 154.508 120.571 154.411C120.514 154.353 120.471 154.282 120.446 154.205C120.421 154.127 120.415 154.044 120.429 153.964L129.564 99.4585C129.575 99.3937 129.598 99.3316 129.633 99.2758C129.668 99.2201 129.714 99.1718 129.767 99.1337C130.001 98.9612 135.492 95.0737 140.11 95.0737C144.586 95.0737 148.484 97.8244 150.818 99.4484C151.346 99.8239 151.833 100.149 152.148 100.342C155.528 102.29 157.832 139.703 158.238 147.184C158.245 147.307 158.207 147.429 158.13 147.526C158.053 147.624 157.944 147.69 157.822 147.712L120.917 154.573L120.937 154.563ZM130.569 99.8341L121.556 153.426L157.325 146.778C156.31 129.634 153.975 102.483 151.752 101.204C151.377 100.981 150.9 100.646 150.341 100.26C148.119 98.7074 144.383 96.0887 140.191 96.0684C136.284 96.0684 131.523 99.2048 130.569 99.8341Z" fill="#303C42"/>
<path d="M136.355 95.7744C135.806 96.1297 137.37 104.067 137.502 104.777C138.334 111.476 139.471 118.277 140.069 124.956C140.648 131.381 138.131 138.232 136.903 144.535C135.502 151.758 133.289 158.8 130.305 165.525C129.199 168.012 127.869 170.6 125.565 172.011C123.769 172.992 121.765 173.531 119.719 173.584C116.264 173.875 112.787 173.811 109.345 173.391C108.021 173.288 106.732 172.911 105.559 172.285C103.205 170.854 102.352 167.728 102.799 165.008C103.509 160.755 106.29 156.685 107.549 152.482C108.812 148.054 109.748 143.538 110.35 138.973C111.7 129.675 112.147 120.287 113.395 110.979C119.201 99.4183 126.225 100.007 136.355 95.7744Z" fill="#FF5100"/>
<path d="M159.223 99.418C159.447 99.4688 163.009 113.019 163.08 113.943C163.974 124.417 159.65 133.593 164.989 143.54C167.019 147.306 169.607 150.747 171.637 154.512C171.918 154.93 172.047 155.432 172.002 155.933C171.899 156.219 171.738 156.48 171.531 156.702C171.323 156.923 171.072 157.1 170.794 157.222C166.602 159.75 161.599 162.175 157.011 160.46C155.59 159.85 154.31 158.955 153.248 157.831C152.187 156.707 151.367 155.377 150.84 153.924C149.798 151.016 149.213 147.966 149.104 144.88C148.018 131.137 149.317 117.556 147.977 103.884C147.977 103.529 146.962 95.5813 146.8 95.561C150.821 97.2064 154.978 98.497 159.223 99.418Z" fill="#FF5100"/>
<path d="M134.619 123.321C134.539 123.321 134.461 123.302 134.39 123.264C134.32 123.227 134.259 123.174 134.213 123.108L127.108 113.445C127.03 113.354 126.986 113.237 126.986 113.116C126.986 112.995 127.03 112.878 127.108 112.786L131.371 108.391L126.053 107.01C125.968 106.986 125.891 106.941 125.829 106.879C125.767 106.817 125.722 106.74 125.697 106.655C125.674 106.57 125.673 106.481 125.694 106.395C125.715 106.31 125.758 106.232 125.819 106.168L132.366 99.205C132.412 99.1564 132.467 99.1172 132.528 99.0899C132.589 99.0625 132.655 99.0475 132.722 99.0456C132.789 99.0437 132.856 99.055 132.918 99.0789C132.981 99.1028 133.038 99.1387 133.087 99.1847C133.135 99.2307 133.174 99.2858 133.202 99.3469C133.229 99.408 133.244 99.4739 133.246 99.5408C133.248 99.6077 133.237 99.6744 133.213 99.7369C133.189 99.7995 133.153 99.8567 133.107 99.9054L127.179 106.249L132.508 107.64C132.594 107.664 132.672 107.709 132.736 107.771C132.799 107.833 132.847 107.91 132.874 107.995C132.896 108.081 132.896 108.171 132.872 108.256C132.849 108.342 132.804 108.419 132.742 108.482L128.184 113.202L134.995 122.55C135.072 122.66 135.103 122.795 135.083 122.928C135.062 123.06 134.99 123.18 134.883 123.261C134.803 123.306 134.711 123.327 134.619 123.321Z" fill="#303C42"/>
<path d="M114.989 157.121C114.89 157.121 114.793 157.093 114.71 157.039C114.627 156.984 114.562 156.907 114.522 156.816C114.474 156.691 114.476 156.552 114.527 156.427C114.578 156.303 114.674 156.202 114.797 156.147C119.019 154.411 126.682 151.011 126.763 150.98C126.825 150.953 126.891 150.939 126.958 150.938C127.024 150.936 127.091 150.948 127.153 150.973C127.216 150.997 127.272 151.034 127.32 151.081C127.368 151.127 127.407 151.183 127.433 151.244C127.46 151.305 127.474 151.37 127.475 151.436C127.477 151.502 127.465 151.568 127.44 151.629C127.415 151.691 127.379 151.747 127.332 151.794C127.286 151.841 127.23 151.878 127.169 151.904C127.098 151.904 119.415 155.345 115.182 157.091C115.12 157.111 115.055 157.122 114.989 157.121Z" fill="#303C42"/>
<path d="M153.265 120.236C153.198 120.249 153.129 120.249 153.062 120.236C152.939 120.178 152.843 120.075 152.796 119.948C152.748 119.82 152.753 119.68 152.808 119.556L157.183 109.842L151.661 106.96C151.6 106.926 151.547 106.881 151.503 106.827C151.459 106.773 151.427 106.711 151.407 106.645C151.387 106.577 151.381 106.505 151.392 106.435C151.403 106.365 151.429 106.298 151.468 106.239L154.848 100.849L150.362 99.956C150.297 99.9439 150.235 99.9189 150.18 99.8826C150.125 99.8464 150.078 99.7994 150.041 99.7446C150.004 99.6898 149.978 99.6283 149.965 99.5635C149.953 99.4987 149.953 99.432 149.966 99.3673C149.993 99.2348 150.071 99.1182 150.183 99.0423C150.295 98.9664 150.432 98.9374 150.565 98.9613L155.772 99.9763C155.852 99.9949 155.927 100.032 155.991 100.085C156.054 100.138 156.105 100.205 156.137 100.281C156.175 100.353 156.194 100.433 156.194 100.514C156.194 100.596 156.175 100.676 156.137 100.748L152.615 106.31L158.076 109.162C158.189 109.225 158.274 109.327 158.315 109.449C158.357 109.571 158.351 109.704 158.299 109.822L153.732 119.972C153.687 120.056 153.62 120.125 153.537 120.172C153.454 120.219 153.36 120.241 153.265 120.236Z" fill="#303C42"/>
<path d="M137.857 91.5419C135.376 92.341 132.734 92.5108 130.171 92.036C127.607 91.5612 125.201 90.4566 123.17 88.8217C124.657 87.8799 125.865 86.5591 126.672 84.9952C125.867 85.529 124.923 85.8137 123.957 85.8137C122.991 85.8137 122.047 85.529 121.242 84.9952C119.64 83.906 118.374 82.3908 117.588 80.6205C121.374 80.0927 124.399 77.2 126.723 74.1347C129.047 71.0694 130.925 67.6387 133.828 65.1925C136.257 63.2531 139.206 62.0749 142.303 61.8058C145.4 61.5367 148.508 62.1888 151.235 63.6802C152.484 64.3907 154.666 65.7102 155.153 67.1819C155.569 68.4507 154.747 69.283 154.788 70.5314C154.849 72.1757 155.65 72.9979 155.234 74.7843C154.731 76.5443 153.912 78.1984 152.819 79.6664C151.586 81.3142 150.229 82.8649 148.759 84.305C145.804 87.6108 142.051 90.1027 137.857 91.5419Z" fill="white"/>
<path d="M133.026 92.8003C129.341 92.7591 125.773 91.5032 122.876 89.2275C122.81 89.1782 122.757 89.1137 122.721 89.0394C122.686 88.9651 122.669 88.8834 122.673 88.8012C122.672 88.719 122.694 88.6381 122.735 88.5668C122.776 88.4955 122.835 88.4363 122.906 88.3952C123.848 87.7989 124.677 87.0393 125.352 86.1521C123.856 86.4834 122.29 86.2176 120.988 85.4111C119.296 84.2783 117.961 82.6869 117.141 80.8233C117.104 80.753 117.084 80.6746 117.084 80.5949C117.084 80.5153 117.104 80.4369 117.141 80.3666C117.176 80.2938 117.229 80.2307 117.295 80.183C117.36 80.1352 117.436 80.1041 117.516 80.0925C120.561 79.6764 123.434 77.6159 126.286 73.8097C126.905 72.9875 127.494 72.1349 128.083 71.2823C129.587 68.8788 131.414 66.6931 133.513 64.7863C136.025 62.7844 139.071 61.5659 142.271 61.2826C145.471 60.9992 148.684 61.6635 151.509 63.1928C153.031 64.0657 155.132 65.4055 155.65 66.9787C155.865 67.7213 155.825 68.5143 155.538 69.232C155.394 69.629 155.318 70.0478 155.315 70.4703C155.341 71.0015 155.437 71.527 155.599 72.0334C155.91 72.9418 155.963 73.9186 155.751 74.8551C155.233 76.6791 154.391 78.3948 153.265 79.92C152.309 81.2457 151.243 82.4884 150.078 83.6349L149.134 84.6499C146.117 88.0482 142.27 90.6048 137.969 92.0695C136.367 92.5597 134.701 92.806 133.026 92.8003ZM124.053 88.8317C125.983 90.2701 128.23 91.2253 130.605 91.6174C132.98 92.0094 135.415 91.8268 137.705 91.085C141.819 89.6753 145.5 87.2281 148.393 83.98L149.347 82.965C150.459 81.8568 151.477 80.6584 152.392 79.382C153.452 77.963 154.246 76.364 154.736 74.6623C154.906 73.8887 154.853 73.0828 154.584 72.3379C154.408 71.7573 154.302 71.1575 154.27 70.5515C154.27 70.0161 154.359 69.4845 154.533 68.9783C154.76 68.4636 154.803 67.8867 154.655 67.3441C154.351 66.4205 153.112 65.3141 150.971 64.1164C148.328 62.684 145.321 62.0616 142.327 62.3269C139.332 62.5923 136.482 63.7336 134.132 65.6085C132.107 67.4601 130.342 69.577 128.884 71.9015C128.286 72.7642 127.687 73.627 127.068 74.4593C124.256 78.2046 121.394 80.3666 118.328 81.0162C119.041 82.4659 120.127 83.6993 121.475 84.589C122.196 85.0648 123.042 85.3184 123.906 85.3184C124.77 85.3184 125.615 85.0648 126.337 84.589C126.428 84.5165 126.542 84.4778 126.659 84.4795C126.776 84.4813 126.889 84.5232 126.978 84.5984C127.067 84.6735 127.128 84.7773 127.15 84.8921C127.172 85.0068 127.154 85.1256 127.098 85.2284C126.373 86.647 125.331 87.8799 124.053 88.8317Z" fill="#303C42"/>
<path d="M154.452 80.519C154.452 80.519 157.315 85.9087 156.483 86.8831C155.65 87.8575 153.438 86.9541 153.438 86.9541" fill="white"/>
<path d="M155.295 87.8469C154.598 87.828 153.91 87.6836 153.265 87.4206C153.153 87.3615 153.068 87.2629 153.025 87.1442C152.982 87.0255 152.985 86.8952 153.034 86.7785C153.082 86.6619 153.172 86.5674 153.286 86.5135C153.4 86.4596 153.53 86.45 153.65 86.4868C154.27 86.7304 155.68 87.0857 156.097 86.568C156.361 86.1011 155.366 83.3911 153.975 80.7622C153.943 80.7036 153.923 80.6392 153.916 80.5727C153.908 80.5063 153.914 80.4391 153.933 80.3749C153.952 80.3108 153.984 80.251 154.026 80.199C154.068 80.147 154.12 80.1039 154.178 80.072C154.237 80.0402 154.302 80.0205 154.369 80.0141C154.436 80.0076 154.504 80.0145 154.568 80.0343C154.632 80.0541 154.692 80.0865 154.743 80.1296C154.795 80.1726 154.837 80.2255 154.868 80.2851C155.995 82.4065 157.761 86.1214 156.898 87.2074C156.698 87.4295 156.449 87.6025 156.171 87.7134C155.893 87.8242 155.593 87.8699 155.295 87.8469Z" fill="#303C42"/>
<path d="M154.483 69.2724C156.442 71.2212 155.366 79.3209 155.122 81.7061C154.777 85.0658 154.351 88.4254 153.844 91.7648C153.529 93.8861 148.007 93.3989 147.094 92.6681L147.145 101.174C147.145 101.174 144.434 101.641 140.171 99.1438C135.908 96.6469 136.01 95.6116 136.01 95.6116L137.309 85.9285C137.309 85.9285 140.953 86.3041 143.521 82.1629C146.089 78.0217 146.647 71.343 146.647 71.343C146.647 71.343 152.565 67.3743 154.483 69.2724Z" fill="white"/>
<path d="M146.546 101.712C144.188 101.602 141.902 100.87 139.918 99.5908C135.858 97.2055 135.452 95.9875 135.472 95.5815L136.772 85.8578C136.792 85.7277 136.861 85.6102 136.964 85.5291C137.068 85.448 137.199 85.4095 137.33 85.4214C137.462 85.4214 140.7 85.6954 143.065 81.8993C145.541 77.9104 146.11 71.3636 146.11 71.3027C146.119 71.2269 146.144 71.1537 146.183 71.0875C146.221 71.0213 146.272 70.9634 146.333 70.917C146.982 70.4907 152.687 66.786 154.839 68.887C156.584 70.6227 156.26 75.992 155.701 81.067L155.63 81.7065C155.275 85.0763 154.849 88.4664 154.351 91.7854C154.278 92.155 154.104 92.4969 153.847 92.773C153.591 93.0491 153.263 93.2483 152.9 93.3485C151.169 93.8455 149.333 93.8455 147.602 93.3485L147.652 101.073C147.656 101.193 147.616 101.311 147.54 101.405C147.463 101.498 147.355 101.561 147.236 101.58C147.01 101.644 146.779 101.688 146.546 101.712ZM136.498 95.6221C136.569 95.8048 137.117 96.8097 140.436 98.7483C142.288 99.9602 144.427 100.661 146.637 100.778L146.587 92.7497C146.586 92.6546 146.613 92.5613 146.663 92.4806C146.713 92.3998 146.785 92.3348 146.871 92.2929C146.957 92.2525 147.053 92.2367 147.148 92.2475C147.243 92.2582 147.333 92.295 147.409 92.3538C149.053 92.9669 150.851 93.031 152.535 92.5365C153.022 92.3437 153.296 92.0899 153.347 91.7651C153.844 88.4562 154.27 85.0864 154.615 81.7369L154.686 81.0873C154.981 78.428 155.762 71.3433 154.118 69.7193C152.981 68.5825 149.297 70.2979 147.104 71.7493C146.972 73.0181 146.282 78.7528 143.927 82.5489C143.312 83.6824 142.422 84.6428 141.338 85.3417C140.254 86.0406 139.012 86.4554 137.726 86.548L136.498 95.6221Z" fill="#303C42"/>
<path d="M154.006 89.2477C153.062 89.3465 152.114 89.1039 151.334 88.5639C150.554 88.0239 149.993 87.2222 149.753 86.3042" fill="white"/>
<path d="M153.661 89.7755C152.668 89.7843 151.699 89.4647 150.906 88.8663C150.113 88.2679 149.54 87.4243 149.276 86.4666C149.234 86.3386 149.243 86.1992 149.302 86.0779C149.361 85.9566 149.464 85.863 149.591 85.817C149.718 85.7749 149.856 85.7843 149.975 85.8432C150.095 85.902 150.187 86.0057 150.23 86.1316C150.431 86.9391 150.916 87.6473 151.597 88.1263C152.277 88.6054 153.107 88.8233 153.935 88.7402C154.068 88.7229 154.203 88.7591 154.31 88.8409C154.416 88.9227 154.486 89.0434 154.504 89.1766C154.514 89.2413 154.511 89.3073 154.495 89.3709C154.48 89.4345 154.452 89.4944 154.413 89.5472C154.375 89.6 154.326 89.6446 154.27 89.6786C154.214 89.7125 154.152 89.7351 154.087 89.745C153.946 89.7657 153.804 89.7759 153.661 89.7755Z" fill="#303C42"/>
<path d="M147.794 82.0618C147.787 81.2078 147.537 80.3734 147.073 79.6563C146.799 79.0597 146.44 78.5059 146.008 78.012C145.785 77.7689 145.511 77.5782 145.205 77.4536C144.9 77.329 144.571 77.2736 144.242 77.2913C143.953 77.3326 143.677 77.4356 143.432 77.5932C143.186 77.7509 142.978 77.9595 142.821 78.2048C142.51 78.7005 142.313 79.2584 142.242 79.839C142.065 81.0977 142.224 82.3808 142.701 83.5587C143.179 84.7367 143.959 85.7678 144.962 86.5481L144.79 86.335" fill="white"/>
<path d="M144.962 87.0251C144.851 87.0238 144.743 86.9844 144.658 86.9135C143.586 86.073 142.753 84.9664 142.241 83.7037C141.73 82.4411 141.559 81.0666 141.745 79.7171C141.824 79.0663 142.05 78.4418 142.404 77.8901C142.604 77.5841 142.866 77.3243 143.174 77.1282C143.482 76.9321 143.829 76.8043 144.191 76.7533C144.595 76.7257 145.001 76.7899 145.377 76.9411C145.753 77.0922 146.09 77.3264 146.363 77.6262C146.836 78.155 147.229 78.7499 147.53 79.3923C148.032 80.196 148.3 81.1242 148.301 82.0719C148.295 82.1386 148.276 82.2034 148.245 82.2626C148.214 82.3219 148.172 82.3745 148.12 82.4174C148.069 82.4603 148.01 82.4926 147.946 82.5126C147.882 82.5325 147.815 82.5397 147.748 82.5337C147.682 82.5277 147.617 82.5087 147.558 82.4776C147.498 82.4466 147.446 82.4042 147.403 82.3528C147.36 82.3014 147.328 82.2421 147.308 82.1782C147.288 82.1144 147.28 82.0472 147.286 81.9806C147.268 81.2259 147.04 80.4912 146.627 79.8592C146.365 79.3076 146.023 78.7979 145.612 78.3469C145.446 78.1562 145.24 78.0051 145.008 77.905C144.776 77.8049 144.524 77.7581 144.272 77.7683C144.063 77.8072 143.865 77.8897 143.69 78.0103C143.515 78.131 143.367 78.2872 143.257 78.4687C142.985 78.8945 142.815 79.3773 142.76 79.8795C142.607 80.9672 142.723 82.0757 143.096 83.1086C143.469 84.1416 144.089 85.0679 144.901 85.8071C145.023 85.8311 145.132 85.8999 145.206 86L145.378 86.2131C145.453 86.3118 145.489 86.4343 145.48 86.5577C145.47 86.681 145.416 86.7967 145.327 86.883C145.28 86.9312 145.223 86.9688 145.16 86.9933C145.097 87.0178 145.03 87.0287 144.962 87.0251Z" fill="#303C42"/>
<path d="M147.094 92.6684C145.503 91.9846 144.143 90.8569 143.176 89.4204C143.176 89.4204 142.871 94.5563 147.114 96.4544L147.094 92.6684Z" fill="#303C42"/>
<path d="M147.114 96.9621C147.047 96.9773 146.977 96.9773 146.911 96.9621C142.394 94.9321 142.648 89.6541 142.668 89.4308C142.675 89.3225 142.717 89.2194 142.787 89.1366C142.857 89.0538 142.952 88.9956 143.058 88.9707C143.163 88.9457 143.274 88.9552 143.374 88.9978C143.473 89.0404 143.557 89.1139 143.612 89.2075C144.525 90.5489 145.799 91.6045 147.286 92.2525C147.379 92.2905 147.458 92.3552 147.514 92.4383C147.57 92.5214 147.6 92.6192 147.601 92.7194V96.5053C147.603 96.5906 147.582 96.6748 147.541 96.7496C147.5 96.8245 147.44 96.8872 147.367 96.9316C147.287 96.9632 147.199 96.9737 147.114 96.9621ZM143.795 91.0852C143.91 92.0018 144.221 92.8829 144.706 93.6692C145.191 94.4554 145.839 95.1283 146.606 95.6426V93.0239C145.573 92.5297 144.624 91.8754 143.795 91.0852Z" fill="#303C42"/>
<path d="M153.222 78.1323C153.395 77.4882 153.33 76.9104 153.075 76.8419C152.821 76.7733 152.474 77.2399 152.301 77.884C152.127 78.5281 152.193 79.1059 152.447 79.1744C152.701 79.243 153.048 78.7764 153.222 78.1323Z" fill="#303C42"/>
<path d="M153.864 77.6668C153.775 77.6637 153.688 77.6393 153.61 77.5957L151.367 76.2864C151.302 76.2571 151.244 76.2146 151.197 76.1616C151.15 76.1086 151.114 76.0463 151.093 75.9787C151.071 75.911 151.064 75.8396 151.071 75.769C151.079 75.6984 151.101 75.6302 151.137 75.5688C151.173 75.5074 151.221 75.4542 151.279 75.4126C151.336 75.371 151.402 75.342 151.471 75.3273C151.541 75.3127 151.612 75.3128 151.682 75.3276C151.751 75.3425 151.817 75.3717 151.874 75.4135L154.117 76.7127C154.233 76.7824 154.317 76.8947 154.352 77.0256C154.386 77.1565 154.367 77.2956 154.3 77.413C154.256 77.4897 154.192 77.5535 154.116 77.598C154.039 77.6425 153.952 77.6662 153.864 77.6668Z" fill="#303C42"/>
<path d="M105.763 144.646C105.702 144.648 105.64 144.637 105.583 144.614C105.525 144.591 105.473 144.557 105.428 144.514C105.378 144.472 105.336 144.419 105.306 144.36C105.276 144.301 105.258 144.236 105.253 144.17C105.248 144.104 105.257 144.037 105.278 143.974C105.3 143.911 105.334 143.853 105.378 143.804L122.115 124.894C122.161 124.847 122.217 124.81 122.278 124.784C122.339 124.758 122.404 124.745 122.47 124.745C122.536 124.745 122.602 124.758 122.663 124.784C122.724 124.81 122.779 124.847 122.826 124.894C122.919 124.991 122.972 125.12 122.972 125.255C122.972 125.389 122.919 125.518 122.826 125.615L106.139 144.474C106.092 144.527 106.034 144.569 105.969 144.599C105.904 144.629 105.834 144.645 105.763 144.646Z" fill="#303C42"/>
<path d="M287.295 112.887C261.87 104.28 264.103 77.961 264.133 77.6971L264.346 75.4438H279.845V80.4173H269.025C269.127 86.3348 271.106 102.128 288.899 108.167L287.295 112.887Z" fill="white"/>
<path d="M287.296 113.415C287.242 113.426 287.187 113.426 287.133 113.415C261.312 104.585 263.596 77.8902 263.626 77.6466L263.839 75.3933C263.852 75.2677 263.911 75.1513 264.005 75.0668C264.098 74.9823 264.22 74.9359 264.347 74.9365H279.846C279.98 74.9365 280.109 74.99 280.205 75.0852C280.3 75.1804 280.353 75.3094 280.353 75.444V80.4175C280.353 80.5521 280.3 80.6812 280.205 80.7764C280.109 80.8716 279.98 80.925 279.846 80.925H269.543C269.757 87.4515 272.203 101.966 289.062 107.691C289.189 107.734 289.295 107.825 289.356 107.944C289.402 108.072 289.402 108.212 289.356 108.34L287.753 113.05C287.725 113.151 287.666 113.241 287.584 113.307C287.502 113.372 287.401 113.41 287.296 113.415ZM264.803 75.9515L264.631 77.7481C264.631 78.0018 262.479 103.58 286.961 112.258L288.23 108.503C270.772 102.25 268.62 86.8323 268.518 80.4277C268.519 80.2925 268.57 80.1624 268.66 80.0623C268.758 79.9669 268.889 79.9125 269.026 79.91H279.338V75.9515H264.803Z" fill="#303C42"/>
<path d="M322.77 112.887L321.166 108.167C338.949 102.077 340.938 86.3449 341.04 80.4173H330.23V75.4438H345.729L345.942 77.6971C345.973 77.961 348.145 104.28 322.77 112.887Z" fill="white"/>
<path d="M322.77 113.415C322.696 113.43 322.62 113.43 322.547 113.415C322.427 113.353 322.336 113.248 322.293 113.12L320.74 108.34C320.698 108.213 320.707 108.075 320.766 107.956C320.825 107.836 320.929 107.744 321.054 107.7C337.903 101.976 340.339 87.4612 340.573 80.9348H330.23C330.095 80.9348 329.966 80.8813 329.871 80.7861C329.776 80.691 329.723 80.5619 329.723 80.4273V75.4538C329.723 75.3192 329.776 75.1901 329.871 75.0949C329.966 74.9998 330.095 74.9463 330.23 74.9463H345.729C345.855 74.9479 345.975 74.9951 346.069 75.0791C346.162 75.1632 346.222 75.2783 346.237 75.403L346.45 77.6563C346.45 77.9304 348.673 104.635 322.942 113.374C322.888 113.399 322.829 113.413 322.77 113.415ZM321.806 108.502L323.084 112.258C347.536 103.61 345.414 78.0217 345.414 77.7477L345.252 75.9613H330.738V79.9198H341.04C341.176 79.9242 341.306 79.9784 341.405 80.072C341.496 80.1722 341.547 80.3023 341.547 80.4374C341.446 86.8319 339.304 102.25 321.816 108.482L321.806 108.502Z" fill="#303C42"/>
<path d="M331.357 70.7848L278.729 70.3179C278.729 70.3179 278.262 92.9016 284.017 107.223C288.808 119.139 294.603 123.829 299.526 125.737C300.28 127.594 300.626 129.591 300.541 131.593C300.199 135.041 299.251 138.402 297.74 141.52H312.335C312.335 141.52 309.29 136.506 309.412 131.715C309.491 129.702 309.794 127.704 310.316 125.757C315.888 123.078 322.831 116.267 326.556 106.472C331.509 93.196 331.357 70.7848 331.357 70.7848Z" fill="white"/>
<path d="M312.335 142.007H297.74C297.653 142.007 297.569 141.986 297.492 141.945C297.416 141.904 297.351 141.846 297.303 141.774C297.261 141.698 297.238 141.612 297.238 141.525C297.238 141.438 297.261 141.353 297.303 141.277C298.784 138.222 299.715 134.93 300.054 131.553C300.139 129.696 299.832 127.842 299.151 126.112C292.776 123.545 287.529 117.252 283.57 107.396C277.836 93.1859 278.231 70.5209 278.242 70.2875C278.242 70.2213 278.255 70.1558 278.28 70.0948C278.306 70.0338 278.344 69.9785 278.391 69.9322C278.438 69.8859 278.494 69.8494 278.556 69.8251C278.617 69.8007 278.683 69.7888 278.749 69.7901L331.387 70.257C331.519 70.2622 331.644 70.3176 331.737 70.412C331.829 70.5063 331.882 70.6325 331.884 70.7645C331.884 70.9878 331.986 93.4396 327.023 106.604C323.125 116.977 315.858 123.545 310.783 126.092C310.297 127.926 310.018 129.809 309.95 131.705C309.839 136.293 312.772 141.195 312.802 141.246C312.85 141.322 312.876 141.41 312.878 141.5C312.88 141.591 312.857 141.679 312.812 141.758C312.768 141.836 312.702 141.9 312.624 141.944C312.545 141.988 312.456 142.01 312.366 142.007H312.335ZM298.531 140.992H311.473C310.62 139.379 308.813 135.501 308.905 131.685C308.98 129.626 309.29 127.583 309.828 125.595C309.845 125.524 309.877 125.458 309.923 125.402C309.969 125.346 310.027 125.301 310.092 125.27C315.046 122.885 322.201 116.47 326.058 106.239C330.534 94.3328 330.829 74.6418 330.849 71.2619L279.226 70.7848C279.226 74.1851 279.307 94.1298 284.494 106.99C288.381 116.673 293.507 122.814 299.719 125.26C299.783 125.286 299.841 125.324 299.89 125.373C299.939 125.422 299.977 125.48 300.003 125.544C300.784 127.475 301.13 129.554 301.018 131.634C300.732 134.873 299.891 138.039 298.531 140.992Z" fill="#303C42"/>
<path d="M287.427 141.033H322.648C323.289 141.033 323.903 141.288 324.356 141.741C324.809 142.194 325.064 142.808 325.064 143.449V152.229H285.012V143.449C285.012 142.808 285.266 142.194 285.719 141.741C286.172 141.288 286.787 141.033 287.427 141.033Z" fill="white"/>
<path d="M325.064 152.746H285.012C284.878 152.746 284.749 152.693 284.654 152.597C284.558 152.502 284.505 152.373 284.505 152.238V143.449C284.508 142.674 284.816 141.932 285.364 141.385C285.912 140.837 286.654 140.528 287.428 140.525H322.649C323.423 140.528 324.165 140.837 324.713 141.385C325.26 141.932 325.569 142.674 325.572 143.449V152.238C325.572 152.373 325.518 152.502 325.423 152.597C325.328 152.693 325.199 152.746 325.064 152.746ZM285.479 151.731H324.516V143.449C324.516 142.942 324.315 142.457 323.957 142.099C323.599 141.741 323.114 141.54 322.608 141.54H287.388C286.881 141.54 286.396 141.741 286.038 142.099C285.68 142.457 285.479 142.942 285.479 143.449V151.731Z" fill="#303C42"/>
<path d="M329.063 151.609H281.013C279.931 151.609 279.054 152.486 279.054 153.568V155.081C279.054 156.163 279.931 157.04 281.013 157.04H329.063C330.145 157.04 331.022 156.163 331.022 155.081V153.568C331.022 152.486 330.145 151.609 329.063 151.609Z" fill="white"/>
<path d="M329.062 157.547H281.012C280.688 157.547 280.366 157.483 280.066 157.359C279.766 157.234 279.494 157.051 279.265 156.821C279.036 156.591 278.854 156.318 278.731 156.018C278.607 155.717 278.545 155.395 278.546 155.071V153.568C278.546 152.914 278.806 152.287 279.268 151.824C279.731 151.362 280.358 151.102 281.012 151.102H329.062C329.717 151.102 330.344 151.362 330.807 151.824C331.269 152.287 331.529 152.914 331.529 153.568V155.03C331.536 155.358 331.477 155.684 331.356 155.99C331.235 156.295 331.054 156.573 330.825 156.807C330.595 157.041 330.321 157.228 330.018 157.355C329.716 157.482 329.391 157.547 329.062 157.547ZM281.012 152.117C280.627 152.117 280.258 152.27 279.986 152.542C279.714 152.814 279.561 153.184 279.561 153.568V155.03C279.561 155.416 279.714 155.786 279.985 156.06C280.257 156.334 280.626 156.489 281.012 156.492H329.062C329.448 156.489 329.818 156.334 330.089 156.06C330.361 155.786 330.514 155.416 330.514 155.03V153.528C330.514 153.143 330.361 152.774 330.089 152.502C329.817 152.229 329.447 152.076 329.062 152.076L281.012 152.117Z" fill="#303C42"/>
<path d="M116.958 262.062H49.8669C49.7323 262.062 49.6032 262.008 49.508 261.913C49.4128 261.818 49.3594 261.689 49.3594 261.554C49.3594 261.419 49.4128 261.29 49.508 261.195C49.6032 261.1 49.7323 261.047 49.8669 261.047H116.451V243.335C116.451 243.2 116.504 243.071 116.6 242.976C116.695 242.881 116.824 242.827 116.958 242.827H161.72V219.756C161.72 219.622 161.773 219.493 161.869 219.397C161.964 219.302 162.093 219.249 162.227 219.249H212.785V183.561C212.785 183.427 212.838 183.298 212.933 183.203C213.028 183.107 213.157 183.054 213.292 183.054H255.486V157.06C255.486 156.925 255.539 156.796 255.634 156.701C255.729 156.606 255.858 156.552 255.993 156.552H356.133C356.268 156.552 356.397 156.606 356.492 156.701C356.587 156.796 356.64 156.925 356.64 157.06C356.64 157.194 356.587 157.323 356.492 157.419C356.397 157.514 356.268 157.567 356.133 157.567H256.501V183.582C256.501 183.716 256.447 183.845 256.352 183.941C256.257 184.036 256.128 184.089 255.993 184.089H213.8V219.777C213.8 219.911 213.746 220.04 213.651 220.135C213.556 220.231 213.427 220.284 213.292 220.284H162.735V243.335C162.732 243.469 162.678 243.596 162.583 243.691C162.489 243.785 162.361 243.84 162.227 243.842H117.466V261.605C117.453 261.73 117.394 261.847 117.3 261.931C117.207 262.016 117.085 262.062 116.958 262.062Z" fill="#303C42"/>
<path d="M161.182 133.715H161.07C160.94 133.683 160.826 133.602 160.754 133.489C160.682 133.375 160.657 133.238 160.685 133.106C160.685 132.943 164.339 117.049 161.943 107.031C161.928 106.964 161.926 106.895 161.937 106.827C161.949 106.76 161.973 106.695 162.009 106.637C162.046 106.58 162.093 106.529 162.149 106.49C162.204 106.45 162.267 106.422 162.334 106.406C162.401 106.391 162.47 106.389 162.537 106.4C162.605 106.412 162.669 106.436 162.727 106.472C162.785 106.509 162.835 106.556 162.875 106.612C162.915 106.667 162.943 106.73 162.958 106.797C165.404 117.049 161.862 132.669 161.71 133.329C161.68 133.444 161.611 133.546 161.515 133.616C161.418 133.686 161.301 133.721 161.182 133.715Z" fill="#303C42"/>
<path d="M204.848 127.26C204.736 127.256 204.629 127.215 204.543 127.145C204.457 127.074 204.396 126.977 204.371 126.868C204.345 126.759 204.356 126.645 204.402 126.544C204.448 126.442 204.526 126.358 204.624 126.306C204.96 126.081 205.238 125.779 205.436 125.427C205.633 125.074 205.745 124.679 205.761 124.276C205.597 123.716 205.597 123.12 205.761 122.56C205.797 122.452 205.869 122.358 205.965 122.296C206.061 122.233 206.175 122.205 206.289 122.215C206.403 122.229 206.51 122.281 206.593 122.361C206.675 122.442 206.729 122.548 206.746 122.662C206.79 123.151 206.79 123.644 206.746 124.133L206.817 124.245C206.975 124.418 207.171 124.551 207.389 124.634C207.608 124.716 207.843 124.747 208.075 124.722C208.169 124.739 208.266 124.73 208.354 124.694C208.442 124.658 208.518 124.597 208.573 124.519C209.09 123.748 208.319 121.149 207.558 119.566C207.503 119.442 207.499 119.301 207.547 119.175C207.596 119.048 207.693 118.946 207.817 118.891C207.94 118.836 208.081 118.832 208.208 118.881C208.334 118.929 208.436 119.026 208.492 119.15C208.816 119.87 210.379 123.565 209.385 125.077C209.234 125.297 209.028 125.473 208.787 125.589C208.547 125.705 208.281 125.756 208.015 125.737C207.477 125.746 206.948 125.609 206.482 125.341C206.378 125.746 206.192 126.126 205.936 126.456C205.679 126.786 205.357 127.059 204.99 127.26C204.943 127.267 204.895 127.267 204.848 127.26Z" fill="#303C42"/>
<path d="M305.038 78.8135L310.022 88.9229L321.176 90.5367L313.107 98.403L315.015 109.517L305.038 104.27L295.06 109.517L296.969 98.403L288.899 90.5367L300.054 88.9229L305.038 78.8135Z" fill="#FF5100"/>
</svg>
