<svg width="48" height="24" viewBox="0 0 28 24" fill="none" xmlns="http://www.w3.org/2000/svg"
    name="chat" class="mr-2 hidden h-6 w-6 text-primary 4sm:block">
    <path
        d="M4.12492 0.5C2.04129 0.5 0.333252 2.20804 0.333252 4.29167V13.625V17.1455C0.333252 18.284 1.72737 18.9946 2.64836 18.3258C2.64874 18.3258 2.64912 18.3258 2.6495 18.3258L5.16968 16.4927C5.65031 18.0359 7.09662 19.1667 8.79158 19.1667H16.0901L21.3503 22.9925C21.3507 22.9925 21.3511 22.9925 21.3515 22.9925C22.2724 23.6613 23.6666 22.9506 23.6666 21.8122V18.2917V8.95833C23.6666 6.8747 21.9585 5.16667 19.8749 5.16667H18.9999V4.29167C18.9999 2.20804 17.2919 0.5 15.2083 0.5H4.12492ZM4.12492 2.25H15.2083C16.3458 2.25 17.2499 3.15413 17.2499 4.29167V10.7083C17.2499 11.8459 16.3458 12.75 15.2083 12.75H7.62492C7.43987 12.75 7.25958 12.8086 7.10994 12.9175L2.08325 16.5736V13.625V4.29167C2.08325 3.15413 2.98738 2.25 4.12492 2.25ZM18.9999 6.91667H19.8749C21.0125 6.91667 21.9166 7.8208 21.9166 8.95833V18.2917V21.2402L16.8899 17.5841C16.7403 17.4753 16.56 17.4166 16.3749 17.4167H8.79158C7.65405 17.4167 6.74992 16.5125 6.74992 15.375V15.3431L7.90975 14.5H15.2083C17.2919 14.5 18.9999 12.792 18.9999 10.7083V6.91667Z"
        fill="currentColor"></path>
</svg>