<svg
    width="24"
    height="24"
    viewBox="0 0 24 24"
    fill="none"
    xmlns="http://www.w3.org/2000/svg"
    name="circular-arrows"
    class="mr-2 hidden h-8 w-8 text-primary 4sm:block lg:h-12 lg:w-[48px]"
>
    <g clip-path="url(#clip0_1609_3052)">
        <path
            d="M12.0001 2C10.5847 2 9.19016 2.32364 7.95122 2.8623C7.76876 2.94156 7.62525 3.09005 7.55227 3.27512C7.47928 3.46018 7.48281 3.66666 7.56206 3.84912C7.64132 4.03159 7.78981 4.1751 7.97487 4.24808C8.15994 4.32106 8.36641 4.31754 8.54888 4.23828C9.60994 3.77695 10.8154 3.5 12.0001 3.5C15.4656 3.5 18.4726 5.62918 19.7774 8.59277L18.5108 8.01758C18.4208 7.97456 18.3232 7.9499 18.2236 7.94505C18.124 7.9402 18.0245 7.95526 17.9308 7.98935C17.8371 8.02343 17.7511 8.07585 17.6779 8.14356C17.6047 8.21126 17.5457 8.29287 17.5044 8.38363C17.4631 8.4744 17.4403 8.57248 17.4374 8.67215C17.4345 8.77182 17.4514 8.87107 17.4873 8.9641C17.5232 9.05714 17.5772 9.14209 17.6463 9.21398C17.7154 9.28587 17.7982 9.34327 17.8897 9.38281L20.6397 10.6328C20.8109 10.7106 21.0051 10.7213 21.1838 10.6627C21.3625 10.6041 21.5127 10.4805 21.6045 10.3164L23.004 7.81641C23.0701 7.70216 23.105 7.57246 23.1049 7.44044C23.1049 7.30841 23.0701 7.17872 23.0039 7.06448C22.9377 6.95024 22.8425 6.8555 22.728 6.78982C22.6135 6.72414 22.4836 6.68986 22.3516 6.69043C22.217 6.69109 22.085 6.72798 21.9695 6.79723C21.8541 6.86647 21.7594 6.96552 21.6954 7.08398L21.1661 8.02832C19.6362 4.50638 16.0927 2 12.0001 2ZM2.90044 4.5498C2.80106 4.5484 2.70238 4.56676 2.61016 4.60382C2.51793 4.64088 2.43399 4.6959 2.36321 4.76568C2.29243 4.83547 2.23623 4.91862 2.19787 5.01031C2.15951 5.10201 2.13975 5.20041 2.13975 5.2998C2.13975 5.3992 2.15951 5.4976 2.19787 5.5893C2.23623 5.68099 2.29243 5.76414 2.36321 5.83393C2.43399 5.90371 2.51793 5.95873 2.61016 5.99579C2.70238 6.03285 2.80106 6.05121 2.90044 6.0498H3.98735C1.68772 9.13923 1.30727 13.4567 3.34673 17.0186C3.34732 17.0196 3.34809 17.0204 3.34868 17.0215C3.34905 17.0221 3.34929 17.0228 3.34966 17.0234C4.05828 18.2753 5.0307 19.2979 6.09966 20.0996C6.17814 20.1619 6.26831 20.2078 6.36483 20.2347C6.46136 20.2616 6.56229 20.2688 6.66167 20.256C6.76104 20.2432 6.85685 20.2107 6.94343 20.1603C7.03002 20.1098 7.10562 20.0426 7.16578 19.9624C7.22594 19.8823 7.26943 19.791 7.2937 19.6937C7.31796 19.5965 7.32251 19.4954 7.30706 19.3964C7.29161 19.2974 7.25648 19.2025 7.20375 19.1173C7.15103 19.0321 7.08176 18.9584 7.00005 18.9004C6.07045 18.2032 5.24451 17.3271 4.65337 16.2812C4.6524 16.2799 4.65142 16.2786 4.65044 16.2773C2.91528 13.2509 3.23798 9.59294 5.16411 6.97754L5.30376 8.375C5.31116 8.47486 5.33848 8.57222 5.38411 8.66136C5.42973 8.75049 5.49274 8.82958 5.56942 8.89398C5.64611 8.95837 5.7349 9.00676 5.83058 9.03629C5.92626 9.06582 6.02688 9.07589 6.12652 9.06592C6.22615 9.05594 6.32278 9.02612 6.4107 8.9782C6.49863 8.93029 6.57607 8.86525 6.63846 8.78693C6.70085 8.70862 6.74693 8.6186 6.77398 8.52219C6.80102 8.42578 6.8085 8.32493 6.79595 8.22559L6.49614 5.22559C6.47772 5.04048 6.39117 4.86883 6.2533 4.74395C6.11543 4.61907 5.93607 4.54988 5.75005 4.5498H2.90044ZM21.2042 12.1895C21.0184 12.1887 20.8389 12.2569 20.7006 12.3808C20.5622 12.5047 20.4747 12.6756 20.4551 12.8604C20.317 14.0118 19.9474 15.1679 19.3477 16.2295C19.3473 16.2301 19.3471 16.2308 19.3467 16.2314C17.6081 19.2593 14.2743 20.7909 11.0333 20.4336L12.1856 19.6104C12.3151 19.5206 12.4131 19.3924 12.4657 19.2439C12.5182 19.0953 12.5226 18.934 12.4783 18.7828C12.434 18.6316 12.3432 18.4982 12.2188 18.4015C12.0944 18.3048 11.9427 18.2497 11.7852 18.2441C11.6164 18.2383 11.4505 18.2895 11.3145 18.3896L8.86431 20.1396C8.71251 20.2481 8.60658 20.4093 8.56722 20.5917C8.52785 20.774 8.55787 20.9645 8.65142 21.126L10.1016 23.626C10.1489 23.7151 10.2137 23.7937 10.2921 23.8571C10.3705 23.9206 10.4608 23.9676 10.5578 23.9954C10.6548 24.0231 10.7563 24.031 10.8564 24.0186C10.9565 24.0062 11.0531 23.9737 11.1403 23.9231C11.2276 23.8725 11.3037 23.8048 11.3642 23.7241C11.4247 23.6434 11.4683 23.5514 11.4924 23.4534C11.5165 23.3555 11.5206 23.2537 11.5045 23.1542C11.4884 23.0546 11.4523 22.9593 11.3985 22.874L10.8448 21.9199C14.6742 22.3513 18.6051 20.5401 20.6504 16.9727C20.6514 16.9714 20.6524 16.9701 20.6534 16.9688C21.3531 15.7308 21.7826 14.3869 21.9444 13.0391C21.9585 12.9334 21.95 12.8259 21.9193 12.7237C21.8886 12.6216 21.8365 12.5272 21.7665 12.4468C21.6964 12.3664 21.61 12.3018 21.5131 12.2575C21.4161 12.2131 21.3108 12.1899 21.2042 12.1895Z"
            fill="currentColor"
        ></path>
    </g>
    <defs>
        <clipPath id="clip0_1609_3052">
            <rect width="24" height="24" fill="white"></rect>
        </clipPath>
    </defs>
</svg>