<svg width="20" height="20" viewBox="0 0 20 20" fill="none" xmlns="http://www.w3.org/2000/svg"
    name="data" class="h-8 w-8 text-white">
    <path
        d="M2.75 0C1.24011 0 0 1.24011 0 2.75V4.25C0 5.035 0.337043 5.74525 0.871094 6.24805C0.33656 6.75003 0 7.46049 0 8.25V9.75C0 10.5385 0.334664 11.248 0.868164 11.75C0.334664 12.252 0 12.9615 0 13.75V15.25C0 16.7665 1.2335 18 2.75 18H9.02832C8.73132 17.5365 8.48988 17.034 8.31738 16.5H2.75C2.061 16.5 1.5 15.939 1.5 15.25V13.75C1.5 13.061 2.061 12.5 2.75 12.5H8.31738C8.48988 11.966 8.7318 11.4635 9.0293 11H2.75C2.061 11 1.5 10.439 1.5 9.75V8.25C1.5 7.561 2.061 7 2.75 7H14.25C14.8815 7 15.4004 7.47303 15.4834 8.08203C16.0119 8.16253 16.5215 8.3 17 8.5V8.25C17 7.46049 16.6634 6.75003 16.1289 6.24805C16.663 5.74525 17 5.035 17 4.25V2.75C17 1.24011 15.7599 0 14.25 0H2.75ZM2.75 1.5H14.25C14.9491 1.5 15.5 2.05089 15.5 2.75V4.25C15.5 4.94911 14.9491 5.5 14.25 5.5H2.75C2.05089 5.5 1.5 4.94911 1.5 4.25V2.75C1.5 2.05089 2.05089 1.5 2.75 1.5ZM14.5 9C14.2065 9 13.9192 9.02477 13.6387 9.07227L13.4658 9.78809C13.1973 10.9006 12.0526 11.5618 10.9551 11.2373L10.3525 11.0586C9.99054 11.5251 9.7005 12.0554 9.5 12.6289L9.94727 13.0586C10.7648 13.8456 10.7648 15.1544 9.94727 15.9414L9.5 16.3711C9.7005 16.9446 9.99004 17.4744 10.3525 17.9414L10.9551 17.7627C12.0526 17.4382 13.1973 18.0994 13.4658 19.2119L13.6387 19.9277C13.9192 19.9752 14.207 20 14.5 20C14.7935 20 15.0808 19.9752 15.3613 19.9277L15.5342 19.2119C15.8027 18.0994 16.9474 17.4382 18.0449 17.7627L18.6475 17.9414C19.0095 17.4749 19.2995 16.9446 19.5 16.3711L19.0527 15.9414C18.2352 15.1549 18.2352 13.8451 19.0527 13.0586L19.5 12.6289C19.2995 12.0554 19.01 11.5256 18.6475 11.0586L18.0449 11.2373C16.9474 11.5618 15.8027 10.9006 15.5342 9.78809L15.3613 9.07227C15.0808 9.02477 14.7935 9 14.5 9ZM14.5 13C15.3285 13 16 13.6715 16 14.5C16 15.3285 15.3285 16 14.5 16C13.6715 16 13 15.3285 13 14.5C13 13.6715 13.6715 13 14.5 13Z"
        fill="currentColor"></path>
</svg>