<svg width="48" height="48" viewBox="0 0 48 48" fill="none" xmlns="http://www.w3.org/2000/svg"
    name="define" class="mr-2 hidden h-8 w-8 text-primary 4sm:block lg:h-12 lg:w-[48px]">
    <path
        d="M24 3C23.2054 3.00008 22.4345 3.27054 21.814 3.76691C21.1935 4.26328 20.7604 4.95601 20.5858 5.73121C20.4113 6.5064 20.5057 7.31792 20.8536 8.03232C21.2015 8.74672 21.7821 9.32149 22.5 9.66211V15.5C22.4972 15.6988 22.5339 15.8961 22.608 16.0806C22.6822 16.265 22.7922 16.4329 22.9318 16.5745C23.0713 16.716 23.2376 16.8284 23.421 16.9051C23.6044 16.9819 23.8012 17.0214 24 17.0214C24.1988 17.0214 24.3956 16.9819 24.579 16.9051C24.7624 16.8284 24.9287 16.716 25.0682 16.5745C25.2078 16.4329 25.3178 16.265 25.392 16.0806C25.4661 15.8961 25.5028 15.6988 25.5 15.5V9.6582C26.2157 9.31636 26.794 8.74158 27.1403 8.02803C27.4865 7.31449 27.5802 6.5045 27.4059 5.73077C27.2316 4.95704 26.7996 4.26545 26.1809 3.76932C25.5621 3.27319 24.7931 3.00193 24 3V3ZM8.77148 10.9941C8.31186 10.9941 7.85673 11.0847 7.43209 11.2606C7.00745 11.4365 6.62162 11.6943 6.29661 12.0193C5.97161 12.3443 5.7138 12.7301 5.53791 13.1547C5.36201 13.5794 5.27148 14.0345 5.27148 14.4941C5.27148 14.9538 5.36201 15.4089 5.53791 15.8335C5.7138 16.2582 5.97161 16.644 6.29661 16.969C6.62162 17.294 7.00745 17.5518 7.43209 17.7277C7.85673 17.9036 8.31186 17.9941 8.77148 17.9941C9.38536 17.9933 9.98821 17.8309 10.5195 17.5234L15.3281 20.8398C15.49 20.958 15.6738 21.0425 15.8689 21.0885C16.0639 21.1344 16.2662 21.1408 16.4637 21.1073C16.6613 21.0737 16.8501 21.0009 17.0191 20.8932C17.1881 20.7855 17.3337 20.6451 17.4475 20.4801C17.5613 20.3152 17.6409 20.1291 17.6816 19.9329C17.7223 19.7367 17.7233 19.5343 17.6845 19.3378C17.6457 19.1412 17.5679 18.9543 17.4557 18.7883C17.3435 18.6223 17.1992 18.4804 17.0312 18.3711L12.2246 15.0547C12.3058 14.5543 12.2773 14.0423 12.1412 13.554C12.005 13.0658 11.7644 12.6129 11.436 12.2267C11.1077 11.8406 10.6993 11.5304 10.2392 11.3176C9.77918 11.1047 9.27839 10.9944 8.77148 10.9941V10.9941ZM39.2285 10.9941C38.722 10.9947 38.2216 11.1052 37.7619 11.3181C37.3023 11.5309 36.8943 11.841 36.5661 12.2268C36.238 12.6127 35.9975 13.0653 35.8613 13.5532C35.7252 14.041 35.6965 14.5527 35.7773 15.0527L30.9688 18.3711C30.8008 18.4804 30.6565 18.6223 30.5443 18.7883C30.4321 18.9543 30.3543 19.1412 30.3155 19.3378C30.2767 19.5343 30.2777 19.7367 30.3184 19.9329C30.3591 20.1291 30.4387 20.3152 30.5525 20.4801C30.6663 20.6451 30.8119 20.7855 30.9809 20.8932C31.1499 21.0009 31.3387 21.0737 31.5363 21.1073C31.7338 21.1408 31.9361 21.1344 32.1311 21.0885C32.3262 21.0425 32.51 20.958 32.6719 20.8398L37.4785 17.5234C38.0104 17.8313 38.614 17.9936 39.2285 17.9941C39.6881 17.9941 40.1433 17.9036 40.5679 17.7277C40.9925 17.5518 41.3784 17.294 41.7034 16.969C42.0284 16.644 42.2862 16.2582 42.4621 15.8335C42.638 15.4089 42.7285 14.9538 42.7285 14.4941C42.7285 14.0345 42.638 13.5794 42.4621 13.1547C42.2862 12.7301 42.0284 12.3443 41.7034 12.0193C41.3784 11.6943 40.9925 11.4365 40.5679 11.2606C40.1433 11.0847 39.6881 10.9941 39.2285 10.9941V10.9941ZM24 19C22.125 19 20.5288 19.7571 19.5039 20.9102C18.479 22.0632 18 23.5417 18 25C18 26.4583 18.479 27.9368 19.5039 29.0898C20.5288 30.2429 22.125 31 24 31C25.875 31 27.4712 30.2429 28.4961 29.0898C29.521 27.9368 30 26.4583 30 25C30 23.5417 29.521 22.0632 28.4961 20.9102C27.4712 19.7571 25.875 19 24 19ZM24 22C25.125 22 25.7788 22.3679 26.2539 22.9023C26.729 23.4368 27 24.2083 27 25C27 25.7917 26.729 26.5632 26.2539 27.0977C25.7788 27.6321 25.125 28 24 28C22.875 28 22.2212 27.6321 21.7461 27.0977C21.271 26.5632 21 25.7917 21 25C21 24.2083 21.271 23.4368 21.7461 22.9023C22.2212 22.3679 22.875 22 24 22ZM18.5 33C16.585 33 15 34.585 15 36.5V39C15 40.9182 16.2799 42.4812 17.9258 43.4688C19.5716 44.4563 21.6858 45 24 45C26.3142 45 28.4284 44.4563 30.0742 43.4688C31.7201 42.4812 33 40.9182 33 39V36.5C33 34.585 31.415 33 29.5 33H18.5ZM18.5 36H29.5C29.795 36 30 36.205 30 36.5V39C30 39.5668 29.5999 40.2553 28.5312 40.8965C27.4626 41.5377 25.8278 42 24 42C22.1722 42 20.5374 41.5377 19.4688 40.8965C18.4001 40.2553 18 39.5668 18 39V36.5C18 36.205 18.205 36 18.5 36Z"
        fill="currentColor"></path>
</svg>