<svg width="32" height="32" viewBox="0 0 24 24" fill="none" name="delivery-time"
    xmlns="http://www.w3.org/2000/svg">
    <path
        d="M12 2C6.48615 2 2 6.48615 2 12C2 17.5139 6.48615 22 12 22C15.2679 22 18.1744 20.4254 20 17.9941V19.75C19.9986 19.8494 20.017 19.9481 20.054 20.0403C20.0911 20.1325 20.1461 20.2164 20.2159 20.2872C20.2857 20.358 20.3688 20.4142 20.4605 20.4526C20.5522 20.4909 20.6506 20.5107 20.75 20.5107C20.8494 20.5107 20.9478 20.4909 21.0395 20.4526C21.1312 20.4142 21.2143 20.358 21.2841 20.2872C21.3539 20.2164 21.4089 20.1325 21.446 20.0403C21.483 19.9481 21.5014 19.8494 21.5 19.75V16.25C21.5 16.0511 21.421 15.8603 21.2803 15.7197C21.1397 15.579 20.9489 15.5 20.75 15.5H17.25C17.1506 15.4986 17.0519 15.517 16.9597 15.554C16.8675 15.5911 16.7836 15.6461 16.7128 15.7159C16.642 15.7857 16.5858 15.8688 16.5474 15.9605C16.5091 16.0522 16.4893 16.1506 16.4893 16.25C16.4893 16.3494 16.5091 16.4478 16.5474 16.5395C16.5858 16.6312 16.642 16.7143 16.7128 16.7841C16.7836 16.8539 16.8675 16.9089 16.9597 16.946C17.0519 16.983 17.1506 17.0014 17.25 17H18.875C17.3305 19.1209 14.8304 20.5 12 20.5C7.29685 20.5 3.5 16.7031 3.5 12C3.5 7.29685 7.29685 3.5 12 3.5C16.7031 3.5 20.5 7.29685 20.5 12V12.25C20.4986 12.3494 20.517 12.4481 20.554 12.5403C20.5911 12.6325 20.6461 12.7164 20.7159 12.7872C20.7857 12.858 20.8688 12.9142 20.9605 12.9526C21.0522 12.9909 21.1506 13.0107 21.25 13.0107C21.3494 13.0107 21.4478 12.9909 21.5395 12.9526C21.6312 12.9142 21.7143 12.858 21.7841 12.7872C21.8539 12.7164 21.9089 12.6325 21.946 12.5403C21.983 12.4481 22.0014 12.3494 22 12.25V12C22 6.48615 17.5139 2 12 2ZM11.7383 5.98926C11.5395 5.99236 11.3502 6.07423 11.2117 6.21686C11.0733 6.3595 10.9971 6.55125 11 6.75V12.75C11 12.9489 11.079 13.1397 11.2197 13.2803C11.3603 13.421 11.5511 13.5 11.75 13.5H15.75C15.8494 13.5014 15.9481 13.483 16.0403 13.446C16.1325 13.4089 16.2164 13.3539 16.2872 13.2841C16.358 13.2143 16.4142 13.1312 16.4526 13.0395C16.4909 12.9478 16.5107 12.8494 16.5107 12.75C16.5107 12.6506 16.4909 12.5522 16.4526 12.4605C16.4142 12.3688 16.358 12.2857 16.2872 12.2159C16.2164 12.1461 16.1325 12.0911 16.0403 12.054C15.9481 12.017 15.8494 11.9986 15.75 12H12.5V6.75C12.5014 6.64962 12.4827 6.54997 12.4449 6.45695C12.4071 6.36394 12.3511 6.27946 12.28 6.20852C12.209 6.13758 12.1245 6.08161 12.0314 6.04395C11.9383 6.00629 11.8387 5.98769 11.7383 5.98926Z"
        fill="currentColor"></path>
</svg>