<svg
    width="48"
    height="48"
    viewBox="0 0 48 48"
    xmlns="http://www.w3.org/2000/svg"
    name="development"
    class="mr-2 hidden h-8 w-8 text-primary 4sm:block lg:h-12 lg:w-[48px]"
>
    <path
        d="M8.5 5C6.0325 5 4 7.0325 4 9.5V30.5C4 32.9675 6.0325 35 8.5 35H17V40H13.5C13.3012 39.9972 13.1039 40.0339 12.9194 40.108C12.735 40.1822 12.5671 40.2922 12.4255 40.4318C12.284 40.5713 12.1716 40.7376 12.0949 40.921C12.0181 41.1044 11.9786 41.3012 11.9786 41.5C11.9786 41.6988 12.0181 41.8956 12.0949 42.079C12.1716 42.2624 12.284 42.4287 12.4255 42.5682C12.5671 42.7078 12.735 42.8178 12.9194 42.892C13.1039 42.9661 13.3012 43.0028 13.5 43H18.2539C18.4149 43.0265 18.5792 43.0265 18.7402 43H29.2539C29.4149 43.0265 29.5792 43.0265 29.7402 43H34.5C34.6988 43.0028 34.8961 42.9661 35.0806 42.892C35.265 42.8178 35.4329 42.7078 35.5745 42.5682C35.716 42.4287 35.8284 42.2624 35.9051 42.079C35.9819 41.8956 36.0214 41.6988 36.0214 41.5C36.0214 41.3012 35.9819 41.1044 35.9051 40.921C35.8284 40.7376 35.716 40.5713 35.5745 40.4318C35.4329 40.2922 35.265 40.1822 35.0806 40.108C34.8961 40.0339 34.6988 39.9972 34.5 40H31V35H39.5C41.9675 35 44 32.9675 44 30.5V9.5C44 7.0325 41.9675 5 39.5 5H8.5ZM8.5 8H39.5C40.3465 8 41 8.6535 41 9.5V30.5C41 31.3465 40.3465 32 39.5 32H29.7461C29.5851 31.9735 29.4208 31.9735 29.2598 32H18.7461C18.5851 31.9735 18.4208 31.9735 18.2598 32H8.5C7.6535 32 7 31.3465 7 30.5V9.5C7 8.6535 7.6535 8 8.5 8ZM25.5215 11.9785C25.1759 11.9748 24.8396 12.0906 24.5694 12.3063C24.2993 12.5219 24.112 12.8242 24.0391 13.1621L21.0391 26.1621C20.9881 26.3562 20.9766 26.5586 21.0053 26.7573C21.034 26.9559 21.1023 27.1468 21.206 27.3186C21.3098 27.4904 21.447 27.6396 21.6095 27.7574C21.772 27.8752 21.9565 27.9593 22.152 28.0045C22.3476 28.0497 22.5502 28.0552 22.7479 28.0207C22.9457 27.9862 23.1345 27.9124 23.3031 27.8036C23.4718 27.6948 23.6169 27.5533 23.7299 27.3874C23.8429 27.2216 23.9215 27.0347 23.9609 26.8379L26.9609 13.8379C27.0151 13.6183 27.0189 13.3894 26.9721 13.1681C26.9253 12.9469 26.8291 12.7391 26.6907 12.5602C26.5522 12.3814 26.3752 12.2362 26.1727 12.1355C25.9702 12.0347 25.7476 11.9811 25.5215 11.9785V11.9785ZM17.5039 14.9844C17.2857 14.9857 17.0704 15.0347 16.8731 15.1278C16.6758 15.2209 16.5011 15.3559 16.3613 15.5234L13.3613 19.0234C13.1281 19.2954 12.9999 19.6418 12.9999 20C12.9999 20.3582 13.1281 20.7046 13.3613 20.9766L16.3613 24.4766C16.4889 24.6282 16.6453 24.7531 16.8214 24.844C16.9976 24.9349 17.19 24.9899 17.3875 25.006C17.5851 25.0221 17.7839 24.9989 17.9724 24.9377C18.1609 24.8765 18.3354 24.7786 18.4859 24.6495C18.6363 24.5205 18.7597 24.3629 18.8489 24.1859C18.9381 24.0089 18.9914 23.816 19.0056 23.6183C19.0198 23.4207 18.9947 23.2221 18.9317 23.0342C18.8687 22.8462 18.7691 22.6727 18.6387 22.5234L16.4766 20L18.6387 17.4766C18.8301 17.2594 18.9546 16.9915 18.9972 16.7052C19.0398 16.4188 18.9986 16.1263 18.8787 15.8628C18.7587 15.5994 18.5651 15.3763 18.3211 15.2204C18.0772 15.0645 17.7934 14.9825 17.5039 14.9844V14.9844ZM30.4512 14.9844C30.1655 14.9911 29.8877 15.0792 29.6504 15.2384C29.4132 15.3976 29.2263 15.6213 29.1118 15.8831C28.9973 16.1449 28.96 16.4339 29.0042 16.7162C29.0484 16.9985 29.1723 17.2623 29.3613 17.4766L31.5234 20L29.3613 22.5234C29.2309 22.6727 29.1313 22.8462 29.0683 23.0342C29.0053 23.2221 28.9802 23.4207 28.9944 23.6183C29.0086 23.816 29.0619 24.0089 29.1511 24.1859C29.2403 24.3629 29.3637 24.5205 29.5141 24.6495C29.6646 24.7786 29.8391 24.8765 30.0276 24.9377C30.2161 24.9989 30.4149 25.0221 30.6125 25.006C30.81 24.9899 31.0024 24.9349 31.1786 24.844C31.3547 24.7531 31.5111 24.6282 31.6387 24.4766L34.6387 20.9766C34.8719 20.7046 35.0001 20.3582 35.0001 20C35.0001 19.6418 34.8719 19.2954 34.6387 19.0234L31.6387 15.5234C31.4941 15.35 31.3122 15.2115 31.1066 15.1181C30.9009 15.0248 30.6769 14.9791 30.4512 14.9844V14.9844ZM20 35H28V40H20V35Z"
        fill="currentColor"
    ></path>
</svg>