<svg width="32" height="32" viewBox="0 0 24 24" fill="none" name="earth-care" xmlns="http://www.w3.org/2000/svg">
    <path fill-rule="evenodd" clip-rule="evenodd"
        d="M2.54664 13.8958C3.47867 12.7795 4.96103 11.5 6.91368 11.5C7.71988 11.5 8.21627 11.6096 8.70452 11.7173C8.77933 11.7338 8.85395 11.7503 8.92946 11.7663C9.46869 11.8808 10.1588 12 11.5537 12H13.7502C14.9929 12 16.0002 13.0073 16.0002 14.25C16.0002 15.4927 14.9929 16.5 13.7502 16.5H10.2502C9.83597 16.5 9.50018 16.1642 9.50018 15.75C9.50018 15.3358 9.83597 15 10.2502 15H13.7502C14.1645 15 14.5002 14.6643 14.5002 14.25C14.5002 13.8357 14.1645 13.5 13.7502 13.5H11.5537C10.0511 13.5 9.25668 13.3692 8.61803 13.2337C8.53207 13.2154 8.4512 13.1977 8.37362 13.1806C7.90107 13.0769 7.55043 13 6.91368 13C5.64083 13 4.54145 13.847 3.6981 14.8572C3.28846 15.3478 2.96897 15.8423 2.75158 16.2158C2.64338 16.4017 2.5617 16.5554 2.50792 16.6609C2.48106 16.7136 2.46124 16.7541 2.44862 16.7803L2.43515 16.8087L2.43267 16.814L2.43253 16.8143L2.4325 16.8144C2.26062 17.191 1.81599 17.3572 1.43919 17.1855C1.06227 17.0137 0.895943 16.5689 1.0677 16.192L1.75018 16.503C1.0677 16.192 1.0678 16.1918 1.06791 16.1915L1.06817 16.191L1.06882 16.1895L1.07067 16.1855L1.07653 16.1729L1.09685 16.1302C1.11419 16.0941 1.13916 16.0432 1.17159 15.9796C1.23639 15.8525 1.33133 15.674 1.45521 15.4612C1.70199 15.0372 2.0686 14.4684 2.54664 13.8958Z"
        fill="currentColor"></path>
    <path fill-rule="evenodd" clip-rule="evenodd"
        d="M20.8071 10.5094C21.386 10.5044 21.9169 10.7349 22.3408 11.1589C23.22 12.0373 23.22 13.4626 22.3408 14.341C22.3063 14.3754 22.2693 14.4058 22.2304 14.4322C21.0958 15.3862 20.1388 16.2067 19.3243 16.905C18.2372 17.837 17.4041 18.5513 16.7415 19.0747C15.5785 19.9935 14.7396 20.5 13.7502 20.5C12.7351 20.5 11.7116 20.3723 10.7336 20.2503L10.6847 20.2442C9.67532 20.1183 8.70957 20 7.75018 20C7.04482 20 6.62281 20.3364 6.35018 20.7C6.20925 20.8879 6.11277 21.0797 6.05186 21.2259C6.02182 21.298 6.00157 21.3562 5.98959 21.3935C5.98362 21.4121 5.97979 21.4252 5.97788 21.4319L5.97655 21.4367C5.87403 21.8357 5.4685 22.0776 5.06828 21.9776C4.66643 21.8771 4.42211 21.4699 4.52257 21.0681L5.25018 21.25C4.52257 21.0681 4.52248 21.0684 4.52257 21.0681L4.52293 21.0666L4.52334 21.065L4.52432 21.0612L4.5269 21.0513L4.53469 21.023C4.54107 21.0005 4.54993 20.9706 4.56155 20.9345C4.58472 20.8624 4.61916 20.7644 4.66724 20.649C4.76258 20.4202 4.91611 20.112 5.15018 19.8C5.62754 19.1635 6.45553 18.5 7.75018 18.5C8.81778 18.5 9.87504 18.6316 10.8704 18.7557L10.8729 18.756C11.8839 18.8821 12.8289 19 13.7502 19C14.1743 19 14.6494 18.8159 15.8117 17.8977C16.4568 17.3881 17.2513 16.7067 18.3089 15.7996C19.134 15.092 20.1191 14.2471 21.3184 13.2393C21.5728 12.9449 21.5602 12.4994 21.2806 12.22C21.119 12.0583 20.9664 12.008 20.82 12.0093C20.6569 12.0107 20.4239 12.0781 20.1372 12.2913C19.7608 12.5709 18.505 13.508 17.3424 14.3759L15.1132 16.0403C15.1132 16.0403 15.1124 16.0409 14.6637 15.44C14.2149 14.839 14.2149 14.839 14.215 14.839L16.4451 13.1739C17.6068 12.3067 18.8643 11.3683 19.2424 11.0874C19.2425 11.0873 19.2423 11.0875 19.2424 11.0874M14.6637 15.44L14.215 14.839C13.8831 15.0868 13.8149 15.5568 14.0628 15.8887C14.3106 16.2206 14.7813 16.2881 15.1132 16.0403L14.6637 15.44Z"
        fill="currentColor"></path>
    <path fill-rule="evenodd" clip-rule="evenodd"
        d="M13.5 3.5C11.8431 3.5 10.5 4.84315 10.5 6.5C10.5 8.15685 11.8431 9.5 13.5 9.5C15.1569 9.5 16.5 8.15685 16.5 6.5C16.5 4.84315 15.1569 3.5 13.5 3.5ZM9 6.5C9 4.01472 11.0147 2 13.5 2C15.9853 2 18 4.01472 18 6.5C18 8.98528 15.9853 11 13.5 11C11.0147 11 9 8.98528 9 6.5Z"
        fill="currentColor"></path>
    <path fill-rule="evenodd" clip-rule="evenodd"
        d="M13.3276 4.08552C13.1332 4.66895 13 5.52264 13 6.5C13 7.47736 13.1332 8.33105 13.3276 8.91448C13.3862 9.09024 13.4456 9.22694 13.5 9.32904C13.5544 9.22694 13.6138 9.09024 13.6724 8.91448C13.8668 8.33105 14 7.47736 14 6.5C14 5.52264 13.8668 4.66895 13.6724 4.08552C13.6138 3.90976 13.5544 3.77306 13.5 3.67096C13.4456 3.77306 13.3862 3.90976 13.3276 4.08552ZM13.6473 3.46016C13.6473 3.4603 13.6458 3.46166 13.6428 3.4638C13.6458 3.46108 13.6473 3.46001 13.6473 3.46016ZM13.3572 3.4638C13.3542 3.46166 13.3527 3.4603 13.3527 3.46016C13.3527 3.46001 13.3542 3.46108 13.3572 3.4638ZM13.3527 9.53984C13.3527 9.5397 13.3542 9.53834 13.3572 9.5362C13.3542 9.53892 13.3527 9.53999 13.3527 9.53984ZM13.6428 9.5362C13.6458 9.53834 13.6473 9.5397 13.6473 9.53984C13.6473 9.53999 13.6458 9.53892 13.6428 9.5362ZM12.4244 2.58046C12.6413 2.30522 12.9991 2 13.5 2C14.0009 2 14.3587 2.30522 14.5756 2.58046C14.7992 2.86416 14.9677 3.22819 15.0954 3.61118C15.3533 4.38499 15.5 5.40629 15.5 6.5C15.5 7.59371 15.3533 8.61501 15.0954 9.38882C14.9677 9.77181 14.7992 10.1358 14.5756 10.4195C14.3587 10.6948 14.0009 11 13.5 11C12.9991 11 12.6413 10.6948 12.4244 10.4195C12.2008 10.1358 12.0323 9.77181 11.9046 9.38882C11.6467 8.61501 11.5 7.59371 11.5 6.5C11.5 5.40629 11.6467 4.38499 11.9046 3.61118C12.0323 3.22819 12.2008 2.86416 12.4244 2.58046Z"
        fill="currentColor"></path>
</svg>