<svg width="28" height="28" viewBox="0 0 28 28" fill="none" xmlns="http://www.w3.org/2000/svg"
    name="eye" class="mr-2 hidden h-6 w-6 text-primary 4sm:block">
    <g clip-path="url(#clip0_11408_2624)">
        <path
            d="M13.9919 5.25C7.38881 5.25 1.57074 9.82679 0.0272453 15.8241C-0.0304687 16.0489 0.00348753 16.2874 0.121644 16.4872C0.2398 16.687 0.432478 16.8316 0.657291 16.8893C0.882103 16.947 1.12063 16.9131 1.32041 16.7949C1.52019 16.6768 1.66484 16.4841 1.72256 16.2593C3.05256 11.0915 8.20504 7 13.9919 7C19.7788 7 24.9476 11.093 26.2772 16.2593C26.335 16.4841 26.4796 16.6768 26.6794 16.7949C26.8792 16.9131 27.1177 16.947 27.3425 16.8893C27.5673 16.8316 27.76 16.687 27.8782 16.4872C27.9963 16.2874 28.0303 16.0489 27.9726 15.8241C26.4287 9.82535 20.595 5.25 13.9919 5.25ZM14.001 9.91667C10.8977 9.91667 8.36367 12.4507 8.36367 15.554C8.36367 18.6574 10.8977 21.1925 14.001 21.1925C17.1044 21.1925 19.6395 18.6574 19.6395 15.554C19.6395 12.4507 17.1044 9.91667 14.001 9.91667ZM14.001 11.6667C16.1586 11.6667 17.8895 13.3964 17.8895 15.554C17.8895 17.7116 16.1586 19.4425 14.001 19.4425C11.8434 19.4425 10.1137 17.7116 10.1137 15.554C10.1137 13.3964 11.8434 11.6667 14.001 11.6667Z"
            fill="currentColor"></path>
    </g>
    <defs>
        <clipPath id="clip0_11408_2624">
            <rect width="28" height="28" fill="white"></rect>
        </clipPath>
    </defs>
</svg>