<svg width="35" height="35" viewBox="0 0 35 35" fill="none" xmlns="http://www.w3.org/2000/svg"
    name="figma" class="mr-2 h-9 w-9 ListItems_ListItemIcon__JEBXv">
    <path
        d="M12.5416 3.5C10.1266 3.5 8.16663 5.59066 8.16663 8.16666C8.16663 10.7407 10.1237 12.8302 12.5362 12.8333C10.1237 12.8364 8.16663 14.9259 8.16663 17.5C8.16663 20.076 10.1266 22.1666 12.5416 22.1666H16.9166V12.8333V3.5H12.5416Z"
        fill="currentColor"></path>
    <path
        d="M12.5416 31.5C14.9566 31.5 16.9166 29.4093 16.9166 26.8333V22.1666H12.5416C10.1266 22.1666 8.16663 24.2573 8.16663 26.8333C8.16663 29.4093 10.1266 31.5 12.5416 31.5Z"
        fill="currentColor"></path>
    <path
        d="M16.9166 3.5H21.2916C23.7066 3.5 25.6666 5.59066 25.6666 8.16666C25.6666 10.7407 23.7095 12.8302 21.297 12.8333C23.7095 12.8364 25.6666 14.9259 25.6666 17.5C25.6666 20.076 23.7066 22.1666 21.2916 22.1666C18.8766 22.1666 16.9166 20.076 16.9166 17.5C16.9166 14.9269 18.8722 12.838 21.2834 12.8333H16.9166V3.5Z"
        fill="currentColor"></path>
</svg>