<svg
    width="32"
    height="32"
    viewBox="0 0 35 35"
    fill="none"
    xmlns="http://www.w3.org/2000/svg"
    name="golang"
    class="w-10 min-w-10 text-primary-500"
    style="color: rgb(255, 255, 255);"
>
    <path
        d="M25.716 6.7355C25.4774 6.31575 25.0896 6.0009 24.6422 5.88095C24.1724 5.75355 23.6653 5.84348 23.1732 6.15833C23.3969 6.3682 23.6131 6.59305 23.807 6.84793C24.1128 6.75048 24.4111 6.78795 24.5825 7.11785C24.754 7.4476 24.6497 7.67998 24.4334 7.86736C24.5852 8.2551 24.7171 8.65041 24.8286 9.05173C25.3879 8.84186 25.7459 8.48953 25.8875 8.04728C26.0218 7.62753 25.9547 7.15525 25.716 6.7355Z"
        fill="currentColor"
    ></path>
    <path
        d="M8.87794 7.11033C8.63928 7.53008 8.5871 8.00973 8.74371 8.41458C8.90032 8.81936 9.25824 9.14166 9.80264 9.35153C9.84733 9.17913 9.89951 9.00673 9.95176 8.84186C9.99645 8.70693 10.0487 8.57201 10.1009 8.44453C9.72059 8.23466 9.45213 7.95736 9.68331 7.51503C9.90699 7.1028 10.3022 7.14028 10.69 7.3427C10.9119 7.01512 11.1723 6.71562 11.4656 6.45068C10.9584 6.1508 10.4439 6.08338 9.96666 6.22583C9.50431 6.36075 9.11652 6.6905 8.87794 7.11033Z"
        fill="currentColor"
    ></path>
    <path
        d="M16.3683 12.2563L16.5777 12.2057C16.6106 12.1953 16.6446 12.1841 16.6798 12.172C16.6864 12.1697 16.6937 12.1675 16.7016 12.1651C16.7205 12.1594 16.743 12.1525 16.7692 12.142C17.1342 12.0174 17.2957 11.9759 17.465 11.988L17.4823 11.9842V11.9894C17.4882 11.9899 17.4941 11.9906 17.5 11.9912L17.5075 11.9921C17.7014 11.9996 17.8654 12.0446 18.1637 12.172L18.1909 12.1829C18.4676 12.2942 18.5557 12.3296 18.6857 12.3369C18.8572 12.3444 18.9989 12.2919 19.1406 12.1345C19.3792 11.8796 19.3718 11.6097 19.1481 11.34C18.9789 11.1291 18.6993 10.9306 18.3816 10.7836C18.0224 11.2823 16.5832 11.3465 16.3504 10.821C15.815 10.904 15.4344 11.5408 15.6954 12.0145C15.8308 12.2639 16.013 12.3333 16.3292 12.2713L16.3326 12.2631L16.3683 12.2563Z"
        fill="currentColor"
    ></path>
    <path
        d="M16.5183 13.467C16.3518 13.1895 16.3133 12.7258 16.4291 12.4065C16.5174 12.3856 16.6162 12.3553 16.732 12.3144C16.7388 12.3121 16.7463 12.3098 16.7545 12.3073C16.7698 12.3026 16.7876 12.2972 16.8077 12.2897L17.3395 12.161C17.3324 12.2495 17.3253 12.3379 17.3109 12.4943C17.3053 12.5903 17.2997 12.6403 17.2942 12.6902C17.2934 12.6973 17.2926 12.7044 17.2918 12.7116C17.2911 12.7184 17.2903 12.7253 17.2896 12.7324C17.2752 12.9841 17.2752 13.1745 17.2967 13.365C16.961 13.7731 16.6968 13.7731 16.5183 13.467Z"
        fill="currentColor"
    ></path>
    <path
        d="M18.3107 13.5011C18.2608 13.5827 18.1965 13.6235 18.025 13.6779C18.0179 13.6779 18.0179 13.6779 18.0108 13.6847C17.9857 13.6927 17.9656 13.7006 17.9489 13.7072C17.937 13.7119 17.9268 13.7158 17.9179 13.7187C17.7251 13.6847 17.5609 13.5622 17.4823 13.3922C17.4609 13.2085 17.4609 13.0181 17.4752 12.7664C17.478 12.7399 17.4797 12.7165 17.4816 12.6905C17.4845 12.6499 17.4879 12.603 17.4967 12.5283C17.5109 12.372 17.518 12.2767 17.518 12.1883L18.2965 12.4127C18.2965 12.4947 18.3026 12.5707 18.3149 12.7222L18.3179 12.7596C18.3322 12.9433 18.3393 13.0385 18.3393 13.1473C18.3393 13.2765 18.3321 13.3922 18.3107 13.5011Z"
        fill="currentColor"
    ></path>
    <path
        d="M19.3047 8.81686C19.3953 8.81686 19.4687 8.72627 19.4687 8.61451C19.4687 8.50276 19.3953 8.41216 19.3047 8.41216C19.2141 8.41216 19.1407 8.50276 19.1407 8.61451C19.1407 8.72627 19.2141 8.81686 19.3047 8.81686Z"
        fill="currentColor"
    ></path>
    <path
        fill-rule="evenodd"
        clip-rule="evenodd"
        d="M20.6096 10.3986C21.2286 10.2936 21.7729 9.99384 22.1309 9.55904C22.5261 9.07931 22.6603 8.45714 22.4962 7.74504C21.8698 5.04653 17.6491 5.78866 17.8132 8.56211C18.0518 9.92634 19.2598 10.6235 20.6096 10.3986ZM18.9765 9.2218C19.3678 9.2218 19.6849 8.86942 19.6849 8.43475C19.6849 8.00007 19.3678 7.6477 18.9765 7.6477C18.5853 7.6477 18.2681 8.00007 18.2681 8.43475C18.2681 8.86942 18.5853 9.2218 18.9765 9.2218Z"
        fill="currentColor"
    ></path>
    <path
        d="M13.4315 8.8089C13.4315 8.92065 13.3547 9.01125 13.26 9.01125C13.1653 9.01125 13.0885 8.92065 13.0885 8.8089C13.0885 8.69714 13.1653 8.60655 13.26 8.60655C13.3547 8.60655 13.4315 8.69714 13.4315 8.8089Z"
        fill="currentColor"
    ></path>
    <path
        fill-rule="evenodd"
        clip-rule="evenodd"
        d="M11.8208 9.05636C11.6717 8.29933 11.8358 7.65466 12.2533 7.16741C12.6336 6.72516 13.2078 6.43288 13.8417 6.35041C14.4756 6.26793 15.1094 6.39541 15.5867 6.72516C16.1161 7.08501 16.4368 7.64721 16.4815 8.38926C16.6381 11.0053 12.4844 11.635 11.8208 9.05636ZM13.6553 8.62911C13.6553 9.06379 13.3314 9.41616 12.932 9.41616C12.5325 9.41616 12.2087 9.06379 12.2087 8.62911C12.2087 8.19444 12.5325 7.84206 12.932 7.84206C13.3314 7.84206 13.6553 8.19444 13.6553 8.62911Z"
        fill="currentColor"
    ></path>
    <path
        fill-rule="evenodd"
        clip-rule="evenodd"
        d="M23.6746 27.9174C24.0145 27.5566 24.2987 27.1501 24.5229 26.6969C25.2313 25.2802 25.4997 23.6236 25.4848 21.4723C25.4774 20.7077 25.4475 20.0481 25.3654 18.7738C25.3557 18.6185 25.3479 18.4968 25.3416 18.3971C25.3887 18.4178 25.4431 18.4467 25.5061 18.4913C25.8491 18.7312 26.6172 19.0909 26.6545 18.3189C27.0647 18.1315 26.6695 17.6367 26.4606 17.4868C26.1206 17.2383 25.6934 17.1134 25.2727 17.1035C25.2585 16.6802 25.2509 16.2172 25.2462 15.648V15.0633C25.2387 13.2269 25.2163 12.4173 25.112 11.4129C24.9777 10.0937 24.7242 8.94676 24.2916 7.88241C23.6205 6.57055 22.6436 5.71608 21.3312 5.22883C20.235 4.82405 18.9673 4.66663 17.2298 4.66663C15.373 4.8166 14.0083 5.1015 12.8823 5.6561C11.54 6.32313 10.6078 7.35008 10.1009 8.87188C9.78766 9.80876 9.63861 10.7983 9.61615 11.9226C9.60126 12.7771 9.63854 13.4593 9.77277 15.0184C9.86099 16.0894 9.8998 16.6203 9.91736 17.2043C9.43808 17.1761 8.93189 17.2984 8.54088 17.5842C8.32467 17.7341 7.93696 18.2289 8.34706 18.4163C8.38434 19.1884 9.15242 18.8286 9.49544 18.5887C9.60768 18.5092 9.69286 18.4797 9.75757 18.4573C9.84086 18.4285 9.89021 18.4114 9.91962 18.3146C9.91815 18.3604 9.91645 18.406 9.91448 18.4515C9.8921 18.9312 9.86971 19.2385 9.78766 20.303C9.7131 21.2474 9.68331 21.7646 9.66092 22.3418C9.59377 24.4556 9.83992 25.9923 10.5856 27.1991C10.812 27.5688 11.0908 27.903 11.4143 28.2016C11.3805 28.2257 11.3455 28.2505 11.3095 28.276C10.7571 28.6666 9.99106 29.2083 10.4424 29.9224C10.5297 30.0101 10.5571 30.0091 10.5881 30.008C10.6048 30.0074 10.6226 30.0067 10.6512 30.0199L10.652 30.0213C10.6983 30.1144 10.9077 30.5353 11.4492 30.2148C11.6677 30.0936 11.8588 29.9292 12.0491 29.7654C12.3166 29.5353 12.5823 29.3066 12.9199 29.2019C14.027 29.729 15.3653 30.0188 16.8048 30.07C18.3932 30.13 19.9293 29.9351 21.2268 29.4628C21.6762 29.299 22.0917 29.1038 22.4707 28.8766C22.7088 28.9922 22.9209 29.2423 23.1302 29.4889C23.5253 29.9544 23.9101 30.4079 24.4394 29.9224C25.3178 29.3882 24.2674 28.2958 23.6746 27.9174ZM18.4471 10.4255C18.2186 9.58083 16.3217 9.69559 16.321 10.6828C15.6973 10.7917 15.2678 11.5272 15.5761 12.0895C15.7029 12.3144 15.8744 12.4268 16.1056 12.4418C16.1587 12.4441 16.2125 12.4421 16.2697 12.4354C16.1723 12.7863 16.2211 13.2421 16.3969 13.5351C16.6254 13.916 16.9967 13.9227 17.3752 13.4874C17.428 13.5844 17.5039 13.6681 17.597 13.732C17.69 13.7958 17.7975 13.8378 17.9108 13.8548H17.9323L17.9536 13.8479C17.9689 13.8407 17.9841 13.8353 18.0025 13.8289C18.0187 13.8232 18.0374 13.8166 18.0608 13.8071C18.0639 13.8071 18.0657 13.8071 18.0672 13.8066C18.0693 13.8058 18.071 13.8042 18.0751 13.8003C18.2821 13.7323 18.3679 13.6778 18.4393 13.5486L18.4464 13.5418V13.5282C18.4678 13.4058 18.475 13.2765 18.475 13.1337C18.475 13.0321 18.4679 12.9373 18.4537 12.7486L18.4535 12.746L18.4476 12.6624C18.4402 12.5592 18.4355 12.493 18.4334 12.4322C18.5266 12.464 18.5937 12.4787 18.6782 12.4867C18.8946 12.5018 19.081 12.4268 19.2524 12.2395C19.5433 11.9171 19.5284 11.5723 19.2674 11.25C19.0858 11.0202 18.783 10.8086 18.4464 10.6538C18.4672 10.584 18.4688 10.5078 18.4471 10.4255ZM17.6716 8.57709C17.4926 5.63123 21.9668 4.84418 22.6305 7.71509C22.8094 8.46466 22.6602 9.13176 22.2427 9.64904C21.8624 10.1138 21.2807 10.4286 20.632 10.541C19.2077 10.7809 17.9176 10.0388 17.6716 8.58461V8.57709ZM16.6232 8.36668C16.5784 7.58708 16.2354 6.97996 15.6687 6.59768C15.1616 6.25288 14.4905 6.11796 13.8268 6.20036C13.1631 6.29043 12.5516 6.59023 12.1489 7.06251C11.7015 7.58716 11.53 8.27676 11.6866 9.07133C12.3876 11.8297 16.7872 11.1626 16.6232 8.36668Z"
        fill="currentColor"
    ></path>
</svg>