<svg width="35" height="36" viewBox="0 0 35 36" fill="none" xmlns="http://www.w3.org/2000/svg"
    name="googleanalytics" class="mr-2 h-9 w-9 ListItems_ListItemIcon__JEBXv">
    <path
        d="M22.9688 5.78638V29.8489C22.9688 32.5413 24.8281 34.0416 26.7969 34.0416C28.6198 34.0416 30.625 32.7655 30.625 29.8489V5.96867C30.625 3.50044 28.8021 1.95825 26.7969 1.95825C24.7917 1.95825 22.9688 3.65903 22.9688 5.78638Z"
        fill="currentColor" fill-opacity="0.5"></path>
    <path
        d="M12.9426 17.9995V29.8485C12.9426 32.5409 14.802 34.0412 16.7708 34.0412C18.5937 34.0412 20.5989 32.7651 20.5989 29.8485V18.1818C20.5989 15.7136 18.776 14.1714 16.7708 14.1714C14.7656 14.1714 12.9426 15.8722 12.9426 17.9995Z"
        fill="currentColor" fill-opacity="0.75"></path>
    <path
        d="M6.74477 34.0415C8.859 34.0415 10.5729 32.3276 10.5729 30.2134C10.5729 28.0992 8.859 26.3853 6.74477 26.3853C4.63055 26.3853 2.91663 28.0992 2.91663 30.2134C2.91663 32.3276 4.63055 34.0415 6.74477 34.0415Z"
        fill="currentColor"></path>
</svg>