<svg
    width="32"
    height="32"
    viewBox="0 0 60 48"
    fill="none"
    xmlns="http://www.w3.org/2000/svg"
    name="hand-shake"
>
    <path
        d="M35.8573 0.0101233C34.5336 0.0713932 33.2146 0.411422 31.9842 1.02665C31.9484 1.04444 31.9133 1.06333 31.8785 1.08326L28.142 3.24243C28.1025 3.24038 28.0629 3.23953 28.0234 3.23985H2.98849C2.72659 3.23616 2.46654 3.28454 2.22352 3.38221C1.98047 3.47987 1.75927 3.62486 1.57274 3.80875C1.38624 3.99267 1.23812 4.21179 1.13703 4.45342C1.03594 4.69507 0.983887 4.95438 0.983887 5.2163C0.983887 5.47824 1.03594 5.73756 1.13703 5.97918C1.23812 6.22081 1.38624 6.43996 1.57274 6.62385C1.75927 6.80776 1.98047 6.95275 2.22352 7.05042C2.46654 7.14808 2.72659 7.19646 2.98849 7.19275H19.8063L18.9468 7.55046C18.9041 7.56788 18.862 7.58675 18.8207 7.60709C16.6303 8.70228 15.6198 11.0353 15.838 13.135C16.0562 15.2346 17.5593 17.3278 19.9684 17.9293C20.9075 18.1634 21.9507 18.2999 23.0875 18.2999C28.8503 18.2999 34.4972 16.5043 36.1687 15.9504C37.2676 17.1774 42.6876 23.2344 44.4991 25.0888C45.8106 26.4312 45.9437 27.7415 45.6056 28.6738C45.2678 29.6059 44.5004 30.3259 42.8288 30.3312C42.3748 30.3325 41.9352 30.4901 41.5837 30.7773C41.2324 31.0646 40.9905 31.4641 40.8988 31.9086C40.406 34.292 39.5363 34.6303 38.6496 34.863C37.7628 35.0957 36.9071 34.8939 36.9071 34.8939C36.6191 34.8153 36.3166 34.8029 36.023 34.8578C35.7294 34.9128 35.4519 35.0335 35.2116 35.2111C34.9715 35.3888 34.7744 35.6186 34.6358 35.8831C34.4972 36.1477 34.4202 36.4405 34.411 36.7391C34.411 36.7391 34.3454 37.7594 33.8421 38.6333C33.339 39.5069 32.8151 40.2432 30.4684 39.9868C29.9703 39.9322 29.4699 40.0685 29.0685 40.3686C28.6675 40.6685 28.395 41.1099 28.3067 41.603C28.0376 43.1072 27.2196 43.7602 25.9929 43.986C24.7665 44.2119 23.1007 43.8103 21.6438 42.3698C19.7784 40.5262 12.9767 33.5899 9.89833 30.4468C8.53535 29.0549 6.66871 28.2749 4.7256 28.2749H2.98849C2.72659 28.2712 2.46654 28.3197 2.22352 28.4172C1.98047 28.5149 1.75927 28.6599 1.57274 28.8438C1.38624 29.0278 1.23812 29.2467 1.13703 29.4884C1.03594 29.7301 0.983887 29.9894 0.983887 30.2513C0.983887 30.5133 1.03594 30.7726 1.13703 31.0142C1.23812 31.2559 1.38624 31.4749 1.57274 31.6588C1.75927 31.8427 1.98047 31.9877 2.22352 32.0855C2.46654 32.183 2.72659 32.2315 2.98849 32.2278H4.7256C5.61803 32.2278 6.45386 32.5788 7.0752 33.2133C10.1554 36.3583 16.8929 43.2316 18.8644 45.1801C21.1377 47.4277 24.0691 48.3606 26.7084 47.8746C28.8485 47.4807 30.7227 45.9881 31.6598 43.8601C33.9137 43.6719 35.6456 42.6368 36.691 41.4022C36.7177 41.4038 36.7443 41.4045 36.7709 41.4048C36.7709 41.4048 42.7184 41.5086 46.0278 41.4048C48.3297 41.3334 50.6506 40.552 52.6982 38.7566C53.6221 37.9473 54.7331 37.4957 55.8637 37.4957H57.0113C57.2733 37.4993 57.5334 37.4511 57.7763 37.3534C58.0193 37.2556 58.2407 37.1106 58.4272 36.9267C58.6136 36.743 58.7617 36.5238 58.8628 36.2821C58.964 36.0405 59.016 35.7812 59.016 35.5192C59.016 35.2573 58.964 34.998 58.8628 34.7563C58.7617 34.5146 58.6136 34.2957 58.4272 34.1117C58.2407 33.9278 58.0193 33.7828 57.7763 33.6851C57.5334 33.5876 57.2733 33.5391 57.0113 33.5428H55.8637C53.684 33.5428 51.6604 34.4116 50.0937 35.7843C48.6552 37.0458 47.5128 37.4047 45.9068 37.4545C45.9058 37.4545 45.905 37.4545 45.9042 37.4545C44.8251 37.4885 43.3222 37.4814 41.9076 37.4804C42.9158 36.6492 43.82 35.4409 44.3781 33.8258C46.6616 33.304 48.5969 32.0217 49.3219 30.0223C50.2165 27.5546 49.5206 24.5718 47.3249 22.325C45.661 20.6215 38.2738 12.3912 38.2738 12.3912C38.0147 12.102 37.6761 11.8956 37.3003 11.7977C36.9245 11.6997 36.5282 11.7146 36.1608 11.8405C36.1608 11.8405 28.6337 14.3471 23.0875 14.3471C22.2664 14.3471 21.552 14.2509 20.9258 14.0949C20.137 13.8979 19.839 13.3872 19.7703 12.7258C19.7019 12.0681 19.9184 11.4875 20.5809 11.1508L26.7677 8.58245C26.8473 8.54893 26.9248 8.51025 26.9993 8.46663L33.7625 4.55748C35.2567 3.8136 36.8444 3.7576 38.2841 4.33359L47.191 7.89531C48.2032 8.30196 49.2839 8.50748 50.3718 8.50782L57.0113 8.51038C57.2733 8.5141 57.5334 8.46571 57.7763 8.36805C58.0193 8.27039 58.2407 8.12539 58.4272 7.94148C58.6136 7.75759 58.7617 7.53844 58.8628 7.29681C58.964 7.05519 59.016 6.79588 59.016 6.53393C59.016 6.27201 58.964 6.0127 58.8628 5.77105C58.7617 5.52942 58.6136 5.3103 58.4272 5.12638C58.2407 4.9425 58.0193 4.7975 57.7763 4.69984C57.5334 4.60218 57.2733 4.55379 57.0113 4.55748L50.3744 4.55493C49.787 4.55493 49.2072 4.4457 48.6654 4.22808C48.6638 4.22723 48.662 4.22636 48.6604 4.22552L39.7535 0.663774C38.5089 0.165788 37.1809 -0.0511729 35.8573 0.0101233Z"
        fill="currentColor"
    ></path>
</svg>