<svg
    width="32"
    height="32"
    viewBox="0 0 36 36"
    fill="none"
    xmlns="http://www.w3.org/2000/svg"
    name="hand-holding-heart"
    class="ml-1 mr-2.5 mt-1 w-7 min-w-5 text-color6 2sm:w-8 lg:min-w-6"
>
    <path
        d="M26.6281 3.00407C24.8075 2.99172 22.9774 3.67542 21.5671 5.04167C21.5582 5.05031 21.5494 5.0591 21.5407 5.06804L20.2356 6.42009L18.945 5.12956C16.1307 2.31524 11.6377 2.30918 8.81711 5.04167C8.81317 5.04603 8.80927 5.05043 8.80539 5.05485C6.04416 7.81609 6.04416 12.3586 8.80539 15.1198L8.79807 15.1139L10.9118 17.2629C8.15135 17.4 6.03883 19.1799 4.62913 20.8327C3.16203 22.5527 2.35715 24.2707 2.35715 24.2707C2.29421 24.4044 2.25823 24.5492 2.25125 24.6968C2.24428 24.8444 2.26645 24.9919 2.3165 25.1309C2.36655 25.27 2.44349 25.3978 2.54295 25.5071C2.6424 25.6164 2.76241 25.705 2.89612 25.7679C3.02983 25.8309 3.17463 25.8668 3.32223 25.8738C3.46984 25.8807 3.61738 25.8585 3.7564 25.8084C3.89543 25.7584 4.02323 25.6814 4.13251 25.5819C4.24179 25.4824 4.3304 25.3624 4.39329 25.2287C4.39329 25.2287 5.08841 23.7591 6.34006 22.2917C7.59171 20.8242 9.3031 19.4997 11.2502 19.4997C12.8252 19.4997 14.0627 20.2497 17.2502 20.2497H21.3752C22.0767 20.2497 22.5002 20.6732 22.5002 21.3747C22.5002 22.0761 22.0767 22.4997 21.3752 22.4997H16.1252C15.9761 22.4976 15.8281 22.5251 15.6898 22.5807C15.5515 22.6363 15.4255 22.7188 15.3194 22.8235C15.2132 22.9282 15.1289 23.0529 15.0714 23.1904C15.0138 23.328 14.9842 23.4756 14.9842 23.6247C14.9842 23.7738 15.0138 23.9214 15.0714 24.0589C15.1289 24.1964 15.2132 24.3212 15.3194 24.4259C15.4255 24.5305 15.5515 24.6131 15.6898 24.6686C15.8281 24.7242 15.9761 24.7518 16.1252 24.7497H21.3752C22.8678 24.7497 24.1359 23.7477 24.5744 22.3913L28.9206 17.9704C29.5539 17.3371 30.4314 17.3534 30.9758 17.9396L30.9905 17.9557L31.0051 17.9704C31.6384 18.6037 31.6206 19.4812 31.0344 20.0256L31.0154 20.0431L23.1301 28.0793C22.7945 28.4149 22.5502 28.4997 22.1252 28.4997C20.1252 28.4997 15.5627 27.7497 12.3752 27.7497C10.044 27.7497 8.01605 29.3844 7.52659 31.6359C7.48877 31.7825 7.48092 31.9352 7.50352 32.0849C7.52612 32.2346 7.5787 32.3782 7.65811 32.5071C7.73752 32.636 7.84213 32.7476 7.96567 32.8351C8.08921 32.9226 8.22914 32.9843 8.37708 33.0164C8.52502 33.0486 8.67793 33.0505 8.82665 33.0222C8.97537 32.9938 9.11684 32.9358 9.24259 32.8515C9.36833 32.7672 9.47577 32.6583 9.55847 32.5315C9.64116 32.4047 9.69741 32.2625 9.72385 32.1134C9.98439 30.915 11.1065 29.9997 12.3752 29.9997C15.1877 29.9997 19.6252 30.7497 22.1252 30.7497C23.0502 30.7497 24.0065 30.3845 24.7209 29.6701L24.7239 29.6657L32.6032 21.6383L32.5652 21.6735C34.0741 20.2723 34.059 17.8637 32.6062 16.3957C32.2298 15.9958 31.7798 15.7125 31.2981 15.527L31.6321 15.1842L31.6203 15.1945C34.3803 12.4346 34.3806 7.89557 31.6233 5.13395C30.2516 3.72316 28.4448 3.01639 26.6281 3.00407ZM13.8723 5.22624C15.1173 5.23423 16.3629 5.72903 17.3542 6.72038L19.4548 8.8195C19.5604 8.92528 19.686 9.00896 19.8243 9.06566C19.9626 9.12235 20.1108 9.15091 20.2603 9.14969C20.4098 9.14846 20.5575 9.11746 20.6948 9.05851C20.8322 8.99955 20.9564 8.91382 21.0603 8.80632L23.133 6.65739L23.136 6.65593C25.1154 4.74079 28.1142 4.74221 30.0178 6.7072C30.0217 6.71162 30.0256 6.71601 30.0295 6.72038C31.9183 8.60914 31.9183 11.7149 30.0295 13.6037C30.0261 13.6076 30.0227 13.6115 30.0193 13.6154L27.3298 16.3796L27.3269 16.3825L27.3196 16.3898L24.2038 19.5568C23.5997 18.6253 22.5558 17.9997 21.3752 17.9997H17.2502C16.0912 17.9997 15.266 17.8653 14.511 17.7155L10.4021 13.5363C10.4001 13.5338 10.3982 13.5314 10.3962 13.529C8.50905 11.6418 8.5093 8.54075 10.3933 6.65153C11.383 5.69707 12.6273 5.21825 13.8723 5.22624Z"
        fill="currentColor"
    ></path>
</svg>