<svg width="35" height="35" viewBox="0 0 35 35" fill="none" xmlns="http://www.w3.org/2000/svg"
    name="illustrator" class="mr-2 h-9 w-9 ListItems_ListItemIcon__JEBXv">
    <path fill-rule="evenodd" clip-rule="evenodd"
        d="M8.45833 3.5H26.5417C29.2833 3.5 31.5 5.71667 31.5 8.45833V25.8417C31.5 28.5833 29.2833 30.8 26.5417 30.8H8.45833C5.71667 30.8 3.5 28.5833 3.5 25.8417V8.45833C3.5 5.71667 5.71667 3.5 8.45833 3.5ZM17.0683 19.8799H12.7283L11.8416 22.6216C11.8183 22.7266 11.7249 22.7966 11.6199 22.7849H9.4266C9.29826 22.7849 9.26326 22.7149 9.29826 22.5749L13.0549 11.7599C13.0651 11.7259 13.0753 11.6909 13.0858 11.6549L13.0858 11.6549C13.1113 11.5674 13.1385 11.4741 13.1716 11.3749C13.2183 11.1299 13.2416 10.8733 13.2416 10.6166C13.2299 10.5583 13.2766 10.4999 13.3349 10.4883H13.3699H16.3566C16.4499 10.4883 16.4966 10.5233 16.5083 10.5816L20.7666 22.5983C20.8016 22.7266 20.7666 22.7849 20.6499 22.7849H18.2116C18.1299 22.7966 18.0483 22.7383 18.0249 22.6566L17.0683 19.8799ZM13.4049 17.5116H16.3683C16.2983 17.2666 16.2049 16.9749 16.0999 16.6716C15.9949 16.3566 15.8899 16.0183 15.7849 15.6683C15.7266 15.4874 15.6712 15.3095 15.6158 15.1316C15.5604 14.9537 15.5049 14.7758 15.4466 14.5949C15.3299 14.2333 15.2249 13.8949 15.1316 13.5566C15.0903 13.412 15.0513 13.272 15.0135 13.1366L15.0135 13.1364C14.9659 12.9659 14.9204 12.8026 14.8749 12.6466H14.8516C14.7466 13.1483 14.6183 13.6499 14.4549 14.1516C14.3883 14.3649 14.3216 14.5815 14.2544 14.8003L14.2543 14.8004L14.2542 14.8007C14.1449 15.1562 14.0338 15.5172 13.9183 15.8783C13.7549 16.4733 13.5799 17.0216 13.4049 17.5116ZM22.2709 12.0749C22.5509 12.3433 22.9242 12.4949 23.3092 12.4833C23.7059 12.5066 24.1025 12.3549 24.3709 12.0749C24.6509 11.7833 24.7909 11.3983 24.7792 11.0016C24.7909 10.6166 24.6509 10.2433 24.3942 9.96326C24.1375 9.69493 23.7875 9.55493 23.3325 9.55493C22.9475 9.55493 22.5742 9.69493 22.2942 9.96326C22.0142 10.2316 21.8625 10.6049 21.8742 11.0016C21.8625 11.3983 22.0025 11.7833 22.2709 12.0749ZM22.0025 13.6266V22.6099C22.0025 22.7266 22.0609 22.7966 22.1775 22.7966H24.4642C24.5692 22.7966 24.6159 22.7383 24.6159 22.6099V13.6266C24.6159 13.5216 24.5692 13.4633 24.4642 13.4633H22.1542C22.0492 13.4633 22.0025 13.5099 22.0025 13.6266Z"
        fill="currentColor"></path>
</svg>