<svg width="35" height="35" viewBox="0 0 35 35" fill="none" xmlns="http://www.w3.org/2000/svg"
    name="jira" class="mr-2 h-9 w-9 ListItems_ListItemIcon__JEBXv">
    <path
        d="M30.2577 16.7171L17.0406 3.5L3.82354 16.7171C3.61634 16.9251 3.5 17.2068 3.5 17.5004C3.5 17.7941 3.61634 18.0757 3.82354 18.2838L17.0406 31.5009L30.2577 18.2838C30.4649 18.0757 30.5813 17.7941 30.5813 17.5004C30.5813 17.2068 30.4649 16.9251 30.2577 16.7171ZM17.0406 21.6386L12.9011 17.4991L17.0406 13.3595L21.1802 17.4991L17.0406 21.6386Z"
        fill="currentColor"></path>
    <path
        d="M17.0406 13.3869C15.7386 12.085 15.0046 10.3209 14.999 8.47973C14.9934 6.63855 15.7165 4.86995 17.0105 3.56018L7.9248 12.5885L12.8546 17.5182L17.0406 13.3869Z"
        fill="url(#paint0_linear_1576_2010)"></path>
    <path
        d="M21.1912 17.4882L17.0406 21.6387C17.6883 22.2859 18.2021 23.0544 18.5526 23.9003C18.9031 24.7461 19.0836 25.6528 19.0836 26.5684C19.0836 27.484 18.9031 28.3907 18.5526 29.2366C18.2021 30.0824 17.6883 30.8509 17.0406 31.4982L26.1182 22.4206L21.1912 17.4882Z"
        fill="url(#paint1_linear_1576_2010)"></path>
    <defs>
        <linearGradient id="paint0_linear_1576_2010" x1="8.71832" y1="11.8195" x2="14.4659"
            y2="6.02622" gradientUnits="userSpaceOnUse">
            <stop stop-color="#303C42" stop-opacity="0.2"></stop>
            <stop offset="0.723958" stop-color="#303C42" stop-opacity="0.75"></stop>
        </linearGradient>
        <linearGradient id="paint1_linear_1576_2010" x1="17.8308" y1="25.7782" x2="23.6"
            y2="20.0091" gradientUnits="userSpaceOnUse">
            <stop offset="0.18" stop-color="#303C42" stop-opacity="0.75"></stop>
            <stop offset="1" stop-color="#303C42" stop-opacity="0.2"></stop>
        </linearGradient>
    </defs>
</svg>