<svg
    width="35"
    height="36"
    viewBox="0 0 35 36"
    fill="none"
    xmlns="http://www.w3.org/2000/svg"
    name="langfuse"
    class="mr-2 h-9 w-9 ListItems_ListItemIcon__JEBXv"
>
    <path
        d="M28.7608 11.4233C28.1849 10.6275 27.485 9.87521 26.6584 9.36188C25.7774 8.81514 24.6533 8.34433 23.2938 8.21675C19.9721 7.9049 17.7011 9.87015 17.2873 10.2417C16.7725 10.7571 14.7131 12.5806 12.2342 13.5931C11.8023 13.7572 10.9709 14.1449 10.2321 15.0106C9.64762 15.695 9.36159 16.3957 9.22144 16.831C9.517 16.8746 9.82209 16.906 10.1367 16.9252C12.5402 17.068 14.6054 17.0822 15.9563 16.3765C16.8488 15.9108 17.6315 15.2475 18.3065 14.4709C19.523 13.0706 21.2973 12.4459 22.9124 12.8743C23.6542 12.9846 24.946 13.0687 26.44 12.5806C27.4717 12.2435 28.2402 11.8192 28.7608 11.4233Z"
        fill="currentColor"
        fill-opacity="0.25"
    ></path>
    <path
        d="M28.3557 23.9071C27.8306 24.5847 27.1846 25.2318 26.4084 25.6879C25.5811 26.1737 24.5174 26.6074 23.2152 26.7691C20.0335 27.1642 17.7805 25.6456 17.3695 25.3578C16.8563 24.9562 14.8118 23.5451 12.393 22.8175C11.972 22.7009 11.159 22.4173 10.4179 21.7374C9.83178 21.1999 9.53186 20.6366 9.38163 20.2849C9.66417 20.2368 9.9563 20.1982 10.258 20.1693C12.5632 19.9514 14.5478 19.8533 15.8715 20.3762C16.7459 20.7212 17.5219 21.233 18.1984 21.8425C19.4177 22.9413 21.1454 23.38 22.6826 22.9606C23.3916 22.839 24.6303 22.7159 26.0838 23.054C27.0874 23.2877 27.8412 23.6039 28.3557 23.9071Z"
        fill="currentColor"
        fill-opacity="0.25"
    ></path>
    <path
        fill-rule="evenodd"
        clip-rule="evenodd"
        d="M17.0514 9.9422C17.4851 9.55271 19.8541 7.50069 23.3265 7.8267C24.7484 7.96013 25.9241 8.45283 26.8435 9.02344L26.8436 9.02349C27.7248 9.57075 28.4586 10.3642 29.0519 11.1841L29.2848 11.506L28.9744 11.7421C28.4174 12.1657 27.6122 12.6072 26.5481 12.9549L26.5481 12.955C24.986 13.4652 23.6362 13.3771 22.8623 13.262L22.8432 13.2592L22.8244 13.2542C21.3529 12.864 19.712 13.4297 18.5763 14.737L18.5762 14.7371C17.8762 15.5424 17.0581 16.2376 16.1182 16.7281C15.3801 17.1137 14.4708 17.2916 13.4651 17.3597C12.4563 17.4281 11.3207 17.3876 10.1168 17.3161L10.1163 17.3161C9.79238 17.2963 9.4775 17.2639 9.17173 17.2189L8.72998 17.1538L8.8748 16.7039C9.02544 16.2359 9.33281 15.4829 9.96115 14.747M17.5316 10.5346C16.9858 11.0788 14.8941 12.9262 12.366 13.9587L12.3619 13.9604L12.3579 13.9619C11.9573 14.1141 11.1874 14.4735 10.504 15.2742L10.5039 15.2743C10.1377 15.7032 9.89806 16.1391 9.7413 16.5009C9.87805 16.5145 10.0169 16.5257 10.158 16.5343C11.3575 16.6055 12.4562 16.6435 13.4185 16.5783C14.3838 16.5128 15.1826 16.345 15.7954 16.0248L15.7956 16.0248C16.6404 15.5839 17.3878 14.9526 18.0378 14.2048C19.3304 12.7169 21.2288 12.0329 22.9822 12.4892C23.6945 12.5933 24.9194 12.668 26.333 12.2062C27.1292 11.946 27.7556 11.6348 28.2223 11.3327C27.7179 10.6904 27.1348 10.1105 26.4743 9.70026C25.6318 9.17738 24.5592 8.72846 23.2622 8.60674L23.2622 8.60674C20.1104 8.31084 17.9444 10.1649 17.5316 10.5346ZM17.0514 9.9422L17.0438 9.949L17.0514 9.9422ZM17.0438 9.949L17.0366 9.95622L17.0438 9.949ZM17.0366 9.95622C16.5413 10.4521 14.5238 12.2379 12.1074 13.2258L17.0366 9.95622ZM12.1074 13.2258C11.643 13.4027 10.7532 13.819 9.96123 14.747L12.1074 13.2258Z"
        fill="currentColor"
        fill-opacity="0.75"
    ></path>
    <path
        fill-rule="evenodd"
        clip-rule="evenodd"
        d="M17.276 25.5986C17.7132 25.9025 19.8245 27.5394 23.2015 27.1219C24.5843 26.951 25.7139 26.4932 26.5907 25.9818C27.431 25.4913 28.1187 24.8033 28.6682 24.0995L28.8839 23.8231L28.5725 23.6409C28.0137 23.3139 27.212 22.9827 26.1611 22.7401C24.6184 22.3841 23.3042 22.5144 22.5531 22.6426L22.5345 22.6458L22.5164 22.6507C21.0944 23.0363 19.4727 22.6377 18.3174 21.6039C17.6053 20.9671 16.7819 20.4264 15.847 20.0603C15.1128 19.7725 14.2191 19.664 13.2351 19.6503C12.2482 19.6366 11.1414 19.7184 9.96914 19.8288L9.96862 19.8288C9.65322 19.8589 9.3471 19.8991 9.05031 19.9494L8.62155 20.0221L8.77905 20.3883C8.94288 20.7693 9.92833 22.1469 10.568 22.7293M17.6958 24.9269C17.1436 24.4997 15.4601 23.5091 12.8511 22.8746L12.1057 22.6304C11.7094 22.5215 11.1161 22.1362 10.4204 21.5025L10.4203 21.5024C10.0474 21.163 9.79795 20.8123 9.63196 20.5195C9.76493 20.5024 9.90007 20.4873 10.0374 20.4742C11.2054 20.3642 12.2763 20.286 13.2177 20.2991C14.1622 20.3122 14.9477 20.4172 15.5573 20.6562L15.5574 20.6562C16.3977 20.9853 17.1498 21.476 17.811 22.0674C19.1259 23.244 21.0031 23.7295 22.6979 23.2772C23.3893 23.1607 24.582 23.0468 25.9781 23.369C26.7645 23.5505 27.387 23.7815 27.8532 24.0117C27.3841 24.5648 26.8359 25.0696 26.206 25.4373C25.4027 25.9059 24.3721 26.3231 23.1107 26.479C20.0455 26.8579 18.1119 25.2154 17.6958 24.9269ZM17.276 25.5986L17.3225 25.6374L17.276 25.5986ZM17.3225 25.6374L17.0897 25.4434L17.3225 25.6374ZM17.0897 25.4434C16.5884 25.0539 14.4524 23.8449 12.0588 23.1298L17.0897 25.4434ZM12.0588 23.1298C11.5992 23.0031 12.865 23.8642 12.0588 23.1298V23.1298Z"
        fill="currentColor"
        fill-opacity="0.75"
    ></path>
    <path
        d="M6.21997 12.014C5.2985 11.5088 4.57916 10.926 4.08854 10.4698C3.81428 10.2147 3.38818 10.4239 3.38818 10.8138V14.0011C3.38818 14.1399 3.44702 14.2716 3.54761 14.3573L4.77181 15.6137C4.83634 15.1085 4.9749 14.4216 5.28617 13.6623C5.5794 12.9459 5.93147 12.3977 6.21997 12.014Z"
        fill="currentColor"
        fill-opacity="0.25"
    ></path>
    <path
        d="M6.29241 24.2577C5.38639 24.7024 4.68612 25.2011 4.21068 25.5886C3.94492 25.8053 3.50951 25.6544 3.49502 25.3405L3.37653 22.7743C3.37137 22.6625 3.42553 22.5541 3.5233 22.481L4.70521 21.4191C4.78875 21.8232 4.95334 22.3705 5.29396 22.9691C5.61489 23.5338 5.9886 23.9606 6.29241 24.2577Z"
        fill="currentColor"
        fill-opacity="0.25"
    ></path>
    <path
        fill-rule="evenodd"
        clip-rule="evenodd"
        d="M4.32936 10.1747C3.81349 9.69492 3.02075 10.0938 3.02075 10.8138L4.32936 10.1747ZM3.76366 10.7776C3.75945 10.7843 3.75487 10.7948 3.75487 10.8138V14.0012C3.75487 14.0227 3.76423 14.0411 3.77638 14.0515L3.78957 14.0627L4.53548 14.8283C4.62365 14.4305 4.75434 13.9815 4.94948 13.5055C5.17337 12.9585 5.42983 12.5046 5.6698 12.1423C4.89763 11.6759 4.2844 11.1718 3.84696 10.765C3.83436 10.7533 3.82505 10.7506 3.81876 10.7498C3.81073 10.7488 3.80003 10.75 3.78864 10.7556C3.77725 10.7612 3.7688 10.7694 3.76366 10.7776ZM4.32936 10.1747C4.80332 10.6155 5.49833 11.1784 6.38739 11.6658L6.78715 11.885L6.50594 12.259C6.23301 12.622 5.89977 13.1408 5.62219 13.819L5.62211 13.8192C5.32736 14.5382 5.19619 15.1885 5.13514 15.6666L5.03761 16.4303L3.30301 14.65C3.12331 14.4889 3.02075 14.2503 3.02075 14.0012V10.8138"
        fill="currentColor"
        fill-opacity="0.75"
    ></path>
    <path
        fill-rule="evenodd"
        clip-rule="evenodd"
        d="M4.45823 25.844C3.96145 26.2561 3.15531 25.9635 3.12823 25.3768L4.45823 25.844ZM3.871 25.376C3.86654 25.3707 3.86157 25.3623 3.86086 25.3468L3.74095 22.7497C3.74014 22.7322 3.74879 22.7168 3.76053 22.7078L3.77327 22.6981L4.48887 22.0439C4.59183 22.3644 4.73915 22.7249 4.9518 23.1048C5.19581 23.5413 5.46883 23.9006 5.72194 24.1861C4.96889 24.5977 4.37585 25.0335 3.9546 25.3828C3.94247 25.3929 3.93328 25.3954 3.92703 25.3963C3.91906 25.3975 3.90833 25.3969 3.89675 25.3928C3.88517 25.3887 3.87644 25.3824 3.871 25.376ZM4.45823 25.844C4.91466 25.4656 5.58708 24.9784 6.45601 24.5449L6.84671 24.35L6.55201 24.0568C6.26597 23.7721 5.91388 23.3631 5.61135 22.8218L5.61127 22.8217C5.29006 22.2478 5.13469 21.7233 5.05578 21.3363L4.92972 20.718L3.26559 22.2395C3.09232 22.3781 2.99895 22.5767 3.00832 22.7797L3.12823 25.3768"
        fill="currentColor"
        fill-opacity="0.75"
    ></path>
    <path
        d="M25.9297 19.1277C26.0697 18.6674 26.1474 18.1844 26.159 17.6923C26.1686 17.3035 26.1263 17.1582 26.063 16.7818C26.7145 16.6651 27.528 16.4748 28.2697 16.2702C29.0535 16.0543 29.633 15.8037 30.2845 15.554C30.3794 16.0399 30.4792 16.2763 30.5138 16.6364C30.5463 16.9762 30.5665 17.3281 30.5722 17.6923C30.5896 18.8239 30.46 19.8501 30.2604 20.7494C29.6464 20.4097 28.9173 20.0578 28.0778 19.7488C27.2968 19.4602 26.5706 19.2639 25.9297 19.1277Z"
        fill="currentColor"
        fill-opacity="0.25"
    ></path>
    <path
        fill-rule="evenodd"
        clip-rule="evenodd"
        d="M30.5569 15.033L30.643 15.4738C30.6799 15.6626 30.7169 15.8088 30.7527 15.9501C30.7604 15.9807 30.7681 16.011 30.7757 16.0414C30.8183 16.2121 30.8579 16.385 30.8782 16.5963L30.8782 16.5963C30.9118 16.947 30.9326 17.31 30.9385 17.6855L30.9385 17.6856C30.9564 18.8532 30.8227 19.9119 30.6168 20.8394L30.5084 21.3279L30.0906 21.0967C29.4901 20.7644 28.7775 20.4205 27.9573 20.1186L27.9569 20.1185C27.1937 19.8365 26.4839 19.6446 25.8572 19.5114L25.4524 19.4254L25.5798 19.0066C25.7089 18.5823 25.7806 18.1368 25.7913 17.6822L25.7913 17.6818C25.7981 17.4039 25.7775 17.2873 25.7336 17.0385C25.7238 16.9834 25.713 16.9219 25.701 16.8507L25.6354 16.461L26.0015 16.3954C26.6403 16.281 27.4432 16.0934 28.177 15.8909L28.1772 15.8908C28.783 15.724 29.2578 15.5377 29.761 15.3404C29.8911 15.2894 30.023 15.2376 30.1596 15.1852L30.5569 15.033ZM28.3609 16.649C29.0033 16.472 29.5176 16.2704 30.0232 16.072L28.3609 16.649ZM30.0232 16.072C30.0308 16.1022 30.0381 16.1313 30.0452 16.1593C30.0526 16.1883 30.0596 16.2161 30.0663 16.2428C30.106 16.4019 30.1336 16.5273 30.1479 16.6761C30.1794 17.0048 30.1989 17.3455 30.2045 17.6984C30.2182 18.5953 30.1367 19.4238 30.0006 20.1728C29.47 19.8993 28.868 19.6255 28.197 19.3785C27.5518 19.1401 26.9433 18.9633 26.3879 18.8308C26.4699 18.4631 26.5162 18.085 26.5252 17.7021C26.5315 17.4431 26.516 17.2702 26.4898 17.0978C27.0767 16.9799 27.744 16.8192 28.3607 16.649"
        fill="currentColor"
        fill-opacity="0.75"
    ></path>
    <path
        fill-rule="evenodd"
        clip-rule="evenodd"
        d="M11.8703 8.75458C14.296 8.62624 16.1099 9.70994 17.0449 10.4342C16.3371 11.1011 14.4218 12.7102 12.1565 13.6396C12.0037 13.6979 11.801 13.7842 11.5701 13.91C9.93085 14.7712 8.95613 16.4874 8.91262 18.321C8.90531 18.6296 8.92007 18.937 8.95833 19.2392C8.95419 19.2398 8.95007 19.2404 8.94598 19.241C8.9393 19.5554 8.96411 20.2952 9.39059 21.0698C9.77128 21.7607 10.2817 22.1312 10.5355 22.291C10.6614 22.3805 10.8613 22.5095 11.1106 22.6432C11.4035 22.8096 11.7283 22.9492 12.0865 23.0572C12.1414 23.0742 12.1969 23.0903 12.2529 23.1051C12.3833 23.1399 12.5253 23.1759 12.6786 23.2147C13.7594 23.4883 15.3971 23.9029 17.405 25.0286C17.6079 25.2102 17.8264 25.3932 18.0607 25.572C17.9895 25.6401 17.9296 25.6994 17.8811 25.7481C17.4671 26.1216 15.1944 28.097 11.8703 27.7836C10.5098 27.6554 9.38395 27.1821 8.50332 26.6326C7.01969 25.7075 5.89863 24.244 5.28705 22.5313C4.89301 21.427 4.54953 19.9991 4.52473 18.3189C4.50278 16.884 4.71841 15.62 5.01227 14.5718C5.91199 11.3691 8.53576 9.0202 11.6633 8.76883L11.6634 8.76882C11.7321 8.76373 11.8007 8.75865 11.8703 8.75458ZM28.8597 24.0188C28.3153 23.5885 27.3812 22.9603 26.0873 22.5963C24.7153 22.2106 23.5503 22.2941 22.8692 22.3978C22.6468 22.4752 22.4159 22.5383 22.1755 22.5862C20.2835 22.9607 18.7484 21.8636 17.9975 21.1695C17.8515 21.0348 17.701 20.9063 17.5464 20.784C18.0517 20.3102 18.6074 19.9015 19.2131 19.5839C20.5651 18.8757 22.6316 18.8899 25.0369 19.0324C28.3514 19.2298 30.6412 20.914 31.5553 21.6875C31.6573 21.774 31.7156 21.9043 31.7156 22.0427V25.221C31.7156 25.6108 31.2872 25.8194 31.0114 25.564C30.5174 25.1077 29.7909 24.5241 28.8597 24.0188ZM18.2331 14.522C18.0158 14.773 17.7874 15.0124 17.5477 15.2371C18.0118 15.6045 18.5135 15.9154 19.0442 16.1644C20.3513 16.7791 22.1479 16.8992 24.4644 16.8962C27.862 16.8911 30.3636 15.5263 31.5114 14.7834C31.6383 14.701 31.7156 14.5545 31.7156 14.3957V10.4949C31.7156 10.1234 31.3225 9.90967 31.04 10.1264C30.3715 10.6397 29.3774 11.2948 28.0953 11.8101C27.6336 12.1004 27.0582 12.3968 26.3726 12.6219C24.8775 13.1124 23.5847 13.0279 22.8425 12.917C21.2262 12.4865 19.4506 13.1144 18.2331 14.522Z"
        fill="currentColor"
        fill-opacity="0.5"
    ></path>
    <path
        d="M17.0445 10.4339L17.2875 10.7274L17.6306 10.4041L17.2602 10.1171L17.0445 10.4339ZM11.8699 8.75427L11.8518 8.36323L11.8508 8.36328L11.8499 8.36333L11.8699 8.75427ZM12.1561 13.6393L12.2798 14.008L12.2839 14.0064L12.2879 14.0048L12.1561 13.6393ZM11.5697 13.9097L11.7319 14.2609L11.7342 14.2597L11.7366 14.2585L11.5697 13.9097ZM8.95796 19.2389L9.00602 19.627L9.37099 19.5756L9.32171 19.1864L8.95796 19.2389ZM8.94561 19.2407L8.89722 18.8526L8.58576 18.8967L8.57864 19.2317L8.94561 19.2407ZM10.5351 22.2906L10.7387 21.9649L10.7304 21.9589L10.7217 21.9535L10.5351 22.2906ZM11.1102 22.6429L11.2828 22.2974L11.279 22.2951L11.2751 22.2931L11.1102 22.6429ZM12.0861 23.0569L12.1883 22.6809L12.1872 22.6805L12.186 22.6801L12.0861 23.0569ZM17.4046 25.0283L17.6406 24.7284L17.6104 24.7014L17.5754 24.6817L17.4046 25.0283ZM18.0603 25.5717L18.3051 25.8635L18.6464 25.5378L18.274 25.2534L18.0603 25.5717ZM17.8808 25.7478L18.1178 26.0469L18.1255 26.0399L18.1328 26.0326L17.8808 25.7478ZM8.50295 26.6323L8.6883 26.2943L8.68819 26.2942L8.50295 26.6323ZM4.52436 18.3186L4.89137 18.3124L4.89136 18.3122L4.52436 18.3186ZM5.0119 14.5715L4.66029 14.459L4.66022 14.4593L5.0119 14.5715ZM11.6629 8.76853L11.6383 8.37788L11.6368 8.37799L11.6353 8.3781L11.6629 8.76853ZM11.6631 8.76852L11.6877 9.15916L11.6885 9.1591L11.6631 8.76852ZM26.087 22.596L26.1806 22.2174H26.1805L26.087 22.596ZM28.8594 24.0185L28.6409 24.333L28.6655 24.3525L28.6929 24.3674L28.8594 24.0185ZM22.8688 22.3975L22.8169 22.0099L22.7853 22.0147L22.7549 22.0253L22.8688 22.3975ZM22.1752 22.5859L22.2421 22.9707H22.2424L22.1752 22.5859ZM17.9971 21.1692L18.2375 20.8733L18.2372 20.8729L17.9971 21.1692ZM17.546 20.7837L17.3038 20.4896L16.9625 20.8095L17.3274 21.0982L17.546 20.7837ZM25.0365 19.0321L25.057 18.6411H25.0568L25.0365 19.0321ZM31.5549 21.6872L31.7832 21.3806L31.7831 21.3805L31.5549 21.6872ZM31.011 25.5637L31.2517 25.2681L31.2514 25.2677L31.011 25.5637ZM17.5473 15.2368L17.3049 14.9428L16.9638 15.2625L17.3286 15.5513L17.5473 15.2368ZM19.0438 16.1641L19.1919 15.8059L19.1916 15.8058L19.0438 16.1641ZM24.464 16.8959L24.4645 17.2874H24.4646L24.464 16.8959ZM31.5111 14.7831L31.7015 15.1179L31.7019 15.1176L31.5111 14.7831ZM28.095 11.8098L27.9655 11.4434L27.9358 11.4553L27.9086 11.4725L28.095 11.8098ZM22.8421 12.9167L22.7532 13.2966L22.7719 13.3016L22.7912 13.3044L22.8421 12.9167ZM17.2602 10.1171C16.2876 9.36372 14.3919 8.22883 11.8518 8.36323L11.8881 9.14532C14.1994 9.02303 15.9314 10.0556 16.8288 10.7507L17.2602 10.1171ZM12.2879 14.0048C14.6107 13.0518 16.5637 11.4093 17.2875 10.7274L16.8015 10.1405C16.1097 10.7922 14.2322 12.3681 12.0244 13.2739L12.2879 14.0048ZM11.7366 14.2585C11.9507 14.1418 12.1384 14.0618 12.2798 14.008L12.0325 13.2707C11.8683 13.3333 11.6506 13.4261 11.4028 13.5611L11.7366 14.2585ZM9.27919 18.3305C9.31933 16.6393 10.2178 15.0564 11.7319 14.2609L11.4075 13.5585C9.64311 14.4855 8.5922 16.335 8.54531 18.3108L9.27919 18.3305ZM9.32171 19.1864C9.2862 18.906 9.27235 18.6194 9.27919 18.3305L8.54531 18.3108C8.53753 18.6392 8.55321 18.9676 8.5942 19.2913L9.32171 19.1864ZM8.99399 19.6288C8.998 19.6282 9.00201 19.6276 9.00602 19.627L8.90989 18.8507C8.90563 18.8513 8.9014 18.852 8.89722 18.8526L8.99399 19.6288ZM9.70672 20.8712C9.32893 20.1851 9.30664 19.5283 9.31257 19.2495L8.57864 19.2317C8.57121 19.5819 8.59854 20.4049 9.07372 21.2678L9.70672 20.8712ZM10.7217 21.9535C10.4963 21.8116 10.0437 21.4828 9.70668 20.8711L9.07372 21.2678C9.49808 22.0381 10.0664 22.4502 10.3486 22.6278L10.7217 21.9535ZM11.2751 22.2931C11.0393 22.1666 10.8523 22.0457 10.7387 21.9649L10.3315 22.6165C10.4698 22.7148 10.6826 22.8518 10.9454 22.9928L11.2751 22.2931ZM12.186 22.6801C11.8516 22.5793 11.5514 22.45 11.2828 22.2974L10.9377 22.9884C11.2549 23.1687 11.6042 23.3185 11.9863 23.4337L12.186 22.6801ZM12.3415 22.725C12.2901 22.7113 12.239 22.6966 12.1883 22.6809L11.9839 23.4329C12.043 23.4512 12.1028 23.4686 12.1635 23.4847L12.3415 22.725ZM12.763 22.8334C12.6092 22.7944 12.4693 22.7591 12.3415 22.725L12.1635 23.4847C12.2964 23.5201 12.4407 23.5566 12.5934 23.5953L12.763 22.8334ZM17.5754 24.6817C15.5252 23.5323 13.8507 23.1087 12.763 22.8334L12.5934 23.5953C13.6674 23.8672 15.2681 24.2728 17.2338 25.3749L17.5754 24.6817ZM18.274 25.2534C18.0481 25.081 17.837 24.9043 17.6406 24.7284L17.1687 25.3282C17.3779 25.5156 17.6039 25.7048 17.8466 25.8901L18.274 25.2534ZM18.1328 26.0326C18.1794 25.9857 18.2368 25.9287 18.3051 25.8635L17.8155 25.2801C17.7415 25.3507 17.6791 25.4126 17.6288 25.4632L18.1328 26.0326ZM11.8376 28.1732C15.3131 28.501 17.6839 26.4382 18.1178 26.0469L17.6437 25.4489C17.2494 25.8046 15.075 27.6924 11.9023 27.3933L11.8376 28.1732ZM8.31759 26.9702C9.23689 27.5439 10.4145 28.0391 11.8376 28.1733L11.9023 27.3933C10.6045 27.271 9.53026 26.8197 8.6883 26.2943L8.31759 26.9702ZM4.94364 22.6702C5.58329 24.4617 6.75768 25.9975 8.3177 26.9703L8.68819 26.2942C7.28096 25.4168 6.21321 24.0257 5.6297 22.3916L4.94364 22.6702ZM4.15735 18.3248C4.18294 20.0588 4.53744 21.532 4.94364 22.6702L5.62972 22.3917C5.24783 21.3214 4.91537 19.9388 4.89137 18.3124L4.15735 18.3248ZM4.66022 14.4593C4.35727 15.5399 4.1347 16.8441 4.15735 18.3251L4.89136 18.3122C4.87013 16.9232 5.0788 15.6994 5.36357 14.6837L4.66022 14.4593ZM11.6353 8.3781C8.34934 8.64221 5.60161 11.1083 4.66029 14.459L5.36351 14.6839C6.22162 11.6292 8.72143 9.39758 11.6905 9.15895L11.6353 8.3781ZM11.6385 8.37787L11.6383 8.37788L11.6875 9.15917L11.6877 9.15916L11.6385 8.37787ZM11.8499 8.36333C11.7772 8.36758 11.7059 8.37288 11.6376 8.37793L11.6885 9.1591C11.7576 9.15398 11.8235 9.1491 11.89 9.14521L11.8499 8.36333ZM25.9934 22.9745C27.2285 23.322 28.1206 23.9218 28.6409 24.333L29.0779 23.7039C28.5093 23.2545 27.5331 22.5979 26.1806 22.2174L25.9934 22.9745ZM22.9206 22.7851C23.5712 22.686 24.6836 22.6064 25.9934 22.9745L26.1805 22.2174C24.7463 21.8142 23.5289 21.9015 22.8169 22.0099L22.9206 22.7851ZM22.2424 22.9707C22.4985 22.9197 22.7449 22.8525 22.9826 22.7698L22.7549 22.0253C22.548 22.0973 22.3326 22.1562 22.1078 22.2009L22.2424 22.9707ZM17.7568 21.465C18.5338 22.1833 20.182 23.3786 22.2421 22.9707L22.1082 22.2009C20.3843 22.5421 18.9623 21.5432 18.2375 20.8733L17.7568 21.465ZM17.3274 21.0982C17.4747 21.2147 17.618 21.3372 17.7571 21.4654L18.2372 20.8729C18.0843 20.732 17.9266 20.5973 17.7647 20.4692L17.3274 21.0982ZM19.0509 19.2322C18.413 19.5667 17.8306 19.9957 17.3038 20.4896L17.7884 21.0778C18.2721 20.6242 18.8012 20.2356 19.3746 19.935L19.0509 19.2322ZM25.0568 18.6411C23.8521 18.5698 22.7157 18.5293 21.7062 18.5981C20.6996 18.6666 19.7896 18.8452 19.0509 19.2322L19.3746 19.935C19.9879 19.6138 20.787 19.4453 21.753 19.3795C22.7161 19.314 23.8156 19.3518 25.0162 19.423L25.0568 18.6411ZM31.7831 21.3805C30.8405 20.583 28.4789 18.845 25.057 18.6411L25.0161 19.423C28.2232 19.614 30.4412 21.2446 31.3268 21.994L31.7831 21.3805ZM32.0823 22.0424C32.0823 21.7859 31.9739 21.5422 31.7832 21.3806L31.3266 21.9938C31.3401 22.0052 31.3482 22.0222 31.3482 22.0424H32.0823ZM32.0823 25.2207V22.0424H31.3482V25.2207H32.0823ZM30.7703 25.8593C31.2842 26.3353 32.0823 25.9455 32.0823 25.2207H31.3482C31.3482 25.2392 31.3437 25.2493 31.3396 25.2559C31.3345 25.2639 31.326 25.2722 31.314 25.278C31.3022 25.2838 31.2907 25.2851 31.2818 25.2841C31.2747 25.2831 31.2648 25.2801 31.2517 25.2681L30.7703 25.8593ZM28.6929 24.3674C29.5916 24.8552 30.2937 25.419 30.7708 25.8597L31.2514 25.2677C30.7404 24.7958 29.9893 24.1925 29.0258 23.6695L28.6929 24.3674ZM17.7896 15.5309C18.0395 15.2966 18.2771 15.0477 18.5026 14.7872L17.9631 14.256C17.7539 14.4978 17.5345 14.7275 17.3049 14.9428L17.7896 15.5309ZM19.1916 15.8058C18.686 15.5685 18.2081 15.2722 17.766 14.9224L17.3286 15.5513C17.8148 15.9361 18.3402 16.2617 18.896 16.5226L19.1916 15.8058ZM24.4636 16.5044C22.1388 16.5074 20.4181 16.3826 19.1919 15.8059L18.8958 16.5224C20.2838 17.1752 22.1562 17.2905 24.4645 17.2874L24.4636 16.5044ZM31.3206 14.4485C30.2035 15.1715 27.7686 16.4994 24.4636 16.5044L24.4646 17.2874C27.9545 17.2822 30.5229 15.8807 31.7015 15.1179L31.3206 14.4485ZM31.3482 14.3954C31.3482 14.4175 31.3376 14.4374 31.3201 14.4488L31.7019 15.1176C31.9382 14.9641 32.0823 14.6908 32.0823 14.3954H31.3482ZM31.3482 10.4946V14.3954H32.0823V10.4946H31.3482ZM31.2541 10.4439C31.2949 10.4126 31.3482 10.4437 31.3482 10.4946H32.0823C32.0823 9.80247 31.3494 9.40609 30.8253 9.80834L31.2541 10.4439ZM28.2243 12.1761C29.5435 11.6459 30.5661 10.9721 31.2541 10.4439L30.8253 9.80834C30.1762 10.3066 29.2105 10.943 27.9655 11.4434L28.2243 12.1761ZM26.4802 12.9958C27.1973 12.7604 27.7988 12.4504 28.2813 12.1471L27.9086 11.4725C27.4675 11.7497 26.9184 12.0326 26.2643 12.2474L26.4802 12.9958ZM22.7912 13.3044C23.5657 13.4202 24.9168 13.5088 26.4802 12.9958L26.2644 12.2474C24.8375 12.7155 23.6029 12.6351 22.893 12.529L22.7912 13.3044ZM18.5026 14.7872C19.6394 13.4729 21.2813 12.9046 22.7532 13.2966L22.931 12.5368C21.1703 12.0679 19.2611 12.7555 17.963 14.2561L18.5026 14.7872Z"
        fill="currentColor"
        fill-opacity="0.75"
    ></path>
</svg>