<svg
    width="35"
    height="36"
    viewBox="0 0 35 36"
    fill="none"
    xmlns="http://www.w3.org/2000/svg"
    name="langchain"
    class="mr-2 h-9 w-9 ListItems_ListItemIcon__JEBXv"
>
    <path
        d="M26.0342 14.9419C25.6102 14.9419 25.2116 15.1 24.9132 15.3872L23.7074 16.5447C23.3821 16.857 23.2149 17.2906 23.2492 17.7351C23.2516 17.7594 23.254 17.7836 23.2565 17.8087C23.2997 18.1499 23.4554 18.4575 23.7074 18.6985C23.881 18.8652 24.0726 18.9709 24.305 19.0445C24.3172 19.1118 24.3237 19.1799 24.3237 19.248C24.3237 19.5548 24.1998 19.8428 23.9748 20.0588L23.9006 20.13C23.4978 19.9977 23.1619 19.8044 22.8586 19.5133C22.4559 19.1266 22.1893 18.6383 22.089 18.1022L22.0752 18.0278L22.014 18.0756C21.9724 18.1076 21.9333 18.1421 21.8966 18.1773L20.6908 19.3348C20.0728 19.9281 20.0728 20.8946 20.6908 21.4879C20.9998 21.7845 21.4058 21.9332 21.8126 21.9332C22.2195 21.9332 22.6247 21.7845 22.9337 21.4879L24.1395 20.3304C24.7575 19.7371 24.7575 18.7713 24.1395 18.1773C23.9748 18.0192 23.7783 17.9002 23.5557 17.8236C23.5435 17.7539 23.537 17.6842 23.537 17.6162C23.537 17.2828 23.674 16.9666 23.9251 16.7255C24.3286 16.8578 24.6865 17.0722 24.989 17.3626C25.3909 17.7484 25.6567 18.236 25.7586 18.7737L25.7725 18.848L25.8336 18.8003C25.8752 18.7682 25.9144 18.7338 25.9519 18.6978L27.1577 17.5403C27.7757 16.947 27.7765 15.9805 27.1577 15.3872C26.8585 15.1 26.4606 14.9419 26.0358 14.9419H26.0342Z"
        fill="currentColor"
        fill-opacity="0.75"
    ></path>
    <path
        d="M25.3887 10.7083H9.61116C5.11564 10.7083 1.45825 14.2192 1.45825 18.5347C1.45825 22.8501 5.11564 26.361 9.61116 26.361H25.3887C29.8842 26.361 33.5416 22.8501 33.5416 18.5347C33.5416 14.2192 29.8842 10.7083 25.3887 10.7083ZM17.6067 22.9785C17.3466 23.0301 17.0539 23.0395 16.855 22.84C16.7816 23.0019 16.6104 22.9166 16.4783 22.8955C16.4661 22.9284 16.4555 22.9573 16.4441 22.9902C16.0047 23.0184 15.6753 22.5879 15.4658 22.2631C15.0499 22.0471 14.5779 21.9156 14.1531 21.6894C14.1287 22.062 14.2135 22.5238 13.8441 22.764C13.8254 23.4801 14.9725 22.8486 15.0777 23.3823C14.9962 23.3909 14.9057 23.3698 14.8404 23.43C14.5412 23.7095 14.198 23.2188 13.8531 23.4215C13.39 23.6453 13.3436 23.8284 12.7704 23.8746C12.7386 23.8284 12.7517 23.7979 12.7785 23.7697C12.94 23.5897 12.9514 23.3776 13.227 23.3009C12.9433 23.2579 12.706 23.4082 12.4671 23.5271C12.1565 23.6492 12.159 23.2516 11.6812 23.5482C11.6282 23.5068 11.6535 23.4692 11.6836 23.4371C11.8051 23.2947 11.9649 23.2735 12.1451 23.2814C11.2589 22.8071 10.8414 23.8613 10.4322 23.3369C10.3091 23.3682 10.2626 23.4746 10.1851 23.5498C10.1183 23.4794 10.1688 23.394 10.1721 23.3111C10.0922 23.2751 9.99107 23.2579 10.0147 23.135C9.85819 23.0841 9.74896 23.1733 9.63238 23.2579C9.52718 23.1796 9.70329 23.0653 9.73589 22.9839C9.82966 22.8274 10.0433 22.9519 10.1517 22.8391C10.4599 22.6709 10.8895 22.944 11.2418 22.8979C11.5132 22.9307 11.8491 22.6631 11.713 22.3962C11.4227 22.0401 11.4741 21.5744 11.4676 21.1487C11.4317 20.9005 10.8113 20.5844 10.6319 20.3167C10.4101 20.0757 10.2373 19.7963 10.0645 19.5216C9.44076 18.3624 9.63725 16.8731 8.8513 15.797C8.49584 15.9856 8.03274 15.8964 7.72622 15.6436C7.5607 15.7884 7.55335 15.9777 7.54032 16.1789C7.14327 15.7978 7.19301 15.0777 7.51016 14.6535C7.6398 14.4861 7.7947 14.3483 7.96754 14.227C8.00665 14.1996 8.01972 14.173 8.01888 14.1307C8.33279 12.7752 10.4737 13.0366 11.1504 13.9969C11.6412 14.5878 11.7896 15.3696 12.3465 15.9183C13.0957 16.7056 13.9493 17.399 14.6407 18.2372C15.2945 19.0034 15.7617 19.9019 16.1693 20.8074C16.3357 21.1079 16.3373 21.4766 16.5835 21.7333C16.705 21.8883 17.2985 22.3101 17.1697 22.4596C17.2439 22.6145 17.7983 22.8282 17.6059 22.9785H17.6067ZM28.0049 18.3546L26.7991 19.5121C26.4779 19.8205 26.0809 20.0506 25.6504 20.1766L25.6284 20.1829L25.6202 20.2032C25.48 20.5586 25.2672 20.8755 24.9867 21.144L23.7809 22.3015C23.255 22.8063 22.5555 23.0841 21.8103 23.0841C21.0652 23.0841 20.3656 22.8063 19.8398 22.3015C18.753 21.2582 18.753 19.5614 19.8398 18.5182L21.0456 17.3607C21.3685 17.0508 21.7549 16.8277 22.1927 16.6986L22.2147 16.6923L22.2229 16.672C22.3631 16.3166 22.5767 15.9989 22.858 15.7281L24.0638 14.5706C24.5897 14.0658 25.2892 13.7879 26.0344 13.7879C26.7796 13.7879 27.4791 14.0658 28.0049 14.5706C28.5308 15.0754 28.8202 15.7469 28.8202 16.4622C28.8202 17.1776 28.5308 17.8498 28.0049 18.3539V18.3546Z"
        fill="currentColor"
        fill-opacity="0.75"
    ></path>
    <path
        d="M12.7026 21.5774C12.5967 21.9735 12.5624 22.6473 12.026 22.6669C11.9819 22.8954 12.1907 22.9815 12.3814 22.9079C12.5698 22.825 12.6594 22.9737 12.723 23.1216C13.0141 23.1623 13.4446 23.0284 13.4609 22.6974C13.0263 22.4571 12.8918 22.0001 12.7034 21.5767L12.7026 21.5774Z"
        fill="currentColor"
        fill-opacity="0.75"
    ></path>
</svg>