<svg
    width="35"
    height="36"
    viewBox="0 0 35 36"
    fill="none"
    xmlns="http://www.w3.org/2000/svg"
    name="llamaindex"
    class="mr-2 h-9 w-9 ListItems_ListItemIcon__JEBXv"
>
    <path
        fill-rule="evenodd"
        clip-rule="evenodd"
        d="M6.62944 1.95833L6.62903 1.95825V2.07534L6.68758 2.19244L6.80467 2.71935L6.86321 3.36336V4.18301L6.6583 4.35865L6.18993 4.6221L5.83866 4.7392H5.60447L5.16537 4.76847L4.87264 4.85629L4.66773 5.00266L4.49209 5.23684L4.46478 5.33244L4.46282 5.32459L4.375 5.6466V5.64666V5.9686V5.96867L4.37513 5.96925L4.40427 6.11497H4.40751L4.43355 6.23213L4.55064 6.43704L4.78482 6.70049L5.1361 6.96395L5.5752 7.19814L6.10211 7.40305L6.62903 7.54942L6.89183 7.63702L6.89194 7.63722L6.86266 8.28123L6.62848 8.69105L6.45284 9.21797V9.2204L6.30703 9.86199L6.18993 10.9158V11.794L6.21921 12.0575L6.3363 12.6429L6.51194 13.1699L6.54121 14.9555L6.57048 15.5995L6.6583 16.1557L6.80467 16.6534L7.00958 17.1217L7.21449 17.4437L7.24376 19.4928L7.30231 19.9319L7.47795 20.4881L7.68286 20.9272L7.94632 21.3663L8.35614 21.9225L8.94161 22.508L9.17579 22.7129L9.55634 23.0349L10.1125 23.4154L10.7565 23.8253L10.7858 26.5769L10.815 26.7425V26.7527L10.8304 26.8296L10.8525 26.9546L10.9036 27.3025L11.02 28.187L11.1078 29.5042V30.4703L11.0785 30.6752L11.0027 30.9977L10.9591 31.1807L10.8654 31.4929L10.7574 31.8169L10.7558 31.8283L10.6101 32.1683L10.6093 32.1681L10.6089 32.1711L10.4345 32.5779L10.2596 32.6071L10.2594 32.6071H10.259H10.2586L10.0537 32.7242L10.0379 32.7453L10.0247 32.7536L9.96876 32.8375L9.87809 32.9584L9.86801 32.9886L9.84907 33.017L9.73198 33.3976V33.661L9.76125 33.6903H11.1371L11.1372 33.6902H11.1378L11.3134 33.4853L11.3442 33.4314L11.3713 33.3976L11.4255 33.2892L11.5476 33.0754L11.7778 32.569L11.9567 32.1974L12.0288 32.0074L12.0745 31.9045L12.1994 31.5576L12.2787 31.3484L12.3065 31.2601L12.338 31.1727L12.3402 31.153L12.6007 30.3239L12.7288 29.8116L12.7476 29.7678V29.7365L12.8642 29.2701L12.9227 29.153L13.0106 29.2993L13.1277 29.7384L13.2155 30.4995V32.6365L13.0691 32.695L12.7471 33.017L12.6405 33.1636H12.6299L12.5129 33.339L12.5128 33.3392L12.2875 33.7489H12.2786L12.22 33.866L12.1908 33.9246V33.9247L12.2005 33.9636L12.1908 34.0124H12.2127L12.22 34.0417V34.0418H13.9471L14.0057 34.0125L14.0226 33.9914L14.0351 33.983L14.0937 33.9024L14.2399 33.7198L14.2691 33.6613L14.2693 33.661L14.4741 33.2514L14.5035 33.1927L14.5429 33.0448L14.5912 32.9001L14.5937 32.8544L14.6206 32.7536L14.6791 32.2266L14.7083 29.832L14.8552 29.5628L14.8627 29.5177L14.9426 29.3579L15.1182 28.7431L15.2353 28.0406L15.3524 26.6355L15.411 25.2596L15.8793 25.3767L16.6697 25.5231L17.6637 25.6108L17.6641 25.6109H17.6647L17.665 25.6109H18.7481L19.1872 25.5816L19.4506 25.5524L19.7143 25.5231H19.743L19.8435 25.5087L19.9776 25.4938L20.0781 25.4752L20.1529 25.4645L20.5311 25.3913L20.7679 25.3475L20.8177 25.3358L21.0603 25.2889L21.0472 25.2823L21.6461 25.1426L21.9202 25.0549H21.9386L21.9436 25.0474L22.378 24.9084L22.3487 25.3767V25.9329L22.378 26.1378L22.4951 26.4598L22.7292 26.8404L22.9927 27.1624L23.2562 27.4259L23.4317 27.66V27.6602L23.6074 27.8944L23.8416 28.3042L24.0172 28.7433L24.1343 29.3288L24.1343 29.3289V30.0369L24.1333 30.0605L24.0455 30.558L23.8113 31.2605L23.4893 31.9631L23.1966 32.4607L23.138 32.6071H22.9039L22.6404 32.8413L22.5233 33.0755L22.4062 33.456V33.4562V33.6609V33.6611L22.4355 33.6903H24.1626L24.1626 33.6903H24.1636L24.1929 33.661L24.2222 32.2852L24.2514 32.2266L24.4271 32.0803L24.6905 31.7875L24.9833 31.407L25.1882 31.0557L25.2198 30.9845L25.2457 30.9385L25.2946 30.8164L25.4224 30.5288L25.4863 30.3371L25.5384 30.2067L25.5841 30.0437L25.6566 29.8262L25.7224 29.5495L25.7433 29.4749L25.7506 29.4311L25.8029 29.2115L26.0076 27.9252L26.1239 28.187L26.4459 28.6261L26.9728 29.153L27.207 29.3579L27.6754 29.797L27.7339 29.9434L27.8217 30.4996V32.0511L27.7046 33.2805L27.529 33.3683L27.3241 33.544L27.0606 33.8953L27.0314 34.0416H28.7877L28.7884 34.0416L28.7884 34.0416H28.7888L28.8473 33.983L29.0522 33.4268L29.1693 32.8999L29.2279 32.2852V31.6705L29.1693 30.4995L29.4328 29.9726L29.5499 29.5335L29.6084 29.0944V28.831L29.5791 28.509L29.4621 27.865L29.1693 26.9868L29.1401 24.5571L29.1108 24.4107L28.9644 24.0302L28.818 23.3862L28.7302 22.6251V21.4834L28.7888 20.6345H28.7893H28.9048H28.9064L29.1114 20.576L29.5212 20.3418L29.7554 20.1369L29.9895 19.8149L30.1359 19.4343L30.2237 18.966V18.1171L30.1066 17.3852L29.9895 16.9461L29.7846 16.507L29.5504 16.0972L29.3163 15.8045L29.0235 15.541L28.7601 15.3361L28.3503 15.1312L27.999 15.0434H27.9986L27.9984 15.0433H27.5593L27.5591 15.0434H27.5583L27.2363 15.1019L27.0656 15.1474L27.0037 15.1605L26.9888 15.1679L26.3581 15.3361L25.8314 15.4239H25.5395L25.0711 15.3361L24.6613 15.1897L23.8123 14.7799L23.5695 14.6686L23.5781 14.6628L23.3147 14.5457L23.2912 14.541L23.1101 14.458L23.1098 14.4579L23.1098 14.4579L22.4072 14.2237L22.3195 14.1944L22.3173 14.1939L22.2315 14.1653L21.9516 14.0994L21.7632 14.048L21.5975 14.0139L21.4998 13.9895H21.4845L21.2362 13.9311L20.9269 13.8759L20.7679 13.8431L20.6302 13.8229L20.4166 13.7847L20.1562 13.7532L19.7727 13.6968L19.4659 13.6695L19.4506 13.6676H19.445L19.1803 13.6441L19.1881 13.6382L19.1871 13.6382L18.8359 13.6089H18.8212L18.4563 13.5797H18.4557L18.4554 13.5797H12.2202V13.3748L12.0446 11.4427L11.9866 10.895V10.8865L11.8402 9.5107L11.8401 9.51084L11.7891 9.03017L11.7816 8.95452L11.6352 7.87142L11.4595 6.81759L11.2839 6.05649L11.0497 5.29539L10.8155 4.7392L10.5814 4.27083L10.2594 3.74391L9.90808 3.27554L9.41043 2.7779L9.00061 2.45589L8.59079 2.19244L8.12242 1.98753L7.94678 1.95825V1.95833L7.94632 1.95825V2.89499L7.85905 2.77864L7.85891 2.7779L7.62472 2.54371L7.33199 2.30953L6.7758 1.98753L6.62944 1.95825V1.95833Z"
        fill="currentColor"
        fill-opacity="0.75"
    ></path>
</svg>