<svg
    width="48"
    height="48"
    viewBox="0 0 48 48"
    fill="none"
    xmlns="http://www.w3.org/2000/svg"
    name="maintenance2"
    class="mr-2 hidden h-8 w-8 text-primary 4sm:block lg:h-12 lg:w-[48px]"
>
    <path
        d="M9.45115 5.99983C9.07034 6.01251 8.70863 6.16963 8.43944 6.43928L6.43944 8.43928C6.1978 8.68067 6.04577 8.99729 6.00848 9.3368C5.97119 9.67631 6.05088 10.0184 6.23436 10.3065L10.0879 16.3553C11.1715 18.0887 13.5185 18.4116 15.1113 17.2322L22.9258 25.0467C21.5894 27.3486 21.7943 30.3208 23.748 32.2967H23.7461L31.6601 40.3182C31.6614 40.3188 31.6627 40.3195 31.664 40.3201C34.0041 42.6774 37.8558 42.6913 40.2129 40.3514C42.5684 38.0131 42.5855 34.1609 40.248 31.8045L40.2441 31.8006L32.3457 23.7947C32.345 23.7947 32.3444 23.7947 32.3437 23.7947C30.3736 21.8033 27.3716 21.5802 25.0488 22.9276L17.2324 15.1112C18.41 13.5194 18.0892 11.1745 16.3594 10.0897L10.3066 6.2342C10.0516 6.07163 9.75342 5.98994 9.45115 5.99983V5.99983ZM31.414 5.99983C25.796 5.99983 21.2074 10.4381 20.9394 15.9901L24.1387 19.1873C24.2187 18.9263 24.2311 18.6459 24.1601 18.3729C23.9961 17.7359 23.914 17.1058 23.914 16.4998C23.914 12.3638 27.278 8.99983 31.414 8.99983C31.797 8.99983 32.1768 9.02972 32.5508 9.08772L29.3183 12.3182C28.4673 13.1682 28 14.2978 28 15.4998C28 16.7018 28.4683 17.8315 29.3183 18.6815C30.1683 19.5315 31.298 19.9998 32.5 19.9998C33.702 19.9998 34.8316 19.5315 35.6816 18.6815L38.8496 15.5155C38.8936 15.8405 38.914 16.1688 38.914 16.4998C38.914 19.4788 37.1666 22.0712 34.6426 23.2772L36.8281 25.4901C39.8731 23.6501 41.914 20.3079 41.914 16.4979C41.914 14.9549 41.578 13.4587 40.914 12.0467C40.706 11.6047 40.2964 11.2889 39.8144 11.2049C39.3354 11.1209 38.8411 11.2779 38.4961 11.6229L33.5605 16.5584C32.9945 17.1244 32.0054 17.1254 31.4394 16.5584C31.1564 16.2764 31 15.8998 31 15.4998C31 15.0998 31.1564 14.7233 31.4394 14.4393L36.4043 9.47248C36.7473 9.12948 36.9042 8.64289 36.8242 8.16389C36.7442 7.68589 36.4369 7.27533 36.0019 7.06233C34.5519 6.35733 33.009 5.99983 31.414 5.99983ZM9.70897 9.41194L14.7539 12.6248C14.7578 12.6268 14.7617 12.6287 14.7656 12.6307C15.0655 12.818 15.104 13.1575 14.8535 13.408L13.4082 14.8533C13.1568 15.105 12.82 15.068 12.6308 14.7655C12.6289 14.7615 12.627 14.7576 12.625 14.7537L9.41209 9.70881L9.70897 9.41194ZM17.2129 22.1619L7.75584 31.6932C6.61784 32.8392 5.99398 34.3614 5.99998 35.9764C6.00598 37.5914 6.64114 39.107 7.78514 40.244C8.92614 41.377 10.4369 41.9998 12.0449 41.9998H12.0664C13.6814 41.9938 15.1979 41.3597 16.3359 40.2127L22.5527 33.9451L22.2031 33.5936C21.5901 32.9736 21.1093 32.2675 20.7383 31.5155L14.207 38.0994C13.634 38.6764 12.8696 38.9968 12.0566 38.9998C11.2046 38.9858 10.4774 38.6891 9.90037 38.1151C9.32237 37.5421 9.00298 36.7787 8.99998 35.9647C8.99698 35.1517 9.31175 34.3854 9.88475 33.8084L19.334 24.283L17.2129 22.1619ZM28.0586 24.9901C28.8356 24.9936 29.6122 25.299 30.2109 25.9041L38.1113 33.9119C38.1126 33.9132 38.1139 33.9145 38.1152 33.9158C39.3118 35.1198 39.3048 37.0261 38.0996 38.2225C36.8927 39.4206 34.9909 39.4136 33.793 38.2069L25.8808 30.1893C25.8808 30.1886 25.8808 30.188 25.8808 30.1873C24.6871 28.98 24.6962 27.0799 25.9004 25.8846C26.5045 25.2849 27.2815 24.9866 28.0586 24.9901Z"
        fill="currentColor"
    ></path>
</svg>