<svg width="35" height="35" viewBox="0 0 35 35" fill="none" xmlns="http://www.w3.org/2000/svg"
    name="marvel" class="mr-2 h-9 w-9 ListItems_ListItemIcon__JEBXv">
    <path
        d="M20.431 13.5394C20.9068 13.0637 21.3284 12.642 21.6951 12.2754C22.0607 11.9097 22.4093 11.5885 22.739 11.3137C23.0688 11.0388 23.3986 10.7556 23.7284 10.4619C24.4607 9.8396 25.0652 9.39989 25.5418 9.14312C26.0173 8.88718 26.4758 8.7585 26.9156 8.7585C27.5379 8.7585 28.097 8.9879 28.5915 9.44539C29.0861 9.90382 29.3332 10.4261 29.3332 11.0116C29.3332 11.4512 29.214 11.9003 28.9761 12.358C28.7375 12.8165 28.3073 13.4484 27.6847 14.2537C24.8273 17.9905 23.3986 20.4084 23.3986 21.5074C23.3986 21.984 23.6365 22.2219 24.1128 22.2219C24.4787 22.2219 24.8823 22.0663 25.322 21.7546C25.7614 21.4439 26.329 20.9029 27.0254 20.1336C27.3911 19.7309 27.8403 19.1812 28.3716 18.4851C28.9024 17.7894 29.3694 17.1483 29.7729 16.5618C30.1758 15.9761 30.5148 15.5725 30.7896 15.3529C31.0644 15.133 31.3846 15.0232 31.7512 15.0232C32.1171 15.0232 32.4288 15.1518 32.6853 15.4075C32.9413 15.6643 33.07 15.9761 33.07 16.342C33.07 17.0383 32.749 17.9631 32.1084 19.117C31.4671 20.271 30.6332 21.4524 29.608 22.6614C28.3253 24.1999 27.0159 25.391 25.6791 26.2331C24.3414 27.0757 23.1238 27.4973 22.0249 27.4973C20.9987 27.4973 20.1564 27.1579 19.4969 26.4806C18.8374 25.8031 18.5079 24.9333 18.5079 23.8704C18.5079 23.3208 18.5534 22.7988 18.6452 22.3042C18.7363 21.8095 18.8736 21.2971 19.0572 20.7655C19.2402 20.2348 19.4969 19.6667 19.8267 19.062C20.1564 18.4575 20.5771 17.7894 21.0905 17.0563C21.1266 16.9833 21.2186 16.8365 21.3654 16.6167C20.4121 17.3501 19.4696 18.2745 18.5353 19.3919C17.6012 20.5096 16.6576 21.9471 15.7053 23.7055C15.0088 24.8783 14.4775 25.6563 14.1116 26.0409C13.745 26.4257 13.2875 26.6178 12.7379 26.6178C12.1514 26.6178 11.6663 26.4076 11.2816 25.9861C10.8968 25.5652 10.7046 25.0431 10.7046 24.4197C10.7046 24.0172 10.75 23.623 10.8419 23.2383C10.933 22.8538 11.1255 22.3317 11.4191 21.6723C11.6017 21.1596 11.8397 20.6007 12.1334 19.9961C12.4262 19.3919 12.6829 18.9246 12.9027 18.595L13.9468 16.7816C14.0197 16.7086 14.1297 16.5256 14.2765 16.232C13.5432 16.8185 12.8289 17.4873 12.1334 18.2377C11.4369 18.989 10.7682 19.7677 10.1277 20.5733C9.48622 21.3794 8.91877 22.1943 8.42419 23.0186C7.9295 23.8428 7.51739 24.6395 7.18776 25.409C6.74804 26.4349 6.35477 27.1211 6.00618 27.4697C5.65865 27.8174 5.20933 27.9916 4.65978 27.9916C4.11046 27.9916 3.65274 27.7718 3.28601 27.3323C2.92047 26.8927 2.73669 26.3251 2.73669 25.6288C2.73669 24.237 3.41481 21.8371 4.76974 18.4301C5.53921 16.4888 6.3729 14.6933 7.26999 13.0449C8.16743 11.3963 9.0561 9.98641 9.93517 8.81336C10.4479 8.15409 10.8876 7.68688 11.2542 7.41234C11.6199 7.13745 12.0234 7 12.4631 7C12.9389 7 13.351 7.16494 13.6996 7.49458C14.0474 7.82433 14.2215 8.22791 14.2215 8.70352C14.2215 9.07013 14.1393 9.45487 13.9744 9.85761C13.8095 10.2612 13.4152 10.9566 12.7928 11.9456C12.6829 12.1297 12.518 12.4128 12.2982 12.7973C12.0784 13.1821 11.8036 13.6682 11.4741 14.2537L10.8695 15.4625C11.9685 14.1437 12.9301 13.0267 13.7544 12.1106C14.5787 11.1952 15.3017 10.4619 15.9251 9.91259C16.5477 9.36304 17.1066 8.96017 17.6012 8.70352C18.0955 8.44782 18.5438 8.31903 18.9474 8.31903C19.4601 8.31903 19.8998 8.49321 20.2664 8.84097C20.6321 9.18957 20.8157 9.6198 20.8157 10.1322C20.8157 10.4619 20.7419 10.8286 20.5959 11.2314C20.4491 11.635 20.1374 12.2574 19.6619 13.0997L18.5079 15.188L18.0683 16.0122L18.7275 15.2979C19.387 14.6023 19.9548 14.0158 20.431 13.5394Z"
        fill="currentColor"></path>
</svg>