<svg width="406" height="306" viewBox="0 0 406 306" fill="none" xmlns="http://www.w3.org/2000/svg">
<path d="M262.885 107.518C263.159 106.432 263.423 105.335 263.707 104.249C263.849 103.681 264.022 103.123 264.204 102.575C264.293 102.226 264.498 101.919 264.787 101.705C265.075 101.49 265.429 101.382 265.788 101.397C266.661 101.397 267.523 101.529 268.386 101.59C268.847 101.651 269.312 101.671 269.777 101.651C270.119 101.63 270.445 101.494 270.7 101.265C271.604 100.25 272.466 99.2353 273.309 98.1188C273.448 97.9204 273.537 97.6908 273.567 97.4501C273.597 97.2095 273.568 96.9651 273.481 96.7384C273.177 95.7234 272.832 94.7084 272.537 93.6934C272.399 93.3019 272.323 92.8907 272.314 92.4754C272.315 92.1684 272.435 91.8737 272.649 91.6533C274.142 90.4891 275.802 89.5551 277.572 88.8823C277.831 88.7725 278.119 88.7518 278.391 88.8235C278.662 88.8951 278.903 89.0551 279.074 89.2782C279.805 90.1206 280.566 90.9428 281.277 91.8055C281.509 92.1328 281.831 92.3863 282.203 92.5357C282.576 92.6851 282.983 92.7241 283.378 92.648C284.504 92.4653 285.641 92.3536 286.768 92.2014C286.984 92.1796 287.19 92.1028 287.368 91.9785C287.546 91.8541 287.688 91.6862 287.783 91.4909C288.138 90.8616 288.463 90.212 288.798 89.5725C289.133 88.9331 289.386 88.4763 289.701 87.9384C289.838 87.6676 290.065 87.4528 290.342 87.3306C290.62 87.2084 290.931 87.1865 291.224 87.2685C292.837 87.6745 294.461 88.0906 296.065 88.5575C296.376 88.6417 296.647 88.8319 296.833 89.0951C297.018 89.3583 297.106 89.6779 297.08 89.9988C297.08 90.8819 296.948 91.7548 296.887 92.6378C296.887 93.0438 296.826 93.46 296.826 93.8761C296.818 94.1427 296.872 94.4075 296.985 94.6491C297.098 94.8908 297.266 95.1023 297.476 95.2667C298.369 95.9772 299.273 96.6775 300.145 97.4185C300.396 97.6468 300.705 97.8017 301.038 97.8662C301.371 97.9307 301.715 97.9022 302.033 97.7839C303.13 97.4388 304.226 97.0734 305.322 96.7689C305.679 96.6097 306.084 96.5971 306.451 96.7338C306.817 96.8704 307.115 97.1455 307.281 97.4997C308.042 98.7786 308.773 100.078 309.483 101.387C309.613 101.562 309.706 101.76 309.756 101.972C309.807 102.183 309.815 102.402 309.779 102.616C309.743 102.83 309.664 103.035 309.547 103.218C309.43 103.401 309.277 103.558 309.098 103.681C308.56 104.189 307.971 104.635 307.413 105.122C307.02 105.481 306.635 105.846 306.256 106.219C306.1 106.376 305.982 106.566 305.91 106.775C305.838 106.984 305.814 107.207 305.84 107.426C305.961 108.604 306.083 109.781 306.235 110.948C306.274 111.266 306.393 111.569 306.582 111.829C306.77 112.088 307.021 112.295 307.311 112.43C307.991 112.755 308.671 113.07 309.341 113.445C309.764 113.648 310.174 113.875 310.569 114.125C310.852 114.279 311.072 114.526 311.194 114.824C311.316 115.121 311.332 115.452 311.239 115.76C310.844 117.221 310.427 118.683 310.011 120.134C309.936 120.357 309.838 120.572 309.717 120.774C309.607 121.01 309.428 121.207 309.203 121.337C308.978 121.468 308.718 121.526 308.458 121.504L305.352 121.251H305.119C304.683 121.172 304.234 121.226 303.83 121.407C303.426 121.588 303.086 121.888 302.855 122.266C302.338 122.996 301.739 123.666 301.181 124.367C300.917 124.674 300.743 125.047 300.677 125.446C300.61 125.845 300.655 126.255 300.805 126.63C301.14 127.645 301.465 128.569 301.759 129.543C301.849 129.727 301.9 129.928 301.908 130.132C301.917 130.337 301.883 130.541 301.808 130.732C301.734 130.922 301.621 131.096 301.476 131.24C301.331 131.385 301.158 131.499 300.968 131.573C299.648 132.355 298.298 133.106 296.908 133.827C296.607 134.024 296.244 134.1 295.89 134.039C295.536 133.979 295.218 133.787 294.999 133.502C294.401 132.862 293.832 132.182 293.264 131.472C292.036 130.03 291.751 129.919 289.874 130.173L287.681 130.487C287.33 130.521 286.994 130.645 286.706 130.848C286.417 131.051 286.187 131.325 286.037 131.644C285.651 132.426 285.286 133.218 284.88 133.989C284.663 134.385 284.408 134.759 284.119 135.105C283.998 135.286 283.822 135.423 283.617 135.496C283.412 135.569 283.19 135.574 282.982 135.511L278.384 134.233C278.175 134.159 277.974 134.063 277.785 133.948C277.545 133.843 277.344 133.665 277.211 133.439C277.078 133.213 277.02 132.951 277.044 132.69C277.125 131.675 277.206 130.66 277.277 129.645C277.277 129.34 277.277 129.026 277.277 128.711C277.285 128.457 277.233 128.204 277.123 127.975C277.014 127.745 276.851 127.545 276.648 127.391C275.775 126.722 274.913 126.041 274.05 125.361C273.804 125.157 273.507 125.022 273.191 124.972C272.874 124.922 272.55 124.958 272.253 125.077C271.289 125.412 270.315 125.707 269.34 126.021H269.229C267.95 126.366 267.513 126.234 266.843 125.087C266.173 123.94 265.412 122.509 264.752 121.19C264.647 121.041 264.573 120.873 264.535 120.695C264.496 120.517 264.495 120.333 264.53 120.155C264.565 119.976 264.636 119.807 264.739 119.657C264.842 119.507 264.974 119.379 265.128 119.282C265.859 118.612 266.62 117.962 267.412 117.353C267.804 117.091 268.109 116.719 268.29 116.284C268.47 115.848 268.518 115.369 268.427 114.907C268.264 113.892 268.153 112.796 268 111.74C267.974 111.526 267.896 111.321 267.772 111.144C267.648 110.967 267.482 110.823 267.29 110.725C266.356 110.238 265.422 109.761 264.499 109.264C263.852 109.016 263.315 108.544 262.986 107.934L262.885 107.518ZM297.06 110.563C296.949 109.235 296.576 107.943 295.963 106.761C295.349 105.579 294.508 104.529 293.487 103.674C292.465 102.819 291.285 102.175 290.013 101.779C288.741 101.383 287.404 101.243 286.078 101.367C283.455 101.671 281.051 102.978 279.37 105.013C277.688 107.049 276.858 109.655 277.054 112.288C277.292 114.929 278.561 117.369 280.587 119.079C282.613 120.789 285.231 121.632 287.874 121.423C289.195 121.323 290.483 120.96 291.662 120.355C292.841 119.75 293.888 118.916 294.741 117.902C295.593 116.888 296.235 115.713 296.628 114.448C297.021 113.182 297.157 111.851 297.029 110.532L297.06 110.563Z" fill="white"/>
<path d="M283.185 136.039C283.038 136.039 282.891 136.018 282.749 135.978L281.673 135.684L278.141 134.669C277.931 134.594 277.727 134.502 277.532 134.395C277.184 134.247 276.892 133.995 276.695 133.673C276.499 133.35 276.408 132.975 276.436 132.598L276.547 131.248L276.669 129.543C276.684 129.249 276.684 128.954 276.669 128.66C276.68 128.481 276.646 128.303 276.572 128.14C276.498 127.977 276.385 127.835 276.243 127.726C275.4 127.087 274.578 126.427 273.746 125.778L273.634 125.686C273.454 125.534 273.236 125.435 273.003 125.399C272.77 125.363 272.532 125.392 272.315 125.483C271.645 125.717 270.965 125.93 270.285 126.153L269.381 126.437H269.249C267.727 126.853 267.067 126.59 266.296 125.27C265.524 123.951 264.733 122.438 264.185 121.352C263.919 120.953 263.821 120.465 263.913 119.994C264.004 119.523 264.276 119.107 264.672 118.835C265.535 118.053 266.276 117.434 266.986 116.876C267.301 116.665 267.546 116.365 267.689 116.014C267.831 115.663 267.866 115.278 267.788 114.907C267.686 114.257 267.595 113.587 267.514 112.877L267.362 111.689C267.35 111.549 267.303 111.414 267.225 111.297C267.147 111.18 267.04 111.084 266.915 111.019L265.798 110.441C265.24 110.147 264.672 109.862 264.114 109.558C263.364 109.261 262.747 108.702 262.378 107.985C262.368 107.931 262.368 107.876 262.378 107.822V107.436C262.368 107.383 262.368 107.328 262.378 107.274L262.581 106.432L263.19 103.996C263.342 103.427 263.515 102.859 263.697 102.29C263.812 101.844 264.076 101.45 264.445 101.173C264.814 100.896 265.266 100.753 265.727 100.768C266.316 100.768 266.895 100.829 267.473 100.89L268.346 100.961H268.712C269.025 100.991 269.342 100.991 269.655 100.961C269.871 100.946 270.078 100.872 270.254 100.748C271.208 99.6616 272.102 98.5552 272.832 97.6214C272.925 97.488 272.982 97.3331 272.998 97.1714C273.014 97.0098 272.988 96.8468 272.924 96.6978C272.792 96.2512 272.65 95.8046 272.497 95.3478C272.345 94.8911 272.142 94.2212 271.98 93.6528C271.827 93.2153 271.745 92.7561 271.736 92.2927C271.734 92.0631 271.781 91.8356 271.874 91.6256C271.966 91.4156 272.103 91.2277 272.274 91.0747C273.806 89.864 275.519 88.9015 277.349 88.2225C277.702 88.0842 278.089 88.0629 278.455 88.1615C278.82 88.2602 279.144 88.4737 279.379 88.7706L280.151 89.6435C280.638 90.1916 281.166 90.7296 281.592 91.298C281.766 91.5575 282.013 91.7596 282.302 91.8788C282.591 91.998 282.909 92.029 283.216 91.9679C283.957 91.8461 284.688 91.7547 285.429 91.6634L286.626 91.5111C286.756 91.4935 286.879 91.4433 286.983 91.3651C287.088 91.287 287.171 91.1836 287.225 91.0645L287.834 89.9074L288.403 88.8924C288.646 88.4357 288.89 87.9688 289.164 87.5323C289.352 87.1753 289.653 86.8913 290.021 86.7258C290.389 86.5602 290.802 86.5226 291.194 86.6188C293.153 87.1162 294.645 87.512 296.045 87.918C296.457 88.0394 296.816 88.2976 297.061 88.6501C297.307 89.0026 297.424 89.4282 297.395 89.8567C297.395 90.4555 297.335 91.0544 297.274 91.6329C297.274 91.9273 297.223 92.2216 297.192 92.516C297.162 92.8103 297.142 93.3178 297.142 93.7238C297.129 93.9174 297.164 94.1112 297.244 94.2881C297.323 94.4651 297.445 94.6198 297.598 94.7388L298.228 95.2362C298.918 95.7843 299.608 96.3324 300.258 96.9008C300.445 97.0719 300.676 97.1873 300.925 97.234C301.175 97.2806 301.432 97.2566 301.669 97.1647L303.272 96.6572L304.957 96.1192C305.432 95.9392 305.957 95.9436 306.428 96.1315C306.9 96.3194 307.284 96.6771 307.505 97.1342C308.276 98.4334 309.017 99.7428 309.718 101.032C310.033 101.483 310.158 102.04 310.067 102.583C309.976 103.126 309.676 103.611 309.23 103.935C308.906 104.239 308.571 104.523 308.215 104.808L307.525 105.396C307.139 105.731 306.764 106.097 306.398 106.411C306.292 106.514 306.211 106.64 306.162 106.779C306.113 106.918 306.096 107.067 306.114 107.213L306.185 107.863C306.287 108.817 306.398 109.771 306.52 110.715C306.545 110.951 306.631 111.176 306.77 111.368C306.909 111.561 307.096 111.713 307.312 111.811L308.185 112.227L309.352 112.786C309.748 112.989 310.195 113.222 310.621 113.496C310.997 113.705 311.29 114.037 311.451 114.436C311.611 114.835 311.63 115.277 311.504 115.688C311.111 117.15 310.705 118.612 310.286 120.073C310.206 120.31 310.1 120.538 309.971 120.753C309.812 121.082 309.558 121.355 309.241 121.536C308.924 121.718 308.559 121.798 308.195 121.768L305.089 121.515C305.001 121.523 304.913 121.523 304.825 121.515C304.482 121.453 304.128 121.498 303.81 121.643C303.493 121.788 303.227 122.027 303.049 122.327C302.673 122.854 302.267 123.342 301.861 123.829L301.354 124.448C301.145 124.688 301.007 124.981 300.955 125.294C300.903 125.608 300.939 125.93 301.06 126.224C301.435 127.31 301.75 128.254 302.024 129.168C302.135 129.407 302.196 129.666 302.205 129.93C302.214 130.193 302.17 130.456 302.075 130.702C301.98 130.948 301.837 131.173 301.654 131.362C301.471 131.552 301.251 131.703 301.009 131.807C299.781 132.527 298.461 133.268 296.949 134.07C296.553 134.324 296.076 134.421 295.613 134.342C295.149 134.263 294.731 134.014 294.442 133.644C293.944 133.116 293.478 132.568 293.011 132.01L292.686 131.634C291.569 130.315 291.448 130.274 289.752 130.507L287.55 130.822C287.281 130.845 287.023 130.939 286.802 131.094C286.581 131.249 286.405 131.46 286.291 131.705L285.926 132.466C285.676 133.001 285.412 133.529 285.134 134.05C284.907 134.48 284.635 134.885 284.322 135.258C284.206 135.467 284.043 135.646 283.845 135.782C283.648 135.917 283.422 136.005 283.185 136.039ZM272.863 124.407C273.377 124.412 273.874 124.591 274.274 124.915L274.385 125.006C275.208 125.656 276.04 126.315 276.872 126.955C277.134 127.154 277.344 127.413 277.487 127.709C277.63 128.005 277.701 128.331 277.694 128.66C277.694 128.985 277.694 129.32 277.694 129.675C277.694 130.244 277.613 130.822 277.562 131.39L277.461 132.74C277.447 132.903 277.486 133.066 277.572 133.205C277.658 133.344 277.786 133.451 277.938 133.512H278.029C278.158 133.589 278.294 133.653 278.435 133.705L281.957 134.72L283.023 135.014C283.136 135.047 283.257 135.042 283.367 135C283.477 134.958 283.57 134.881 283.632 134.781C283.9 134.465 284.138 134.126 284.343 133.766C284.606 133.258 284.86 132.751 285.114 132.223L285.489 131.441C285.677 131.049 285.962 130.711 286.317 130.46C286.673 130.21 287.087 130.055 287.519 130.01L289.712 129.695C291.742 129.411 292.219 129.594 293.559 131.167L293.884 131.553C294.34 132.091 294.797 132.629 295.284 133.136C295.351 133.239 295.439 133.326 295.541 133.394C295.643 133.462 295.758 133.508 295.879 133.53C295.999 133.552 296.123 133.549 296.242 133.521C296.362 133.494 296.474 133.442 296.573 133.37C298.065 132.578 299.385 131.837 300.633 131.127C301.344 130.71 301.435 130.467 301.192 129.645C300.948 128.823 300.613 127.828 300.248 126.752C300.067 126.295 300.015 125.798 300.095 125.313C300.175 124.829 300.386 124.375 300.704 124.001L301.222 123.372C301.618 122.905 302.014 122.428 302.359 121.931C302.644 121.477 303.058 121.118 303.548 120.899C304.037 120.681 304.581 120.612 305.109 120.703H305.323L308.368 120.946C308.533 120.968 308.7 120.932 308.842 120.845C308.984 120.758 309.093 120.626 309.149 120.469C309.255 120.308 309.34 120.134 309.403 119.951C309.819 118.49 310.225 117.038 310.621 115.577C310.692 115.374 310.686 115.152 310.603 114.953C310.521 114.755 310.368 114.594 310.174 114.501C309.795 114.262 309.402 114.045 308.997 113.851L307.85 113.293L306.977 112.877C306.607 112.709 306.287 112.447 306.049 112.118C305.81 111.789 305.661 111.403 305.617 110.999C305.485 110.045 305.383 109.081 305.282 108.117L305.211 107.477C305.174 107.181 305.207 106.88 305.305 106.599C305.404 106.317 305.566 106.062 305.779 105.853C306.155 105.467 306.551 105.092 306.957 104.737L307.667 104.128C307.992 103.864 308.317 103.59 308.621 103.295C309.261 102.696 309.322 102.372 308.916 101.621C308.215 100.342 307.485 99.0424 306.723 97.7432C306.669 97.6183 306.589 97.5056 306.49 97.412C306.391 97.3184 306.274 97.2457 306.146 97.1984C306.018 97.151 305.882 97.1299 305.746 97.1363C305.609 97.1427 305.476 97.1765 305.353 97.2357L303.678 97.7737L302.054 98.2913C301.654 98.4316 301.224 98.4623 300.808 98.3802C300.392 98.2981 300.006 98.1062 299.689 97.8244C299.03 97.2662 298.35 96.7282 297.659 96.1903L297.03 95.6828C296.759 95.4722 296.542 95.2007 296.395 94.8903C296.249 94.5799 296.178 94.2394 296.188 93.8964C296.188 93.4701 296.188 93.0438 296.248 92.6175C296.309 92.1912 296.299 92.0085 296.33 91.7141C296.33 91.1254 296.431 90.5773 296.441 90.0089C296.463 89.8056 296.415 89.601 296.304 89.4292C296.193 89.2574 296.027 89.1288 295.832 89.065C294.442 88.659 292.95 88.2631 291.011 87.7759C290.823 87.7221 290.623 87.7376 290.446 87.8196C290.269 87.9016 290.127 88.0446 290.047 88.2225C289.793 88.6488 289.549 89.0954 289.316 89.542L288.758 90.557C288.555 90.9529 288.342 91.3386 288.128 91.7344C287.998 91.9915 287.807 92.2129 287.572 92.3792C287.337 92.5455 287.064 92.6517 286.779 92.6885L285.571 92.8408C284.85 92.9321 284.119 93.0235 283.399 93.1351C282.917 93.2276 282.419 93.1813 281.962 93.0016C281.506 92.8219 281.11 92.5162 280.82 92.1201C280.374 91.572 279.897 91.0341 279.42 90.5063C279.156 90.2119 278.892 89.9176 278.638 89.6131C278.533 89.4674 278.38 89.3627 278.206 89.3165C278.033 89.2702 277.848 89.2854 277.684 89.3593C275.969 90.0288 274.364 90.9527 272.924 92.0998C272.839 92.2261 272.793 92.3742 272.792 92.5261C272.807 92.8894 272.875 93.2484 272.995 93.5919C273.157 94.1467 273.33 94.705 273.512 95.2666L273.939 96.6267C274.046 96.9333 274.078 97.261 274.032 97.5825C273.986 97.9039 273.863 98.2096 273.675 98.474C272.924 99.418 272.031 100.504 271.056 101.641C270.714 101.968 270.269 102.165 269.798 102.199C269.416 102.235 269.032 102.235 268.651 102.199H268.316L267.422 102.118C266.864 102.118 266.306 102.016 265.748 102.006C265.499 101.998 265.255 102.075 265.055 102.225C264.856 102.374 264.714 102.587 264.652 102.828C264.479 103.376 264.306 103.925 264.164 104.473C263.951 105.285 263.758 106.087 263.555 106.888L263.373 107.66V107.873C263.668 108.333 264.102 108.688 264.611 108.888L266.296 109.771L267.412 110.35C267.687 110.484 267.924 110.686 268.102 110.936C268.279 111.186 268.391 111.476 268.427 111.781L268.58 112.989C268.671 113.638 268.752 114.288 268.854 114.937C268.957 115.487 268.9 116.055 268.69 116.574C268.479 117.092 268.124 117.539 267.666 117.861C266.976 118.398 266.255 119.007 265.413 119.779C264.895 120.246 264.844 120.479 265.149 121.078C265.697 122.093 266.428 123.555 267.24 124.945C267.768 125.869 267.96 125.96 269.046 125.646L270.061 125.321L272.091 124.671C272.343 124.54 272.614 124.451 272.893 124.407H272.863ZM286.961 121.951C284.327 121.941 281.792 120.946 279.854 119.161C277.915 117.377 276.714 114.933 276.486 112.308C276.365 110.926 276.521 109.534 276.945 108.213C277.368 106.892 278.051 105.669 278.953 104.615C280.282 102.998 282.063 101.816 284.069 101.221C286.075 100.626 288.213 100.644 290.209 101.274C292.204 101.904 293.965 103.116 295.266 104.755C296.567 106.394 297.347 108.385 297.507 110.471C297.658 111.802 297.541 113.15 297.163 114.434C296.784 115.719 296.153 116.915 295.305 117.952C294.403 119.09 293.276 120.029 291.993 120.71C290.711 121.391 289.302 121.8 287.854 121.91C287.568 121.938 287.28 121.951 286.992 121.951H286.961ZM286.89 101.813H286.058C283.581 102.092 281.31 103.322 279.724 105.244C278.507 106.679 277.742 108.443 277.528 110.312C277.313 112.182 277.658 114.073 278.519 115.747C279.379 117.42 280.717 118.801 282.363 119.714C284.008 120.627 285.888 121.031 287.763 120.875C289.074 120.773 290.35 120.403 291.511 119.786C292.672 119.17 293.694 118.321 294.513 117.292C295.282 116.364 295.858 115.291 296.206 114.137C296.555 112.984 296.669 111.772 296.543 110.573C296.352 108.163 295.251 105.917 293.464 104.29C291.677 102.663 289.337 101.777 286.921 101.813H286.89Z" fill="#303C42" fill-opacity="0.25"/>
<path d="M142.161 50.8705C142.161 50.8705 117.05 49.6221 111.975 66.1869V99.3469C111.975 99.3469 131.493 83.9798 142.161 89.1056V50.8705Z" fill="#303C42" fill-opacity="0.25"/>
<path d="M111.975 99.8545C111.901 99.8685 111.826 99.8685 111.752 99.8545C111.666 99.8126 111.594 99.7476 111.544 99.6669C111.494 99.5861 111.467 99.4928 111.468 99.3977V66.1869C111.463 66.1397 111.463 66.0921 111.468 66.0448C116.603 49.2973 141.918 50.3428 142.171 50.3631C142.302 50.3683 142.426 50.4241 142.517 50.5187C142.608 50.6133 142.659 50.7394 142.658 50.8706V89.1056C142.659 89.1932 142.637 89.2794 142.594 89.3559C142.551 89.4324 142.49 89.4965 142.415 89.5421C142.341 89.5848 142.257 89.6074 142.171 89.6074C142.086 89.6074 142.002 89.5848 141.928 89.5421C131.666 84.5889 112.493 99.5703 112.269 99.6921C112.195 99.7817 112.09 99.8397 111.975 99.8545ZM112.483 66.2681V98.3218C116.279 95.49 131.889 84.528 141.664 88.3342V51.3578C138.192 51.2867 117.05 51.5912 112.483 66.2681Z" fill="#303C42"/>
<path d="M168.095 226.709C164.654 227.846 161.162 228.851 157.802 230.17C152.2 232.373 147.652 230.85 144.607 225.978C139.837 218.437 133.209 213.179 125.83 208.358C115 201.253 107.56 191.225 104.616 178.558C98.628 153.051 113.488 131.421 139.746 125.372C178.488 116.47 202.127 151.762 191.511 185.257C188.638 194.321 185.948 203.111 186.659 212.743C187.055 218.102 184.132 221.543 178.904 223.086C175.271 224.192 171.698 225.501 168.095 226.709Z" fill="white"/>
<path d="M153.052 231.673C149.469 231.673 146.455 229.846 144.191 226.252C139.116 218.285 131.951 212.956 125.556 208.784C114.749 201.94 107.057 191.132 104.129 178.679C101.298 166.591 102.972 155.111 108.971 145.479C115.315 135.329 126.226 127.97 139.644 124.884C156.635 120.977 171.84 125.158 182.457 136.669C193.937 149.102 197.591 167.799 192.008 185.449C189.278 194.077 186.456 202.999 187.177 212.743C187.573 218.173 184.771 221.878 179.057 223.613C176.57 224.344 174.063 225.207 171.637 226.039L168.247 227.186L165.1 228.201C162.746 228.952 160.31 229.734 157.995 230.647C156.426 231.294 154.75 231.642 153.052 231.673ZM151.723 124.468C147.731 124.488 143.754 124.958 139.868 125.869C126.673 128.914 116.035 136.019 109.834 146.017C103.977 155.416 102.343 166.631 105.114 178.446C108.017 190.809 115.081 200.776 126.114 207.932C132.6 212.164 139.918 217.584 145.044 225.715C148.038 230.455 152.261 231.805 157.61 229.703C159.975 228.78 162.421 227.998 164.796 227.237L167.932 226.222L171.312 225.075C173.738 224.243 176.255 223.37 178.772 222.639C183.969 221.106 186.517 217.716 186.162 212.824C185.421 202.877 188.283 193.864 191.034 185.145C196.515 167.89 192.942 149.529 181.716 137.359C177.915 133.208 173.275 129.913 168.105 127.69C162.934 125.468 157.35 124.37 151.723 124.468Z" fill="#303C42"/>
<path d="M181.894 222.16L154.138 231.426C151.655 232.255 150.314 234.94 151.143 237.423L151.625 238.867C152.454 241.35 155.138 242.691 157.622 241.862L185.378 232.597C187.862 231.768 189.203 229.083 188.374 226.6L187.892 225.155C187.063 222.672 184.378 221.331 181.894 222.16Z" fill="white"/>
<path d="M156.138 242.604C155.037 242.608 153.962 242.264 153.069 241.62C152.176 240.976 151.509 240.067 151.164 239.021L150.677 237.57C150.239 236.249 150.343 234.809 150.965 233.565C151.587 232.321 152.677 231.374 153.996 230.931L181.746 221.665C183.068 221.227 184.509 221.33 185.755 221.952C187.001 222.574 187.95 223.664 188.394 224.984L188.871 226.425C189.312 227.747 189.21 229.189 188.587 230.436C187.965 231.682 186.873 232.631 185.552 233.073L157.802 242.32C157.266 242.504 156.704 242.6 156.138 242.604ZM183.411 222.416C182.956 222.416 182.504 222.488 182.071 222.629L154.28 231.896C153.225 232.261 152.356 233.027 151.862 234.028C151.368 235.03 151.289 236.185 151.641 237.245L152.128 238.686C152.301 239.215 152.578 239.703 152.942 240.123C153.306 240.543 153.751 240.886 154.25 241.132C154.747 241.383 155.29 241.532 155.845 241.573C156.401 241.613 156.959 241.542 157.488 241.366L185.238 232.099C185.765 231.922 186.252 231.644 186.672 231.279C187.091 230.914 187.435 230.47 187.683 229.972C187.931 229.475 188.078 228.933 188.116 228.378C188.155 227.824 188.084 227.267 187.907 226.74L187.43 225.298C187.146 224.458 186.605 223.728 185.884 223.211C185.163 222.694 184.298 222.416 183.411 222.416Z" fill="#303C42"/>
<path d="M185.388 232.606L157.631 241.872C155.148 242.701 153.807 245.386 154.636 247.869L155.118 249.313C155.947 251.796 158.632 253.137 161.115 252.308L188.872 243.042C191.355 242.213 192.696 239.528 191.867 237.045L191.385 235.601C190.556 233.118 187.871 231.777 185.388 232.606Z" fill="white"/>
<path d="M159.619 253.048C158.519 253.043 157.448 252.693 156.556 252.049C155.665 251.405 154.997 250.498 154.645 249.455L154.168 248.014C153.94 247.353 153.848 246.653 153.896 245.955C153.945 245.257 154.134 244.577 154.453 243.954C154.754 243.331 155.18 242.777 155.703 242.325C156.227 241.873 156.838 241.533 157.498 241.325L185.248 232.058C186.567 231.633 188.001 231.747 189.236 232.377C190.47 233.007 191.405 234.1 191.835 235.418L192.312 236.869C192.533 237.522 192.623 238.213 192.576 238.9C192.529 239.588 192.346 240.26 192.039 240.877C191.731 241.494 191.305 242.044 190.784 242.495C190.263 242.947 189.658 243.291 189.003 243.507L161.253 252.774C160.726 252.951 160.175 253.043 159.619 253.048ZM186.902 232.85C186.443 232.849 185.987 232.924 185.552 233.073L157.802 242.32C156.737 242.679 155.858 243.446 155.356 244.451C155.105 244.947 154.955 245.488 154.917 246.043C154.879 246.597 154.952 247.154 155.133 247.679L155.61 249.12C155.784 249.649 156.061 250.139 156.425 250.56C156.79 250.981 157.233 251.326 157.732 251.575C158.23 251.825 158.772 251.973 159.328 252.011C159.883 252.05 160.441 251.978 160.969 251.8L188.719 242.533C189.247 242.358 189.735 242.08 190.155 241.715C190.576 241.35 190.92 240.906 191.168 240.408C191.416 239.91 191.563 239.368 191.601 238.813C191.639 238.258 191.567 237.701 191.388 237.174L190.911 235.733C190.737 235.205 190.459 234.717 190.095 234.297C189.731 233.878 189.287 233.534 188.79 233.286C188.203 232.998 187.557 232.849 186.902 232.85Z" fill="#303C42"/>
<path d="M189.257 242.898C190.566 246.837 185.197 252.155 177.382 254.784C169.566 257.413 162.065 256.347 160.756 252.419L189.257 242.898Z" fill="#303C42"/>
<path d="M169.089 256.733C168.237 256.738 167.385 256.681 166.542 256.56C163.202 256.083 160.969 254.672 160.269 252.582C160.23 252.452 160.241 252.313 160.302 252.192C160.362 252.071 160.467 251.978 160.594 251.932L189.095 242.421C189.221 242.379 189.36 242.389 189.479 242.448C189.599 242.507 189.69 242.61 189.734 242.736C190.435 244.837 189.511 247.304 187.126 249.689C184.394 252.246 181.118 254.151 177.544 255.261C174.822 256.2 171.968 256.697 169.089 256.733ZM161.436 252.724C162.177 254.185 164.014 255.18 166.684 255.556C170.245 255.856 173.831 255.427 177.221 254.297C180.612 253.166 183.737 251.356 186.405 248.978C188.303 247.07 189.176 245.172 188.892 243.558L161.436 252.724Z" fill="#303C42"/>
<path d="M159.903 224.111C159.79 224.108 159.68 224.07 159.591 224C159.501 223.931 159.436 223.834 159.406 223.725L159.152 222.71C157.122 214.154 154.95 205.364 151.174 197.335C145.708 198.377 140.068 198.028 134.772 196.32C131.675 195.454 128.869 193.767 126.652 191.438C125.531 190.245 124.734 188.784 124.338 187.196C123.941 185.607 123.959 183.944 124.388 182.364C124.852 181.215 125.546 180.174 126.428 179.305C127.31 178.435 128.36 177.756 129.515 177.309C130.67 176.861 131.905 176.656 133.142 176.705C134.38 176.754 135.594 177.056 136.71 177.593C140.364 179.705 144.272 183.968 148.342 190.261C149.583 192.183 150.705 194.179 151.702 196.239C156.189 195.327 160.444 193.51 164.207 190.9C164.125 190.535 164.044 190.179 163.973 189.814L163.79 188.921C162.329 181.998 160.522 173.381 163.516 166.591C163.993 165.495 165.79 161.891 168.662 161.292C169.348 161.164 170.055 161.21 170.719 161.427C171.382 161.643 171.98 162.023 172.459 162.531C174.037 164.082 175.223 165.986 175.92 168.086C176.617 170.187 176.805 172.422 176.468 174.609C175.762 178.93 173.824 182.955 170.885 186.201C169.242 188.103 167.382 189.806 165.343 191.276C167.555 200.577 170.914 209.567 175.341 218.041C175.373 218.101 175.392 218.166 175.397 218.234C175.403 218.301 175.395 218.369 175.375 218.433C175.354 218.497 175.32 218.557 175.276 218.608C175.232 218.659 175.178 218.701 175.118 218.731C174.998 218.789 174.86 218.798 174.733 218.756C174.606 218.715 174.501 218.626 174.438 218.508C170.036 210.081 166.682 201.147 164.45 191.905C160.755 194.409 156.613 196.18 152.25 197.122C155.995 205.151 158.127 213.9 160.187 222.426L160.451 223.441C160.482 223.571 160.459 223.709 160.389 223.823C160.319 223.937 160.206 224.019 160.076 224.05L159.903 224.111ZM132.965 177.604C131.922 177.61 130.89 177.81 129.92 178.192C128.884 178.551 127.939 179.133 127.153 179.898C126.367 180.663 125.759 181.591 125.373 182.618C125 184.033 124.991 185.519 125.345 186.938C125.7 188.358 126.408 189.665 127.403 190.738C129.487 192.922 132.12 194.506 135.025 195.325C140.067 196.967 145.437 197.337 150.656 196.401C149.707 194.467 148.646 192.59 147.479 190.778C143.501 184.627 139.704 180.476 136.193 178.436C135.207 177.884 134.095 177.597 132.965 177.604ZM169.505 162.206C169.318 162.208 169.131 162.225 168.947 162.257C167.049 162.663 165.414 164.957 164.521 166.976C161.669 173.442 163.435 181.877 164.856 188.667L165.049 189.55C165.049 189.773 165.14 189.987 165.181 190.21C167.021 188.838 168.703 187.265 170.195 185.521C173.007 182.425 174.864 178.583 175.544 174.457C175.854 172.437 175.682 170.373 175.042 168.432C174.401 166.492 173.311 164.73 171.86 163.292C171.241 162.645 170.399 162.256 169.505 162.206Z" fill="#303C42" fill-opacity="0.25"/>
<path d="M257.141 76.3572C256.836 76.3572 242.931 115.739 242.931 115.739H280.648L288.545 74.5708L257.141 76.3572Z" fill="white"/>
<path d="M280.648 116.247H242.971C242.891 116.246 242.812 116.227 242.742 116.19C242.671 116.153 242.61 116.099 242.565 116.034C242.516 115.967 242.484 115.89 242.472 115.809C242.459 115.728 242.467 115.645 242.494 115.567C256.308 76.3167 256.633 75.86 257.12 75.86L288.524 74.0736C288.6 74.0699 288.676 74.0836 288.747 74.1134C288.817 74.1433 288.88 74.1887 288.93 74.2461C288.979 74.3048 289.015 74.373 289.036 74.4464C289.057 74.5198 289.062 74.5968 289.052 74.6724L281.155 115.831C281.135 115.95 281.073 116.058 280.98 116.134C280.886 116.211 280.768 116.251 280.648 116.247ZM243.691 115.232H280.231L287.925 75.119L257.475 76.8445C256.409 79.3008 248.858 100.565 243.691 115.232Z" fill="#303C42"/>
<path d="M250.482 103.184C250.404 103.185 250.327 103.168 250.256 103.135C250.186 103.101 250.124 103.052 250.076 102.991C250.025 102.924 249.991 102.845 249.977 102.762C249.963 102.679 249.969 102.594 249.995 102.514L254.582 88.7504C254.61 88.6582 254.664 88.5762 254.738 88.5148C254.812 88.4534 254.903 88.4153 254.998 88.4053L260.845 87.6948C260.928 87.6827 261.013 87.6922 261.091 87.7224C261.169 87.7527 261.238 87.8026 261.291 87.8674C261.347 87.9319 261.386 88.0095 261.403 88.0929C261.421 88.1763 261.417 88.2628 261.393 88.3444L257.14 102.422C257.111 102.522 257.051 102.61 256.969 102.673C256.887 102.737 256.787 102.774 256.683 102.778L250.512 103.184H250.482ZM255.445 89.3696L251.192 102.118L256.267 101.793L260.195 88.8012L255.445 89.3696Z" fill="#303C42" fill-opacity="0.25"/>
<path d="M276.8 111.882H257.14C257.061 111.884 256.982 111.866 256.912 111.831C256.841 111.795 256.78 111.743 256.734 111.679C256.684 111.617 256.651 111.544 256.637 111.466C256.622 111.388 256.628 111.308 256.653 111.233L266.265 79.0367C266.297 78.9388 266.357 78.8526 266.439 78.7893C266.52 78.7261 266.618 78.6885 266.721 78.6815L284.991 77.362C285.07 77.3572 285.149 77.3713 285.221 77.403C285.294 77.4348 285.358 77.4834 285.407 77.5447C285.461 77.6042 285.5 77.6761 285.519 77.754C285.539 77.8319 285.539 77.9134 285.519 77.9913L277.318 111.486C277.29 111.602 277.223 111.704 277.129 111.776C277.035 111.848 276.919 111.885 276.8 111.882ZM257.82 110.867H276.404L284.342 78.3871L267.137 79.6254L257.82 110.867Z" fill="#303C42" fill-opacity="0.25"/>
<path d="M229.228 99.2049C229.228 99.2049 233.592 95.5408 235.612 93.8762C237.632 92.2116 239.581 87.6441 241.408 87.6644C243.235 87.6847 239.966 93.1149 239.966 93.1149C239.966 93.1149 246.757 87.908 248.868 87.7557C250.979 87.6035 252.167 91.1661 251.639 92.2725C251.111 93.3788 245.356 96.0787 243.224 98.2102C241.093 100.342 234.089 105.112 234.089 105.112" fill="white"/>
<path d="M234.13 105.569C234.02 105.571 233.912 105.537 233.823 105.472C233.733 105.407 233.668 105.315 233.636 105.209C233.604 105.104 233.607 104.991 233.645 104.887C233.683 104.784 233.753 104.695 233.846 104.635C233.917 104.635 240.799 99.8749 242.869 97.7942C244.406 96.4719 246.072 95.3088 247.843 94.3229C249.049 93.6956 250.168 92.9143 251.172 91.9985C251.25 91.5059 251.228 91.0028 251.11 90.5184C250.991 90.034 250.778 89.578 250.482 89.1768C250.338 88.8794 250.115 88.6272 249.838 88.4482C249.56 88.2691 249.239 88.17 248.909 88.1618C247.467 88.2633 242.961 91.3591 240.281 93.4094C240.19 93.4853 240.075 93.5269 239.956 93.5269C239.838 93.5269 239.723 93.4853 239.631 93.4094C239.543 93.3311 239.485 93.2237 239.468 93.1065C239.451 92.9893 239.477 92.8699 239.54 92.7699C240.768 90.7399 241.672 88.4968 241.428 88.0908C240.575 88.0908 239.398 89.7249 238.383 91.1358C237.681 92.2481 236.846 93.2706 235.896 94.1808C233.866 95.8454 229.522 99.5095 229.522 99.5095L228.862 98.7381C228.862 98.7381 233.237 95.0638 235.247 93.3992C236.124 92.55 236.898 91.5994 237.551 90.5674C238.809 88.7708 240.007 87.0758 241.357 87.0758C241.541 87.0696 241.723 87.1135 241.884 87.2029C242.045 87.2923 242.179 87.4238 242.27 87.5833C242.676 88.3344 242.128 89.867 241.469 91.2373C243.691 89.6437 247.234 87.2686 248.787 87.1773C249.29 87.1675 249.786 87.2933 250.224 87.5416C250.661 87.7898 251.024 88.1513 251.274 88.5881C251.674 89.1306 251.951 89.7545 252.084 90.4157C252.218 91.0769 252.204 91.7593 252.045 92.4147C251.73 93.0643 250.492 93.8458 248.33 95.1653C246.647 96.1235 245.063 97.2454 243.6 98.5148C241.458 100.656 234.719 105.285 234.465 105.478C234.369 105.549 234.249 105.582 234.13 105.569Z" fill="#303C42"/>
<path d="M232.019 70.0235C234.152 68.526 236.447 67.273 238.86 66.2883C241.631 65.3748 245.143 64.7557 244.351 63.5783C243.56 62.4009 236.982 64.1061 236.982 64.1061C236.982 64.1061 240.819 58.2292 242.971 57.062C245.123 55.8947 248.208 55.9861 246.686 54.8696C245.163 53.7531 240.596 53.5805 238.962 54.4027C237.327 55.2248 228.132 65.3342 227.665 65.8722C227.198 66.4101 232.019 70.0235 232.019 70.0235Z" fill="white"/>
<path d="M232.019 70.5312C231.909 70.5319 231.802 70.4962 231.714 70.4297C229.684 68.9072 227.218 66.8975 227.126 66.0449C227.115 65.9543 227.122 65.8623 227.148 65.7749C227.175 65.6875 227.219 65.6065 227.279 65.5374C227.37 65.4359 236.952 54.8596 238.728 53.9562C240.504 53.0529 245.254 53.195 246.99 54.4637C247.183 54.6058 247.69 54.9814 247.589 55.4787C247.487 55.9761 246.757 56.2907 245.66 56.5851C244.81 56.7824 243.985 57.0788 243.204 57.4681C241.834 58.2091 239.509 61.2947 238.129 63.2536C240.494 62.7258 244.016 62.1473 244.757 63.2536C244.856 63.3873 244.921 63.5432 244.946 63.7079C244.971 63.8725 244.955 64.0407 244.899 64.1976C244.595 65.0502 243.224 65.4866 240.839 66.2276C240.23 66.4001 239.601 66.5828 239.002 66.7757C236.642 67.753 234.396 68.9851 232.303 70.45C232.218 70.5036 232.119 70.5317 232.019 70.5312ZM228.202 66.0347C229.363 67.2855 230.649 68.4146 232.039 69.4045C234.114 67.9533 236.348 66.7444 238.697 65.8013C239.306 65.6084 239.946 65.4156 240.575 65.243C241.783 64.8878 243.813 64.2991 243.955 63.8931C243.559 63.4059 240.372 63.751 237.114 64.5934C237.015 64.619 236.911 64.6143 236.815 64.5799C236.719 64.5455 236.636 64.483 236.576 64.4006C236.519 64.3151 236.488 64.2144 236.488 64.1113C236.488 64.0082 236.519 63.9075 236.576 63.822C236.739 63.5784 240.504 57.8234 242.747 56.6155C243.596 56.1771 244.491 55.8366 245.417 55.6005C245.762 55.5092 246.208 55.3874 246.432 55.2859L246.381 55.2351C244.98 54.2201 240.595 54.0882 239.185 54.8088C237.774 55.5295 229.593 64.4716 228.202 66.0347Z" fill="#303C42"/>
<path d="M184.943 78.428C184.943 78.428 208.968 81.8485 212.602 80.935L226.812 64.9995L235.145 70.4298C235.145 70.4298 230.76 83.5233 224.751 91.085C218.743 98.6468 179.432 100.281 179.432 100.281L184.943 78.428Z" fill="#FF5100"/>
<path d="M237.013 217.219C237.013 217.219 234.242 223.207 234.871 225.592C235.501 227.978 246.229 243.812 247.782 242.025C249.335 240.239 246.99 224.77 246.99 224.77L237.013 217.219Z" fill="#303C42"/>
<path d="M247.457 242.675H247.173C244.199 241.975 234.891 227.684 234.384 225.755C233.734 223.258 236.261 217.635 236.556 217.036C236.588 216.969 236.635 216.909 236.693 216.862C236.75 216.814 236.818 216.78 236.891 216.762C236.963 216.743 237.039 216.74 237.113 216.754C237.187 216.768 237.257 216.799 237.317 216.843L247.294 224.354C247.347 224.393 247.391 224.441 247.424 224.497C247.458 224.553 247.479 224.615 247.487 224.679C247.883 227.308 249.781 240.523 248.157 242.391C248.068 242.487 247.96 242.562 247.839 242.611C247.718 242.66 247.587 242.682 247.457 242.675ZM237.216 217.96C236.373 219.909 234.932 223.796 235.358 225.43C236.069 228.12 245.742 241.62 247.437 241.62C248.33 240.605 247.437 231.307 246.503 224.963L237.216 217.96Z" fill="#303C42"/>
<path d="M242.666 204.785L237.013 217.219L246.99 224.73L254.471 210.185L242.666 204.785Z" fill="white"/>
<path d="M246.99 225.237C246.881 225.235 246.775 225.199 246.686 225.136L236.708 217.625C236.616 217.555 236.549 217.456 236.52 217.343C236.49 217.231 236.5 217.112 236.546 217.006L242.199 204.572C242.26 204.45 242.366 204.356 242.494 204.308C242.617 204.257 242.756 204.257 242.879 204.308L254.684 209.708C254.747 209.736 254.804 209.777 254.851 209.827C254.898 209.878 254.934 209.937 254.958 210.002C255.008 210.129 255.008 210.271 254.958 210.398L247.477 224.943C247.445 225.011 247.397 225.071 247.337 225.117C247.277 225.162 247.207 225.193 247.132 225.207L246.99 225.237ZM237.642 217.056L246.777 223.958L253.75 210.418L242.89 205.455L237.642 217.056Z" fill="#303C42"/>
<path d="M213.049 134.557C213.049 134.557 254.776 145.144 262.967 151.812C271.158 158.481 264.865 206.44 254.938 215.27L239.327 207.059C239.327 207.059 247.65 170.316 244.595 167.291C241.54 164.266 207.111 159.831 207.111 159.831L184.599 134.649L213.049 134.557Z" fill="#303C42"/>
<path d="M254.938 215.778C254.856 215.778 254.776 215.757 254.704 215.717L239.094 207.505C238.995 207.454 238.915 207.372 238.867 207.271C238.819 207.17 238.806 207.056 238.83 206.947C242.027 192.849 246.321 169.707 244.24 167.646C241.824 165.261 216.571 161.556 207.05 160.328C206.928 160.316 206.816 160.258 206.736 160.166L184.223 134.984C184.157 134.913 184.113 134.824 184.097 134.728C184.081 134.633 184.093 134.534 184.132 134.446C184.172 134.356 184.238 134.279 184.321 134.225C184.403 134.171 184.5 134.142 184.598 134.141L213.018 134.05H213.15C214.856 134.486 255.08 144.748 263.271 151.406C266.316 153.873 267.088 161.018 267.209 166.581C267.585 183.653 262.337 209.332 255.253 215.636C255.17 215.721 255.057 215.772 254.938 215.778ZM239.906 206.795L254.857 214.671C261.617 208.145 266.58 183.267 266.215 166.631C266.052 159.07 264.783 153.944 262.652 152.208C254.786 145.804 214.815 135.542 212.988 135.065L185.725 135.166L207.365 159.364C211.689 159.922 241.875 163.931 244.92 166.946C245.813 167.829 246.656 171.006 243.57 188.403C242.119 196.777 240.312 204.958 239.906 206.795Z" fill="#303C42"/>
<path d="M209.019 237.661L207.71 249.12L218.773 254.419L221.291 238.605L209.019 237.661Z" fill="white"/>
<path d="M218.773 254.926C218.699 254.94 218.624 254.94 218.55 254.926L207.486 249.628C207.392 249.581 207.314 249.506 207.263 249.413C207.212 249.321 207.191 249.215 207.202 249.11L208.511 237.651C208.516 237.585 208.535 237.521 208.565 237.462C208.596 237.403 208.638 237.351 208.689 237.31C208.741 237.268 208.8 237.237 208.864 237.219C208.927 237.201 208.994 237.196 209.06 237.204L221.331 238.148C221.4 238.153 221.468 238.173 221.529 238.206C221.591 238.239 221.644 238.285 221.686 238.341C221.732 238.395 221.765 238.459 221.782 238.527C221.8 238.596 221.802 238.667 221.788 238.737L219.24 254.5C219.229 254.577 219.199 254.651 219.153 254.715C219.107 254.778 219.046 254.83 218.976 254.865C218.914 254.901 218.844 254.922 218.773 254.926ZM208.248 248.836L218.398 253.688L220.722 239.082L209.486 238.219L208.248 248.836Z" fill="#303C42"/>
<path d="M172.226 145.286C172.226 145.286 210.116 173.016 210.623 185.977C211.131 198.939 206.127 239.894 206.127 239.894L225.168 244.451C225.168 244.451 238.921 190.027 234.303 176.152C229.685 162.277 203 133.329 203 133.329L172.226 145.286Z" fill="#303C42"/>
<path d="M225.167 244.959H225.045L206.045 240.381C205.924 240.355 205.817 240.283 205.746 240.182C205.674 240.081 205.643 239.956 205.659 239.833C205.659 239.427 210.653 198.756 210.145 185.988C209.658 173.422 172.326 145.966 171.951 145.692C171.88 145.636 171.824 145.563 171.788 145.48C171.753 145.396 171.739 145.305 171.748 145.215C171.762 145.125 171.8 145.04 171.857 144.969C171.914 144.898 171.988 144.843 172.073 144.809L202.837 132.862C202.932 132.823 203.036 132.813 203.136 132.835C203.236 132.857 203.326 132.909 203.396 132.984C204.482 134.172 230.141 162.176 234.769 175.99C239.398 189.804 226.253 242.35 225.634 244.573C225.608 244.679 225.549 244.774 225.465 244.843C225.38 244.913 225.276 244.953 225.167 244.959ZM206.684 239.508L224.792 243.843C226.142 238.412 238.109 189.205 233.785 176.315C229.461 163.424 205.486 136.811 202.847 133.928L173.26 145.418C178.721 149.478 210.653 173.757 211.13 185.957C211.607 198.157 207.222 235.002 206.684 239.508Z" fill="#303C42"/>
<path d="M171.901 65.4053C170.413 65.2179 168.994 64.6672 167.77 63.8016C165.466 62.1167 164.278 59.3255 163.253 56.6966C162.446 54.9125 161.991 52.9894 161.913 51.0329C161.984 47.5819 164.278 44.608 166.633 42.0908C168.399 40.2029 170.409 37.7973 169.566 35.3512C169.313 34.8443 169.132 34.3045 169.028 33.7475C168.967 32.3569 170.835 31.5449 172.134 32.0727C173.373 32.7515 174.351 33.8226 174.915 35.1177C175.365 34.6471 175.692 34.0736 175.869 33.4473C176.046 32.821 176.067 32.1609 175.93 31.5246C175.819 31.007 175.605 30.4487 175.869 30.0021C176.1 29.6969 176.437 29.4902 176.813 29.4236C178.589 29.0303 180.448 29.3388 182.001 30.2847C183.554 31.2307 184.681 32.7406 185.146 34.4986C185.484 33.9249 185.694 33.2858 185.764 32.6241C185.834 31.9624 185.762 31.2934 185.552 30.6619C188.62 31.7232 191.217 33.8303 192.887 36.614C194.557 39.3977 195.195 42.6804 194.687 45.8869C194.368 48.2492 193.751 50.5615 192.85 52.7686C192.41 53.5124 191.814 54.1528 191.104 54.6463C186.375 58.5947 184.243 63.5783 177.849 65.0298C175.904 65.5061 173.89 65.6333 171.901 65.4053Z" fill="white"/>
<path d="M173.737 66.0347C173.099 66.0362 172.462 65.9955 171.829 65.9129C170.258 65.7162 168.761 65.13 167.475 64.2077C165.09 62.4619 163.851 59.6098 162.785 56.8388C161.938 54.9978 161.462 53.0076 161.385 50.9823C161.466 47.308 163.882 44.2325 166.247 41.7052C168.124 39.6752 169.779 37.5335 169.068 35.4832C169.007 35.3208 168.947 35.1686 168.875 35.0163C168.671 34.6139 168.543 34.1766 168.5 33.7273C168.491 33.3697 168.574 33.0158 168.741 32.6994C168.908 32.3831 169.154 32.1149 169.454 31.9206C169.864 31.6359 170.336 31.4541 170.83 31.3905C171.325 31.3269 171.828 31.3834 172.296 31.5552C173.437 32.1119 174.367 33.0236 174.945 34.1536C175.414 33.3813 175.57 32.459 175.382 31.5755L175.321 31.3522C175.216 31.0839 175.167 30.7974 175.176 30.5096C175.184 30.2219 175.251 29.9388 175.371 29.6774C175.669 29.2545 176.121 28.9663 176.63 28.8756C177.571 28.648 178.548 28.6116 179.504 28.7685C180.459 28.9254 181.373 29.2725 182.192 29.7891C183.46 30.5436 184.477 31.6559 185.115 32.9863C185.291 32.2471 185.256 31.4735 185.014 30.7533C184.984 30.6632 184.98 30.5665 185.002 30.4742C185.024 30.3819 185.072 30.2976 185.139 30.231C185.207 30.1644 185.292 30.1181 185.385 30.0974C185.477 30.0767 185.574 30.0824 185.664 30.1139C187.597 30.8033 189.363 31.8954 190.843 33.3179C192.323 34.7404 193.485 36.461 194.25 38.3658C195.197 40.7494 195.484 43.3438 195.083 45.8768C194.8 48.3118 194.203 50.7 193.307 52.9818C192.866 53.7486 192.268 54.4129 191.551 54.9306L191.429 55.0321C190.029 56.2511 188.713 57.5634 187.491 58.9602C184.902 61.8022 182.416 64.4919 177.96 65.5171C176.575 65.8422 175.159 66.0158 173.737 66.0347ZM171.271 32.3773C170.841 32.3769 170.421 32.5041 170.063 32.7427C169.902 32.8417 169.768 32.9805 169.676 33.1458C169.584 33.3111 169.535 33.4973 169.535 33.6867C169.577 34.0098 169.677 34.3227 169.83 34.6103C169.901 34.793 169.982 34.9656 170.043 35.1483C171.058 38.0613 168.419 40.883 166.998 42.3954C164.765 44.7806 162.481 47.6734 162.41 51.0026C162.486 52.894 162.931 54.7525 163.719 56.4734C164.734 59.2139 165.902 61.8123 168.063 63.3957C169.217 64.2147 170.557 64.7344 171.961 64.9081C173.893 65.1297 175.849 65.0025 177.736 64.5325C181.928 63.5784 184.273 61.0105 186.75 58.2801C188.009 56.8357 189.365 55.4792 190.81 54.2201L190.931 54.1186C191.532 53.6899 192.039 53.1444 192.423 52.5149C193.254 50.3168 193.816 48.0267 194.098 45.6941C194.468 43.3392 194.202 40.9282 193.327 38.7109C192.005 35.4348 189.455 32.805 186.222 31.3826C186.37 32.5221 186.126 33.6779 185.532 34.6611C185.478 34.7458 185.401 34.8129 185.31 34.854C185.219 34.8951 185.118 34.9084 185.019 34.8921C184.92 34.8759 184.829 34.8308 184.756 34.7626C184.682 34.6944 184.631 34.6061 184.608 34.5088C184.172 32.8878 183.128 31.4971 181.694 30.6257C180.259 29.7543 178.544 29.4692 176.904 29.8297C176.657 29.8592 176.43 29.9784 176.265 30.1646C176.143 30.3676 176.265 30.7026 176.326 31.068L176.386 31.3116C176.549 32.0271 176.533 32.7717 176.34 33.4797C176.147 34.1877 175.783 34.8374 175.28 35.3716C175.228 35.4318 175.162 35.4775 175.087 35.5042C175.012 35.5309 174.932 35.5377 174.854 35.5238C174.775 35.5169 174.698 35.4912 174.631 35.4488C174.564 35.4065 174.508 35.3486 174.468 35.2802C173.962 34.0882 173.072 33.0989 171.941 32.4687C171.725 32.3968 171.498 32.3658 171.271 32.3773Z" fill="#303C42"/>
<path d="M193.693 55.2656C193.693 55.2656 197.235 61.7921 196.281 62.9999C195.327 64.2078 192.597 63.1116 192.597 63.1116" fill="white"/>
<path d="M194.778 64.0757C193.965 64.047 193.162 63.8824 192.403 63.5885C192.28 63.5368 192.182 63.4385 192.131 63.315C192.079 63.1914 192.079 63.0526 192.129 62.9287C192.153 62.8671 192.188 62.8107 192.234 62.763C192.28 62.7152 192.334 62.677 192.395 62.6505C192.455 62.6241 192.52 62.6099 192.586 62.6089C192.652 62.6079 192.718 62.62 192.779 62.6445C193.398 62.8881 195.296 63.4261 195.885 62.6445C196.281 62.137 195.053 58.7875 193.246 55.4685C193.212 55.4102 193.191 55.3457 193.183 55.2789C193.175 55.2122 193.181 55.1445 193.2 55.0799C193.219 55.0154 193.251 54.9554 193.293 54.9036C193.336 54.8517 193.389 54.8091 193.449 54.7783C193.568 54.716 193.706 54.7024 193.835 54.7403C193.964 54.7781 194.073 54.8646 194.139 54.9813C195.245 57.0113 197.732 61.9442 196.677 63.2738C196.444 63.545 196.151 63.7585 195.822 63.8976C195.492 64.0368 195.135 64.0977 194.778 64.0757Z" fill="#303C42"/>
<path d="M193.52 47.0338C195.935 49.3785 194.799 53.7937 194.535 56.7068C194.149 60.8074 193.669 64.8944 193.093 68.968C192.728 71.5562 185.988 70.998 184.872 70.1555L184.73 78.8033C184.73 78.8033 182.7 83.4114 177.523 80.4375C172.347 77.4635 171.362 73.8298 171.362 73.8298L172.834 62.0152C172.834 62.0152 177.27 62.4314 180.355 57.3564C183.441 52.2814 184.04 44.1614 184.04 44.1614C184.04 44.1614 191.165 44.7399 193.52 47.0338Z" fill="white"/>
<path d="M180.802 81.95C179.558 81.9012 178.348 81.5305 177.29 80.8741C171.962 77.8291 170.916 74.1548 170.876 74.0026C170.86 73.9392 170.86 73.8731 170.876 73.8097L172.347 61.985C172.367 61.8568 172.435 61.7407 172.536 61.6599C172.638 61.5791 172.766 61.5393 172.895 61.5485C173.068 61.5485 177.077 61.853 180 57.1333C182.985 52.2308 183.594 44.2225 183.604 44.1413C183.609 44.0745 183.627 44.0095 183.657 43.9498C183.688 43.8902 183.73 43.8372 183.781 43.7938C183.832 43.7504 183.891 43.7175 183.954 43.697C184.018 43.6765 184.085 43.6688 184.152 43.6744C184.446 43.6744 191.48 44.2732 193.947 46.7194C196.139 48.8407 195.662 52.3831 195.286 55.2352C195.215 55.7833 195.144 56.3213 195.093 56.8085C194.718 60.8685 194.231 65.03 193.662 69.09C193.578 69.5218 193.376 69.9219 193.079 70.2461C192.782 70.5704 192.4 70.806 191.977 70.9271C189.847 71.5807 187.573 71.6019 185.431 70.988L185.329 78.8644C185.339 78.9283 185.339 78.9933 185.329 79.0573C184.737 80.3087 183.682 81.2806 182.386 81.7673C181.872 81.916 181.337 81.9778 180.802 81.95ZM171.88 73.83C172.073 74.3781 173.291 77.4333 177.798 80.0012C178.395 80.4135 179.073 80.6945 179.787 80.8257C180.501 80.9569 181.234 80.9354 181.939 80.7625C182.93 80.3913 183.75 79.6688 184.243 78.7325L184.355 70.1963C184.359 70.1021 184.388 70.0107 184.44 69.932C184.492 69.8533 184.564 69.7903 184.649 69.7497C184.728 69.7002 184.82 69.6739 184.913 69.6739C185.006 69.6739 185.098 69.7002 185.177 69.7497C185.786 70.2369 189.501 70.7647 191.531 69.9324C192.17 69.6787 192.546 69.3234 192.546 68.9174C193.114 64.8574 193.561 60.7974 193.977 56.6765C193.977 56.1792 194.099 55.6615 194.17 55.0728C194.515 52.444 194.951 49.1858 193.155 47.4096C191.358 45.6333 186.121 44.933 184.487 44.7503C184.304 46.6483 183.472 53.2458 180.782 57.6814C178.092 62.1169 174.57 62.5432 173.271 62.5838L171.88 73.83Z" fill="#303C42"/>
<path d="M193.246 65.9028C193.246 65.9028 189.907 67.5877 188.496 64.157L193.246 65.9028Z" fill="white"/>
<path d="M191.429 66.8264C190.997 66.8288 190.567 66.7532 190.161 66.6031C189.666 66.3983 189.22 66.0919 188.851 65.7037C188.482 65.3156 188.198 64.8544 188.019 64.3498C187.969 64.2232 187.97 64.0819 188.024 63.9565C188.077 63.8311 188.177 63.7317 188.303 63.6799C188.365 63.6552 188.431 63.6429 188.498 63.6438C188.565 63.6448 188.631 63.6588 188.692 63.6852C188.753 63.7116 188.809 63.7498 188.855 63.7977C188.902 63.8455 188.938 63.9021 188.963 63.9641C189.09 64.338 189.293 64.6811 189.561 64.9713C189.828 65.2615 190.154 65.4924 190.516 65.649C191.348 65.8913 192.24 65.819 193.023 65.446C193.083 65.4166 193.148 65.3992 193.215 65.395C193.281 65.3908 193.348 65.3999 193.411 65.4215C193.475 65.4432 193.533 65.4772 193.583 65.5214C193.633 65.5657 193.674 65.6194 193.703 65.6795C193.761 65.7998 193.769 65.9376 193.728 66.0643C193.686 66.191 193.597 66.2967 193.48 66.3595C192.836 66.6566 192.138 66.8156 191.429 66.8264Z" fill="#303C42"/>
<path d="M185.603 57.2143C185.574 56.1774 185.258 55.1688 184.689 54.3013C184.352 53.5628 183.908 52.8786 183.37 52.2713C183.096 51.9789 182.761 51.7502 182.389 51.6011C182.018 51.4521 181.618 51.3863 181.218 51.4085C180.866 51.4639 180.53 51.594 180.232 51.79C179.934 51.9861 179.682 52.2436 179.492 52.5453C179.109 53.1592 178.876 53.8546 178.812 54.5753C178.614 56.1063 178.822 57.6626 179.415 59.0879C180.008 60.5131 180.966 61.7572 182.192 62.6953L181.989 62.4314" fill="white"/>
<path d="M182.193 63.2334C182.086 63.2351 181.982 63.1992 181.898 63.1319C180.598 62.1328 179.582 60.8107 178.952 59.297C178.322 57.7834 178.099 56.131 178.305 54.5044C178.395 53.7219 178.658 52.9693 179.077 52.3019C179.303 51.9473 179.6 51.6433 179.949 51.4093C180.299 51.1752 180.693 51.016 181.107 50.9418C181.584 50.9038 182.063 50.9755 182.508 51.1515C182.953 51.3274 183.352 51.6029 183.675 51.9568C184.253 52.5822 184.729 53.2946 185.086 54.068C185.702 55.0178 186.036 56.1229 186.05 57.2551C186.035 57.386 185.971 57.5065 185.871 57.593C185.772 57.6794 185.644 57.7254 185.512 57.722C185.446 57.7181 185.381 57.7011 185.321 57.6718C185.262 57.6425 185.208 57.6016 185.165 57.5514C185.121 57.5013 185.088 57.443 185.068 57.3799C185.047 57.3168 185.039 57.2502 185.045 57.184C185.011 56.2423 184.716 55.3285 184.192 54.545C183.876 53.8638 183.458 53.2342 182.954 52.6774C182.74 52.4346 182.473 52.2436 182.174 52.1188C181.875 51.994 181.552 51.9386 181.229 51.9568C180.951 52.0062 180.686 52.1129 180.452 52.2702C180.218 52.4275 180.019 52.6319 179.868 52.8703C179.534 53.4088 179.326 54.0161 179.259 54.6465C179.084 56.0603 179.271 57.4955 179.804 58.8168C180.336 60.1381 181.197 61.3018 182.304 62.1981H182.355L182.568 62.462C182.628 62.5373 182.665 62.628 182.675 62.7235C182.685 62.819 182.668 62.9154 182.625 63.0014C182.583 63.0875 182.517 63.1598 182.435 63.2098C182.353 63.2599 182.258 63.2857 182.162 63.2842L182.193 63.2334Z" fill="#303C42"/>
<path d="M184.862 70.1557C184.862 70.1557 181.472 68.7651 180.051 66.2378C180.051 66.2378 179.747 72.5003 184.944 74.7638L184.862 70.1557Z" fill="#303C42"/>
<path d="M184.943 75.2712C184.873 75.2857 184.8 75.2857 184.73 75.2712C179.279 72.8961 179.543 66.3189 179.543 66.2479C179.549 66.1376 179.591 66.0323 179.663 65.948C179.734 65.8638 179.831 65.8051 179.939 65.781C180.046 65.7574 180.157 65.7682 180.258 65.812C180.358 65.8558 180.442 65.9302 180.497 66.0246C181.807 68.3692 185.024 69.709 185.055 69.7192C185.147 69.7573 185.227 69.8219 185.283 69.905C185.339 69.9881 185.369 70.0859 185.369 70.1861L185.45 74.8043C185.45 74.8893 185.429 74.9728 185.388 75.0473C185.347 75.1217 185.288 75.1848 185.217 75.2306C185.132 75.2722 185.036 75.2864 184.943 75.2712ZM180.67 67.8922C180.789 69.1267 181.19 70.3175 181.841 71.3731C182.492 72.4288 183.376 73.3213 184.425 73.9822L184.374 70.5312C182.992 69.8802 181.737 68.9863 180.67 67.8922Z" fill="#303C42"/>
<path d="M192.104 51.9496C192.307 51.1611 192.22 50.4572 191.91 50.3773C191.6 50.2975 191.184 50.8719 190.981 51.6603C190.778 52.4487 190.865 53.1526 191.174 53.2325C191.484 53.3124 191.9 52.738 192.104 51.9496Z" fill="#303C42"/>
<path d="M166.927 70.7849C166.927 70.7849 181.939 71.4853 187.968 79.5545C193.997 87.6238 198.848 118.49 201.802 120.52C204.756 122.55 213.15 133.979 213.048 134.557C212.947 135.136 170.063 148.767 170.063 148.767C170.063 148.767 167.546 138.871 162.816 126.052C158.086 113.232 154.422 71.6578 166.927 70.7849Z" fill="#FF5100"/>
<path d="M205.842 125.108C205.766 125.106 205.692 125.088 205.623 125.054C205.555 125.021 205.495 124.974 205.446 124.915C200.565 118.419 197.226 110.897 195.682 102.92C193.469 90.4555 189.328 82.8836 189.288 82.8126C189.222 82.6954 189.205 82.557 189.241 82.4276C189.278 82.2982 189.363 82.1885 189.48 82.1224C189.539 82.0902 189.603 82.07 189.67 82.0628C189.736 82.0556 189.804 82.0616 189.868 82.0804C189.932 82.0993 189.992 82.1306 190.044 82.1727C190.096 82.2147 190.139 82.2666 190.171 82.3254C190.171 82.3964 194.434 90.1003 196.677 102.737C198.192 110.548 201.461 117.912 206.238 124.275C206.322 124.379 206.362 124.512 206.349 124.645C206.335 124.778 206.27 124.901 206.167 124.986C206.076 125.063 205.961 125.106 205.842 125.108Z" fill="#303C42"/>
<path d="M179.168 83.3406C179.513 83.7669 196.484 110.837 196.484 110.837L230.232 94.5969L238.474 104.097C238.474 104.097 210.034 125.595 198.94 129.239C187.846 132.883 162.4 93.2571 162.684 88.9028C162.968 84.5484 174.296 77.3013 179.168 83.3406Z" fill="#FF5100"/>
<path d="M196.484 111.385C196.397 111.386 196.312 111.365 196.236 111.324C196.16 111.283 196.095 111.224 196.047 111.152C196.047 111.152 180.904 87.025 180.67 86.6799C180.606 86.567 180.587 86.4337 180.618 86.3075C180.649 86.1813 180.727 86.0718 180.837 86.0015C180.946 85.9312 181.078 85.9056 181.206 85.9298C181.333 85.954 181.447 86.0263 181.523 86.1318C181.716 86.4261 194.667 107.041 196.626 110.167L214.51 100.819C214.629 100.758 214.767 100.746 214.894 100.786C215.021 100.826 215.128 100.914 215.19 101.032C215.222 101.091 215.242 101.156 215.248 101.223C215.255 101.29 215.248 101.357 215.228 101.422C215.208 101.486 215.176 101.545 215.133 101.597C215.09 101.649 215.037 101.691 214.977 101.722L196.707 111.283C196.642 111.335 196.566 111.37 196.484 111.385Z" fill="#303C42"/>
<path d="M198.189 129.259C191.084 129.259 183.451 123.26 175.392 111.375C175.354 111.32 175.327 111.259 175.313 111.194C175.299 111.129 175.298 111.062 175.31 110.997C175.323 110.931 175.348 110.869 175.385 110.814C175.421 110.759 175.469 110.711 175.524 110.674C175.636 110.599 175.773 110.571 175.906 110.596C176.039 110.621 176.157 110.696 176.235 110.806C185.025 123.778 193.216 129.564 200.595 128C207.974 126.437 222.722 114.805 222.864 114.724C222.915 114.682 222.975 114.65 223.039 114.631C223.103 114.612 223.17 114.607 223.236 114.614C223.302 114.622 223.367 114.643 223.425 114.675C223.483 114.708 223.534 114.753 223.574 114.805C223.617 114.857 223.648 114.916 223.667 114.98C223.686 115.044 223.692 115.112 223.684 115.178C223.677 115.244 223.656 115.308 223.623 115.366C223.59 115.424 223.546 115.475 223.493 115.516C222.884 116.003 208.471 127.361 200.798 128.985C199.941 129.17 199.066 129.262 198.189 129.259Z" fill="#303C42"/>
<path d="M185.248 77.5042L184.446 79.9198L186.425 82.4979C186.425 82.4979 182.487 102.595 152.555 86.5579L142.933 90.0698L148.647 97.8549C148.647 97.8549 184.659 111.71 187.461 82.772L187.968 79.5443L185.248 77.5042Z" fill="#303C42"/>
<path d="M166.338 101.641C164.051 101.629 161.768 101.449 159.507 101.103C155.745 100.525 152.047 99.5866 148.464 98.3015C148.372 98.2717 148.293 98.2107 148.241 98.1289L142.526 90.3439C142.479 90.2813 142.447 90.2083 142.433 90.1309C142.419 90.0535 142.423 89.9738 142.446 89.8986C142.469 89.8233 142.509 89.7544 142.564 89.6978C142.618 89.6411 142.686 89.5982 142.76 89.5725L152.392 86.1113C152.456 86.0815 152.525 86.066 152.595 86.066C152.665 86.066 152.735 86.0815 152.798 86.1113C164.095 92.2013 172.936 93.7441 179.056 90.8514C180.713 90.033 182.178 88.8726 183.354 87.4467C184.529 86.0207 185.389 84.3618 185.877 82.5791L184.05 80.1837C184 80.1184 183.966 80.0417 183.952 79.9603C183.937 79.879 183.943 79.7954 183.969 79.7168L184.771 77.3113C184.796 77.2358 184.839 77.1672 184.895 77.1109C184.951 77.0545 185.02 77.012 185.096 76.9865C185.173 76.9619 185.254 76.9564 185.334 76.9706C185.414 76.9847 185.488 77.0181 185.552 77.0677L188.262 79.0977C188.337 79.1508 188.395 79.2235 188.431 79.3077C188.467 79.3918 188.479 79.4842 188.465 79.5747L187.958 82.8024C187.257 90.1003 184.365 95.3783 179.391 98.4639C175.494 100.89 170.754 101.641 166.338 101.641ZM148.962 97.4083C150.687 98.0376 168.247 104.188 178.853 97.6214C183.553 94.7185 186.283 89.6943 186.973 82.7009L187.44 79.7473L185.532 78.3263L185.035 79.8183L186.841 82.1833C186.886 82.24 186.917 82.3058 186.933 82.376C186.948 82.4462 186.948 82.5191 186.933 82.5893C186.457 84.5756 185.545 86.4312 184.264 88.0216C182.982 89.6121 181.363 90.8977 179.523 91.7852C173.129 94.8302 164.055 93.2468 152.534 87.1365L143.755 90.2931L148.962 97.4083Z" fill="#303C42"/>
<path d="M207.709 249.121C207.709 249.121 205.009 259.271 205.375 260.154C205.74 261.037 222.386 282.098 223.949 275.582C225.512 269.065 218.773 254.419 218.773 254.419L207.709 249.121Z" fill="#303C42"/>
<path d="M222.6 277.337C217.799 277.337 205.284 261.239 204.909 260.346C204.533 259.453 206.198 252.835 207.223 248.988C207.24 248.916 207.273 248.849 207.321 248.793C207.368 248.737 207.429 248.692 207.497 248.664C207.564 248.633 207.637 248.618 207.71 248.618C207.784 248.618 207.856 248.633 207.923 248.664L218.987 253.962C219.095 254.01 219.182 254.097 219.23 254.206C219.514 254.804 226.021 269.085 224.437 275.693C224.393 276.118 224.202 276.515 223.896 276.813C223.59 277.112 223.189 277.294 222.762 277.327L222.6 277.337ZM208.075 249.841C206.878 254.419 205.761 259.331 205.893 259.991C206.634 261.402 219.088 276.769 222.762 276.322C223.016 276.322 223.331 276.16 223.493 275.46C224.914 269.552 219.159 256.418 218.418 254.794L208.075 249.841Z" fill="#303C42"/>
<path d="M225.614 161.516C225.537 161.517 225.46 161.499 225.391 161.463C225.322 161.428 225.263 161.376 225.218 161.313L210.805 142.992C210.76 142.94 210.725 142.879 210.704 142.813C210.683 142.747 210.675 142.677 210.682 142.608C210.689 142.54 210.71 142.473 210.743 142.412C210.777 142.351 210.822 142.298 210.877 142.256C210.932 142.214 210.995 142.183 211.062 142.166C211.129 142.149 211.199 142.146 211.267 142.157C211.336 142.167 211.401 142.192 211.46 142.23C211.518 142.267 211.568 142.315 211.607 142.373L226.01 160.694C226.093 160.799 226.131 160.932 226.116 161.066C226.101 161.199 226.033 161.32 225.929 161.404C225.839 161.475 225.729 161.514 225.614 161.516Z" fill="white"/>
<path d="M280.647 115.739L281.053 91.4402L289.356 52.5657L288.544 74.5709L280.647 115.739Z" fill="white"/>
<path d="M280.647 116.247H280.596C280.47 116.232 280.353 116.171 280.269 116.075C280.185 115.98 280.139 115.856 280.14 115.729L280.546 91.4299L288.859 52.4539C288.887 52.3313 288.96 52.2234 289.063 52.1506C289.166 52.0777 289.291 52.0448 289.417 52.058C289.544 52.0733 289.661 52.1362 289.744 52.2341C289.827 52.3321 289.869 52.4577 289.863 52.5858L289.051 74.591L281.155 115.83C281.135 115.95 281.073 116.058 280.979 116.134C280.886 116.211 280.768 116.251 280.647 116.247ZM288.635 58.3916L281.53 91.5821L281.236 109.933L288.026 74.5098L288.635 58.3916Z" fill="#303C42"/>
<path d="M91.2279 123.362C91.3903 122.885 91.5527 122.347 91.7253 121.91C91.8166 121.667 91.908 121.413 92.0196 121.17C92.0723 121.015 92.1772 120.884 92.3162 120.799C92.4551 120.714 92.6195 120.68 92.7809 120.703C93.1767 120.703 93.5624 120.824 93.9481 120.895C94.1558 120.937 94.366 120.964 94.5774 120.977C94.734 120.975 94.8862 120.925 95.0139 120.835C95.4706 120.408 95.8969 119.962 96.3232 119.505C96.3923 119.419 96.4402 119.319 96.4631 119.211C96.4861 119.104 96.4833 118.992 96.4552 118.886C96.3537 118.419 96.242 117.942 96.1405 117.475C96.11 117.287 96.11 117.095 96.1405 116.907C96.1454 116.838 96.164 116.771 96.1954 116.71C96.2269 116.649 96.2703 116.595 96.3232 116.551C97.0499 116.098 97.8401 115.756 98.6679 115.536C98.7908 115.498 98.9229 115.501 99.0439 115.545C99.1649 115.589 99.2681 115.672 99.3378 115.78C99.6321 116.186 99.9468 116.582 100.231 117.008C100.329 117.162 100.466 117.286 100.629 117.368C100.791 117.45 100.973 117.487 101.155 117.475C101.672 117.475 102.17 117.475 102.708 117.404C102.803 117.399 102.895 117.37 102.977 117.32C103.058 117.271 103.126 117.202 103.174 117.12C103.367 116.846 103.54 116.561 103.723 116.287C103.905 116.013 104.027 115.81 104.189 115.587C104.26 115.466 104.371 115.374 104.503 115.327C104.635 115.281 104.779 115.283 104.91 115.333L107.052 116.105C107.187 116.159 107.3 116.258 107.37 116.386C107.44 116.513 107.464 116.662 107.437 116.805C107.437 117.201 107.316 117.597 107.245 117.993C107.245 118.175 107.245 118.358 107.174 118.551C107.159 118.672 107.173 118.795 107.216 118.91C107.258 119.025 107.327 119.128 107.417 119.211C107.793 119.566 108.178 119.921 108.544 120.286C108.648 120.398 108.78 120.479 108.927 120.522C109.073 120.565 109.228 120.568 109.376 120.53L110.919 120.175C111.087 120.119 111.271 120.132 111.43 120.21C111.589 120.287 111.712 120.424 111.772 120.591C112.066 121.2 112.35 121.819 112.624 122.438C112.674 122.522 112.706 122.615 112.719 122.712C112.733 122.808 112.727 122.906 112.703 123C112.678 123.095 112.635 123.183 112.577 123.261C112.518 123.339 112.444 123.404 112.36 123.453C112.096 123.656 111.812 123.839 111.538 124.042C111.264 124.245 111.152 124.336 110.97 124.499C110.891 124.561 110.828 124.642 110.788 124.734C110.747 124.826 110.729 124.926 110.736 125.027C110.736 125.564 110.736 126.102 110.736 126.64C110.742 126.786 110.785 126.928 110.862 127.053C110.938 127.177 111.045 127.28 111.173 127.351C111.457 127.523 111.761 127.696 112.046 127.879C112.231 127.984 112.41 128.099 112.584 128.224C112.705 128.306 112.795 128.428 112.837 128.568C112.88 128.709 112.872 128.859 112.817 128.995C112.584 129.645 112.34 130.294 112.096 130.934C112.054 131.032 112 131.124 111.934 131.208C111.876 131.312 111.788 131.395 111.68 131.446C111.573 131.497 111.452 131.513 111.335 131.492L109.934 131.259H109.833C109.646 131.218 109.452 131.231 109.273 131.295C109.093 131.36 108.936 131.474 108.818 131.624C108.554 131.939 108.249 132.223 107.975 132.517C107.843 132.646 107.749 132.809 107.702 132.988C107.656 133.167 107.659 133.355 107.712 133.532C107.823 133.989 107.935 134.436 108.026 134.892C108.118 135.349 108.026 135.583 107.59 135.796C106.96 136.1 106.321 136.384 105.671 136.669C105.528 136.742 105.363 136.76 105.207 136.719C105.051 136.678 104.917 136.58 104.829 136.445C104.575 136.131 104.352 135.796 104.118 135.43C103.611 134.73 103.489 134.659 102.626 134.71H101.611C101.45 134.713 101.293 134.757 101.154 134.839C101.015 134.921 100.9 135.037 100.82 135.177C100.617 135.511 100.414 135.857 100.201 136.192C100.086 136.362 99.9573 136.521 99.8148 136.669C99.752 136.743 99.6677 136.797 99.5733 136.823C99.4789 136.848 99.379 136.844 99.287 136.811L97.257 136.049C97.1657 136.049 97.0845 135.948 96.9931 135.897C96.8891 135.84 96.8057 135.751 96.7547 135.643C96.7037 135.536 96.6877 135.415 96.7089 135.298C96.78 134.831 96.8612 134.375 96.9322 133.918C96.9422 133.776 96.9422 133.634 96.9322 133.492C96.9492 133.377 96.9367 133.26 96.8959 133.152C96.855 133.043 96.7872 132.947 96.6988 132.872L95.6026 131.857C95.4994 131.755 95.3705 131.682 95.2294 131.646C95.0884 131.611 94.9403 131.613 94.8007 131.654L93.3797 131.989H93.329C92.7301 132.091 92.5373 131.989 92.314 131.472C92.0907 130.954 91.7659 130.244 91.5121 129.624C91.4696 129.553 91.4422 129.474 91.4315 129.391C91.4207 129.309 91.427 129.225 91.4498 129.146C91.4726 129.066 91.5115 128.991 91.5641 128.927C91.6167 128.863 91.6819 128.81 91.7557 128.772C92.1211 128.498 92.4865 128.224 92.8722 127.98C93.058 127.877 93.2086 127.72 93.3044 127.53C93.4003 127.34 93.4371 127.125 93.4102 126.914C93.4102 126.427 93.4102 125.899 93.3493 125.463C93.3462 125.362 93.3188 125.263 93.2693 125.174C93.2198 125.086 93.1498 125.011 93.0651 124.955C92.6591 124.692 92.2531 124.448 91.8572 124.184C91.5735 124.046 91.3472 123.812 91.2178 123.524L91.2279 123.362ZM106.575 126.062C106.575 125.455 106.455 124.855 106.222 124.295C105.989 123.735 105.647 123.227 105.217 122.8C104.787 122.372 104.277 122.034 103.715 121.805C103.154 121.576 102.553 121.46 101.946 121.464C100.746 121.503 99.6072 122.004 98.7675 122.863C97.9279 123.721 97.4522 124.871 97.4397 126.072C97.398 126.697 97.4852 127.325 97.6958 127.915C97.9065 128.505 98.2361 129.046 98.6644 129.504C99.0926 129.962 99.6102 130.327 100.185 130.576C100.76 130.826 101.38 130.954 102.007 130.954C102.634 130.954 103.254 130.826 103.829 130.576C104.404 130.327 104.922 129.962 105.35 129.504C105.778 129.046 106.108 128.505 106.319 127.915C106.529 127.325 106.616 126.697 106.575 126.072V126.062Z" fill="white"/>
<path d="M99.4092 137.379C99.2872 137.38 99.1662 137.356 99.054 137.308L97.024 136.547C96.9094 136.502 96.8005 136.444 96.6992 136.374C96.5065 136.263 96.3521 136.095 96.2561 135.894C96.1601 135.693 96.127 135.468 96.1612 135.248L96.3845 133.867C96.395 133.742 96.395 133.617 96.3845 133.492C96.3845 133.36 96.3845 133.309 96.3236 133.279L95.3797 132.406L95.2173 132.243C95.175 132.199 95.1205 132.169 95.0607 132.156C95.001 132.144 94.9388 132.149 94.8823 132.172L93.8673 132.406L93.4918 132.487C92.5884 132.649 92.1723 132.487 91.8272 131.705C91.4821 130.924 91.2689 130.457 91.0152 129.828C90.8875 129.581 90.8584 129.294 90.9337 129.027C91.0091 128.759 91.1833 128.53 91.4212 128.386C91.7967 128.102 92.1723 127.828 92.5681 127.574C92.6766 127.517 92.7649 127.428 92.8212 127.319C92.8775 127.21 92.899 127.087 92.8828 126.965C92.8828 126.661 92.8828 126.346 92.8828 126.042V125.504C92.8895 125.488 92.8929 125.47 92.8929 125.453C92.8929 125.436 92.8895 125.418 92.8828 125.402L91.6648 124.631C91.2833 124.431 90.9875 124.099 90.8325 123.697C90.8229 123.647 90.8229 123.595 90.8325 123.545V123.362C90.8228 123.308 90.8228 123.253 90.8325 123.2L90.9543 122.834C91.0761 122.469 91.1979 122.103 91.3298 121.748C91.4618 121.393 91.5227 121.231 91.6343 120.977C91.7287 120.72 91.9077 120.502 92.142 120.36C92.3762 120.218 92.6517 120.16 92.9234 120.195C93.1873 120.195 93.4512 120.276 93.7252 120.327L94.2733 120.419H94.6489C94.6924 120.428 94.7373 120.428 94.7808 120.419C95.1868 120.023 95.6131 119.586 96.0293 119.14C96.0293 119.14 96.0293 119.038 96.0293 118.967L95.8872 118.358C95.8263 118.084 95.7755 117.82 95.7146 117.556C95.6634 117.323 95.6429 117.084 95.6537 116.846C95.6666 116.699 95.7114 116.556 95.7851 116.428C95.8587 116.3 95.9594 116.19 96.08 116.105C96.8134 115.622 97.6136 115.249 98.4551 114.998C98.6756 114.932 98.9115 114.938 99.1286 115.015C99.3457 115.091 99.5328 115.235 99.663 115.425L99.9776 115.841C100.181 116.115 100.384 116.389 100.566 116.673C100.611 116.756 100.679 116.824 100.762 116.867C100.845 116.911 100.94 116.928 101.033 116.917C101.378 116.917 101.723 116.917 102.048 116.917H102.596C102.734 116.741 102.863 116.558 102.982 116.369L103.297 115.881C103.429 115.689 103.55 115.496 103.693 115.303C103.827 115.096 104.028 114.941 104.262 114.864C104.497 114.786 104.75 114.791 104.982 114.877C105.702 115.13 106.433 115.384 107.144 115.658C107.381 115.75 107.58 115.919 107.709 116.138C107.838 116.358 107.889 116.614 107.854 116.866C107.854 117.15 107.773 117.424 107.722 117.698L107.661 118.094C107.628 118.265 107.604 118.438 107.59 118.612C107.58 118.656 107.582 118.702 107.596 118.745C107.61 118.788 107.636 118.826 107.671 118.855L107.956 119.129C108.24 119.393 108.534 119.667 108.808 119.952C108.854 120.003 108.914 120.04 108.981 120.058C109.047 120.076 109.118 120.075 109.184 120.053L109.925 119.881L110.716 119.698C110.998 119.62 111.298 119.648 111.561 119.775C111.825 119.901 112.033 120.119 112.147 120.388C112.442 121.007 112.726 121.626 112.99 122.256C113.143 122.527 113.186 122.846 113.11 123.148C113.035 123.451 112.846 123.712 112.584 123.88C112.422 124.012 112.249 124.123 112.076 124.245L111.752 124.479L111.214 124.905C111.19 124.919 111.171 124.941 111.16 124.966C111.149 124.992 111.147 125.02 111.153 125.047V125.392C111.153 125.808 111.153 126.224 111.153 126.64C111.153 126.703 111.17 126.764 111.202 126.818C111.234 126.872 111.28 126.916 111.335 126.945L111.721 127.168L112.229 127.473C112.422 127.595 112.614 127.716 112.797 127.858C113.007 128.005 113.161 128.218 113.235 128.463C113.308 128.708 113.297 128.971 113.203 129.208C112.97 129.848 112.726 130.497 112.472 131.147C112.423 131.27 112.358 131.386 112.279 131.492C112.171 131.687 112.003 131.843 111.801 131.938C111.599 132.032 111.372 132.061 111.153 132.02L109.762 131.797H109.62C109.516 131.769 109.407 131.774 109.306 131.812C109.206 131.851 109.12 131.92 109.062 132.01C108.869 132.233 108.656 132.446 108.443 132.659L108.199 132.913C108.128 132.981 108.077 133.067 108.051 133.162C108.026 133.257 108.028 133.357 108.057 133.451C108.179 133.908 108.29 134.375 108.382 134.832C108.482 135.121 108.464 135.438 108.331 135.714C108.198 135.99 107.96 136.202 107.671 136.303C107.032 136.608 106.382 136.892 105.733 137.166C105.487 137.289 105.205 137.32 104.939 137.253C104.673 137.186 104.439 137.025 104.281 136.801C104.078 136.527 103.875 136.253 103.682 135.968L103.561 135.806C103.175 135.258 103.175 135.258 102.546 135.298H101.531C101.453 135.295 101.376 135.314 101.309 135.354C101.242 135.393 101.189 135.452 101.155 135.522L100.942 135.857C100.81 136.09 100.668 136.324 100.526 136.547C100.396 136.747 100.246 136.934 100.079 137.105C99.8971 137.276 99.6586 137.373 99.4092 137.379ZM95.0244 131.137C95.362 131.135 95.6867 131.266 95.9278 131.502L96.1003 131.665L97.024 132.527C97.1662 132.653 97.2763 132.81 97.3452 132.987C97.414 133.163 97.4396 133.354 97.4198 133.542C97.4198 133.695 97.4198 133.857 97.4198 134.009L97.1965 135.4C97.1965 135.4 97.1965 135.4 97.2574 135.491L97.4198 135.593L99.4498 136.354C99.5615 136.212 99.6731 136.08 99.7645 135.938C99.8558 135.796 100.039 135.501 100.16 135.278L100.373 134.933C100.497 134.723 100.671 134.548 100.881 134.424C101.09 134.299 101.328 134.23 101.571 134.223H102.586C102.966 134.134 103.364 134.179 103.715 134.349C104.066 134.519 104.348 134.804 104.515 135.156L104.636 135.329C104.829 135.593 105.012 135.857 105.215 136.1C105.418 136.344 105.337 136.232 105.469 136.171C106.108 135.907 106.738 135.623 107.367 135.319C107.432 135.29 107.494 135.252 107.55 135.207C107.562 135.13 107.562 135.051 107.55 134.974C107.458 134.527 107.357 134.08 107.245 133.644C107.169 133.384 107.164 133.107 107.232 132.845C107.3 132.582 107.438 132.343 107.631 132.152L107.884 131.888C108.081 131.698 108.267 131.498 108.443 131.289C108.623 131.055 108.868 130.878 109.148 130.783C109.428 130.687 109.73 130.676 110.016 130.751L111.488 130.995C111.488 130.995 111.488 130.995 111.589 130.924C111.629 130.87 111.663 130.812 111.691 130.751C111.934 130.112 112.178 129.472 112.411 128.823C112.411 128.762 112.411 128.721 112.34 128.63C112.186 128.51 112.023 128.401 111.853 128.305L111.366 128.021L110.98 127.787C110.781 127.673 110.614 127.509 110.495 127.312C110.376 127.115 110.309 126.891 110.3 126.661C110.3 126.234 110.3 125.808 110.3 125.392V125.037C110.293 124.861 110.327 124.686 110.4 124.526C110.472 124.366 110.58 124.224 110.716 124.113C110.903 123.943 111.1 123.784 111.305 123.636L111.66 123.382L112.117 123.058C112.33 122.875 112.33 122.855 112.229 122.631C111.955 122.012 111.681 121.403 111.386 120.794C111.315 120.652 111.285 120.622 111.092 120.662L110.31 120.845L109.559 121.007C109.327 121.066 109.084 121.063 108.854 120.997C108.624 120.931 108.415 120.805 108.25 120.632C107.976 120.358 107.702 120.094 107.418 119.84L107.133 119.566C106.997 119.436 106.89 119.278 106.822 119.103C106.754 118.927 106.725 118.739 106.738 118.551C106.738 118.348 106.738 118.145 106.819 117.952L106.89 117.536C106.941 117.291 106.978 117.044 107.001 116.795C107.001 116.653 107.001 116.633 106.941 116.622C106.24 116.348 105.53 116.105 104.819 115.851C104.768 115.851 104.738 115.851 104.677 115.922C104.616 115.993 104.433 116.277 104.312 116.46L103.997 116.937L103.672 117.445C103.577 117.59 103.45 117.711 103.3 117.799C103.151 117.887 102.983 117.94 102.809 117.952H102.251C101.916 117.952 101.591 117.952 101.236 117.952C100.965 117.978 100.691 117.928 100.447 117.806C100.203 117.684 99.9977 117.495 99.8558 117.262C99.6731 116.998 99.4803 116.734 99.2773 116.47L98.9626 116.044C98.9626 115.983 98.9017 115.973 98.8307 116.044C98.0534 116.271 97.3144 116.613 96.6383 117.059C96.6791 117.188 96.7097 117.321 96.7296 117.455C96.7804 117.708 96.8413 117.972 96.9022 118.236L97.0443 118.866C97.0817 119.044 97.0774 119.228 97.0316 119.404C96.9858 119.58 96.8998 119.743 96.7804 119.881C96.3541 120.347 95.9176 120.794 95.4609 121.231C95.2397 121.41 94.9644 121.51 94.6793 121.515C94.4851 121.504 94.2918 121.481 94.1008 121.444L93.5527 121.352C93.3091 121.352 93.0655 121.261 92.8219 121.241C92.5783 121.22 92.6493 121.241 92.5783 121.403C92.5072 121.565 92.3753 121.87 92.2941 122.114L91.9287 123.189L91.8272 123.474C91.9327 123.611 92.0681 123.722 92.223 123.798L93.3801 124.58C93.532 124.678 93.6577 124.811 93.7462 124.969C93.8346 125.126 93.8832 125.303 93.8876 125.483V126.031C93.8876 126.326 93.8876 126.63 93.8876 126.925C93.9212 127.227 93.8662 127.533 93.7293 127.805C93.5923 128.077 93.3794 128.304 93.1162 128.457C92.7407 128.701 92.3854 128.955 92.0302 129.229C91.9854 129.261 91.9446 129.299 91.9084 129.34V129.482C92.1621 130.091 92.4159 130.7 92.7001 131.299C92.8016 131.523 92.8523 131.563 92.8625 131.563C92.9732 131.584 93.0867 131.584 93.1974 131.563L93.6034 131.472L94.6184 131.249C94.7479 131.193 94.8845 131.155 95.0244 131.137ZM102.028 131.137C101.027 131.133 100.049 130.832 99.2181 130.274C98.3871 129.715 97.7399 128.923 97.358 127.998C96.9761 127.072 96.8764 126.054 97.0717 125.072C97.2669 124.09 97.7482 123.188 98.4551 122.479C99.3864 121.539 100.644 120.994 101.967 120.956C102.639 120.948 103.305 121.074 103.928 121.325C104.551 121.577 105.117 121.949 105.595 122.421C106.073 122.893 106.452 123.455 106.711 124.075C106.97 124.695 107.103 125.36 107.103 126.031C107.118 126.677 107.005 127.319 106.77 127.92C106.535 128.521 106.182 129.07 105.733 129.533C105.259 130.042 104.685 130.447 104.048 130.725C103.411 131.002 102.723 131.146 102.028 131.147V131.137ZM101.967 122.002C100.914 122.039 99.9149 122.479 99.1758 123.23C98.797 123.607 98.4963 124.054 98.2908 124.547C98.0852 125.04 97.979 125.568 97.9781 126.103C97.9781 127.179 98.4058 128.212 99.1672 128.973C99.9286 129.735 100.961 130.163 102.038 130.163C102.596 130.167 103.149 130.057 103.662 129.839C104.176 129.621 104.639 129.299 105.022 128.894C105.737 128.15 106.131 127.155 106.118 126.123C106.118 125.584 106.011 125.052 105.804 124.555C105.596 124.058 105.291 123.608 104.908 123.23C104.524 122.852 104.07 122.555 103.57 122.354C103.07 122.154 102.536 122.055 101.997 122.063L101.967 122.002Z" fill="#303C42" fill-opacity="0.25"/>
<path d="M260.937 232.454C261.16 231.571 261.373 230.678 261.606 229.795C261.718 229.328 261.86 228.881 262.002 228.425C262.076 228.141 262.246 227.891 262.483 227.717C262.719 227.543 263.008 227.456 263.301 227.47C264.012 227.47 264.712 227.572 265.423 227.623C265.801 227.658 266.182 227.658 266.56 227.623C266.838 227.604 267.102 227.493 267.311 227.308C268.052 226.476 268.742 225.613 269.432 224.74C269.549 224.58 269.623 224.392 269.648 224.195C269.673 223.998 269.647 223.798 269.574 223.613C269.32 222.781 269.046 221.959 268.803 221.137C268.694 220.809 268.636 220.467 268.63 220.122C268.628 219.998 268.65 219.875 268.695 219.76C268.74 219.645 268.808 219.541 268.894 219.452C270.125 218.496 271.494 217.733 272.954 217.189C273.165 217.095 273.402 217.076 273.625 217.135C273.849 217.194 274.045 217.328 274.182 217.513C274.781 218.204 275.4 218.863 275.979 219.543C276.168 219.811 276.43 220.018 276.735 220.139C277.04 220.26 277.373 220.289 277.694 220.223C278.608 220.081 279.541 219.99 280.455 219.858C280.626 219.839 280.789 219.777 280.929 219.677C281.07 219.578 281.182 219.444 281.257 219.29C281.541 218.772 281.805 218.275 282.089 217.716C282.373 217.158 282.566 216.823 282.83 216.387C282.933 216.159 283.116 215.977 283.344 215.876C283.573 215.775 283.831 215.761 284.068 215.839C285.388 216.174 286.707 216.519 288.007 216.854C288.256 216.926 288.473 217.083 288.62 217.298C288.766 217.513 288.833 217.772 288.808 218.031C288.808 218.741 288.697 219.462 288.646 220.173C288.646 220.508 288.646 220.853 288.646 221.188C288.638 221.405 288.682 221.622 288.773 221.819C288.865 222.017 289.002 222.19 289.174 222.324C289.905 222.903 290.646 223.471 291.346 224.08C291.552 224.265 291.805 224.39 292.076 224.442C292.348 224.494 292.629 224.47 292.889 224.375C293.782 224.101 294.675 223.796 295.578 223.522C295.87 223.394 296.199 223.385 296.497 223.497C296.795 223.609 297.037 223.833 297.172 224.121C297.795 225.163 298.393 226.219 298.969 227.288C299.075 227.43 299.151 227.591 299.192 227.763C299.234 227.936 299.24 228.114 299.211 228.289C299.181 228.463 299.117 228.63 299.021 228.779C298.925 228.928 298.8 229.056 298.654 229.155C298.207 229.572 297.73 229.937 297.284 230.343C296.837 230.749 296.644 230.921 296.34 231.236C296.205 231.365 296.104 231.525 296.044 231.702C295.984 231.878 295.967 232.067 295.995 232.251C296.096 233.205 296.198 234.169 296.319 235.124C296.35 235.383 296.447 235.629 296.602 235.839C296.757 236.049 296.964 236.215 297.202 236.321L298.857 237.123C299.206 237.289 299.545 237.475 299.872 237.681C300.104 237.804 300.286 238.005 300.386 238.247C300.486 238.49 300.498 238.76 300.42 239.011C300.095 240.209 299.76 241.396 299.405 242.584C299.343 242.765 299.261 242.938 299.161 243.101C299.076 243.294 298.932 243.456 298.75 243.563C298.568 243.671 298.357 243.719 298.146 243.7L295.619 243.497H295.426C295.07 243.436 294.704 243.482 294.375 243.63C294.046 243.778 293.768 244.022 293.579 244.33C293.163 244.928 292.676 245.477 292.219 246.045C292.001 246.294 291.857 246.598 291.802 246.924C291.746 247.25 291.782 247.585 291.904 247.892C292.178 248.674 292.452 249.466 292.686 250.267C292.764 250.418 292.81 250.584 292.82 250.754C292.83 250.924 292.804 251.094 292.743 251.253C292.683 251.412 292.59 251.557 292.469 251.677C292.349 251.798 292.205 251.891 292.046 251.952C290.96 252.592 289.864 253.201 288.748 253.789C288.504 253.95 288.209 254.012 287.921 253.961C287.634 253.91 287.378 253.75 287.205 253.515C286.707 252.998 286.251 252.439 285.784 251.891C284.769 250.714 284.545 250.623 283.013 250.876L281.226 251.13C280.94 251.157 280.666 251.258 280.43 251.423C280.195 251.589 280.008 251.813 279.887 252.074C279.572 252.714 279.278 253.353 278.943 253.982C278.767 254.307 278.56 254.613 278.323 254.896C278.224 255.041 278.08 255.15 277.914 255.208C277.749 255.267 277.568 255.271 277.4 255.221L273.644 254.206C273.474 254.15 273.31 254.075 273.157 253.982C272.964 253.896 272.803 253.753 272.695 253.571C272.588 253.389 272.54 253.178 272.558 252.967L272.741 250.47C272.756 250.217 272.756 249.963 272.741 249.709C272.747 249.502 272.705 249.297 272.616 249.11C272.528 248.923 272.397 248.76 272.233 248.633C271.513 248.085 270.812 247.527 270.102 246.969C269.903 246.803 269.664 246.694 269.408 246.653C269.153 246.612 268.891 246.64 268.651 246.735C267.859 247.009 267.057 247.253 266.265 247.507C266.235 247.511 266.204 247.511 266.174 247.507C265.159 247.791 264.773 247.689 264.235 246.755C263.697 245.822 263.068 244.644 262.52 243.568C262.435 243.447 262.375 243.311 262.344 243.166C262.314 243.021 262.312 242.872 262.341 242.727C262.369 242.582 262.427 242.444 262.51 242.322C262.593 242.199 262.7 242.095 262.824 242.015C263.433 241.467 264.053 240.94 264.692 240.442C265.012 240.221 265.259 239.911 265.402 239.549C265.545 239.188 265.577 238.792 265.494 238.412C265.362 237.56 265.271 236.697 265.149 235.834C265.132 235.653 265.07 235.48 264.969 235.329C264.868 235.178 264.731 235.055 264.57 234.971L262.286 233.784C261.762 233.583 261.326 233.201 261.058 232.708L260.937 232.454ZM288.808 234.91C288.718 233.828 288.414 232.774 287.913 231.81C287.412 230.845 286.725 229.99 285.891 229.293C285.058 228.597 284.094 228.072 283.057 227.751C282.019 227.429 280.928 227.317 279.846 227.42C277.707 227.67 275.748 228.737 274.377 230.398C273.006 232.058 272.329 234.184 272.487 236.331C272.684 238.486 273.72 240.476 275.373 241.872C277.025 243.269 279.161 243.958 281.318 243.792C282.397 243.713 283.45 243.419 284.415 242.927C285.379 242.435 286.235 241.756 286.933 240.928C287.631 240.101 288.157 239.142 288.479 238.109C288.801 237.075 288.913 235.988 288.808 234.91Z" fill="white"/>
<path d="M277.531 255.819C277.405 255.817 277.279 255.8 277.156 255.769L276.141 255.484L273.41 254.723C273.225 254.664 273.048 254.583 272.883 254.479C272.587 254.351 272.338 254.133 272.173 253.857C272.007 253.58 271.932 253.258 271.959 252.937L272.04 251.851C272.04 251.384 272.111 250.907 272.142 250.44C272.157 250.203 272.157 249.966 272.142 249.729C272.15 249.597 272.126 249.465 272.071 249.345C272.016 249.224 271.932 249.119 271.827 249.039C271.15 248.538 270.501 248.031 269.878 247.517L269.696 247.374C269.559 247.254 269.39 247.177 269.209 247.152C269.029 247.126 268.845 247.154 268.681 247.232L266.985 247.78L266.285 248.004H266.184C265.953 248.116 265.701 248.179 265.445 248.188C265.188 248.197 264.933 248.152 264.695 248.057C264.457 247.961 264.241 247.817 264.062 247.633C263.884 247.449 263.745 247.229 263.656 246.989C262.986 245.832 262.388 244.675 261.931 243.781C261.71 243.435 261.631 243.018 261.71 242.615C261.789 242.212 262.021 241.855 262.357 241.619C263.068 240.98 263.666 240.462 264.245 240.016C264.488 239.855 264.677 239.625 264.788 239.355C264.898 239.085 264.925 238.788 264.864 238.503C264.783 237.965 264.712 237.438 264.641 236.9L264.519 235.885C264.511 235.784 264.477 235.686 264.42 235.603C264.363 235.519 264.285 235.452 264.194 235.408L263.281 234.92L261.921 234.22C261.287 233.965 260.768 233.489 260.459 232.88C260.45 232.83 260.45 232.778 260.459 232.728V232.413C260.454 232.356 260.454 232.298 260.459 232.241L260.662 231.429C260.814 230.81 260.967 230.191 261.129 229.571C261.291 228.952 261.393 228.638 261.545 228.181C261.655 227.795 261.891 227.457 262.214 227.22C262.538 226.983 262.931 226.861 263.331 226.871C263.809 226.871 264.286 226.871 264.752 226.963L265.473 227.024H265.767C266.021 227.049 266.276 227.049 266.529 227.024C266.68 227.013 266.827 226.964 266.955 226.882C267.726 225.999 268.447 225.095 269.056 224.334C269.119 224.235 269.157 224.122 269.166 224.005C269.174 223.889 269.154 223.771 269.107 223.664C269.005 223.309 268.884 222.943 268.772 222.588C268.66 222.233 268.478 221.654 268.335 221.187C268.215 220.817 268.15 220.43 268.143 220.041C268.141 219.84 268.181 219.641 268.262 219.458C268.342 219.274 268.461 219.109 268.609 218.975C269.868 217.992 271.268 217.205 272.761 216.64C273.069 216.515 273.41 216.493 273.732 216.577C274.054 216.661 274.34 216.847 274.547 217.107C274.75 217.351 274.974 217.594 275.187 217.828C275.583 218.274 275.968 218.721 276.344 219.178C276.476 219.379 276.666 219.535 276.889 219.626C277.112 219.716 277.357 219.737 277.592 219.685C278.188 219.591 278.787 219.509 279.389 219.442L280.404 219.32C280.493 219.304 280.578 219.268 280.65 219.213C280.722 219.158 280.781 219.087 280.82 219.005L281.307 218.092L281.794 217.178C281.987 216.813 282.19 216.447 282.403 216.092C282.567 215.775 282.836 215.525 283.163 215.382C283.49 215.24 283.856 215.215 284.2 215.311C285.763 215.696 287.022 216.031 288.158 216.326C288.514 216.427 288.825 216.648 289.037 216.951C289.25 217.254 289.351 217.621 289.326 217.99C289.317 218.479 289.283 218.967 289.224 219.452L289.163 220.172C289.163 220.497 289.163 220.822 289.163 221.187C289.156 221.329 289.183 221.469 289.241 221.598C289.3 221.727 289.388 221.84 289.498 221.928L289.975 222.304C290.554 222.761 291.132 223.217 291.691 223.695C291.827 223.815 291.993 223.896 292.172 223.93C292.35 223.964 292.535 223.949 292.706 223.887L294.015 223.471L295.395 223.035C295.796 222.879 296.241 222.876 296.644 223.028C297.047 223.18 297.379 223.475 297.578 223.857C298.2 224.913 298.799 225.978 299.374 227.054C299.641 227.439 299.747 227.912 299.671 228.374C299.596 228.836 299.343 229.251 298.968 229.531C298.704 229.774 298.43 230.008 298.146 230.241L297.588 230.718C297.273 231.003 296.969 231.287 296.674 231.591C296.597 231.662 296.538 231.751 296.503 231.85C296.467 231.949 296.457 232.056 296.471 232.16L296.532 232.779C296.613 233.52 296.695 234.271 296.796 235.022C296.815 235.2 296.88 235.369 296.985 235.513C297.09 235.658 297.232 235.772 297.395 235.844L298.075 236.169L299.09 236.636C299.439 236.813 299.778 237.01 300.105 237.224C300.427 237.407 300.677 237.693 300.815 238.035C300.954 238.378 300.972 238.758 300.866 239.112C300.541 240.31 300.206 241.498 299.851 242.695C299.786 242.894 299.697 243.085 299.587 243.264C299.456 243.556 299.237 243.8 298.96 243.962C298.684 244.124 298.364 244.195 298.044 244.167L295.517 243.974H295.294C295.031 243.922 294.758 243.953 294.514 244.064C294.27 244.176 294.067 244.361 293.934 244.593C293.629 245.03 293.294 245.426 292.919 245.832L292.513 246.329C292.35 246.511 292.242 246.735 292.202 246.976C292.163 247.217 292.193 247.465 292.289 247.689C292.563 248.491 292.827 249.283 293.071 250.095C293.167 250.3 293.22 250.522 293.227 250.749C293.235 250.975 293.197 251.201 293.115 251.412C293.034 251.623 292.911 251.816 292.753 251.978C292.595 252.141 292.407 252.27 292.198 252.358C291.183 252.957 290.107 253.556 288.889 254.205C288.546 254.417 288.137 254.496 287.74 254.429C287.342 254.362 286.982 254.152 286.727 253.84C286.321 253.404 285.936 252.957 285.56 252.5L285.296 252.196C284.403 251.181 284.342 251.12 282.982 251.303L281.195 251.566C280.992 251.583 280.797 251.652 280.63 251.768C280.462 251.884 280.328 252.042 280.241 252.226L279.927 252.855C279.724 253.292 279.511 253.728 279.287 254.145C279.1 254.506 278.876 254.846 278.617 255.16C278.502 255.348 278.343 255.506 278.154 255.621C277.965 255.735 277.752 255.804 277.531 255.819ZM269.117 246.136C269.559 246.14 269.987 246.298 270.325 246.583L270.508 246.725L272.446 248.237C272.67 248.409 272.851 248.63 272.974 248.884C273.097 249.138 273.16 249.417 273.157 249.699C273.172 249.969 273.172 250.24 273.157 250.511C273.157 250.988 273.086 251.455 273.055 251.932L272.964 253.008C272.952 253.124 272.98 253.242 273.042 253.341C273.105 253.44 273.199 253.516 273.309 253.556C273.429 253.633 273.559 253.694 273.695 253.739C274.598 254.002 275.501 254.246 276.415 254.5L277.43 254.784C277.541 254.784 277.663 254.835 277.826 254.632C278.044 254.371 278.234 254.089 278.394 253.789C278.607 253.383 278.81 252.957 279.013 252.541L279.328 251.901C279.487 251.567 279.729 251.279 280.031 251.066C280.333 250.853 280.685 250.721 281.053 250.683L282.84 250.419C284.555 250.186 284.951 250.338 286.067 251.658L286.331 251.962C286.707 252.409 287.072 252.845 287.468 253.261C287.517 253.337 287.581 253.402 287.656 253.452C287.731 253.501 287.816 253.535 287.904 253.55C287.993 253.566 288.084 253.562 288.172 253.54C288.259 253.519 288.341 253.479 288.412 253.424C289.61 252.795 290.686 252.196 291.68 251.607C292.229 251.282 292.279 251.14 292.097 250.501C291.863 249.709 291.599 248.927 291.325 248.146C291.175 247.757 291.132 247.335 291.202 246.924C291.272 246.513 291.451 246.129 291.721 245.811L292.137 245.304C292.462 244.918 292.777 244.543 293.071 244.126C293.316 243.746 293.669 243.446 294.084 243.265C294.5 243.085 294.96 243.031 295.405 243.111H295.558L298.085 243.314C298.201 243.327 298.317 243.301 298.416 243.24C298.515 243.179 298.591 243.088 298.633 242.98C298.712 242.846 298.779 242.707 298.836 242.563C299.171 241.376 299.506 240.188 299.851 239.001C299.903 238.855 299.899 238.695 299.839 238.552C299.779 238.409 299.667 238.294 299.526 238.229C299.22 238.034 298.901 237.857 298.572 237.702L297.628 237.235L296.928 236.9C296.616 236.754 296.346 236.531 296.143 236.253C295.941 235.974 295.813 235.648 295.771 235.306C295.669 234.555 295.588 233.794 295.507 233.033L295.436 232.424C295.405 232.17 295.433 231.913 295.517 231.671C295.602 231.43 295.741 231.212 295.923 231.033C296.238 230.708 296.563 230.404 296.938 230.109L297.517 229.612C297.781 229.399 298.044 229.176 298.288 228.942C298.775 228.485 298.816 228.262 298.511 227.683C297.933 226.668 297.334 225.572 296.725 224.527C296.685 224.434 296.626 224.351 296.552 224.282C296.479 224.212 296.391 224.159 296.296 224.125C296.201 224.091 296.1 224.076 295.999 224.083C295.899 224.089 295.8 224.116 295.71 224.161C295.253 224.293 294.807 224.446 294.35 224.588L293.03 225.014C292.688 225.136 292.318 225.164 291.961 225.094C291.604 225.024 291.272 224.86 291 224.618C290.452 224.151 289.884 223.705 289.315 223.258L288.838 222.872C288.607 222.691 288.422 222.457 288.297 222.191C288.171 221.925 288.11 221.634 288.118 221.34C288.118 220.995 288.118 220.639 288.118 220.325C288.118 220.01 288.118 219.827 288.189 219.574C288.189 219.117 288.28 218.66 288.28 218.203C288.299 218.058 288.267 217.911 288.189 217.787C288.112 217.662 287.993 217.569 287.854 217.523C286.727 217.199 285.479 216.864 283.926 216.508C283.794 216.465 283.65 216.473 283.524 216.531C283.397 216.59 283.298 216.694 283.246 216.823C283.033 217.168 282.85 217.513 282.657 217.838L282.17 218.751C282.007 219.056 281.845 219.371 281.673 219.675C281.559 219.897 281.394 220.089 281.191 220.234C280.987 220.379 280.752 220.473 280.505 220.507L279.49 220.629C278.902 220.71 278.313 220.781 277.734 220.873C277.324 220.952 276.899 220.911 276.511 220.756C276.122 220.602 275.786 220.339 275.542 220C275.177 219.553 274.791 219.127 274.405 218.691L273.756 217.96C273.685 217.853 273.578 217.776 273.455 217.743C273.332 217.709 273.2 217.721 273.086 217.777C271.685 218.305 270.374 219.044 269.198 219.969C269.164 220.054 269.143 220.143 269.137 220.233C269.143 220.521 269.194 220.805 269.29 221.076L269.716 222.466C269.838 222.822 269.949 223.187 270.061 223.552C270.157 223.817 270.186 224.101 270.146 224.379C270.105 224.657 269.995 224.921 269.827 225.146C269.218 225.917 268.488 226.831 267.696 227.734C267.399 228.014 267.016 228.186 266.61 228.221C266.293 228.252 265.973 228.252 265.656 228.221H265.382L264.641 228.161C264.194 228.161 263.737 228.079 263.291 228.069C263.109 228.061 262.929 228.117 262.783 228.226C262.637 228.335 262.533 228.491 262.489 228.668C262.347 229.115 262.205 229.561 262.093 230.008C261.931 230.627 261.779 231.236 261.626 231.855L261.444 232.586V232.728C261.676 233.074 262.009 233.339 262.398 233.489L263.768 234.21L264.692 234.687C264.924 234.808 265.123 234.984 265.272 235.2C265.421 235.416 265.514 235.665 265.544 235.925C265.544 236.26 265.625 236.585 265.676 236.94C265.737 237.468 265.808 237.955 265.889 238.514C265.975 238.98 265.925 239.462 265.745 239.901C265.565 240.34 265.263 240.718 264.874 240.99C264.316 241.427 263.727 241.924 263.037 242.543C262.641 242.898 262.611 243.051 262.844 243.497C263.281 244.37 263.859 245.527 264.539 246.654C264.955 247.364 265.057 247.405 265.91 247.171L266.671 246.928C267.229 246.745 267.797 246.573 268.346 246.38C268.587 246.256 268.848 246.173 269.117 246.136ZM280.627 244.35C278.932 244.352 277.273 243.86 275.852 242.934C274.432 242.009 273.312 240.69 272.629 239.138C271.946 237.587 271.729 235.87 272.006 234.197C272.282 232.525 273.04 230.969 274.186 229.72C275.332 228.47 276.817 227.582 278.46 227.163C280.102 226.744 281.831 226.812 283.436 227.359C285.04 227.906 286.451 228.909 287.495 230.244C288.539 231.58 289.172 233.191 289.315 234.88C289.441 235.978 289.345 237.09 289.033 238.15C288.721 239.21 288.199 240.196 287.499 241.051C286.758 241.995 285.83 242.775 284.773 243.342C283.716 243.91 282.554 244.253 281.358 244.35C281.114 244.35 280.871 244.35 280.627 244.35ZM280.566 227.917H279.886C278.62 228.046 277.406 228.486 276.351 229.198C275.297 229.911 274.434 230.873 273.842 231.999C273.249 233.125 272.944 234.38 272.955 235.653C272.965 236.925 273.289 238.175 273.9 239.292C274.511 240.409 275.388 241.357 276.454 242.052C277.519 242.747 278.741 243.168 280.009 243.277C281.276 243.386 282.552 243.179 283.72 242.676C284.889 242.172 285.915 241.387 286.707 240.391C287.321 239.642 287.779 238.777 288.054 237.848C288.33 236.919 288.417 235.944 288.311 234.981C288.161 233.038 287.278 231.224 285.839 229.908C284.401 228.592 282.516 227.873 280.566 227.897V227.917Z" fill="#303C42" fill-opacity="0.25"/>
<path d="M314.772 129.929C308.885 136.415 293.832 148.838 262.936 149.285L262.083 204.328C262.083 204.328 291.62 208.866 314.772 188.322V129.929Z" fill="white"/>
<path d="M269.168 205.232C266.773 205.254 264.379 205.118 262.002 204.826C261.881 204.808 261.77 204.747 261.692 204.653C261.613 204.56 261.572 204.441 261.575 204.318L262.428 149.275C262.431 149.144 262.484 149.019 262.577 148.926C262.669 148.833 262.794 148.78 262.925 148.778C292.919 148.341 308.052 136.598 314.396 129.594C314.464 129.517 314.553 129.461 314.653 129.436C314.753 129.411 314.858 129.416 314.954 129.452C315.05 129.49 315.132 129.556 315.189 129.641C315.247 129.726 315.278 129.826 315.279 129.929V188.322C315.28 188.393 315.264 188.464 315.235 188.529C315.205 188.594 315.161 188.651 315.107 188.697C298.927 203.06 279.45 205.232 269.168 205.232ZM262.59 203.882C266.326 204.318 293.111 206.724 314.264 188.088V131.248C307.382 138.353 292.188 149.275 263.433 149.813L262.59 203.882Z" fill="#303C42"/>
<path d="M269.706 197.853C269.575 197.853 269.449 197.802 269.354 197.711C269.259 197.621 269.204 197.497 269.198 197.366C269.196 197.232 269.245 197.102 269.336 197.003C269.426 196.905 269.552 196.846 269.686 196.838C279.729 196.649 289.602 194.203 298.572 189.682C301.936 187.99 305.053 185.849 307.839 183.318V145.651C307.839 145.517 307.893 145.388 307.988 145.292C308.083 145.197 308.212 145.144 308.347 145.144C308.482 145.144 308.611 145.197 308.706 145.292C308.801 145.388 308.854 145.517 308.854 145.651V183.531C308.855 183.595 308.842 183.659 308.818 183.718C308.793 183.777 308.758 183.831 308.712 183.876C308.58 184.008 295.852 196.97 269.726 197.853H269.706Z" fill="#303C42" fill-opacity="0.25"/>
<path d="M272.944 162.541C272.809 162.541 272.68 162.487 272.585 162.392C272.49 162.297 272.437 162.168 272.437 162.033C272.437 161.899 272.49 161.77 272.585 161.674C272.68 161.579 272.809 161.526 272.944 161.526C273.015 161.526 280.648 160.998 284.748 158.176C284.803 158.138 284.864 158.111 284.929 158.097C284.994 158.083 285.061 158.082 285.127 158.095C285.192 158.107 285.254 158.132 285.309 158.169C285.365 158.206 285.412 158.253 285.449 158.308C285.524 158.418 285.554 158.552 285.531 158.683C285.508 158.814 285.435 158.931 285.327 159.009C280.993 161.993 273.33 162.521 273.005 162.541H272.944Z" fill="#303C42" fill-opacity="0.25"/>
<path d="M272.943 157.801C272.811 157.798 272.685 157.746 272.591 157.653C272.497 157.561 272.441 157.436 272.436 157.304C272.433 157.237 272.444 157.17 272.468 157.107C272.492 157.044 272.528 156.987 272.574 156.939C272.621 156.89 272.676 156.852 272.738 156.826C272.8 156.799 272.866 156.786 272.933 156.786C273.004 156.786 280.15 156.542 284.717 153.426C284.773 153.389 284.835 153.363 284.9 153.35C284.966 153.336 285.033 153.336 285.099 153.349C285.164 153.361 285.226 153.387 285.282 153.424C285.338 153.461 285.386 153.508 285.423 153.563C285.46 153.619 285.486 153.681 285.5 153.746C285.513 153.811 285.513 153.879 285.5 153.944C285.488 154.01 285.462 154.072 285.425 154.128C285.389 154.184 285.341 154.231 285.286 154.269C280.475 157.557 273.258 157.791 272.954 157.801H272.943Z" fill="#303C42" fill-opacity="0.25"/>
<path d="M271.066 191.245C270.94 191.244 270.819 191.193 270.731 191.103C270.682 191.057 270.644 191.002 270.617 190.941C270.591 190.88 270.577 190.814 270.577 190.748C270.577 190.681 270.591 190.615 270.617 190.554C270.644 190.493 270.682 190.438 270.731 190.392C270.822 190.281 280.536 179.725 284.606 173.137C284.646 173.071 284.7 173.014 284.765 172.972C284.831 172.93 284.904 172.903 284.982 172.894C285.058 172.888 285.134 172.899 285.206 172.925C285.278 172.951 285.343 172.993 285.398 173.046L293.274 181.166C294.756 178.243 300.937 165.84 302.196 158.521L298.552 160.714C298.495 160.748 298.431 160.771 298.365 160.782C298.299 160.792 298.231 160.789 298.166 160.773C298.101 160.757 298.04 160.728 297.986 160.688C297.932 160.648 297.886 160.599 297.852 160.541C297.817 160.484 297.794 160.42 297.784 160.354C297.774 160.288 297.777 160.22 297.793 160.155C297.809 160.09 297.838 160.029 297.877 159.975C297.917 159.921 297.967 159.876 298.024 159.841L302.582 157.1C302.663 157.053 302.756 157.028 302.851 157.028C302.945 157.028 303.038 157.053 303.12 157.1C303.199 157.153 303.262 157.226 303.303 157.312C303.344 157.398 303.362 157.493 303.353 157.588C302.44 165.789 294.218 181.582 293.842 182.252C293.806 182.324 293.753 182.385 293.688 182.431C293.622 182.477 293.546 182.506 293.467 182.516C293.388 182.527 293.308 182.519 293.232 182.495C293.157 182.47 293.088 182.429 293.03 182.374L285.124 174.173C280.82 180.862 271.573 190.92 271.472 191.032C271.425 191.096 271.364 191.148 271.293 191.185C271.223 191.222 271.145 191.242 271.066 191.245Z" fill="#303C42" fill-opacity="0.25"/>
<path d="M304.337 162.541C304.23 162.542 304.125 162.51 304.038 162.448C303.95 162.386 303.885 162.297 303.85 162.196L302.338 157.74C302.307 157.675 302.29 157.605 302.288 157.533C302.286 157.461 302.3 157.39 302.328 157.324C302.356 157.258 302.397 157.198 302.449 157.15C302.502 157.101 302.564 157.063 302.632 157.04C302.7 157.017 302.772 157.009 302.843 157.015C302.915 157.022 302.984 157.044 303.046 157.079C303.109 157.115 303.163 157.163 303.205 157.221C303.247 157.279 303.277 157.345 303.292 157.415L304.814 161.871C304.857 161.999 304.848 162.138 304.789 162.26C304.73 162.381 304.627 162.475 304.5 162.521L304.337 162.541Z" fill="#303C42" fill-opacity="0.25"/>
<path d="M111.975 66.187C111.975 66.187 113.7 79.717 122.125 82.6199V112.055C122.125 112.055 115.781 109.203 111.975 99.3775V66.187Z" fill="white"/>
<path d="M122.125 112.532C122.054 112.546 121.982 112.546 121.912 112.532C121.648 112.41 115.334 109.487 111.508 99.5704C111.494 99.5103 111.494 99.4477 111.508 99.3877V66.187C111.508 66.0586 111.557 65.935 111.646 65.8423C111.735 65.7496 111.856 65.6949 111.985 65.6897C112.049 65.6826 112.114 65.6884 112.175 65.7066C112.237 65.7248 112.295 65.755 112.345 65.7956C112.395 65.8362 112.436 65.8863 112.467 65.9431C112.497 65.9998 112.516 66.062 112.523 66.1261C112.523 66.2581 114.299 79.382 122.328 82.1428C122.427 82.1779 122.513 82.2423 122.575 82.3275C122.636 82.4127 122.671 82.5147 122.673 82.6199V112.055C122.673 112.14 122.651 112.223 122.61 112.298C122.57 112.372 122.511 112.435 122.439 112.481C122.344 112.535 122.232 112.553 122.125 112.532ZM112.482 99.2557C115.416 106.757 119.882 110.106 121.617 111.162V82.965C116.359 80.935 113.731 75.048 112.482 70.785V99.2557Z" fill="#303C42"/>
</svg>
