<svg
    width="13"
    height="20"
    viewBox="0 0 13 20"
    fill="none"
    xmlns="http://www.w3.org/2000/svg"
    name="mobile"
>
    <path
        d="M2.75 0C1.51625 0 0.5 1.01625 0.5 2.25V17.75C0.5 18.9838 1.51625 20 2.75 20H10.25C11.4838 20 12.5 18.9838 12.5 17.75V2.25C12.5 1.01625 11.4838 0 10.25 0H2.75ZM2.75 1.5H10.25C10.6732 1.5 11 1.82675 11 2.25V17.75C11 18.1733 10.6732 18.5 10.25 18.5H2.75C2.32675 18.5 2 18.1733 2 17.75V2.25C2 1.82675 2.32675 1.5 2.75 1.5ZM6.5 15.5C6.30109 15.5 6.11032 15.579 5.96967 15.7197C5.82902 15.8603 5.75 16.0511 5.75 16.25C5.75 16.4489 5.82902 16.6397 5.96967 16.7803C6.11032 16.921 6.30109 17 6.5 17C6.69891 17 6.88968 16.921 7.03033 16.7803C7.17098 16.6397 7.25 16.4489 7.25 16.25C7.25 16.0511 7.17098 15.8603 7.03033 15.7197C6.88968 15.579 6.69891 15.5 6.5 15.5Z"
        fill="currentColor"
    ></path>
</svg>