<svg
    width="32"
    height="32"
    viewBox="0 0 34 34"
    fill="none"
    xmlns="http://www.w3.org/2000/svg"
    name="mongodb"
    class="w-10 min-w-10 text-primary-500"
    style="color: rgb(255, 255, 255);"
>
    <g>
        <path
            fill-rule="evenodd"
            clip-rule="evenodd"
            d="M33.6663 17.0007C33.6663 26.2054 26.2044 33.6673 16.9997 33.6673C7.79493 33.6673 0.333008 26.2054 0.333008 17.0007C0.333008 7.7959 7.79493 0.333984 16.9997 0.333984C26.2044 0.333984 33.6663 7.7959 33.6663 17.0007ZM18.1286 8.77542C18.9692 9.64445 20.6407 11.3725 21.4545 14.9642C21.5598 15.5745 21.6148 16.1925 21.6188 16.8118C21.6381 20.5247 19.6787 22.8535 18.5889 23.8604L18.5655 23.8815C18.3588 24.0737 18.1402 24.2526 17.9108 24.417L17.8783 24.4382C17.6906 25.2819 17.5494 26.1353 17.4551 26.9945H17.0534C16.9466 25.8355 16.7967 24.7387 16.7801 24.6177C16.7793 24.6118 16.7788 24.6082 16.7787 24.6071V24.6107L16.7204 24.5693C16.2077 24.1953 12.4167 21.2617 12.6514 16.3385C12.903 11.0599 15.9961 8.46452 16.599 7.99316C16.9883 7.5778 17.0039 7.41895 17.0342 7.00716C17.0406 7.02206 17.0464 7.03729 17.051 7.04931C17.0529 7.05436 17.0546 7.05884 17.056 7.0625C17.056 7.0625 17.3529 7.79492 17.6459 8.20671C17.7067 8.33917 17.8818 8.52027 18.1286 8.77542ZM17.2386 14.8861C17.0108 14.8848 17.0108 21.7897 17.0108 21.7897C17.0108 22.3268 17.3301 23.7546 17.6465 23.7926C17.6465 23.7926 17.4164 14.8861 17.2386 14.8861Z"
            fill="currentColor"
        ></path>
    </g>
</svg>