<svg width="35" height="35" viewBox="0 0 35 35" fill="none" xmlns="http://www.w3.org/2000/svg"
    name="mural" class="mr-2 h-9 w-9 ListItems_ListItemIcon__JEBXv">
    <path fill-rule="evenodd" clip-rule="evenodd"
        d="M31.2537 3.7474C31.4106 3.90436 31.4995 4.11678 31.5011 4.33873V23.9585L23.9585 31.501H4.33873C4.11678 31.4995 3.90436 31.4106 3.74741 31.2536C3.59046 31.0967 3.50158 30.8843 3.5 30.6623V4.33873C3.50158 4.11678 3.59046 3.90436 3.74741 3.7474C3.90436 3.59045 4.11678 3.50158 4.33873 3.5H30.6623C30.8843 3.50158 31.0967 3.59045 31.2537 3.7474ZM22.9936 21.7773V13.3522C22.988 13.2764 22.9554 13.2052 22.9016 13.1515C22.8479 13.0978 22.7767 13.0651 22.7009 13.0596H20.7308C20.6448 13.0596 20.5211 13.1003 20.4789 13.1848L17.4618 17.2924L14.4855 13.1848C14.3996 13.1018 14.3181 13.0596 14.2336 13.0596H12.3057C12.2671 13.0587 12.2287 13.0657 12.1928 13.0802C12.1569 13.0946 12.1243 13.1161 12.097 13.1434C12.0696 13.1708 12.0481 13.2034 12.0337 13.2392C12.0193 13.2751 12.0123 13.3135 12.0131 13.3522V21.8165C12.0123 21.8551 12.0193 21.8936 12.0337 21.9294C12.0481 21.9653 12.0696 21.9979 12.097 22.0253C12.1243 22.0526 12.1569 22.0741 12.1928 22.0885C12.2287 22.1029 12.2671 22.11 12.3057 22.1091H14.4855C14.5242 22.11 14.5626 22.1029 14.5985 22.0885C14.6344 22.0741 14.667 22.0526 14.6943 22.0253C14.7217 21.9979 14.7432 21.9653 14.7576 21.9294C14.772 21.8936 14.779 21.8551 14.7782 21.8165V17.4161L17.5448 21.3141L20.2269 17.5836V21.7773C20.2261 21.8159 20.2331 21.8543 20.2475 21.8902C20.262 21.9261 20.2835 21.9587 20.3108 21.986C20.3382 22.0134 20.3708 22.0349 20.4066 22.0493C20.4425 22.0637 20.4809 22.0707 20.5196 22.0699H22.7009C22.7396 22.0707 22.778 22.0637 22.8139 22.0493C22.8498 22.0349 22.8823 22.0134 22.9097 21.986C22.937 21.9587 22.9585 21.9261 22.973 21.8902C22.9874 21.8543 22.9944 21.8159 22.9936 21.7773Z"
        fill="currentColor"></path>
    <path d="M24.1662 24.2075L23.958 31.4997H16.9133L24.1662 24.2075Z" fill="currentColor"></path>
    <path
        d="M31.501 23.9568H24.7941C24.5722 23.9584 24.3597 24.0472 24.2028 24.2042C24.0458 24.3611 23.957 24.5736 23.9554 24.7955V31.5024L31.501 23.9568Z"
        fill="currentColor" fill-opacity="0.25"></path>
</svg>