<svg width="21" height="18" viewBox="0 0 21 18" fill="none" xmlns="http://www.w3.org/2000/svg"
    name="mvp" class="h-8 w-8 text-white">
    <path
        d="M9.25 0C8.29252 0 7.5 0.79252 7.5 1.75V4.25C7.5 5.20748 8.29252 6 9.25 6H9.75V8H4.5C3.54252 8 2.75 8.7925 2.75 9.75V12H2.25C1.29252 12 0.5 12.7925 0.5 13.75V16.25C0.5 17.2075 1.29252 18 2.25 18H4.75C5.70748 18 6.5 17.2075 6.5 16.25V13.75C6.5 12.7925 5.70748 12 4.75 12H4.25V9.75C4.25 9.6025 4.35248 9.5 4.5 9.5H9.75V12H9.25C8.29252 12 7.5 12.7925 7.5 13.75V16.25C7.5 17.2075 8.29252 18 9.25 18H11.75C12.7075 18 13.5 17.2075 13.5 16.25V13.75C13.5 12.7925 12.7075 12 11.75 12H11.25V9.5H16.5C16.6475 9.5 16.75 9.6025 16.75 9.75V12H16.25C15.2925 12 14.5 12.7925 14.5 13.75V16.25C14.5 17.2075 15.2925 18 16.25 18H18.75C19.7075 18 20.5 17.2075 20.5 16.25V13.75C20.5 12.7925 19.7075 12 18.75 12H18.25V9.75C18.25 8.7925 17.4575 8 16.5 8H11.25V6H11.75C12.7075 6 13.5 5.20748 13.5 4.25V1.75C13.5 0.79252 12.7075 0 11.75 0H9.25ZM9.25 1.5H11.75C11.8975 1.5 12 1.60248 12 1.75V4.25C12 4.39752 11.8975 4.5 11.75 4.5H10.623C10.5425 4.48677 10.4604 4.48677 10.3799 4.5H9.25C9.1025 4.5 9 4.39752 9 4.25V1.75C9 1.60248 9.1025 1.5 9.25 1.5ZM2.25 13.5H3.37695C3.45747 13.5132 3.5396 13.5132 3.62012 13.5H4.75C4.89752 13.5 5 13.6025 5 13.75V16.25C5 16.3975 4.89752 16.5 4.75 16.5H2.25C2.10248 16.5 2 16.3975 2 16.25V13.75C2 13.6025 2.10248 13.5 2.25 13.5ZM9.25 13.5H10.377C10.4575 13.5132 10.5396 13.5132 10.6201 13.5H11.75C11.8975 13.5 12 13.6025 12 13.75V16.25C12 16.3975 11.8975 16.5 11.75 16.5H9.25C9.1025 16.5 9 16.3975 9 16.25V13.75C9 13.6025 9.1025 13.5 9.25 13.5ZM16.25 13.5H17.377C17.4575 13.5132 17.5396 13.5132 17.6201 13.5H18.75C18.8975 13.5 19 13.6025 19 13.75V16.25C19 16.3975 18.8975 16.5 18.75 16.5H16.25C16.1025 16.5 16 16.3975 16 16.25V13.75C16 13.6025 16.1025 13.5 16.25 13.5Z"
        fill="currentColor"></path>
</svg>