<svg
    width="32"
    height="32"
    viewBox="0 0 35 35"
    fill="none"
    xmlns="http://www.w3.org/2000/svg"
    name="nextjs"
    class="w-10 min-w-10 text-primary-500"
    style="color: rgb(255, 255, 255);"
>
    <path
        d="M16.5831 3.50753C16.5229 3.51301 16.3313 3.53216 16.1588 3.54585C12.1819 3.90435 8.45679 6.04988 6.09746 9.34754C4.78368 11.1811 3.9434 13.2609 3.6259 15.4639C3.51369 16.2329 3.5 16.4601 3.5 17.5027C3.5 18.5454 3.51369 18.7725 3.6259 19.5415C4.3868 24.7986 8.12835 29.2156 13.2028 30.8521C14.1115 31.1449 15.0695 31.3447 16.1588 31.4651C16.5831 31.5116 18.4169 31.5116 18.8412 31.4651C20.7215 31.2571 22.3145 30.7919 23.8855 29.9901C24.1264 29.8669 24.1729 29.8341 24.1401 29.8067C24.1182 29.7903 23.0918 28.4138 21.8601 26.7499L19.6212 23.7259L16.8157 19.5744C15.272 17.292 14.0021 15.4256 13.9911 15.4256C13.9802 15.4229 13.9692 17.2674 13.9637 19.5197C13.9555 23.4632 13.9528 23.6219 13.9035 23.7149C13.8324 23.849 13.7776 23.9038 13.6627 23.964C13.5751 24.0077 13.4984 24.016 13.0851 24.016H12.6116L12.4857 23.9366C12.4036 23.8846 12.3434 23.8162 12.3023 23.7368L12.2449 23.6137L12.2503 18.1267L12.2586 12.637L12.3434 12.5303C12.3872 12.4728 12.4803 12.3989 12.5459 12.3633C12.6582 12.3086 12.702 12.3031 13.1755 12.3031C13.7338 12.3031 13.8269 12.325 13.9719 12.4837C14.013 12.5275 15.5321 14.8154 17.3495 17.5712C19.1669 20.327 21.6521 24.0898 22.8728 25.9371L25.0898 29.2949L25.2021 29.2211C26.1956 28.5752 27.2466 27.6557 28.0787 26.6979C29.8496 24.6645 30.9909 22.1851 31.3741 19.5415C31.4863 18.7725 31.5 18.5454 31.5 17.5027C31.5 16.4601 31.4863 16.2329 31.3741 15.4639C30.6132 10.2068 26.8717 5.7899 21.7972 4.15338C20.9022 3.8633 19.9497 3.66352 18.8822 3.54311C18.6195 3.51574 16.8103 3.48564 16.5831 3.50753ZM22.3145 11.9747C22.4458 12.0404 22.5526 12.1663 22.5909 12.2976C22.6128 12.3688 22.6183 13.8904 22.6128 17.3194L22.6046 22.2399L21.737 20.9099L20.8666 19.5799V16.0031C20.8666 13.6906 20.8775 12.3907 20.8939 12.3277C20.9377 12.1745 21.0335 12.0541 21.1649 11.9829C21.2771 11.9255 21.3182 11.92 21.7479 11.92C22.153 11.92 22.2241 11.9255 22.3145 11.9747Z"
        fill="currentColor"
    ></path>
</svg>