<svg
    width="32"
    height="32"
    viewBox="0 0 35 35"
    fill="none"
    xmlns="http://www.w3.org/2000/svg"
    name="node"
    class="w-10 min-w-10 text-primary-500"
    style="color: rgb(255, 255, 255);"
>
    <path
        d="M18.7627 2.66943C17.9983 2.22034 17.0018 2.22236 16.2367 2.66943C15.2937 3.21307 14.3507 3.75674 13.4077 4.30042C10.5189 5.96592 7.63003 7.63147 4.74079 9.29606C3.99505 9.70589 3.49207 10.5425 3.50009 11.4108V24.7577C3.49471 25.643 4.02362 26.4877 4.78859 26.8919C5.20388 27.1227 5.61472 27.3624 6.02553 27.602C6.70363 27.9975 7.38166 28.393 8.07955 28.7486C9.37409 29.4131 10.9937 29.5601 12.3041 28.8671C13.3677 28.2927 13.8401 27.0153 13.8388 25.8414C13.8442 23.0593 13.8433 20.2772 13.8424 17.4951C13.8419 15.8723 13.8414 14.2495 13.8421 12.6267C13.8674 12.4309 13.7267 12.2217 13.5223 12.2264C13.0326 12.2183 12.5423 12.2217 12.0526 12.2251C11.8676 12.2068 11.687 12.3673 11.701 12.5616C11.6975 14.854 11.698 17.1468 11.6986 19.4396C11.699 21.5241 11.6995 23.6087 11.697 25.6931C11.7077 26.2985 11.3161 26.8805 10.7575 27.085C10.1245 27.3269 9.41914 27.1393 8.84462 26.8236C8.49949 26.6246 8.15428 26.4258 7.80907 26.2271C7.13426 25.8386 6.45944 25.4501 5.78521 25.0598C5.71764 25.0271 5.66151 24.974 5.62438 24.9078C5.58724 24.8415 5.57089 24.7652 5.57751 24.6892C5.57751 23.2213 5.57758 21.7535 5.57766 20.2856C5.5778 17.35 5.57795 14.4144 5.57751 11.4792C5.55894 11.3018 5.66367 11.1419 5.81971 11.0694C7.94475 9.84754 10.0692 8.62395 12.1937 7.40032C13.8873 6.42484 15.581 5.44934 17.2751 4.47466C17.3414 4.42842 17.4198 4.40373 17.5001 4.40385C17.5804 4.40397 17.6588 4.42889 17.725 4.47533C19.4116 5.44546 21.0981 6.41614 22.7845 7.38683C24.9166 8.61406 27.0488 9.84131 29.1816 11.0675C29.3382 11.1399 29.4384 11.3024 29.4225 11.4792C29.4223 13.0809 29.4224 14.6826 29.4225 16.2844C29.4227 19.0858 29.4229 21.8873 29.4212 24.6885C29.4325 24.8444 29.3555 24.9954 29.2161 25.0638C27.2488 26.1995 25.28 27.3328 23.3111 28.466C21.5164 29.4991 19.7216 30.5322 17.9279 31.5671C17.9048 31.5803 17.8811 31.5945 17.857 31.609C17.6934 31.707 17.5081 31.8181 17.3248 31.7101C16.7601 31.3837 16.1993 31.0501 15.6385 30.7166C15.2202 30.4678 14.802 30.219 14.3822 29.9733C14.2754 29.9036 14.1394 29.8738 14.0279 29.9516C14.0013 29.9663 13.9746 29.981 13.9479 29.9958C13.5338 30.2241 13.1177 30.4536 12.667 30.5998C12.6097 30.6235 12.5489 30.6427 12.4876 30.6619C12.3214 30.7142 12.1525 30.7673 12.0454 30.9148C12.1766 31.0987 12.3697 31.2083 12.5609 31.3168C12.6114 31.3455 12.6617 31.3741 12.7108 31.4039C13.2346 31.7136 13.7588 32.0227 14.283 32.3318C14.909 32.7009 15.5349 33.07 16.1603 33.4401C16.9168 33.9333 17.9333 33.9684 18.7142 33.5126C20.5305 32.467 22.3465 31.4208 24.1626 30.3746C26.1784 29.2133 28.1943 28.0519 30.2108 26.8913C30.9738 26.4849 31.5053 25.6436 31.4999 24.7576V11.4108C31.5073 10.5601 31.0235 9.73842 30.3003 9.32254C28.0484 8.02252 25.7959 6.72415 23.5434 5.42576C21.9497 4.50719 20.3561 3.58861 18.7627 2.66943Z"
        fill="currentColor"
    ></path>
    <path
        d="M24.545 12.6904C23.0409 11.8498 21.2515 11.805 19.58 11.9148C18.3725 12.0395 17.1025 12.3876 16.2227 13.2918C15.3203 14.2009 15.124 15.6688 15.5526 16.8555C15.8597 17.694 16.6328 18.2393 17.4323 18.5278C18.4622 18.9076 19.5438 19.025 20.6258 19.1425C21.6127 19.2496 22.5999 19.3568 23.5485 19.6631C23.936 19.7973 24.3872 20.0025 24.5059 20.4428C24.6154 20.9644 24.4953 21.5706 24.0899 21.933C23.3614 22.5354 22.3735 22.5782 21.4704 22.6174C21.421 22.6195 21.3719 22.6217 21.323 22.6239C21.2276 22.6223 21.1314 22.6212 21.0347 22.6201C19.9792 22.6082 18.8578 22.5955 17.9486 21.9966C17.4343 21.6396 17.2126 21.0077 17.1225 20.4056C17.1125 20.2179 16.9679 20.0458 16.7728 20.06C16.2844 20.054 15.7961 20.0553 15.3077 20.0594C15.1373 20.0444 14.9601 20.1711 14.9508 20.3527C14.9117 21.4283 15.3057 22.5426 16.1126 23.2578C17.0561 24.108 18.328 24.4358 19.5502 24.5781C20.8501 24.7074 22.1783 24.7 23.4583 24.4087C24.4204 24.1798 25.385 23.7584 26.0473 22.9842C26.8641 22.0434 27.0246 20.6426 26.6584 19.4707C26.3783 18.5963 25.5781 18.0354 24.7601 17.7468C23.6477 17.3483 22.485 17.1912 21.3217 17.0339C20.4188 16.9119 19.5156 16.7897 18.6353 16.5547C18.6203 16.5499 18.6053 16.5451 18.5901 16.5402C18.2496 16.4314 17.8516 16.3042 17.7024 15.9424C17.5371 15.416 17.6778 14.7624 18.1409 14.4386C18.7441 14.0112 19.5097 13.9482 20.2217 13.9097C20.2472 13.9094 20.2727 13.9091 20.2982 13.9089C21.2511 13.8992 22.2574 13.8891 23.1285 14.3343C23.7111 14.6391 24.0487 15.265 24.1881 15.897C24.2139 16.0826 24.3335 16.2763 24.5392 16.2682C24.871 16.2751 25.2029 16.2738 25.5347 16.2725C25.6879 16.2719 25.841 16.2713 25.9942 16.2715C26.1608 16.2838 26.3432 16.1855 26.3757 16.0073C26.3552 14.6866 25.7095 13.3346 24.545 12.6904Z"
        fill="currentColor"
    ></path>
</svg>