<svg width="35" height="36" viewBox="0 0 35 36" fill="none" xmlns="http://www.w3.org/2000/svg"
    name="openai" class="mr-2 h-9 w-9 ListItems_ListItemIcon__JEBXv">
    <path
        d="M30.1601 15.3545C30.8307 13.3684 30.5998 11.1927 29.5274 9.38615C27.9145 6.61526 24.6723 5.18971 21.5058 5.86056C20.0971 4.29464 18.0732 3.40412 15.9514 3.41688C12.7147 3.40959 9.84284 5.46589 8.84707 8.50475C6.76777 8.92494 4.97297 10.2092 3.9227 12.0294C2.29787 14.793 2.66829 18.2767 4.83903 20.6465C4.16841 22.6327 4.39934 24.8084 5.47178 26.6149C7.0846 29.3858 10.3269 30.8113 13.4934 30.1405C14.9011 31.7064 16.9259 32.5969 19.0477 32.5833C22.2863 32.5915 25.1591 30.5333 26.1549 27.4917C28.2342 27.0716 30.0289 25.7873 31.0792 23.9671C32.7022 21.2035 32.3309 17.7225 30.161 15.3527L30.1601 15.3545ZM19.0496 30.6774C17.7536 30.6792 16.4983 30.2317 15.5034 29.4122C15.5487 29.3885 15.6272 29.3457 15.678 29.3147L21.564 25.9605C21.8651 25.7918 22.0498 25.4756 22.048 25.1338V16.9459L24.5356 18.3633C24.5624 18.3761 24.5799 18.4016 24.5836 18.4307V25.2112C24.5799 28.2264 22.1053 30.671 19.0496 30.6774ZM7.14834 25.6615C6.49896 24.555 6.26526 23.2579 6.48788 21.9992C6.53129 22.0247 6.60796 22.0712 6.66246 22.1022L12.5484 25.4564C12.8468 25.6287 13.2163 25.6287 13.5156 25.4564L20.7012 21.3621V24.1968C20.703 24.2259 20.6892 24.2542 20.6661 24.2724L14.7164 27.6622C12.0662 29.168 8.68172 28.2729 7.14926 25.6615H7.14834ZM5.59926 12.9838C6.24586 11.8754 7.26658 11.0277 8.48219 10.5875C8.48219 10.6376 8.47942 10.726 8.47942 10.788V17.4974C8.47758 17.8383 8.66232 18.1546 8.96253 18.3232L16.1482 22.4166L13.6606 23.834C13.6356 23.8504 13.6042 23.8531 13.5765 23.8413L7.6259 20.4488C4.98129 18.9375 4.07419 15.5988 5.59833 12.9847L5.59926 12.9838ZM26.0375 17.677L18.8519 13.5826L21.3395 12.1662C21.3644 12.1498 21.3958 12.147 21.4235 12.1589L27.3742 15.5487C30.0234 17.059 30.9314 20.4032 29.4008 23.0173C28.7533 24.1238 27.7335 24.9715 26.5188 25.4127V18.5028C26.5216 18.1619 26.3378 17.8465 26.0385 17.677H26.0375ZM28.5131 14.0001C28.4697 13.9736 28.393 13.928 28.3385 13.8971L22.4526 10.5428C22.1542 10.3705 21.7847 10.3705 21.4854 10.5428L14.2998 14.6372V11.8025C14.298 11.7733 14.3118 11.7451 14.3349 11.7268L20.2846 8.33977C22.9348 6.83128 26.323 7.72909 27.8508 10.345C28.4965 11.4497 28.7302 12.7431 28.5113 14.0001H28.5131ZM12.9475 19.0524L10.459 17.635C10.4322 17.6223 10.4146 17.5967 10.4109 17.5676V10.7871C10.4128 7.76828 12.8948 5.32187 15.9542 5.32369C17.2483 5.32369 18.5009 5.77214 19.4957 6.58883C19.4505 6.61252 19.3729 6.65536 19.3212 6.68635L13.4352 10.0406C13.1341 10.2092 12.9493 10.5246 12.9512 10.8664L12.9475 19.0506V19.0524ZM14.2989 16.1776L17.4996 14.3537L20.7003 16.1767V19.8235L17.4996 21.6464L14.2989 19.8235V16.1776Z"
        fill="currentColor" fill-opacity="0.75"></path>
</svg>