<svg width="35" height="36" viewBox="0 0 35 36" fill="none" xmlns="http://www.w3.org/2000/svg"
    name="optimizely" class="mr-2 h-9 w-9 ListItems_ListItemIcon__JEBXv">
    <g clip-path="url(#clip0_11476_746)">
        <path
            d="M12.7076 20.0671V23.3683C15.2549 23.3653 17.6969 22.3941 19.4981 20.6677C21.2993 18.9412 22.3126 16.6005 22.3156 14.1589H18.8813C18.8787 15.7267 18.2271 17.2295 17.0696 18.3372C15.9121 19.4449 14.3433 20.0671 12.7076 20.0671Z"
            fill="currentColor" fill-opacity="0.25"></path>
        <path
            d="M12.7077 29.1646C11.1039 29.1372 9.57555 28.5073 8.45152 27.4105C7.32748 26.3137 6.69768 24.8377 6.69768 23.3003C6.69768 21.7628 7.32748 20.2869 8.45152 19.1901C9.57555 18.0933 11.1039 17.4634 12.7077 17.436V14.1609C10.1775 14.1574 7.74961 15.1175 5.95798 16.8299C4.16636 18.5423 3.1578 20.8667 3.15418 23.2919C3.15057 25.717 4.15219 28.0442 5.93871 29.7615C7.72522 31.4788 10.1503 32.4455 12.6804 32.449H12.7077V29.1646Z"
            fill="currentColor" fill-opacity="0.75"></path>
        <path
            d="M12.7076 29.1646V32.4397C15.2378 32.4397 17.6643 31.4763 19.4533 29.7615C21.2424 28.0466 22.2475 25.7208 22.2475 23.2957H18.8268C18.8263 24.8514 18.1815 26.3434 17.0342 27.4438C15.8869 28.5442 14.3307 29.1632 12.7076 29.1646Z"
            fill="currentColor" fill-opacity="0.25"></path>
        <path
            d="M12.7076 10.882V14.1589C15.2378 14.1589 17.6643 13.1956 19.4533 11.4807C21.2424 9.76587 22.2475 7.44004 22.2475 5.01489H18.8268C18.8258 6.57032 18.1808 8.06179 17.0335 9.16182C15.8862 10.2619 14.3304 10.8805 12.7076 10.882Z"
            fill-opacity="0.5" fill="currentColor"></path>
        <path
            d="M22.3059 10.882V14.1589C24.836 14.1589 27.2625 13.1956 29.0516 11.4807C30.8407 9.76587 31.8458 7.44004 31.8458 5.01489H28.4212C28.4201 6.56968 27.7757 8.06058 26.6293 9.1605C25.4828 10.2604 23.928 10.8795 22.3059 10.882Z"
            fill="currentColor" fill-opacity="0.5"></path>
    </g>
    <defs>
        <clipPath id="clip0_11476_746">
            <rect width="29.1667" height="27.7083" fill="white" transform="translate(2.91663 4.875)"></rect>
        </clipPath>
    </defs>
</svg>