<svg width="410" height="297" viewBox="0 0 410 297" fill="none" xmlns="http://www.w3.org/2000/svg">
<path d="M146.104 264.349C166.879 264.349 183.721 262.177 183.721 259.498C183.721 256.818 166.879 254.646 146.104 254.646C125.328 254.646 108.486 256.818 108.486 259.498C108.486 262.177 125.328 264.349 146.104 264.349Z" fill="#303C42" fill-opacity="0.25"/>
<path d="M309.479 264.349C330.254 264.349 347.096 262.177 347.096 259.498C347.096 256.818 330.254 254.646 309.479 254.646C288.703 254.646 271.861 256.818 271.861 259.498C271.861 262.177 288.703 264.349 309.479 264.349Z" fill="#303C42" fill-opacity="0.25"/>
<path d="M143.982 243.075C143.982 243.075 150.521 262.284 151.68 261.92C152.838 261.555 176.116 248.615 175.347 246.401C174.578 244.187 158.414 248.802 158.414 248.802L154.775 238.46" fill="white"/>
<path d="M151.7 262.412C151.593 262.414 151.488 262.39 151.393 262.343C149.947 261.644 145.427 248.744 143.551 243.233C143.529 243.171 143.52 243.105 143.524 243.04C143.529 242.974 143.547 242.91 143.577 242.852C143.608 242.793 143.65 242.741 143.702 242.698C143.754 242.655 143.814 242.623 143.879 242.603C144.01 242.566 144.15 242.579 144.271 242.64C144.392 242.7 144.483 242.804 144.525 242.928C147.313 251.115 150.726 260.139 151.772 261.369C154.939 260.07 174.763 248.438 174.896 246.51C174.619 245.722 167.588 246.707 158.609 249.275C158.481 249.307 158.345 249.293 158.228 249.235C158.11 249.177 158.02 249.079 157.973 248.96L154.324 238.618C154.281 238.494 154.291 238.359 154.35 238.241C154.409 238.123 154.514 238.033 154.642 237.988C154.773 237.95 154.913 237.961 155.035 238.02C155.157 238.078 155.251 238.18 155.298 238.303L158.793 248.143C173.379 244.02 175.603 245.398 175.88 246.175C176.085 246.756 176.505 247.956 164.605 255.199C158.742 258.751 152.602 262.087 151.946 262.313C151.872 262.362 151.788 262.396 151.7 262.412Z" fill="#303C42"/>
<path d="M116.276 210.936C116.276 210.936 102.808 211.123 102.428 212.225C102.049 213.327 98.0004 233.874 101.66 232.181C105.319 230.488 111.274 218.877 111.274 218.877L118.008 217.893L116.276 210.936Z" fill="white"/>
<path d="M101.26 232.761C100.981 232.76 100.711 232.662 100.501 232.486C97.9902 230.341 101.69 212.805 101.936 212.067C102.059 211.713 102.439 210.63 116.286 210.443C116.401 210.448 116.512 210.486 116.604 210.553C116.695 210.62 116.763 210.712 116.799 210.817L118.531 217.755C118.56 217.887 118.534 218.024 118.459 218.139C118.421 218.196 118.37 218.246 118.31 218.283C118.249 218.32 118.182 218.345 118.111 218.355L111.633 219.339C110.751 221.041 105.421 231.039 101.895 232.643C101.695 232.727 101.478 232.768 101.26 232.761ZM102.89 212.461C102.346 214.261 99.4354 230.262 101.188 231.748C101.188 231.748 101.26 231.817 101.434 231.748C104.304 230.449 109.173 221.907 110.813 218.68C110.847 218.608 110.9 218.546 110.967 218.5C111.033 218.453 111.111 218.424 111.192 218.414L117.342 217.43L115.835 211.408C110.034 211.526 103.751 211.929 102.89 212.461Z" fill="#303C42"/>
<path d="M192.916 59.6106L198.676 56.4419C198.676 56.4419 200.296 51.4627 201.925 50.2622C203.555 49.0616 205.8 50.6951 205.8 50.6951C205.8 50.6951 211.755 45.9225 213.19 46.08C214.625 46.2374 212.729 48.6779 211.263 49.9079L208.188 52.4959C208.188 52.4959 210.884 57.7704 209.326 59.8467C207.768 61.923 195.222 68.339 195.222 68.339L192.916 59.6106Z" fill="white"/>
<path d="M195.201 68.8198C195.13 68.8291 195.057 68.8291 194.986 68.8198C194.916 68.787 194.854 68.7402 194.804 68.6824C194.755 68.6247 194.719 68.5574 194.699 68.4852L192.423 59.7666C192.395 59.664 192.403 59.5554 192.446 59.4576C192.488 59.3597 192.563 59.2781 192.659 59.2254L198.245 56.165C198.594 55.1809 200.029 51.0873 201.577 49.9065C203.124 48.7256 204.969 49.6605 205.738 50.1131C207.44 48.765 211.775 45.4783 213.21 45.6259C213.416 45.6354 213.615 45.7043 213.779 45.8237C213.944 45.9431 214.067 46.1074 214.133 46.2951C214.522 47.4857 212.36 49.6506 211.581 50.3198L208.793 52.6618C209.418 53.9607 211.222 58.1724 209.715 60.1799C208.208 62.1873 196.728 68.1506 195.437 68.8099C195.36 68.8323 195.279 68.8357 195.201 68.8198ZM193.51 59.8551L195.56 67.5995C199.363 65.6315 207.747 61.095 208.885 59.5501C210.023 58.0051 208.413 54.0985 207.706 52.6618C207.657 52.5639 207.643 52.4534 207.665 52.3469C207.687 52.2405 207.745 52.1438 207.829 52.0714L210.904 49.4932C212.288 48.3222 213.262 46.8461 213.159 46.5411C212.37 46.4722 208.885 48.8437 206.107 51.0677C206.017 51.1363 205.905 51.1736 205.789 51.1736C205.674 51.1736 205.562 51.1363 205.472 51.0677C205.472 51.0677 203.493 49.6605 202.222 50.6248C200.951 51.5892 199.609 55.2301 199.147 56.5291C199.105 56.6475 199.022 56.7483 198.912 56.8145L193.51 59.8551Z" fill="#303C42"/>
<path d="M123.144 92.0243C127.654 94.4451 192.7 57.9863 192.7 57.9863L202.387 67.6103L136.53 113.408L123.144 92.0243Z" fill="#FF5100"/>
<path d="M145.058 91.4141C145.058 91.4141 106.364 91.4141 96.3912 99.0404C89.0009 104.689 87.6069 144.07 87.6069 144.07L161.489 138.54C161.489 138.54 165.732 97.0231 145.058 91.4141Z" fill="#FF5100"/>
<path d="M150.675 114.411C150.55 114.411 150.43 114.364 150.342 114.279C150.254 114.194 150.204 114.079 150.204 113.959V94.6421C150.204 94.5221 150.254 94.4069 150.342 94.322C150.43 94.2371 150.55 94.1895 150.675 94.1895C150.8 94.1895 150.92 94.2371 151.009 94.322C151.097 94.4069 151.147 94.5221 151.147 94.6421V113.959C151.147 114.079 151.097 114.194 151.009 114.279C150.92 114.364 150.8 114.411 150.675 114.411Z" fill="#303C42"/>
<path d="M234.448 195.486C233.813 195.004 210.873 192.751 209.449 193.174C208.024 193.597 202.274 211.802 202.386 213.356C202.571 216.466 215.24 204.008 215.24 204.008L234.448 207.708" fill="white"/>
<path d="M202.796 214.331C202.695 214.352 202.59 214.352 202.489 214.331C202.301 214.263 202.141 214.14 202.03 213.979C201.92 213.818 201.865 213.628 201.874 213.436C201.802 212.275 207.317 193.351 209.305 192.771C210.802 192.328 233.905 194.503 234.766 195.172C234.872 195.253 234.94 195.371 234.955 195.5C234.97 195.629 234.932 195.759 234.848 195.861C234.771 195.955 234.661 196.019 234.538 196.041C234.416 196.062 234.289 196.04 234.182 195.979C232.573 195.398 210.894 193.391 209.582 193.716C208.352 194.621 202.776 211.871 202.878 213.396C203.903 213.701 209.91 208.584 214.85 203.733C214.91 203.673 214.985 203.629 215.067 203.605C215.15 203.581 215.238 203.577 215.322 203.595L234.52 207.266C234.654 207.292 234.772 207.367 234.848 207.476C234.925 207.584 234.954 207.717 234.93 207.846C234.917 207.91 234.89 207.97 234.853 208.023C234.815 208.077 234.767 208.123 234.711 208.159C234.654 208.194 234.592 208.219 234.525 208.231C234.459 208.243 234.391 208.243 234.325 208.23L215.394 204.609C212.175 207.709 205.144 214.331 202.796 214.331Z" fill="#303C42"/>
<path d="M319.431 239.316C319.431 239.955 325.673 259.183 327.498 259.488C329.322 259.794 355.029 252.01 352.908 250.632C350.786 249.254 339.152 250.268 339.152 250.268L332.951 234.277" fill="white"/>
<path d="M327.508 259.98H327.406C324.987 259.567 318.929 239.542 318.919 239.315C318.908 239.185 318.952 239.056 319.04 238.956C319.128 238.856 319.254 238.794 319.39 238.784C319.526 238.774 319.661 238.815 319.765 238.9C319.869 238.985 319.933 239.106 319.944 239.237C320.231 240.978 326.094 258.219 327.642 258.986C328.328 259.075 333.71 257.687 340.362 255.572C347.537 253.279 351.483 251.636 352.375 250.898C350.458 250.12 343.58 250.366 339.204 250.74C339.092 250.751 338.981 250.726 338.886 250.669C338.791 250.612 338.719 250.526 338.681 250.425L332.531 234.454C332.498 234.393 332.479 234.325 332.475 234.256C332.472 234.187 332.483 234.117 332.509 234.053C332.535 233.988 332.575 233.93 332.627 233.881C332.678 233.832 332.739 233.794 332.807 233.77C332.874 233.745 332.946 233.735 333.018 233.739C333.09 233.743 333.161 233.762 333.225 233.794C333.289 233.826 333.345 233.871 333.389 233.925C333.434 233.98 333.466 234.043 333.484 234.11L339.542 249.727C341.828 249.549 351.196 248.89 353.246 250.209C353.396 250.297 353.508 250.434 353.56 250.595C353.613 250.756 353.604 250.93 353.533 251.085C352.477 253.515 329.692 259.98 327.508 259.98Z" fill="#303C42"/>
<path d="M292.382 147.396C292.382 147.396 282.255 220.324 271.882 218.1C261.509 215.876 220.006 207.403 220.006 207.403L223.758 191.658C223.758 191.658 253.288 194.67 257.224 194.945C261.16 195.221 258.393 144.08 258.393 144.08L292.382 147.396Z" fill="#303C42"/>
<path d="M272.333 218.64C272.136 218.64 271.94 218.62 271.748 218.581C261.498 216.397 220.293 207.963 219.883 207.885C219.749 207.856 219.631 207.778 219.555 207.668C219.481 207.557 219.455 207.423 219.484 207.294L223.235 191.55C223.266 191.434 223.338 191.332 223.439 191.262C223.54 191.191 223.664 191.158 223.789 191.166C224.086 191.166 253.36 194.187 257.244 194.453C259.294 193.469 259.161 168.09 257.87 144.099C257.864 144.03 257.874 143.96 257.901 143.895C257.928 143.83 257.97 143.772 258.023 143.725C258.077 143.675 258.142 143.636 258.213 143.613C258.283 143.589 258.359 143.58 258.434 143.587L292.433 146.914C292.503 146.919 292.571 146.938 292.633 146.97C292.695 147.003 292.749 147.047 292.791 147.101C292.833 147.151 292.864 147.21 292.881 147.273C292.899 147.335 292.903 147.4 292.894 147.465C292.535 150.082 283.894 211.526 274.177 218.04C273.641 218.416 272.997 218.625 272.333 218.64ZM220.601 207.029C225.388 208.013 262.328 215.56 271.974 217.627C272.258 217.673 272.549 217.66 272.828 217.591C273.107 217.521 273.368 217.396 273.593 217.223C282.49 211.25 290.947 153.841 291.808 147.829L258.915 144.621C259.284 151.598 261.262 192.022 257.962 195.122C257.86 195.225 257.735 195.306 257.597 195.359C257.459 195.411 257.311 195.435 257.162 195.427C253.534 195.171 227.878 192.563 224.137 192.179L220.601 207.029Z" fill="#303C42"/>
<path d="M283.156 153.114L318.785 249.875L338.814 239.562L308.115 147.396L283.156 153.114Z" fill="#303C42"/>
<path d="M318.775 250.366C318.714 250.377 318.652 250.377 318.591 250.366C318.52 250.341 318.456 250.302 318.403 250.251C318.35 250.2 318.309 250.139 318.283 250.071L282.665 153.31C282.637 153.246 282.622 153.177 282.622 153.108C282.622 153.039 282.637 152.97 282.665 152.906C282.74 152.786 282.861 152.698 283.003 152.66L307.951 146.943C308.078 146.913 308.211 146.931 308.324 146.993C308.437 147.056 308.52 147.158 308.556 147.278L339.306 239.443C339.342 239.552 339.337 239.67 339.292 239.776C339.247 239.882 339.165 239.969 339.06 240.024L319.021 250.336C318.944 250.367 318.859 250.377 318.775 250.366ZM283.823 153.467L319.052 249.175L338.189 239.335L307.767 147.976L283.823 153.467Z" fill="#303C42"/>
<path d="M312.441 108.891L324.915 104.954C324.341 104.147 318.047 85.5884 310.565 82.0557C304.036 77.9031 291.971 78.6903 278.318 79.6055C273.938 79.8126 269.619 80.6758 265.516 82.164C250.141 88.0682 247.927 107.503 247.927 107.503L262.123 112.256C262.123 112.256 259.827 138.697 257.665 152.523C257.665 152.523 274.967 158.821 313.64 152.671C313.65 152.602 312.512 112.797 312.441 108.891Z" fill="#FF5100"/>
<path d="M296.235 87.0742L282.388 117.412L278.995 88.1468L296.235 87.0742Z" fill="#303C42"/>
<path d="M282.388 117.905H282.316C282.204 117.888 282.102 117.836 282.024 117.758C281.946 117.68 281.898 117.579 281.885 117.472L278.493 88.1963C278.482 88.0658 278.522 87.9361 278.605 87.8322C278.65 87.7809 278.704 87.7388 278.766 87.7083C278.827 87.6779 278.895 87.6598 278.964 87.6551L296.225 86.5825C296.312 86.5789 296.399 86.5959 296.477 86.6319C296.556 86.668 296.624 86.7219 296.676 86.7891C296.727 86.8584 296.759 86.9393 296.768 87.0238C296.777 87.1082 296.763 87.1935 296.727 87.2713L282.9 117.609C282.856 117.703 282.784 117.781 282.692 117.834C282.6 117.887 282.494 117.912 282.388 117.905ZM279.569 88.6391L282.644 115.582L295.436 87.6551L279.569 88.6391Z" fill="#303C42"/>
<path d="M303.472 48.9038C301.754 47.029 299.502 45.6779 296.994 45.0169C294.486 44.3559 291.832 44.4141 289.358 45.1841C284.971 46.5421 280.973 48.8939 276.576 50.242C272.179 51.5902 266.992 51.7673 263.354 49.0514C263.376 50.0664 263.624 51.0652 264.082 51.9806C264.539 52.8961 265.195 53.7071 266.005 54.3594C266.816 55.0117 267.762 55.4901 268.781 55.7627C269.8 56.0352 270.867 56.0955 271.912 55.9396C271.748 56.9237 270.354 57.0713 269.36 56.8646C268.366 56.658 267.095 56.4218 266.48 57.2091C266.318 57.4712 266.221 57.7658 266.198 58.0698C266.175 58.3738 266.226 58.6787 266.347 58.9607C267.095 61.3322 269.35 62.8968 271.472 64.3335C274.547 66.3705 277.622 66.7936 280.758 68.2008C284.079 69.7064 286.56 71.7925 290.373 72.3043C293.84 72.7524 297.356 71.9226 300.213 69.9819C302.006 68.7617 305.655 67.0987 304.938 64.4811C304.589 63.2412 306.865 60.8795 306.988 59.0591C307.166 57.2249 306.946 55.3752 306.34 53.6271C305.735 51.879 304.758 50.2706 303.472 48.9038Z" fill="white"/>
<path d="M292.125 72.8946C291.501 72.8964 290.877 72.8536 290.26 72.7666C287.805 72.3301 285.467 71.4268 283.382 70.1097C282.47 69.598 281.516 69.1257 280.491 68.614C279.363 68.1205 278.207 67.6901 277.027 67.3249C274.943 66.7248 272.959 65.8435 271.133 64.7073C268.765 63.1329 266.582 61.519 265.813 59.0786C265.667 58.7224 265.61 58.338 265.647 57.9566C265.684 57.5753 265.815 57.2078 266.029 56.8842C266.324 56.5625 266.706 56.3253 267.133 56.1985C267.56 56.0718 268.015 56.0605 268.448 56.1659C267.436 55.8466 266.497 55.3457 265.68 54.6898C264.791 54.0066 264.073 53.1394 263.582 52.1528C263.09 51.1663 262.837 50.0858 262.841 48.9922C262.841 48.9014 262.869 48.8126 262.919 48.736C262.97 48.6594 263.042 48.5981 263.128 48.5592C263.214 48.5219 263.309 48.5077 263.403 48.5181C263.497 48.5285 263.586 48.5631 263.661 48.6183C267.976 51.8361 274.024 50.4683 276.422 49.7302C278.594 49.0495 280.719 48.241 282.787 47.3095C284.87 46.3388 287.013 45.4909 289.204 44.7707C291.77 43.9687 294.524 43.9057 297.127 44.5894C299.73 45.2732 302.068 46.6738 303.851 48.6183C305.183 50.031 306.194 51.6936 306.822 53.5008C307.45 55.3081 307.681 57.2207 307.5 59.118C307.3 60.1679 306.889 61.1705 306.291 62.0701C305.809 62.9164 305.266 63.8807 305.399 64.3432C306.096 66.8821 303.41 68.5451 301.453 69.7555C301.104 69.972 300.766 70.1786 300.479 70.3754C298.028 72.0155 295.113 72.8948 292.125 72.8946ZM267.853 57.1499C267.676 57.1307 267.496 57.1518 267.329 57.2117C267.161 57.2715 267.011 57.3683 266.89 57.4943C266.785 57.6984 266.727 57.9213 266.718 58.1484C266.709 58.3755 266.75 58.6019 266.838 58.8129C267.505 60.9483 269.544 62.444 271.758 63.9201C273.507 65.0061 275.409 65.8446 277.406 66.4097C278.618 66.7965 279.809 67.2432 280.973 67.748C281.998 68.2204 283.023 68.7321 283.935 69.2733C285.906 70.5295 288.119 71.3929 290.444 71.8121C293.781 72.2295 297.16 71.4326 299.915 69.5783C300.212 69.3717 300.561 69.1552 300.94 68.9289C302.734 67.8169 304.958 66.4393 304.446 64.5991C304.22 63.7528 304.774 62.7589 305.471 61.647C305.966 60.8323 306.307 59.9392 306.475 59.0097C306.641 57.2513 306.427 55.4788 305.845 53.8039C305.263 52.1289 304.326 50.5878 303.093 49.2776C301.44 47.4758 299.275 46.1775 296.864 45.5428C294.452 44.9081 291.9 44.9646 289.522 45.7055C287.368 46.4119 285.263 47.2467 283.218 48.205C281.112 49.1781 278.949 50.0324 276.74 50.7635C271.799 52.2789 267.197 52.0132 263.927 50.0746C264.206 51.6239 265.062 53.023 266.336 54.0108C267.074 54.6371 267.949 55.0952 268.897 55.3508C269.845 55.6064 270.84 55.6529 271.81 55.4869C271.89 55.4721 271.973 55.476 272.051 55.4982C272.13 55.5205 272.202 55.5605 272.261 55.6148C272.324 55.6674 272.372 55.7352 272.399 55.8113C272.426 55.8874 272.431 55.969 272.414 56.0478C272.379 56.248 272.301 56.439 272.184 56.6085C272.068 56.7779 271.916 56.9221 271.738 57.0318C270.981 57.4399 270.089 57.5526 269.247 57.3467C268.79 57.2389 268.323 57.173 267.853 57.1499Z" fill="#303C42"/>
<path d="M281.486 78.7992L279.005 88.1476C279.005 88.1476 281.762 94.2486 288.343 93.0678C294.923 91.887 296.235 87.1636 296.246 87.1636L297.353 77.0968L298.039 70.9072C298.212 70.2714 298.291 69.6156 298.275 68.9588C297.865 67.5516 296.03 66.7841 295.497 65.3277C294.431 62.4104 294.574 59.2113 295.897 56.3926C293.15 58.5181 289.993 60.683 286.467 60.4567C287.179 59.7405 287.82 58.9631 288.384 58.1343L281.486 60.496C280.59 60.7792 279.671 60.9899 278.739 61.1258C277.714 61.3128 278.113 60.6928 277.334 61.8934C275.407 64.8455 275.141 69.9428 275.53 73.3378C276.084 78.1596 281.486 78.7992 281.486 78.7992Z" fill="white"/>
<path d="M286.652 93.6783C281.025 93.6783 278.554 88.394 278.534 88.3448C278.493 88.2401 278.493 88.1248 278.534 88.0201L280.881 79.1637C279.415 78.8193 275.531 77.5204 275.049 73.2595C274.649 69.8055 274.916 64.6491 276.935 61.5002L276.986 61.4116C277.468 60.6736 277.622 60.4276 278.196 60.5161C278.354 60.5529 278.519 60.5529 278.677 60.5161C279.582 60.3838 280.473 60.1798 281.342 59.906L288.241 57.5345C288.342 57.5009 288.453 57.4991 288.556 57.5291C288.659 57.5591 288.749 57.6195 288.815 57.7018C288.875 57.7856 288.907 57.8852 288.907 57.9871C288.907 58.0891 288.875 58.1886 288.815 58.2725C288.445 58.8115 288.044 59.3305 287.615 59.8273C290.547 59.5715 293.232 57.6821 295.549 55.8911C295.639 55.8225 295.751 55.7852 295.867 55.7852C295.982 55.7852 296.094 55.8225 296.184 55.8911C296.278 55.9564 296.345 56.0514 296.373 56.1594C296.402 56.2674 296.389 56.3815 296.338 56.4816C295.073 59.19 294.937 62.2609 295.959 65.0624C296.252 65.7067 296.693 66.2787 297.25 66.7353C297.928 67.2812 298.447 67.9864 298.757 68.7821C298.834 69.3087 298.796 69.845 298.644 70.3565C298.644 70.5534 298.573 70.7305 298.552 70.8682L296.758 87.1246C296.758 87.1246 295.426 92.2121 288.456 93.511C287.861 93.6225 287.257 93.6785 286.652 93.6783ZM279.538 88.0988C280.01 89.014 282.613 93.5898 288.241 92.5467C294.442 91.3953 295.733 86.9967 295.744 86.9475L297.527 70.7698C297.527 70.6026 297.589 70.3959 297.63 70.1696C297.736 69.805 297.781 69.4261 297.763 69.0478C297.495 68.4169 297.065 67.8616 296.512 67.4339C295.857 66.8951 295.335 66.2227 294.985 65.4659C294.09 62.9967 294.015 60.3219 294.77 57.81C292.33 59.5714 289.532 61.1164 286.416 60.9196C286.319 60.9139 286.225 60.881 286.147 60.8251C286.069 60.7692 286.009 60.6926 285.975 60.6047C285.94 60.5173 285.931 60.422 285.949 60.3298C285.967 60.2377 286.012 60.1522 286.078 60.0832C286.396 59.7683 286.703 59.4435 286.99 59.0991L281.65 60.9294C280.756 61.2203 279.836 61.4343 278.903 61.5691C278.638 61.6094 278.368 61.6094 278.103 61.5691L277.827 61.9922L277.775 62.0709C276.012 64.8262 275.633 69.648 276.033 73.2103C276.535 77.6286 281.342 78.2978 281.547 78.3174C281.62 78.3275 281.689 78.3519 281.751 78.3892C281.812 78.4265 281.865 78.4758 281.906 78.5339C281.947 78.5905 281.975 78.6551 281.987 78.7231C282 78.7911 281.997 78.8609 281.978 78.9275L279.538 88.0988Z" fill="#303C42"/>
<path d="M280.174 83.7197C281.283 83.9793 282.442 83.9751 283.549 83.7076C284.657 83.4401 285.679 82.9173 286.529 82.1846C289.522 79.6557 289.409 77.4219 289.409 77.4219C287.05 78.8403 284.213 79.3336 281.486 78.7995L280.174 83.7197Z" fill="#303C42"/>
<path d="M281.875 84.4174C281.27 84.4259 280.666 84.3531 280.081 84.2009C279.955 84.1643 279.849 84.0825 279.784 83.9726C279.719 83.8627 279.701 83.733 279.733 83.6105L281.035 78.6903C281.051 78.6275 281.081 78.5686 281.121 78.5168C281.162 78.465 281.213 78.4214 281.271 78.3885C281.329 78.3556 281.393 78.334 281.46 78.325C281.527 78.316 281.595 78.3197 281.66 78.336C284.25 78.816 286.934 78.338 289.173 76.9977C289.248 76.9479 289.335 76.9184 289.425 76.9123C289.516 76.9062 289.606 76.9238 289.687 76.9632C289.768 77.0025 289.837 77.0622 289.885 77.1359C289.933 77.2095 289.96 77.2944 289.962 77.3815C289.962 77.4799 290.055 79.881 286.887 82.5379C285.516 83.737 283.73 84.4065 281.875 84.4174ZM280.85 83.3645C281.811 83.5083 282.793 83.4452 283.726 83.1797C284.658 82.9142 285.518 82.4529 286.242 81.8294C287.407 80.9253 288.284 79.7251 288.773 78.3655C286.664 79.4218 284.253 79.7913 281.906 79.4185L280.85 83.3645Z" fill="#303C42"/>
<path d="M285.565 64.0977C285.565 64.0977 281.752 68.703 282.49 69.6181C283.228 70.5333 285.565 70.1397 285.565 70.1397" fill="white"/>
<path d="M284.469 70.7196C284.036 70.7594 283.599 70.7107 283.188 70.5767C282.776 70.4427 282.399 70.2265 282.08 69.9422C281.271 68.9581 283.31 66.006 285.155 63.8116C285.196 63.7603 285.248 63.7174 285.306 63.6856C285.365 63.6537 285.43 63.6335 285.497 63.6262C285.564 63.6188 285.632 63.6245 285.696 63.6428C285.761 63.6612 285.821 63.6918 285.873 63.7329C285.979 63.8141 286.046 63.932 286.062 64.0611C286.077 64.1901 286.039 64.3197 285.955 64.4217C284.182 66.5669 282.747 68.8794 282.88 69.3419C283.269 69.8241 284.766 69.7651 285.412 69.6568C285.546 69.6367 285.683 69.6675 285.794 69.7428C285.905 69.8182 285.981 69.932 286.006 70.0603C286.018 70.1243 286.016 70.1899 286.002 70.2533C285.987 70.3167 285.959 70.3767 285.92 70.4297C285.881 70.4828 285.831 70.5279 285.774 70.5625C285.717 70.597 285.653 70.6203 285.586 70.631C285.216 70.6845 284.843 70.7141 284.469 70.7196Z" fill="#303C42"/>
<path d="M289.686 65.2151C290.15 65.2133 290.524 64.7007 290.522 64.0703C290.519 63.4398 290.14 62.9303 289.676 62.9322C289.212 62.934 288.838 63.4466 288.841 64.077C288.843 64.7074 289.222 65.217 289.686 65.2151Z" fill="#303C42"/>
<path d="M282.535 63.7321C282.726 63.1289 282.521 62.5349 282.077 62.4054C281.633 62.276 281.118 62.66 280.927 63.2632C280.736 63.8665 280.942 64.4604 281.386 64.5899C281.83 64.7194 282.345 64.3353 282.535 63.7321Z" fill="#303C42"/>
<path d="M284.837 74.3704C282.292 74.2627 279.836 73.4379 277.775 71.9989C277.717 71.9612 277.668 71.9125 277.63 71.8558C277.593 71.7992 277.568 71.7357 277.557 71.6694C277.546 71.6031 277.549 71.5353 277.566 71.4702C277.583 71.4051 277.614 71.3441 277.657 71.2909C277.7 71.2378 277.754 71.1936 277.815 71.1611C277.876 71.1286 277.944 71.1084 278.013 71.1019C278.083 71.0954 278.153 71.1027 278.22 71.1232C278.286 71.1438 278.348 71.1772 278.4 71.2215C278.636 71.3986 284.233 75.4725 289.071 72.0284C289.124 71.9815 289.186 71.9459 289.255 71.9238C289.323 71.9018 289.395 71.8938 289.467 71.9004C289.538 71.9069 289.608 71.9279 289.671 71.962C289.733 71.9961 289.788 72.0425 289.83 72.0981C289.873 72.1538 289.903 72.2174 289.919 72.285C289.934 72.3525 289.934 72.4224 289.92 72.4901C289.905 72.5578 289.876 72.6218 289.834 72.6779C289.792 72.734 289.738 72.7809 289.675 72.8156C288.284 73.8292 286.584 74.3755 284.837 74.3704Z" fill="#303C42"/>
<path d="M295.446 68.1119C295.836 67.7459 296.298 67.4582 296.805 67.2656C297.312 67.0729 297.853 66.9793 298.398 66.9901C298.945 67.0138 299.474 67.1878 299.921 67.4913C300.368 67.7948 300.714 68.2151 300.92 68.7023C301.064 69.2775 301.052 69.8783 300.888 70.4481C300.723 71.018 300.409 71.5381 299.977 71.9595C299.359 72.6375 298.6 73.1839 297.75 73.5635C296.899 73.9431 295.974 74.1476 295.036 74.1638" fill="white"/>
<path d="M295.036 74.6757C294.9 74.6757 294.77 74.6239 294.674 74.5316C294.578 74.4393 294.524 74.3142 294.524 74.1837C294.522 74.1196 294.534 74.0558 294.559 73.9962C294.584 73.9365 294.62 73.8822 294.667 73.8364C294.714 73.7906 294.77 73.7542 294.831 73.7293C294.893 73.7045 294.959 73.6917 295.026 73.6917C295.893 73.68 296.747 73.4925 297.534 73.1414C298.32 72.7904 299.02 72.2837 299.587 71.6547C299.959 71.2975 300.231 70.8558 300.378 70.3707C300.525 69.8857 300.542 69.3728 300.428 68.8797C300.258 68.4865 299.975 68.1479 299.612 67.9038C299.249 67.6597 298.821 67.5204 298.378 67.5021C297.902 67.4909 297.429 67.5723 296.987 67.7415C296.544 67.9106 296.142 68.1639 295.805 68.4861C295.708 68.5769 295.577 68.6277 295.441 68.6277C295.305 68.6277 295.175 68.5769 295.077 68.4861C295.029 68.4404 294.991 68.386 294.965 68.326C294.939 68.266 294.926 68.2017 294.926 68.1368C294.926 68.0718 294.939 68.0075 294.965 67.9476C294.991 67.8876 295.029 67.8332 295.077 67.7874C295.52 67.3777 296.044 67.0576 296.618 66.8463C297.192 66.6349 297.804 66.5367 298.419 66.5574C299.064 66.5901 299.685 66.7993 300.21 67.1602C300.735 67.5212 301.141 68.0188 301.381 68.5944C301.562 69.2511 301.562 69.9415 301.383 70.5985C301.203 71.2555 300.849 71.8566 300.356 72.3436C299.69 73.0746 298.871 73.6634 297.953 74.0719C297.035 74.4804 296.038 74.6995 295.026 74.7151L295.036 74.6757Z" fill="#303C42"/>
<path d="M160.023 164.685C160.023 164.685 171.657 210.542 163.98 213.73C156.302 216.918 112.617 223.049 112.617 223.049L110.639 209.823C110.639 209.823 144.248 202.758 146.083 201.154C147.918 199.55 134.808 160.582 134.501 160.267C134.193 159.952 160.023 164.685 160.023 164.685Z" fill="#303C42"/>
<path d="M112.617 223.541C112.51 223.538 112.406 223.504 112.32 223.442C112.265 223.404 112.219 223.356 112.183 223.3C112.148 223.244 112.125 223.182 112.115 223.118L110.126 209.892C110.108 209.769 110.139 209.643 110.213 209.541C110.287 209.439 110.399 209.367 110.526 209.341C123.472 206.625 144.474 201.892 145.735 200.79C146.76 198.654 135.198 162.796 134.07 160.523C134.022 160.447 133.997 160.36 133.997 160.272C133.997 160.183 134.022 160.097 134.07 160.021C134.306 159.588 134.368 159.47 160.136 164.203C160.232 164.22 160.322 164.263 160.393 164.328C160.464 164.393 160.513 164.476 160.536 164.567C161.745 169.301 172.057 210.916 164.205 214.183C156.549 217.371 114.503 223.285 112.72 223.531L112.617 223.541ZM111.213 210.207L113.058 222.468C117.957 221.77 156.692 216.21 163.775 213.258C165.435 212.569 167.711 208.387 164.38 188.076C162.627 177.439 160.075 166.998 159.603 165.089C150.942 163.505 138.509 161.271 135.29 160.808C137.525 166.398 146.883 195.673 146.77 200.465C146.789 200.651 146.768 200.839 146.708 201.017C146.648 201.194 146.551 201.358 146.422 201.498C144.607 203.112 116.307 209.135 111.213 210.207Z" fill="#303C42"/>
<path d="M106.364 163.112L142.742 245.604L158.414 242.701L134.603 155.623L106.364 163.112Z" fill="#303C42"/>
<path d="M142.742 246.087C142.642 246.086 142.544 246.057 142.461 246.005C142.377 245.953 142.311 245.879 142.27 245.791L105.893 163.289C105.866 163.224 105.853 163.155 105.855 163.084C105.858 163.014 105.876 162.946 105.907 162.883C105.939 162.82 105.985 162.764 106.04 162.719C106.096 162.673 106.161 162.64 106.231 162.62L134.46 155.141C134.523 155.115 134.591 155.102 134.659 155.102C134.728 155.102 134.796 155.115 134.859 155.141C134.974 155.208 135.058 155.313 135.095 155.437L158.875 242.583C158.896 242.648 158.901 242.716 158.89 242.782C158.88 242.849 158.854 242.912 158.814 242.967C158.777 243.026 158.728 243.076 158.67 243.115C158.611 243.154 158.545 243.181 158.475 243.193L142.844 246.087H142.742ZM107.072 163.427L143.049 245.034L157.778 242.308L134.203 156.224L107.072 163.427Z" fill="#303C42"/>
<path d="M119.218 54.9557C116.599 53.1839 113.456 52.266 110.253 52.3368C107.05 52.4077 103.955 53.4636 101.424 55.3493C99.5001 56.7941 98.0394 58.73 97.2091 60.9352C96.3788 63.1403 96.2125 65.5254 96.7293 67.8171C97.3882 70.0673 98.7708 72.0601 100.68 73.511C102.589 74.9619 104.926 75.7967 107.359 75.8961C112.063 76.1224 117.014 72.2552 119.515 68.7126C122.539 64.432 124.568 58.4983 119.218 54.9557Z" fill="white"/>
<path d="M107.759 76.3984H107.328C104.788 76.3014 102.345 75.4339 100.35 73.9204C98.3558 72.407 96.9123 70.3255 96.2272 67.975C95.6969 65.59 95.8728 63.11 96.7351 60.8161C97.5974 58.5221 99.1116 56.5058 101.106 54.9955C103.726 53.0295 106.937 51.9281 110.262 51.8554C113.586 51.7827 116.846 52.7426 119.556 54.5921C126.075 58.8727 121.975 66.0857 119.925 68.9591C117.394 72.6099 112.535 76.3984 107.759 76.3984ZM110.495 52.7814C107.314 52.7865 104.228 53.8272 101.742 55.7336C99.9014 57.1253 98.5029 58.9833 97.7041 61.0977C96.9054 63.2121 96.7382 65.4987 97.2215 67.6995C97.8455 69.8516 99.1657 71.7576 100.991 73.1425C102.817 74.5274 105.054 75.3195 107.379 75.4046C111.684 75.5915 116.543 72.0588 119.095 68.4375C120.971 65.7708 124.712 59.1777 118.931 55.3695C116.453 53.7195 113.511 52.8308 110.495 52.8208V52.7814Z" fill="#303C42"/>
<path d="M109.757 62.4532C108.061 63.8833 106.774 65.707 106.021 67.75C105.267 69.7931 105.071 71.9876 105.452 74.1239C105.594 75.3083 106.167 76.4064 107.072 77.2237C108.886 78.6407 111.633 77.8141 113.58 76.5742C116.726 74.4592 119.318 71.6738 121.155 68.4362C122.518 66.1532 124.579 61.0067 120.889 59.7372C117.199 58.4678 112.463 60.2096 109.757 62.4532Z" fill="#303C42"/>
<path d="M109.388 78.4537C108.431 78.4768 107.495 78.1773 106.744 77.6074C105.733 76.7208 105.095 75.5097 104.95 74.2026C104.549 71.982 104.75 69.6998 105.532 67.5751C106.315 65.4504 107.653 63.5545 109.419 62.0694C112.238 59.7372 117.281 57.9659 121.063 59.2649C121.553 59.4165 122.001 59.6722 122.373 60.0129C122.746 60.3537 123.034 60.7707 123.215 61.2329C124.24 64.0276 121.883 68.1803 121.596 68.6428C119.726 71.9498 117.08 74.7934 113.867 76.9481C112.552 77.8458 110.999 78.3677 109.388 78.4537ZM118.265 59.8258C115.26 59.9223 112.374 60.9785 110.065 62.8271C108.441 64.2035 107.211 65.9564 106.494 67.9184C105.776 69.8805 105.594 71.9864 105.965 74.0353C106.081 75.1041 106.59 76.0982 107.4 76.8398C109.009 78.0896 111.5 77.3023 113.314 76.1609C116.395 74.0924 118.933 71.3634 120.725 68.1901C121.637 66.655 123 63.5454 122.262 61.6167C122.138 61.283 121.935 60.9819 121.668 60.7375C121.401 60.4931 121.078 60.3122 120.725 60.2095C119.934 59.9448 119.102 59.8149 118.265 59.8258Z" fill="#303C42"/>
<path d="M128.72 90.3812C127.912 91.1328 127.06 91.8392 126.167 92.4969C124.4 93.4903 122.4 94.0375 120.353 94.0874C118.306 94.1373 116.279 93.6883 114.462 92.7823C105.801 88.5017 106.006 78.7794 107.799 70.8677C108.527 67.6499 110.977 60.9387 115.497 64.2943C114.175 63.3103 119.597 60.0531 120.427 59.748C126.188 57.4946 132.307 60.7321 135.679 65.2291C137.674 67.8002 139.365 70.5758 140.722 73.5049C142.055 76.7326 140.599 81.1608 138.672 83.9063C137.184 86.0338 135.122 87.7341 132.707 88.8265C131.59 89.3283 130.155 89.4562 129.119 90.0762L128.72 90.3812Z" fill="white"/>
<path d="M120.14 94.5439C118.087 94.5461 116.063 94.0772 114.236 93.1761C107.061 89.6335 104.724 82.0859 107.297 70.7301C107.646 69.195 109.009 64.0977 112.033 63.0349C112.506 62.8772 113.01 62.8202 113.509 62.8678C114.008 62.9154 114.491 63.0664 114.923 63.3104C115.753 61.6179 119.935 59.3743 120.233 59.2562C126.454 56.8256 132.82 60.4764 136.1 64.9046C138.133 67.5006 139.852 70.31 141.225 73.2788C142.629 76.6639 141.143 81.279 139.175 84.1032C137.645 86.3069 135.519 88.0691 133.025 89.2006C132.488 89.4262 131.933 89.6072 131.364 89.7418C130.715 89.892 130.088 90.1202 129.499 90.4208C129.365 90.5093 129.232 90.5979 129.109 90.6963C128.75 90.9544 128.407 91.2338 128.084 91.5327C127.594 92.0228 127.051 92.4615 126.465 92.8415C124.562 93.9624 122.372 94.552 120.14 94.5439ZM113.14 63.832C112.881 63.8305 112.624 63.8738 112.381 63.9599C110.331 64.6684 108.927 68.1618 108.281 70.9368C105.821 81.7612 107.974 88.9939 114.677 92.3003C116.415 93.1684 118.354 93.6003 120.313 93.5555C122.272 93.5108 124.187 92.991 125.88 92.0444C126.403 91.6994 126.891 91.3073 127.336 90.8734C127.66 90.5513 128.003 90.2458 128.361 89.9583C128.515 89.8412 128.676 89.7328 128.843 89.6335C129.508 89.2672 130.226 88.9986 130.975 88.8365C131.49 88.7128 131.994 88.5482 132.481 88.3444C134.815 87.2906 136.806 85.6477 138.242 83.5915C140.066 80.9445 141.46 76.7032 140.2 73.6429C138.888 70.7664 137.244 68.04 135.3 65.5147C132.225 61.3916 126.352 57.9769 120.653 60.2107C119.628 60.6043 115.784 63.1628 115.835 63.9009C115.888 63.9396 115.932 63.9879 115.965 64.043C115.998 64.0981 116.019 64.159 116.028 64.222C116.036 64.2851 116.032 64.3491 116.015 64.4105C115.998 64.4719 115.968 64.5294 115.928 64.5798C115.887 64.6302 115.837 64.6725 115.779 64.7042C115.722 64.736 115.659 64.7565 115.593 64.7648C115.527 64.773 115.461 64.7687 115.397 64.7522C115.333 64.7356 115.273 64.7072 115.22 64.6684C114.639 64.1875 113.906 63.907 113.14 63.8713V63.832Z" fill="#303C42"/>
<path d="M135.167 71.733C135.167 71.733 138.56 78.828 137.74 84.5256C137.551 86.1048 136.887 87.5971 135.829 88.8203C134.772 90.0435 133.366 90.9447 131.784 91.4138L132.676 101.254C132.676 101.254 133.189 106.293 126.68 106.056C124.791 105.986 122.953 105.454 121.338 104.51C119.724 103.566 118.387 102.242 117.455 100.664L115.108 82.6165C115.108 82.6165 122.037 77.9817 120.807 71.5264C120.807 71.5264 129.837 74.8623 135.167 71.733Z" fill="white"/>
<path d="M127.1 106.558H126.639C124.662 106.488 122.738 105.93 121.05 104.939C119.363 103.948 117.97 102.557 117.004 100.9C117 100.848 117 100.795 117.004 100.743L114.636 82.6756C114.621 82.5868 114.634 82.4957 114.672 82.4136C114.71 82.3314 114.773 82.2618 114.851 82.2131C114.913 82.2131 121.483 77.6767 120.335 71.615C120.322 71.5286 120.33 71.4403 120.361 71.3579C120.391 71.2755 120.442 71.2016 120.509 71.1427C120.581 71.0895 120.666 71.0545 120.755 71.0407C120.845 71.027 120.937 71.035 121.022 71.0639C121.114 71.0639 129.888 74.2424 134.931 71.3099C134.996 71.2834 135.066 71.2697 135.136 71.2697C135.207 71.2697 135.276 71.2834 135.341 71.3099C135.411 71.3295 135.476 71.3634 135.531 71.4092C135.585 71.4551 135.629 71.5119 135.659 71.5756C135.802 71.8708 139.113 78.8674 138.283 84.624C138.078 86.2283 137.417 87.7475 136.372 89.0147C135.327 90.2819 133.938 91.2482 132.358 91.8075L133.219 101.274C133.263 101.948 133.167 102.623 132.939 103.261C132.71 103.899 132.353 104.488 131.887 104.994C131.247 105.561 130.491 105.994 129.666 106.263C128.842 106.533 127.968 106.633 127.1 106.558ZM117.957 100.526C118.846 102.009 120.113 103.25 121.639 104.133C123.165 105.016 124.899 105.512 126.68 105.574C127.467 105.675 128.268 105.611 129.027 105.387C129.786 105.163 130.485 104.784 131.077 104.275C131.808 103.458 132.176 102.398 132.102 101.323L131.21 91.4828C131.202 91.3659 131.236 91.2497 131.307 91.1544C131.378 91.0592 131.482 90.9908 131.6 90.9612C133.089 90.5218 134.41 89.6718 135.4 88.517C136.389 87.3623 137.003 85.9538 137.166 84.4666C137.842 79.8317 135.587 74.1341 134.859 72.4514C130.267 74.7147 123.656 72.9926 121.37 72.2841C121.903 77.9129 116.819 81.9769 115.589 82.8724L117.957 100.526Z" fill="#303C42"/>
<path d="M118.552 81.0417C118.552 81.0417 114.749 74.4683 111.571 79.0736C108.394 83.679 114.031 87.93 117.168 87.3002" fill="white"/>
<path d="M116.471 87.8713C115.41 87.8007 114.38 87.4979 113.46 86.9862C112.539 86.4746 111.753 85.7675 111.162 84.9191C110.495 84.0252 110.136 82.9533 110.136 81.8538C110.136 80.7544 110.495 79.6824 111.162 78.7885C111.454 78.2431 111.894 77.7829 112.435 77.4558C112.976 77.1287 113.598 76.9467 114.237 76.9287C116.83 77.0271 118.941 80.6287 119.034 80.7861C119.066 80.843 119.086 80.9054 119.093 80.9698C119.101 81.0342 119.095 81.0994 119.075 81.1615C119.056 81.2236 119.025 81.2815 118.982 81.332C118.94 81.3824 118.888 81.4243 118.829 81.4553C118.769 81.4863 118.704 81.5058 118.637 81.5127C118.57 81.5196 118.502 81.5138 118.438 81.4955C118.373 81.4772 118.313 81.4469 118.26 81.4062C118.208 81.3655 118.164 81.3154 118.132 81.2585C117.609 80.3532 115.866 77.9718 114.196 77.9128C113.738 77.9474 113.297 78.0965 112.918 78.345C112.538 78.5936 112.233 78.9331 112.033 79.3298C111.479 80.0602 111.18 80.9404 111.18 81.844C111.18 82.7476 111.479 83.6278 112.033 84.3582C113.253 86.0508 115.508 87.1529 117.086 86.8183C117.222 86.7896 117.364 86.8139 117.482 86.8859C117.599 86.9579 117.681 87.0716 117.711 87.2021C117.741 87.3326 117.716 87.4691 117.641 87.5817C117.566 87.6943 117.448 87.7737 117.312 87.8024C117.035 87.8573 116.753 87.8804 116.471 87.8713Z" fill="#303C42"/>
<path d="M131.836 85.3814C131.358 85.38 130.882 85.3405 130.411 85.2633C130.344 85.2523 130.279 85.2287 130.222 85.1939C130.164 85.159 130.114 85.1135 130.074 85.0601C130.035 85.0066 130.007 84.9462 129.991 84.8823C129.976 84.8184 129.974 84.7523 129.986 84.6877C129.997 84.6231 130.022 84.5612 130.058 84.5057C130.094 84.4503 130.142 84.4022 130.197 84.3643C130.253 84.3263 130.316 84.2993 130.383 84.2847C130.449 84.2702 130.518 84.2683 130.585 84.2793C131.539 84.4615 132.526 84.397 133.445 84.0923C133.445 83.5216 131.918 81.4059 130.083 79.4477C130.035 79.4028 129.997 79.3492 129.972 79.29C129.946 79.2309 129.932 79.1674 129.932 79.1032C129.932 79.0391 129.946 78.9756 129.972 78.9164C129.997 78.8573 130.035 78.8037 130.083 78.7588C130.131 78.7127 130.187 78.6761 130.25 78.6511C130.312 78.6261 130.379 78.6133 130.447 78.6133C130.515 78.6133 130.582 78.6261 130.644 78.6511C130.707 78.6761 130.763 78.7127 130.811 78.7588C131.703 79.7429 134.603 82.9213 134.409 84.2399C134.396 84.3657 134.353 84.487 134.284 84.5945C134.214 84.702 134.12 84.7928 134.009 84.8599C133.346 85.2156 132.596 85.3956 131.836 85.3814Z" fill="#303C42"/>
<path d="M129.663 88.6389C129.32 88.6411 128.977 88.6181 128.638 88.57C126.796 88.3115 125.12 87.407 123.933 86.0312C123.866 85.9176 123.85 85.7834 123.886 85.658C123.923 85.5325 124.009 85.4261 124.128 85.362C124.246 85.3009 124.385 85.2862 124.515 85.321C124.645 85.3559 124.756 85.4376 124.825 85.549C125.893 86.6822 127.346 87.4144 128.925 87.6155C130.975 87.8418 132.902 87.0546 134.777 85.303C134.824 85.2518 134.88 85.2104 134.944 85.1813C135.008 85.1523 135.077 85.1362 135.148 85.134C135.219 85.1319 135.289 85.1438 135.354 85.169C135.42 85.1942 135.479 85.2321 135.529 85.2804C135.579 85.3286 135.617 85.3862 135.643 85.4495C135.668 85.5128 135.679 85.5805 135.676 85.6482C135.673 85.7159 135.655 85.7823 135.624 85.8431C135.593 85.9039 135.549 85.9579 135.495 86.0017C133.989 87.5847 131.893 88.5326 129.663 88.6389Z" fill="#303C42"/>
<path d="M131.785 91.4141C131.785 91.4141 126.362 92.5359 123.144 92.0242C123.144 92.0242 127.244 99.5029 132.492 99.0207L131.785 91.4141Z" fill="#303C42"/>
<path d="M132.01 99.533C126.782 99.533 122.857 92.566 122.693 92.2609C122.643 92.1823 122.616 92.0921 122.616 92.0001C122.616 91.9082 122.643 91.8179 122.693 91.7394C122.75 91.6664 122.827 91.6096 122.916 91.575C123.004 91.5404 123.1 91.5292 123.195 91.5426C126.27 92.0247 131.59 90.9423 131.641 90.9325C131.713 90.9171 131.789 90.917 131.861 90.9323C131.934 90.9476 132.002 90.9779 132.061 91.021C132.119 91.0612 132.167 91.1127 132.202 91.172C132.238 91.2314 132.259 91.2973 132.266 91.3654L132.973 98.9721C132.98 99.0367 132.974 99.1021 132.955 99.1644C132.935 99.2267 132.903 99.2847 132.86 99.335C132.817 99.3854 132.765 99.427 132.705 99.4576C132.645 99.4882 132.579 99.5071 132.512 99.5133L132.01 99.533ZM124.107 92.6447C125.286 94.4356 128.351 98.5489 131.938 98.5489L131.323 92.0051C128.949 92.4656 126.529 92.6735 124.107 92.625V92.6447Z" fill="#303C42"/>
<path d="M126.983 79.7442C127.426 79.6836 127.696 79.0326 127.586 78.2901C127.475 77.5476 127.027 76.9948 126.584 77.0554C126.142 77.1159 125.872 77.7669 125.982 78.5094C126.092 79.2519 126.541 79.8047 126.983 79.7442Z" fill="#303C42"/>
<path d="M134.376 78.7236C134.819 78.6631 135.089 78.0121 134.978 77.2696C134.868 76.5271 134.42 75.9743 133.977 76.0349C133.534 76.0954 133.265 76.7464 133.375 77.4889C133.485 78.2314 133.934 78.7842 134.376 78.7236Z" fill="#303C42"/>
<path d="M306.895 108.576L223.01 66.4394C222.211 66.0378 221.312 65.8597 220.413 65.9254C219.515 65.9911 218.653 66.298 217.928 66.811C217.202 67.324 216.641 68.0224 216.309 68.8267C215.977 69.631 215.887 70.5086 216.05 71.3596L219.32 89.0723L78.792 112.985C78.4067 113.05 78.0387 113.187 77.7089 113.39C77.3792 113.592 77.0942 113.854 76.8705 114.163C76.6467 114.471 76.4884 114.818 76.4048 115.185C76.3212 115.552 76.3139 115.931 76.3833 116.301L89.0215 184.662C89.159 185.407 89.599 186.069 90.2448 186.503C90.8906 186.937 91.6894 187.106 92.4655 186.975L233.003 163.033L236.273 180.746C236.432 181.593 236.835 182.38 237.435 183.019C238.036 183.658 238.811 184.123 239.672 184.362C240.534 184.6 241.447 184.603 242.31 184.369C243.173 184.135 243.951 183.674 244.555 183.038L308.228 115.76C308.718 115.236 309.078 114.613 309.279 113.936C309.48 113.26 309.518 112.548 309.389 111.855C309.261 111.163 308.97 110.507 308.537 109.939C308.105 109.371 307.544 108.904 306.895 108.576Z" fill="white"/>
<path d="M91.9427 187.516C91.2306 187.512 90.5368 187.299 89.9542 186.906C89.5779 186.656 89.2572 186.337 89.0109 185.967C88.7645 185.597 88.5973 185.184 88.5192 184.751L75.8502 116.38C75.7706 115.947 75.7806 115.503 75.8797 115.074C75.9788 114.645 76.165 114.238 76.4278 113.878C76.6905 113.518 77.0246 113.211 77.4109 112.975C77.7972 112.739 78.2282 112.579 78.6792 112.503L218.725 88.6396L215.547 71.409C215.378 70.471 215.485 69.5063 215.857 68.6237C216.228 67.7411 216.849 66.9757 217.65 66.4139C218.45 65.8521 219.398 65.5163 220.387 65.4443C221.376 65.3723 222.366 65.5671 223.245 66.0066L307.141 108.153C307.862 108.514 308.486 109.029 308.966 109.659C309.446 110.288 309.769 111.015 309.911 111.783C310.053 112.551 310.009 113.34 309.783 114.089C309.557 114.838 309.154 115.528 308.607 116.104L244.975 183.383C244.306 184.086 243.444 184.596 242.489 184.854C241.533 185.112 240.522 185.108 239.568 184.843C238.615 184.578 237.758 184.062 237.094 183.353C236.43 182.645 235.986 181.772 235.812 180.834L232.624 163.604L92.5577 187.457C92.3553 187.496 92.1492 187.516 91.9427 187.516ZM220.765 66.3904C219.857 66.3973 218.974 66.6797 218.243 67.1973C217.589 67.6469 217.083 68.2663 216.783 68.9828C216.484 69.6993 216.404 70.483 216.552 71.2417L219.832 88.9545C219.853 89.0834 219.821 89.2151 219.742 89.3216C219.664 89.4282 219.545 89.5012 219.412 89.5252L78.9252 113.467C78.2823 113.584 77.7123 113.937 77.3365 114.451C76.9496 114.951 76.7839 115.576 76.8752 116.193L89.5135 184.554C89.6284 185.172 89.994 185.721 90.5301 186.081C91.0662 186.441 91.729 186.582 92.3732 186.473L232.901 162.531C233.034 162.511 233.169 162.54 233.28 162.614C233.391 162.687 233.468 162.798 233.495 162.925L236.765 180.638C236.903 181.397 237.261 182.103 237.798 182.677C238.334 183.25 239.028 183.667 239.799 183.881C240.571 184.094 241.389 184.095 242.161 183.883C242.933 183.672 243.628 183.257 244.165 182.684L307.838 115.405C308.278 114.939 308.6 114.382 308.781 113.778C308.962 113.173 308.996 112.537 308.881 111.918C308.767 111.299 308.506 110.713 308.119 110.205C307.732 109.698 307.229 109.282 306.649 108.99L222.763 66.8726C222.148 66.557 221.462 66.3914 220.765 66.3904Z" fill="#303C42"/>
<path d="M219.063 83.2463C217.936 82.8822 216.788 82.5575 215.64 82.2623C214.927 82.0208 214.155 81.9934 213.426 82.1836C212.401 82.5673 211.878 83.7383 211.509 84.7716C210.966 86.3559 210.402 88.0484 210.873 89.6918C211.56 92.0338 214.164 93.3229 216.603 93.9625C217.798 94.326 219.061 94.4335 220.303 94.2774C227.55 93.0178 223.881 84.8011 219.063 83.2463Z" fill="white"/>
<path d="M219.289 94.8385C218.334 94.8166 217.386 94.6743 216.47 94.4154C214.553 93.9234 211.212 92.6638 210.381 89.8101C209.848 87.9995 210.504 86.1396 211.027 84.634C211.427 83.4827 211.97 82.2035 213.241 81.741C214.068 81.509 214.951 81.5331 215.763 81.8098C216.931 82.0854 218.1 82.4199 219.227 82.7939C222.415 83.7779 225.1 87.5468 224.865 90.6072C224.772 91.8864 224.055 94.1202 220.396 94.7598C220.03 94.8149 219.659 94.8412 219.289 94.8385ZM214.225 82.5676C214.009 82.5641 213.794 82.5975 213.59 82.666C212.729 82.971 212.308 84.0043 211.98 84.9489C211.386 86.6316 210.955 88.1372 211.345 89.5444C212.042 91.9258 215.014 93.0279 216.716 93.4806C217.837 93.8237 219.022 93.9311 220.191 93.7955C222.435 93.4117 223.686 92.28 223.819 90.5383C224.024 87.9306 221.615 84.634 218.879 83.7287C217.772 83.3745 216.634 83.0596 215.496 82.7447C215.082 82.634 214.655 82.5745 214.225 82.5676Z" fill="#303C42"/>
<path d="M91.8301 119.272C92.1027 119.272 92.3719 119.215 92.6193 119.105C95.2331 118.013 94.8641 113.378 95.0896 111.115C95.2126 109.845 95.1818 108.31 94.0646 107.651C91.5431 106.185 88.0376 106.824 85.7519 108.438C83.4661 110.052 82.9639 113.102 83.2201 115.72C83.3124 116.763 83.3944 119.076 84.3784 119.725C85.6904 120.611 87.2381 118.17 87.2074 117.088V117.964C87.1925 118.367 87.2515 118.77 87.3816 119.154C87.4457 119.349 87.5587 119.525 87.7107 119.667C87.8626 119.81 88.0489 119.914 88.2528 119.971C88.9088 120.099 89.5034 119.548 89.7699 118.987C89.9585 118.375 90.1844 117.773 90.4463 117.186C90.2477 117.454 90.1617 117.785 90.2054 118.111C90.2491 118.438 90.4193 118.736 90.6821 118.948C91.0094 119.189 91.4187 119.305 91.8301 119.272Z" fill="white"/>
<path d="M88.4578 120.483C88.3555 120.493 88.2525 120.493 88.1503 120.483C87.8606 120.412 87.5942 120.272 87.3757 120.076C87.1572 119.88 86.9935 119.634 86.8998 119.362C86.8998 119.362 86.8998 119.293 86.8998 119.253C86.6342 119.647 86.2849 119.982 85.8748 120.237C85.5961 120.402 85.2712 120.48 84.9447 120.46C84.6181 120.441 84.3058 120.325 84.0503 120.129C82.974 119.411 82.81 117.433 82.7075 116.124V115.77C82.4718 113.3 82.7075 109.954 85.4545 108.045C87.6788 106.461 91.4098 105.536 94.331 107.228C95.7558 108.055 95.7455 109.866 95.6225 111.164C95.6225 111.578 95.561 112.06 95.5303 112.581C95.4278 115.101 95.274 118.545 92.8448 119.568C92.5222 119.706 92.1728 119.776 91.8198 119.775C91.2797 119.795 90.7494 119.632 90.3233 119.312L90.2003 119.145C90.068 119.501 89.8349 119.815 89.5271 120.052C89.2193 120.288 88.849 120.438 88.4578 120.483ZM87.6993 117.079V117.945C87.6873 118.297 87.7358 118.65 87.8428 118.988C87.8778 119.104 87.9419 119.211 88.0294 119.298C88.1169 119.385 88.2252 119.451 88.345 119.489C88.6935 119.558 89.0933 119.175 89.2778 118.761C89.3766 118.531 89.4588 118.294 89.5238 118.053L89.6775 117.561C89.7331 117.296 89.8564 117.05 90.0363 116.842C90.1207 116.756 90.235 116.701 90.358 116.689C90.481 116.677 90.6045 116.708 90.7057 116.776C90.8068 116.844 90.8788 116.945 90.9084 117.061C90.9379 117.176 90.9231 117.298 90.8665 117.403C90.7928 117.532 90.731 117.667 90.682 117.807C90.6718 117.855 90.6718 117.906 90.682 117.954C90.7004 118.182 90.8107 118.394 90.9895 118.545C91.2172 118.721 91.5076 118.806 91.7993 118.781C92.0033 118.777 92.2048 118.737 92.3938 118.663C94.2388 117.885 94.372 114.796 94.4438 112.532C94.4438 111.991 94.4438 111.489 94.5258 111.066C94.6898 109.433 94.4335 108.488 93.7365 108.114C91.3278 106.717 88.017 107.435 85.9875 108.872C83.6813 110.515 83.4455 113.497 83.6505 115.76V116.124C83.7325 117.039 83.8863 118.948 84.5628 119.401C84.6574 119.464 84.7702 119.498 84.8856 119.498C85.0011 119.498 85.1138 119.464 85.2085 119.401C85.5869 119.14 85.9052 118.807 86.1433 118.423C86.3814 118.038 86.5343 117.611 86.5923 117.167C86.5895 117.038 86.6395 116.914 86.7315 116.82C86.8235 116.726 86.9501 116.67 87.0843 116.665C87.2205 116.665 87.3516 116.715 87.4507 116.805C87.5498 116.894 87.6094 117.017 87.6173 117.147L87.6993 117.079Z" fill="#303C42"/>
<path d="M322.875 105.279C322.875 105.279 329.169 134.318 321.717 136.208C311.6 138.825 269.575 128.926 269.575 128.926C269.575 128.926 258.608 131.514 256.691 128.739C254.774 125.964 256.691 122.087 257.654 121.851C258.618 121.614 266.879 121.063 266.879 121.063C266.879 121.063 260.155 116.31 262.267 115.946C264.378 115.582 271.892 117.973 271.892 117.973C271.892 117.973 313.056 120.926 312.676 118.879C312.297 116.832 310.391 109.137 310.391 109.137" fill="white"/>
<path d="M317.033 137.133C302.837 137.133 272.23 130.038 269.616 129.428C267.997 129.802 258.341 131.898 256.291 129.015C255.764 128.153 255.458 127.183 255.4 126.186C255.341 125.188 255.531 124.191 255.953 123.278C256.117 122.884 256.742 121.585 257.583 121.418C258.423 121.251 263.128 120.906 265.527 120.719C263.528 119.233 261.15 117.206 261.427 116.163C261.473 115.987 261.577 115.83 261.722 115.713C261.867 115.596 262.047 115.527 262.236 115.514C264.368 115.14 271.021 117.216 272.046 117.541C286.478 118.525 309.673 119.785 312.185 118.801C311.734 116.518 309.981 109.373 309.96 109.295C309.929 109.164 309.953 109.027 310.027 108.914C310.101 108.8 310.219 108.72 310.355 108.689C310.491 108.659 310.634 108.683 310.752 108.754C310.87 108.825 310.954 108.938 310.985 109.068C311.067 109.383 312.892 116.823 313.271 118.84C313.291 118.94 313.286 119.043 313.256 119.141C313.226 119.239 313.171 119.328 313.097 119.401C311.436 121.182 281.178 119.174 271.943 118.515H271.82C269.77 117.856 264.174 116.232 262.493 116.488C262.749 117.157 264.85 119.017 267.279 120.739C267.363 120.799 267.427 120.881 267.462 120.976C267.496 121.071 267.501 121.173 267.474 121.27C267.442 121.367 267.381 121.452 267.299 121.515C267.217 121.578 267.117 121.616 267.013 121.625C264.727 121.792 258.608 122.264 257.839 122.402C257.332 122.842 256.975 123.418 256.814 124.055C256.53 124.774 256.418 125.546 256.485 126.312C256.553 127.078 256.798 127.82 257.204 128.483C258.464 130.294 265.404 129.468 269.504 128.483C269.584 128.464 269.669 128.464 269.75 128.483C270.17 128.582 311.703 138.324 321.635 135.775C327.365 134.319 324.146 113.369 322.424 105.418C322.397 105.287 322.425 105.152 322.502 105.041C322.579 104.93 322.698 104.853 322.834 104.827C322.97 104.801 323.111 104.828 323.227 104.902C323.342 104.975 323.422 105.09 323.449 105.221C324.105 108.242 329.599 134.742 321.922 136.71C320.317 137.046 318.675 137.188 317.033 137.133Z" fill="#303C42"/>
<path d="M310.432 109.677C310.317 109.676 310.206 109.637 310.117 109.567C310.027 109.498 309.965 109.401 309.94 109.294L305.297 90.4296C305.28 90.3669 305.277 90.3016 305.287 90.2376C305.297 90.1736 305.32 90.1122 305.356 90.0571C305.391 90.002 305.438 89.9544 305.493 89.9169C305.548 89.8795 305.61 89.853 305.676 89.8392C305.808 89.8122 305.945 89.835 306.059 89.9028C306.174 89.9706 306.257 90.0783 306.291 90.2033L310.934 109.067C310.965 109.194 310.942 109.327 310.871 109.438C310.8 109.548 310.687 109.627 310.555 109.658L310.432 109.677Z" fill="#303C42"/>
<path d="M203.473 59.2457C203.397 59.245 203.321 59.2267 203.254 59.1925C203.186 59.1583 203.128 59.1091 203.084 59.0489C203.049 58.9998 203.024 58.9446 203.011 58.8863C202.998 58.8281 202.998 58.768 203.009 58.7095C203.02 58.651 203.044 58.5953 203.078 58.5454C203.112 58.4956 203.155 58.4527 203.207 58.4191C203.572 58.1851 203.862 57.8572 204.044 57.4728C204.225 57.0883 204.29 56.6627 204.232 56.2444C203.916 55.6201 203.689 54.9583 203.555 54.2763C203.539 54.1742 203.56 54.0698 203.614 53.9806C203.669 53.8914 203.753 53.8227 203.853 53.786C203.954 53.7492 204.065 53.7465 204.167 53.7785C204.269 53.8104 204.357 53.8749 204.416 53.9614C204.793 54.5643 205.04 55.2335 205.144 55.9295C205.264 56.1822 205.461 56.3946 205.708 56.5396C205.788 56.5744 205.877 56.5865 205.964 56.5743C206.051 56.562 206.133 56.5261 206.2 56.4707C207.132 55.9393 206.2 52.7806 205.318 50.8223C205.293 50.7688 205.278 50.7109 205.276 50.652C205.275 50.5932 205.285 50.5346 205.307 50.4796C205.329 50.4246 205.362 50.3744 205.404 50.3319C205.447 50.2893 205.498 50.2553 205.554 50.2319C205.668 50.1847 205.797 50.1819 205.914 50.2241C206.031 50.2663 206.126 50.3502 206.179 50.4582C206.61 51.3931 208.66 56.1066 206.681 57.2383C206.487 57.3707 206.259 57.4514 206.021 57.4722C205.784 57.4929 205.545 57.453 205.328 57.3564C205.244 57.3239 205.165 57.2809 205.093 57.2284C204.908 58.0083 204.416 58.6891 203.719 59.1276C203.65 59.1878 203.565 59.2286 203.473 59.2457Z" fill="#303C42"/>
<path d="M150.675 214.862C150.572 214.863 150.471 214.831 150.389 214.77C150.308 214.709 150.249 214.624 150.224 214.528L141.081 181.73C141.059 181.668 141.052 181.602 141.059 181.537C141.067 181.472 141.089 181.409 141.124 181.353C141.159 181.297 141.206 181.249 141.263 181.212C141.319 181.175 141.383 181.15 141.45 181.139C141.571 181.109 141.699 181.127 141.807 181.188C141.915 181.249 141.993 181.348 142.024 181.464L151.167 214.262C151.199 214.377 151.182 214.499 151.121 214.602C151.059 214.705 150.958 214.781 150.839 214.813L150.675 214.862Z" fill="white"/>
</svg>
