<svg width="35" height="35" viewBox="0 0 35 35" fill="none" xmlns="http://www.w3.org/2000/svg"
    name="photoshop" class="mr-2 h-9 w-9 ListItems_ListItemIcon__JEBXv">
    <path fill-rule="evenodd" clip-rule="evenodd"
        d="M8.45833 3.5H26.5417C29.2833 3.5 31.5 5.71667 31.5 8.45833V25.8417C31.5 28.5833 29.2833 30.8 26.5417 30.8H8.45833C5.71667 30.8 3.5 28.5833 3.5 25.8417V8.45833C3.5 5.71667 5.71667 3.5 8.45833 3.5ZM9.80159 22.6449V10.6399C9.80159 10.5583 9.83659 10.5116 9.91826 10.5116C10.1166 10.5116 10.3033 10.5116 10.5716 10.4999C10.7158 10.4939 10.8631 10.491 11.0151 10.488C11.1582 10.4852 11.3055 10.4823 11.4583 10.4766C11.6212 10.4706 11.7903 10.4677 11.9657 10.4646C12.1295 10.4618 12.2986 10.4589 12.4733 10.4533C12.8349 10.4416 13.1849 10.4416 13.5349 10.4416C14.4916 10.4416 15.2849 10.5583 15.9383 10.8033C16.5216 11.0016 17.0583 11.3283 17.5016 11.7599C17.8749 12.1333 18.1666 12.5883 18.3533 13.0899C18.5283 13.5799 18.6216 14.0816 18.6216 14.6066C18.6216 15.6099 18.3883 16.4383 17.9216 17.0916C17.4549 17.7449 16.8016 18.2349 16.0433 18.5149C15.2499 18.8066 14.3749 18.9116 13.4183 18.9116C13.1383 18.9116 12.9516 18.9116 12.8349 18.8999C12.7183 18.8883 12.5549 18.8883 12.3333 18.8883V22.6333C12.3449 22.7149 12.2866 22.7849 12.2049 22.7966H12.1583H9.94159C9.84826 22.7966 9.80159 22.7499 9.80159 22.6449ZM12.3449 12.7633V16.6833L12.3799 16.6858C12.53 16.6966 12.67 16.7066 12.7999 16.7066H13.4183C13.8733 16.7066 14.3283 16.6366 14.7599 16.4966C15.1333 16.3916 15.4599 16.1699 15.7166 15.8783C15.9616 15.5866 16.0783 15.1899 16.0783 14.6766C16.0899 14.3149 15.9966 13.9533 15.8099 13.6383C15.6116 13.3349 15.3316 13.1016 14.9933 12.9733C14.5616 12.7983 14.0949 12.7283 13.6166 12.7399C13.3133 12.7399 13.0449 12.7399 12.8233 12.7516C12.5899 12.7399 12.4266 12.7516 12.3449 12.7633ZM24.7825 15.5751C25.1792 15.6568 25.5525 15.7851 25.9025 15.9718C25.9492 15.9951 26.0075 15.9951 26.1125 15.9718C26.1475 15.9484 26.1708 15.9018 26.1708 15.8551V13.9534C26.1708 13.9068 26.1592 13.8601 26.1475 13.8134C26.1242 13.7668 26.0775 13.7201 26.0308 13.7084C25.7158 13.5801 25.3775 13.4868 25.0275 13.4401C24.5492 13.3701 24.0592 13.3351 23.5808 13.3351C22.7525 13.3351 22.0642 13.4634 21.5158 13.7434C21.0142 13.9768 20.5825 14.3501 20.2908 14.8168C20.0342 15.2484 19.8942 15.7268 19.8942 16.2284C19.8825 16.6368 19.9758 17.0451 20.1625 17.4184C20.3842 17.8151 20.6875 18.1534 21.0492 18.4101C21.5625 18.7601 22.1108 19.0401 22.7058 19.2501C23.2775 19.4718 23.6625 19.6468 23.8492 19.7984C24.0358 19.9501 24.1292 20.1018 24.1292 20.2651C24.1292 20.4751 24.0008 20.6734 23.8142 20.7551C23.6042 20.8601 23.2892 20.9184 22.8458 20.9184C22.3792 20.9184 21.9125 20.8601 21.4692 20.7434C20.9558 20.6268 20.4775 20.4401 20.0225 20.1718C19.9875 20.1484 19.9525 20.1368 19.9175 20.1601C19.8825 20.1834 19.8708 20.2301 19.8708 20.2651V22.2951C19.8592 22.3884 19.9175 22.4701 19.9992 22.5168C20.3725 22.6918 20.7808 22.8201 21.1892 22.8901C21.7142 22.9951 22.2392 23.0418 22.7758 23.0418C23.6158 23.0418 24.3158 22.9134 24.8875 22.6684C25.4125 22.4584 25.8675 22.0968 26.1942 21.6301C26.4975 21.1751 26.6608 20.6268 26.6492 20.0784C26.6608 19.6584 26.5675 19.2501 26.3808 18.8768C26.1592 18.4801 25.8442 18.1534 25.4592 17.9084C24.8992 17.5584 24.2925 17.2668 23.6625 17.0568C23.3825 16.9401 23.1025 16.8118 22.8342 16.6718C22.6825 16.5901 22.5425 16.4851 22.4375 16.3568C22.3675 16.2634 22.3208 16.1584 22.3208 16.0534C22.3208 15.9484 22.3558 15.8318 22.4142 15.7384C22.4958 15.6218 22.6242 15.5401 22.7758 15.5051C22.9975 15.4468 23.2425 15.4118 23.4758 15.4234C23.9192 15.4234 24.3508 15.4818 24.7825 15.5751Z"
        fill="currentColor"></path>
</svg>