<svg width="48" height="48" viewBox="0 0 48 48" fill="none" xmlns="http://www.w3.org/2000/svg"
    name="prototype" class="mr-2 hidden h-8 w-8 text-primary 4sm:block lg:h-12 lg:w-[48px]">
    <path
        d="M40.5 6C40.1163 6 39.7325 6.14645 39.4395 6.43945L21.4629 24.418L20 28L23.582 26.5371L41.5605 8.56055C42.1455 7.97455 42.1455 7.02545 41.5605 6.43945C41.2675 6.14645 40.8837 6 40.5 6ZM12.5 7C9.48023 7 7 9.48023 7 12.5V35.5C7 38.5198 9.48023 41 12.5 41H35.5C38.5198 41 41 38.5198 41 35.5V18.5C41.0028 18.3012 40.9661 18.1039 40.892 17.9194C40.8178 17.735 40.7078 17.5671 40.5682 17.4255C40.4287 17.284 40.2624 17.1716 40.079 17.0949C39.8956 17.0181 39.6988 16.9786 39.5 16.9786C39.3012 16.9786 39.1044 17.0181 38.921 17.0949C38.7376 17.1716 38.5713 17.284 38.4318 17.4255C38.2922 17.5671 38.1822 17.735 38.108 17.9194C38.0339 18.1039 37.9972 18.3012 38 18.5V35.5C38 36.8982 36.8982 38 35.5 38H12.5C11.1018 38 10 36.8982 10 35.5V12.5C10 11.1018 11.1018 10 12.5 10H29.5C29.6988 10.0028 29.8961 9.96609 30.0806 9.89197C30.265 9.81785 30.4329 9.70781 30.5745 9.56824C30.716 9.42867 30.8284 9.26236 30.9051 9.07898C30.9819 8.89559 31.0214 8.69879 31.0214 8.5C31.0214 8.30121 30.9819 8.10441 30.9051 7.92102C30.8284 7.73764 30.716 7.57133 30.5745 7.43176C30.4329 7.29219 30.265 7.18215 30.0806 7.10803C29.8961 7.03391 29.6988 6.99719 29.5 7H12.5Z"
        fill="currentColor"></path>
</svg>