<svg
    width="32"
    height="32"
    viewBox="0 0 35 35"
    fill="none"
    xmlns="http://www.w3.org/2000/svg"
    name="react"
    class="w-10 min-w-10 text-primary-500"
    style="color: rgb(255, 255, 255);"
>
    <path
        d="M25.5399 20.8252C25.3926 20.8753 25.2415 20.9236 25.0874 20.9705C24.7464 19.8624 24.2863 18.684 23.7233 17.4668C24.2606 16.2782 24.7029 15.115 25.0344 14.014C25.3099 14.096 25.5774 14.1823 25.8352 14.2735C28.3281 15.1545 29.8486 16.4572 29.8486 17.4609C29.8486 18.5301 28.2062 19.9181 25.5399 20.8252Z"
        fill="currentColor"
    ></path>
    <path
        d="M24.4335 23.0761C24.7031 24.4742 24.7416 25.7382 24.563 26.7264C24.4025 27.6143 24.0799 28.2062 23.681 28.4433C22.832 28.9479 21.0164 28.292 19.0586 26.5622C18.8341 26.3639 18.6079 26.1522 18.3811 25.9282C19.1402 25.0758 19.8988 24.0848 20.6392 22.9844C21.9415 22.8658 23.1719 22.6718 24.2877 22.407C24.3425 22.6347 24.3914 22.8578 24.4335 23.0761Z"
        fill="currentColor"
    ></path>
    <path
        d="M13.2446 28.3562C12.4152 28.6569 11.7546 28.6655 11.3554 28.4291C10.5055 27.926 10.1524 25.9835 10.6342 23.3782C10.6915 23.0703 10.7571 22.7641 10.8309 22.4599C11.9343 22.7105 13.1557 22.8908 14.4612 22.9995C15.2064 24.0762 15.987 25.066 16.7736 25.9327C16.6064 26.0988 16.4353 26.2605 16.2603 26.4179C15.2151 27.356 14.1676 28.0214 13.2446 28.3562Z"
        fill="currentColor"
    ></path>
    <path
        d="M9.35888 20.8186C8.04531 20.3577 6.96052 19.7586 6.21694 19.105C5.54883 18.5175 5.21144 17.9342 5.21144 17.4609C5.21144 16.4539 6.67392 15.1693 9.11305 14.2962C9.4192 14.1871 9.72839 14.0872 10.0402 13.9966C10.3774 15.1224 10.8196 16.2994 11.3532 17.4896C10.8127 18.6976 10.3642 19.8934 10.0239 21.0323C9.80055 20.9667 9.57881 20.8954 9.35888 20.8186Z"
        fill="currentColor"
    ></path>
    <path
        d="M10.6615 11.7156C10.1552 9.05906 10.4914 7.05521 11.3375 6.55238C12.2388 6.01675 14.2315 6.78054 16.332 8.69528C16.4662 8.81768 16.6011 8.94584 16.7361 9.0784C15.9536 9.94121 15.1802 10.9235 14.4414 11.994C13.1744 12.1146 11.9616 12.3082 10.8466 12.5676C10.778 12.2852 10.7162 12.0012 10.6615 11.7156Z"
        fill="currentColor"
    ></path>
    <path
        d="M22.2816 14.6614C22.0182 14.1944 21.7451 13.7332 21.4624 13.2783C22.322 13.3897 23.1454 13.5378 23.9187 13.719C23.6866 14.483 23.3972 15.2818 23.0565 16.1006C22.8075 15.6156 22.5492 15.1358 22.2816 14.6614Z"
        fill="currentColor"
    ></path>
    <path
        d="M17.5429 9.92273C18.0737 10.5131 18.6053 11.1723 19.1282 11.8875C18.0675 11.8361 17.005 11.8358 15.9443 11.8868C16.4677 11.1782 17.0038 10.5199 17.5429 9.92273Z"
        fill="currentColor"
    ></path>
    <path
        d="M12.7738 14.6695C12.5096 15.1401 12.256 15.617 12.0134 16.0998C11.6783 15.2837 11.3916 14.4814 11.1574 13.7066C11.9261 13.5299 12.7457 13.3856 13.5997 13.2761C13.3138 13.7338 13.0385 14.1984 12.7738 14.6695Z"
        fill="currentColor"
    ></path>
    <path
        d="M13.6242 21.73C12.742 21.6289 11.91 21.492 11.1416 21.3202C11.3794 20.5317 11.6725 19.7121 12.0148 18.8785C12.2584 19.3617 12.513 19.8388 12.7785 20.3097C13.0494 20.79 13.3314 21.2635 13.6242 21.73Z"
        fill="currentColor"
    ></path>
    <path
        d="M17.5747 25.0825C17.0293 24.4782 16.4853 23.8099 15.9539 23.091C16.4697 23.1118 16.9956 23.1224 17.53 23.1224C18.0792 23.1224 18.622 23.1098 19.1562 23.0853C18.6316 23.8172 18.1019 24.4865 17.5747 25.0825Z"
        fill="currentColor"
    ></path>
    <path
        d="M23.0675 18.8361C23.4275 19.6787 23.731 20.4939 23.9721 21.2691C23.191 21.4521 22.3477 21.5994 21.4592 21.7089C21.7439 21.2454 22.0197 20.7762 22.2862 20.3015C22.5572 19.819 22.8177 19.3304 23.0675 18.8361Z"
        fill="currentColor"
    ></path>
    <path
        fill-rule="evenodd"
        clip-rule="evenodd"
        d="M21.2893 19.7113C20.8812 20.4391 20.4502 21.153 19.9969 21.8521C19.1977 21.9107 18.3717 21.9409 17.53 21.9409C16.6918 21.9409 15.8763 21.9141 15.091 21.8619C14.626 21.1645 14.1868 20.4492 13.7745 19.7177C13.364 18.9901 12.9807 18.2468 12.6252 17.4893C12.9797 16.7316 13.362 15.9878 13.771 15.2596C14.1799 14.5312 14.6156 13.8193 15.0772 13.1249C15.8783 13.0627 16.6998 13.0302 17.5301 13.0302C18.3642 13.0302 19.1867 13.063 19.9876 13.1256C20.4445 13.819 20.8775 14.5287 21.2856 15.2534C21.696 15.9799 22.0834 16.7201 22.4469 17.4725C22.0871 18.2326 21.7009 18.9793 21.2893 19.7113ZM19.9356 17.4609C19.9356 16.097 18.8587 14.9912 17.5301 14.9912C16.2016 14.9912 15.1245 16.097 15.1245 17.4609C15.1245 18.825 16.2016 19.9308 17.5301 19.9308C18.8587 19.9308 19.9356 18.825 19.9356 17.4609Z"
        fill="currentColor"
    ></path>
    <path
        d="M23.6633 6.51725C24.5654 7.05141 24.9162 9.20533 24.3494 12.03C24.3123 12.214 24.2719 12.3973 24.2283 12.5798C23.1107 12.3151 21.8971 12.118 20.6264 11.9956C19.8862 10.9135 19.1192 9.92946 18.3493 9.07779C18.5511 8.87809 18.7576 8.68357 18.9688 8.49442C20.9576 6.71738 22.8164 6.01577 23.6633 6.51725Z"
        fill="currentColor"
    ></path>
    <path
        fill-rule="evenodd"
        clip-rule="evenodd"
        d="M8.0968 23.2348C4.57025 21.9972 2.33331 19.8016 2.33331 17.4497C2.33331 15.1616 4.68923 13.1291 8.0968 11.9094C7.3903 8.20215 7.94289 5.21491 9.87951 4.06396C11.888 2.87029 14.6569 3.67386 17.5444 6.30601C20.3199 3.82613 23.1165 2.82586 25.0549 3.97351C27.0655 5.16387 27.7257 8.0265 26.9466 11.9352C30.4257 13.1648 32.6666 15.1523 32.6666 17.4497C32.6666 19.8326 30.612 21.7048 26.9388 22.9515C27.6625 26.7051 27.0596 29.8379 25.0769 31.0163C23.1479 32.1627 20.3836 31.2116 17.6483 28.7949C14.8422 31.3134 11.8858 32.1267 9.90133 30.9517C7.97067 29.8085 7.39256 26.8747 8.0968 23.2348ZM25.3426 12.8757C25.634 12.9617 25.9231 13.0553 26.2098 13.1562C29.1193 14.1845 30.9994 15.7953 30.9994 17.4609C30.9994 19.1979 28.9902 20.8962 25.9019 21.9467C25.7387 22.0023 25.5714 22.0556 25.4009 22.1073C25.4617 22.3584 25.516 22.6051 25.5625 22.8466C26.1722 26.0084 25.7027 28.6071 24.2577 29.4659C22.8587 30.2973 20.5975 29.4805 18.308 27.4578C18.0591 27.2375 17.8163 27.01 17.5798 26.7757C17.392 26.9621 17.2045 27.14 17.0177 27.3077C14.654 29.4289 12.2267 30.309 10.7804 29.4528C9.38013 28.6235 8.94009 26.2044 9.50353 23.1578C9.56509 22.8268 9.63566 22.4975 9.71515 22.1704C9.47048 22.0987 9.22759 22.0208 8.9867 21.9366C6.01596 20.8943 4.06073 19.175 4.06073 17.4609C4.06073 15.8013 5.88219 14.2013 8.73419 13.1805C9.05299 13.0664 9.38621 12.9592 9.73124 12.8585C9.65733 12.555 9.59094 12.2495 9.53214 11.9425C8.94116 8.84204 9.35701 6.36424 10.761 5.52983C12.2251 4.65967 14.6635 5.59409 17.0962 7.81177C17.2476 7.95002 17.3964 8.09113 17.5426 8.23504C17.761 8.01862 17.9846 7.8079 18.2133 7.60308C20.5346 5.52921 22.8329 4.66163 24.2382 5.49372C25.7039 6.36131 26.1331 8.99687 25.4766 12.2684C25.4356 12.4717 25.3909 12.6741 25.3426 12.8757Z"
        fill="currentColor"
    ></path>
</svg>