<svg width="28" height="28" viewBox="0 0 28 28" fill="none" xmlns="http://www.w3.org/2000/svg"
    name="scale-up" class="mr-2 hidden h-6 w-6 text-primary 4sm:block">
    <path
        d="M13.9861 1.73739C13.853 1.73957 13.7221 1.77211 13.6034 1.83253C13.4848 1.89294 13.3815 1.97964 13.3014 2.08602L10.4645 4.92293C10.3805 5.00356 10.3134 5.10013 10.2673 5.20699C10.2211 5.31386 10.1967 5.42886 10.1955 5.54527C10.1943 5.66168 10.2164 5.77715 10.2604 5.88493C10.3044 5.99271 10.3694 6.09063 10.4517 6.17295C10.5341 6.25526 10.632 6.32033 10.7398 6.36433C10.8475 6.40834 10.963 6.43039 11.0794 6.42921C11.1958 6.42802 11.3108 6.40363 11.4177 6.35744C11.5246 6.31125 11.6211 6.24421 11.7018 6.16024L13.1248 4.73722V9.04158C13.1231 9.15753 13.1446 9.27265 13.1878 9.38025C13.231 9.48784 13.2952 9.58578 13.3766 9.66835C13.458 9.75092 13.5551 9.81649 13.662 9.86125C13.769 9.906 13.8838 9.92905 13.9998 9.92905C14.1157 9.92905 14.2305 9.906 14.3375 9.86125C14.4445 9.81649 14.5415 9.75092 14.6229 9.66835C14.7043 9.58578 14.7685 9.48784 14.8118 9.38025C14.855 9.27265 14.8764 9.15753 14.8748 9.04158V4.73722L16.2978 6.16024C16.3784 6.24421 16.475 6.31125 16.5818 6.35744C16.6887 6.40363 16.8037 6.42802 16.9201 6.42921C17.0365 6.43039 17.152 6.40834 17.2598 6.36433C17.3676 6.32033 17.4655 6.25526 17.5478 6.17295C17.6301 6.09063 17.6952 5.99271 17.7392 5.88493C17.7832 5.77715 17.8052 5.66168 17.8041 5.54527C17.8029 5.42886 17.7785 5.31386 17.7323 5.20699C17.6861 5.10013 17.6191 5.00356 17.5351 4.92293L14.6936 2.08146C14.6107 1.97286 14.5036 1.88518 14.3807 1.82543C14.2578 1.76568 14.1227 1.73553 13.9861 1.73739ZM22.449 10.1991C22.2749 10.1992 22.1047 10.2512 21.9603 10.3485C21.8158 10.4458 21.7037 10.5839 21.6383 10.7453C21.5728 10.9067 21.557 11.0839 21.5928 11.2543C21.6287 11.4247 21.7145 11.5806 21.8395 11.7019L23.2625 13.1249H18.9581C18.8422 13.1233 18.727 13.1447 18.6194 13.1879C18.5118 13.2312 18.4139 13.2954 18.3313 13.3768C18.2488 13.4582 18.1832 13.5552 18.1384 13.6622C18.0937 13.7692 18.0706 13.884 18.0706 13.9999C18.0706 14.1159 18.0937 14.2307 18.1384 14.3377C18.1832 14.4446 18.2488 14.5416 18.3313 14.6231C18.4139 14.7045 18.5118 14.7687 18.6194 14.8119C18.727 14.8551 18.8422 14.8766 18.9581 14.8749H23.2625L21.8395 16.2979C21.7555 16.3786 21.6884 16.4751 21.6423 16.582C21.5961 16.6889 21.5717 16.8039 21.5705 16.9203C21.5693 17.0367 21.5914 17.1522 21.6354 17.2599C21.6794 17.3677 21.7444 17.4656 21.8267 17.5479C21.9091 17.6303 22.007 17.6953 22.1148 17.7393C22.2225 17.7833 22.338 17.8054 22.4544 17.8042C22.5708 17.803 22.6858 17.7786 22.7927 17.7324C22.8996 17.6863 22.9961 17.6192 23.0768 17.5352L25.9182 14.6938C26.0252 14.6118 26.1117 14.5062 26.1711 14.3852C26.2305 14.2643 26.2612 14.1313 26.2608 13.9965C26.2603 13.8618 26.2288 13.7289 26.1686 13.6084C26.1084 13.4878 26.0211 13.3828 25.9137 13.3015L23.0768 10.4646C22.9952 10.3806 22.8976 10.3138 22.7898 10.2682C22.682 10.2226 22.5661 10.1991 22.449 10.1991ZM5.52435 10.2003C5.29711 10.2069 5.08136 10.3017 4.92279 10.4646L2.08132 13.3061C1.97439 13.3881 1.88785 13.4937 1.82843 13.6146C1.76902 13.7355 1.73833 13.8686 1.73877 14.0033C1.73922 14.1381 1.77077 14.2709 1.83097 14.3915C1.89118 14.512 1.97841 14.617 2.08587 14.6983L4.92279 17.5352C5.00341 17.6192 5.09999 17.6863 5.20685 17.7324C5.31371 17.7786 5.42871 17.803 5.54512 17.8042C5.66153 17.8054 5.77701 17.7833 5.88479 17.7393C5.99257 17.6953 6.09048 17.6303 6.1728 17.5479C6.25512 17.4656 6.32018 17.3677 6.36419 17.2599C6.40819 17.1522 6.43025 17.0367 6.42906 16.9203C6.42788 16.8039 6.40348 16.6889 6.3573 16.582C6.31111 16.4751 6.24407 16.3786 6.16009 16.2979L4.73708 14.8749H9.04144C9.15739 14.8766 9.27251 14.8551 9.3801 14.8119C9.4877 14.7687 9.58563 14.7045 9.6682 14.6231C9.75078 14.5416 9.81635 14.4446 9.8611 14.3377C9.90586 14.2307 9.9289 14.1159 9.9289 13.9999C9.9289 13.884 9.90586 13.7692 9.8611 13.6622C9.81635 13.5552 9.75078 13.4582 9.6682 13.3768C9.58563 13.2954 9.4877 13.2312 9.3801 13.1879C9.27251 13.1447 9.15739 13.1233 9.04144 13.1249H4.73708L6.16009 11.7019C6.28633 11.579 6.3725 11.4208 6.40735 11.248C6.44219 11.0753 6.42408 10.8961 6.35539 10.7338C6.28669 10.5716 6.1706 10.4338 6.02233 10.3386C5.87405 10.2434 5.70048 10.1952 5.52435 10.2003ZM13.9998 11.0833C13.1005 11.0833 12.3152 11.452 11.8146 12.0152C11.3139 12.5784 11.0831 13.2951 11.0831 13.9999C11.0831 14.7048 11.3139 15.4214 11.8146 15.9846C12.3152 16.5478 13.1005 16.9166 13.9998 16.9166C14.8991 16.9166 15.6844 16.5478 16.185 15.9846C16.6856 15.4214 16.9164 14.7048 16.9164 13.9999C16.9164 13.2951 16.6856 12.5784 16.185 12.0152C15.6844 11.452 14.8991 11.0833 13.9998 11.0833ZM13.9998 12.8333C14.4616 12.8333 14.6971 12.9749 14.8771 13.1773C15.057 13.3797 15.1664 13.6839 15.1664 13.9999C15.1664 14.3159 15.057 14.6201 14.8771 14.8225C14.6971 15.0249 14.4616 15.1666 13.9998 15.1666C13.538 15.1666 13.3024 15.0249 13.1225 14.8225C12.9426 14.6201 12.8331 14.3159 12.8331 13.9999C12.8331 13.6839 12.9426 13.3797 13.1225 13.1773C13.3024 12.9749 13.538 12.8333 13.9998 12.8333ZM13.9861 18.0707C13.7542 18.0743 13.5333 18.1698 13.3718 18.3363C13.2103 18.5027 13.1214 18.7264 13.1248 18.9583V23.2626L11.7018 21.8396C11.6211 21.7556 11.5246 21.6886 11.4177 21.6424C11.3108 21.5962 11.1958 21.5718 11.0794 21.5706C10.963 21.5694 10.8475 21.5915 10.7398 21.6355C10.632 21.6795 10.5341 21.7446 10.4517 21.8269C10.3694 21.9092 10.3044 22.0071 10.2604 22.1149C10.2164 22.2227 10.1943 22.3382 10.1955 22.4546C10.1967 22.571 10.2211 22.686 10.2673 22.7928C10.3134 22.8997 10.3805 22.9963 10.4645 23.0769L13.3059 25.9184C13.3879 26.0253 13.4935 26.1118 13.6145 26.1713C13.7354 26.2307 13.8684 26.2614 14.0032 26.2609C14.1379 26.2605 14.2708 26.2289 14.3913 26.1687C14.5119 26.1085 14.6169 26.0213 14.6982 25.9138L17.5351 23.0769C17.6191 22.9963 17.6861 22.8997 17.7323 22.7928C17.7785 22.686 17.8029 22.571 17.8041 22.4546C17.8052 22.3382 17.7832 22.2227 17.7392 22.1149C17.6952 22.0071 17.6301 21.9092 17.5478 21.8269C17.4655 21.7446 17.3676 21.6795 17.2598 21.6355C17.152 21.5915 17.0365 21.5694 16.9201 21.5706C16.8037 21.5718 16.6887 21.5962 16.5818 21.6424C16.475 21.6886 16.3784 21.7556 16.2978 21.8396L14.8748 23.2626V18.9583C14.8765 18.8411 14.8546 18.7249 14.8105 18.6164C14.7664 18.5079 14.701 18.4093 14.6182 18.3265C14.5353 18.2438 14.4366 18.1785 14.3281 18.1345C14.2195 18.0906 14.1032 18.0689 13.9861 18.0707Z"
        fill="currentColor"></path>
</svg>