<svg
    width="48"
    height="48"
    viewBox="0 0 48 48"
    fill="none"
    xmlns="http://www.w3.org/2000/svg"
    name="sent"
    class="mr-2 hidden h-8 w-8 text-primary 4sm:block lg:h-12 lg:w-[48px]"
>
    <path
        d="M5.4454 4.00202C5.20444 4.01077 4.96914 4.07746 4.75944 4.19646C4.54973 4.31546 4.3718 4.48326 4.24072 4.68563C4.10964 4.888 4.02927 5.11899 4.00642 5.35902C3.98357 5.59905 4.01891 5.84105 4.10946 6.06452L11.3809 24.0001L4.10946 41.9356C3.99478 42.2181 3.96888 42.5288 4.0352 42.8263C4.10152 43.1238 4.25691 43.3941 4.48068 43.6011C4.70446 43.8081 4.98599 43.9421 5.28778 43.9851C5.58958 44.0281 5.89731 43.9781 6.17001 43.8419L43.17 25.3419C43.4192 25.2173 43.6288 25.0258 43.7753 24.7888C43.9217 24.5518 43.9993 24.2787 43.9993 24.0001C43.9993 23.7215 43.9217 23.4484 43.7753 23.2114C43.6288 22.9744 43.4192 22.7829 43.17 22.6583L6.17001 4.15827C5.94534 4.04639 5.6962 3.99267 5.4454 4.00202V4.00202ZM8.3829 8.61921L39.1466 24.0001L8.3829 39.3809L14.0118 25.5001H27.5001C27.6989 25.5029 27.8962 25.4662 28.0806 25.392C28.2651 25.3179 28.433 25.2079 28.5745 25.0683C28.7161 24.9287 28.8285 24.7624 28.9052 24.579C28.9819 24.3957 29.0214 24.1989 29.0214 24.0001C29.0214 23.8013 28.9819 23.6045 28.9052 23.4211C28.8285 23.2377 28.7161 23.0714 28.5745 22.9318C28.433 22.7923 28.2651 22.6822 28.0806 22.6081C27.8962 22.534 27.6989 22.4973 27.5001 22.5001H14.0118L8.3829 8.61921Z"
        fill="currentColor"
    ></path>
</svg>