<svg
    width="24"
    height="24"
    viewBox="0 0 24 24"
    fill="none"
    xmlns="http://www.w3.org/2000/svg"
    name="target"
    class="mr-2 hidden h-8 w-8 text-primary 4sm:block lg:h-12 lg:w-[48px]"
>
    <path
        d="M11.9882 0.989227C11.7895 0.992332 11.6001 1.07419 11.4617 1.21683C11.3232 1.35947 11.2471 1.55122 11.2499 1.74997V3.53806C7.16261 3.89818 3.89815 7.16264 3.53803 11.25H1.74994C1.65056 11.2486 1.55188 11.2669 1.45966 11.304C1.36743 11.341 1.28349 11.3961 1.21271 11.4658C1.14194 11.5356 1.08573 11.6188 1.04737 11.7105C1.00901 11.8022 0.989258 11.9006 0.989258 12C0.989258 12.0994 1.00901 12.1978 1.04737 12.2895C1.08573 12.3812 1.14194 12.4643 1.21271 12.5341C1.28349 12.6039 1.36743 12.6589 1.45966 12.696C1.55188 12.733 1.65056 12.7514 1.74994 12.75H3.53803C3.89815 16.8373 7.16261 20.1018 11.2499 20.4619V22.25C11.2485 22.3494 11.2669 22.448 11.304 22.5403C11.341 22.6325 11.396 22.7164 11.4658 22.7872C11.5356 22.858 11.6188 22.9142 11.7105 22.9525C11.8021 22.9909 11.9005 23.0107 11.9999 23.0107C12.0993 23.0107 12.1977 22.9909 12.2894 22.9525C12.3811 22.9142 12.4643 22.858 12.5341 22.7872C12.6038 22.7164 12.6589 22.6325 12.6959 22.5403C12.733 22.448 12.7513 22.3494 12.7499 22.25V20.4619C16.8373 20.1018 20.1017 16.8373 20.4619 12.75H22.2499C22.3493 12.7514 22.448 12.733 22.5402 12.696C22.6324 12.6589 22.7164 12.6039 22.7872 12.5341C22.8579 12.4643 22.9141 12.3812 22.9525 12.2895C22.9909 12.1978 23.0106 12.0994 23.0106 12C23.0106 11.9006 22.9909 11.8022 22.9525 11.7105C22.9141 11.6188 22.8579 11.5356 22.7872 11.4658C22.7164 11.3961 22.6324 11.341 22.5402 11.304C22.448 11.2669 22.3493 11.2486 22.2499 11.25H20.4619C20.1017 7.16264 16.8373 3.89818 12.7499 3.53806V1.74997C12.7514 1.64959 12.7327 1.54994 12.6949 1.45692C12.6571 1.36391 12.601 1.27943 12.53 1.20849C12.459 1.13754 12.3744 1.08158 12.2813 1.04392C12.1883 1.00626 12.0886 0.987659 11.9882 0.989227ZM11.9111 5.00485C11.9714 5.01221 12.0324 5.01221 12.0927 5.00485C15.8941 5.05446 18.9475 8.10918 18.9951 11.9111C18.9877 11.9714 18.9877 12.0324 18.9951 12.0927C18.9454 15.8941 15.8907 18.9476 12.0888 18.9951C12.0554 18.9909 12.0218 18.9889 11.9882 18.9892C11.9608 18.9897 11.9334 18.9916 11.9062 18.9951C8.10524 18.945 5.05235 15.8904 5.00482 12.0888C5.01218 12.0285 5.01218 11.9675 5.00482 11.9072C5.05443 8.10579 8.10915 5.05239 11.9111 5.00485ZM11.9999 9.49997C11.2291 9.49997 10.556 9.81604 10.1269 10.2988C9.69777 10.7816 9.49994 11.3958 9.49994 12C9.49994 12.6041 9.69777 13.2184 10.1269 13.7011C10.556 14.1839 11.2291 14.5 11.9999 14.5C12.7708 14.5 13.4439 14.1839 13.873 13.7011C14.3021 13.2184 14.4999 12.6041 14.4999 12C14.4999 11.3958 14.3021 10.7816 13.873 10.2988C13.4439 9.81604 12.7708 9.49997 11.9999 9.49997ZM11.9999 11C12.3958 11 12.5977 11.1214 12.7519 11.2949C12.9061 11.4684 12.9999 11.7291 12.9999 12C12.9999 12.2708 12.9061 12.5316 12.7519 12.705C12.5977 12.8785 12.3958 13 11.9999 13C11.6041 13 11.4022 12.8785 11.248 12.705C11.0938 12.5316 10.9999 12.2708 10.9999 12C10.9999 11.7291 11.0938 11.4684 11.248 11.2949C11.4022 11.1214 11.6041 11 11.9999 11Z"
        fill="currentColor"
    ></path>
</svg>