<svg width="25" height="20" viewBox="0 0 25 20" fill="none" xmlns="http://www.w3.org/2000/svg"
    name="uxui" class="h-8 w-8 text-white">
    <path
        d="M4 0.5C3.73478 0.5 3.48043 0.60536 3.29289 0.79289C3.10536 0.98043 3 1.23478 3 1.5C3 1.76522 3.10536 2.01957 3.29289 2.20711C3.48043 2.39464 3.73478 2.5 4 2.5C4.26522 2.5 4.51957 2.39464 4.70711 2.20711C4.89464 2.01957 5 1.76522 5 1.5C5 1.23478 4.89464 0.98043 4.70711 0.79289C4.51957 0.60536 4.26522 0.5 4 0.5ZM10.375 0.5C8.79609 0.5 7.5 1.79609 7.5 3.375V3.47168C4.72749 4.36761 3.5 6.50482 3.5 8.125C3.5 9.1272 3.82395 10.0647 4.36621 10.7842C4.13561 11.2966 4 11.8738 4 12.5C4 15.1301 5.77746 16.6737 7.55762 16.9062C7.70699 18.3484 8.89565 19.5 10.375 19.5C11.2271 19.5 11.9944 19.1201 12.5225 18.5244C13.0375 19.1163 13.7795 19.5 14.625 19.5C16.1043 19.5 17.293 18.3484 17.4424 16.9062C19.2225 16.6737 21 15.1301 21 12.5C21 11.8738 20.8644 11.2966 20.6338 10.7842C21.1761 10.0646 21.5 9.1274 21.5 8.125C21.5 6.50456 20.2725 4.36839 17.5 3.47266C17.5 3.45668 17.5 3.38017 17.5 3.375C17.5 1.79609 16.2039 0.5 14.625 0.5C13.7744 0.5 13.028 0.89342 12.5 1.4873C11.972 0.89342 11.2256 0.5 10.375 0.5ZM21 0.5C20.7348 0.5 20.4804 0.60536 20.2929 0.79289C20.1054 0.98043 20 1.23478 20 1.5C20 1.76522 20.1054 2.01957 20.2929 2.20711C20.4804 2.39464 20.7348 2.5 21 2.5C21.2652 2.5 21.5196 2.39464 21.7071 2.20711C21.8946 2.01957 22 1.76522 22 1.5C22 1.23478 21.8946 0.98043 21.7071 0.79289C21.5196 0.60536 21.2652 0.5 21 0.5ZM10.375 2C11.1431 2 11.75 2.60691 11.75 3.375V16.625C11.75 17.3931 11.1431 18 10.375 18C9.60691 18 9 17.3931 9 16.625V16.25C8.99998 16.0511 8.92096 15.8603 8.78031 15.7197C8.63966 15.579 8.44891 15.5 8.25 15.5H8C6.91667 15.5 5.5 14.65 5.5 12.5C5.5 10.955 6.689 10 7.75 10C8.6 10 9.15039 10.7002 9.15039 10.7002C9.20838 10.7819 9.28215 10.8512 9.36735 10.9039C9.45254 10.9566 9.54744 10.9918 9.64644 11.0072C9.74544 11.0226 9.84653 11.0181 9.94374 10.9938C10.0409 10.9696 10.1323 10.9261 10.2124 10.8659C10.2926 10.8058 10.3598 10.7302 10.4102 10.6436C10.4607 10.557 10.4932 10.4612 10.506 10.3618C10.5188 10.2624 10.5116 10.1615 10.4847 10.065C10.4578 9.9685 10.4119 9.8783 10.3496 9.7998C10.3496 9.7998 9.4 8.5 7.75 8.5C6.85776 8.5 5.99534 8.8588 5.32129 9.4688C5.12901 9.0744 5 8.602 5 8.125C5 7.15994 5.76461 5.30838 8.41699 4.70117C8.58249 4.66336 8.73027 4.57052 8.83617 4.43784C8.94207 4.30515 8.99983 4.14047 9 3.9707V3.375C9 2.60691 9.60691 2 10.375 2ZM14.625 2C15.3931 2 16 2.60691 16 3.375C16 3.37435 15.999 3.64776 15.998 3.96777C15.9976 4.13804 16.055 4.30341 16.161 4.43669C16.2669 4.56998 16.4151 4.66325 16.5811 4.70117C19.2345 5.30796 20 7.15948 20 8.125C20 8.6021 19.871 9.0744 19.6787 9.4688C19.0047 8.8588 18.1422 8.5 17.25 8.5C15.6 8.5 14.6504 9.7998 14.6504 9.7998C14.5881 9.8783 14.5422 9.9685 14.5153 10.065C14.4884 10.1615 14.4812 10.2624 14.494 10.3618C14.5068 10.4612 14.5393 10.557 14.5898 10.6436C14.6402 10.7302 14.7074 10.8058 14.7876 10.8659C14.8677 10.9261 14.9591 10.9696 15.0563 10.9938C15.1535 11.0181 15.2546 11.0226 15.3536 11.0072C15.4526 10.9918 15.5475 10.9566 15.6327 10.9039C15.7179 10.8512 15.7916 10.7819 15.8496 10.7002C15.8496 10.7002 16.4 10 17.25 10C18.311 10 19.5 10.955 19.5 12.5C19.5 14.65 18.0833 15.5 17 15.5H16.75C16.5511 15.5 16.3603 15.579 16.2197 15.7197C16.079 15.8603 16 16.0511 16 16.25V16.625C16 17.3931 15.3931 18 14.625 18C13.8569 18 13.25 17.3931 13.25 16.625V3.375C13.25 2.60691 13.8569 2 14.625 2ZM10.2383 4.48926C10.0395 4.49236 9.85016 4.57423 9.71173 4.71686C9.5733 4.8595 9.49715 5.05125 9.5 5.25C9.5 5.67325 9.17325 6 8.75 6C8.65062 5.99859 8.55194 6.01696 8.45972 6.05402C8.36749 6.09108 8.28355 6.1461 8.21277 6.21588C8.142 6.28566 8.08579 6.36882 8.04743 6.46051C8.00907 6.5522 7.98932 6.65061 7.98932 6.75C7.98932 6.84939 8.00907 6.9478 8.04743 7.03949C8.08579 7.13118 8.142 7.21434 8.21277 7.28412C8.28355 7.3539 8.36749 7.40892 8.45972 7.44598C8.55194 7.48304 8.65062 7.50141 8.75 7.5C9.98375 7.5 11 6.48375 11 5.25C11.0014 5.14962 10.9827 5.04997 10.9449 4.95695C10.9071 4.86394 10.8511 4.77946 10.78 4.70852C10.709 4.63758 10.6245 4.58161 10.5314 4.54395C10.4383 4.50629 10.3387 4.48769 10.2383 4.48926ZM14.7383 4.48926C14.5395 4.49236 14.3502 4.57423 14.2117 4.71686C14.0733 4.8595 13.9971 5.05125 14 5.25C14 6.48375 15.0162 7.5 16.25 7.5C16.3494 7.50141 16.4481 7.48304 16.5403 7.44598C16.6325 7.40892 16.7164 7.3539 16.7872 7.28412C16.858 7.21434 16.9142 7.13118 16.9526 7.03949C16.9909 6.9478 17.0107 6.84939 17.0107 6.75C17.0107 6.65061 16.9909 6.5522 16.9526 6.46051C16.9142 6.36882 16.858 6.28566 16.7872 6.21588C16.7164 6.1461 16.6325 6.09108 16.5403 6.05402C16.4481 6.01696 16.3494 5.99859 16.25 6C15.8268 6 15.5 5.67325 15.5 5.25C15.5014 5.14962 15.4827 5.04997 15.4449 4.95695C15.4071 4.86394 15.3511 4.77946 15.28 4.70852C15.209 4.63758 15.1245 4.58161 15.0314 4.54395C14.9383 4.50629 14.8387 4.48769 14.7383 4.48926ZM1.5 6C1.23478 6 0.98043 6.10536 0.792893 6.29289C0.605357 6.48043 0.5 6.73478 0.5 7C0.5 7.26522 0.605357 7.51957 0.792893 7.70711C0.98043 7.89464 1.23478 8 1.5 8C1.76522 8 2.01957 7.89464 2.20711 7.70711C2.39464 7.51957 2.5 7.26522 2.5 7C2.5 6.73478 2.39464 6.48043 2.20711 6.29289C2.01957 6.10536 1.76522 6 1.5 6ZM23.5 6C23.2348 6 22.9804 6.10536 22.7929 6.29289C22.6054 6.48043 22.5 6.73478 22.5 7C22.5 7.26522 22.6054 7.51957 22.7929 7.70711C22.9804 7.89464 23.2348 8 23.5 8C23.7652 8 24.0196 7.89464 24.2071 7.70711C24.3946 7.51957 24.5 7.26522 24.5 7C24.5 6.73478 24.3946 6.48043 24.2071 6.29289C24.0196 6.10536 23.7652 6 23.5 6ZM1.5 12C1.23478 12 0.98043 12.1054 0.792893 12.2929C0.605357 12.4804 0.5 12.7348 0.5 13C0.5 13.2652 0.605357 13.5196 0.792893 13.7071C0.98043 13.8946 1.23478 14 1.5 14C1.76522 14 2.01957 13.8946 2.20711 13.7071C2.39464 13.5196 2.5 13.2652 2.5 13C2.5 12.7348 2.39464 12.4804 2.20711 12.2929C2.01957 12.1054 1.76522 12 1.5 12ZM8.25 12C8.15062 11.9986 8.05194 12.017 7.95972 12.054C7.86749 12.0911 7.78355 12.1461 7.71277 12.2159C7.642 12.2857 7.58579 12.3688 7.54743 12.4605C7.50907 12.5522 7.48932 12.6506 7.48932 12.75C7.48932 12.8494 7.50907 12.9478 7.54743 13.0395C7.58579 13.1312 7.642 13.2143 7.71277 13.2841C7.78355 13.3539 7.86749 13.4089 7.95972 13.446C8.05194 13.483 8.15062 13.5014 8.25 13.5C8.94911 13.5 9.5 14.0509 9.5 14.75C9.49859 14.8494 9.51696 14.9481 9.55402 15.0403C9.59108 15.1325 9.6461 15.2164 9.71588 15.2872C9.78566 15.358 9.86882 15.4142 9.96051 15.4526C10.0522 15.4909 10.1506 15.5107 10.25 15.5107C10.3494 15.5107 10.4478 15.4909 10.5395 15.4526C10.6312 15.4142 10.7143 15.358 10.7841 15.2872C10.8539 15.2164 10.9089 15.1325 10.946 15.0403C10.983 14.9481 11.0014 14.8494 11 14.75C11 13.2401 9.75989 12 8.25 12ZM16.75 12C15.2401 12 14 13.2401 14 14.75C13.9986 14.8494 14.017 14.9481 14.054 15.0403C14.0911 15.1325 14.1461 15.2164 14.2159 15.2872C14.2857 15.358 14.3688 15.4142 14.4605 15.4526C14.5522 15.4909 14.6506 15.5107 14.75 15.5107C14.8494 15.5107 14.9478 15.4909 15.0395 15.4526C15.1312 15.4142 15.2143 15.358 15.2841 15.2872C15.3539 15.2164 15.4089 15.1325 15.446 15.0403C15.483 14.9481 15.5014 14.8494 15.5 14.75C15.5 14.0509 16.0509 13.5 16.75 13.5C16.8494 13.5014 16.9481 13.483 17.0403 13.446C17.1325 13.4089 17.2164 13.3539 17.2872 13.2841C17.358 13.2143 17.4142 13.1312 17.4526 13.0395C17.4909 12.9478 17.5107 12.8494 17.5107 12.75C17.5107 12.6506 17.4909 12.5522 17.4526 12.4605C17.4142 12.3688 17.358 12.2857 17.2872 12.2159C17.2164 12.1461 17.1325 12.0911 17.0403 12.054C16.9481 12.017 16.8494 11.9986 16.75 12ZM23.5 12C23.2348 12 22.9804 12.1054 22.7929 12.2929C22.6054 12.4804 22.5 12.7348 22.5 13C22.5 13.2652 22.6054 13.5196 22.7929 13.7071C22.9804 13.8946 23.2348 14 23.5 14C23.7652 14 24.0196 13.8946 24.2071 13.7071C24.3946 13.5196 24.5 13.2652 24.5 13C24.5 12.7348 24.3946 12.4804 24.2071 12.2929C24.0196 12.1054 23.7652 12 23.5 12ZM4 17.5C3.73478 17.5 3.48043 17.6054 3.29289 17.7929C3.10536 17.9804 3 18.2348 3 18.5C3 18.7652 3.10536 19.0196 3.29289 19.2071C3.48043 19.3946 3.73478 19.5 4 19.5C4.26522 19.5 4.51957 19.3946 4.70711 19.2071C4.89464 19.0196 5 18.7652 5 18.5C5 18.2348 4.89464 17.9804 4.70711 17.7929C4.51957 17.6054 4.26522 17.5 4 17.5ZM21 17.5C20.7348 17.5 20.4804 17.6054 20.2929 17.7929C20.1054 17.9804 20 18.2348 20 18.5C20 18.7652 20.1054 19.0196 20.2929 19.2071C20.4804 19.3946 20.7348 19.5 21 19.5C21.2652 19.5 21.5196 19.3946 21.7071 19.2071C21.8946 19.0196 22 18.7652 22 18.5C22 18.2348 21.8946 17.9804 21.7071 17.7929C21.5196 17.6054 21.2652 17.5 21 17.5Z"
        fill="currentColor"></path>
</svg>