<svg
    width="35"
    height="36"
    viewBox="0 0 35 36"
    fill="none"
    xmlns="http://www.w3.org/2000/svg"
    name="vertexai"
    class="mr-2 h-9 w-9 ListItems_ListItemIcon__JEBXv"
>
    <path
        d="M29.5998 21.0242C29.4134 20.8004 29.1523 20.6517 28.8647 20.6057C28.5771 20.5597 28.2826 20.6194 28.0357 20.7739L17.0867 28.8136V29.1577C17.2446 29.139 17.4048 29.154 17.5566 29.2016C17.7083 29.2493 17.8483 29.3285 17.9672 29.4342C18.0861 29.5399 18.1813 29.6695 18.2465 29.8146C18.3116 29.9597 18.3453 30.117 18.3453 30.2761C18.3453 30.4352 18.3116 30.5924 18.2465 30.7375C18.1813 30.8826 18.0861 31.0123 17.9672 31.118C17.8483 31.2236 17.7083 31.3029 17.5566 31.3505C17.4048 31.3982 17.2446 31.4132 17.0867 31.3944C17.3407 31.3956 17.588 31.3131 17.7905 31.1598L29.3809 22.6039C29.6067 22.4146 29.7541 22.1481 29.7946 21.8562C29.8351 21.5643 29.7656 21.2678 29.5998 21.0242Z"
        fill="currentColor"
        fill-opacity="0.5"
    ></path>
    <path
        d="M17.087 31.3945C16.8132 31.3621 16.5608 31.2303 16.3777 31.0242C16.1945 30.8181 16.0933 30.5519 16.0933 30.2762C16.0933 30.0004 16.1945 29.7343 16.3777 29.5281C16.5608 29.322 16.8132 29.1902 17.087 29.1578V28.8137L6.13803 20.774C5.89212 20.6162 5.59671 20.5545 5.3082 20.6006C5.01968 20.6468 4.75828 20.7976 4.57388 21.0242C4.40897 21.2679 4.34305 21.5653 4.38954 21.8558C4.43603 22.1464 4.59143 22.4083 4.82414 22.5884L16.4145 31.1443C16.6122 31.2954 16.8538 31.3778 17.1027 31.3789L17.087 31.3945Z"
        fill="currentColor"
        fill-opacity="0.25"
    ></path>
    <path
        d="M17.0871 27.9849C16.6324 27.9849 16.1878 28.1197 15.8097 28.3724C15.4316 28.625 15.1369 28.9841 14.9629 29.4043C14.7888 29.8244 14.7433 30.2867 14.832 30.7327C14.9207 31.1787 15.1397 31.5884 15.4613 31.91C15.7829 32.2316 16.1925 32.4506 16.6386 32.5393C17.0846 32.628 17.5469 32.5825 17.967 32.4084C18.3872 32.2344 18.7463 31.9397 18.9989 31.5616C19.2516 31.1835 19.3864 30.7389 19.3864 30.2842C19.3864 29.6743 19.1442 29.0895 18.713 28.6583C18.2818 28.2271 17.6969 27.9849 17.0871 27.9849ZM17.0871 31.3947C16.8637 31.3947 16.6454 31.3282 16.4599 31.2038C16.2743 31.0793 16.13 30.9025 16.0453 30.6958C15.9605 30.4891 15.9391 30.2619 15.9839 30.043C16.0286 29.8241 16.1374 29.6235 16.2965 29.4666C16.4556 29.3098 16.6577 29.2038 16.8772 29.1621C17.0967 29.1204 17.3236 29.145 17.5291 29.2326C17.7345 29.3203 17.9093 29.467 18.0312 29.6543C18.153 29.8415 18.2164 30.0608 18.2133 30.2842C18.2133 30.4313 18.1841 30.577 18.1273 30.7128C18.0705 30.8486 17.9873 30.9717 17.8825 31.075C17.7778 31.1783 17.6535 31.2598 17.5169 31.3147C17.3804 31.3696 17.2343 31.3968 17.0871 31.3947Z"
        fill="currentColor"
        fill-opacity="0.75"
    ></path>
    <path
        d="M7.70193 8.85534C7.39206 8.85128 7.09602 8.72639 6.87689 8.50726C6.65776 8.28813 6.53287 7.99209 6.52882 7.68223V4.74163C6.50962 4.57514 6.52585 4.40647 6.57644 4.24669C6.62703 4.08691 6.71083 3.93963 6.82235 3.81452C6.93386 3.68941 7.07058 3.58929 7.22351 3.52074C7.37645 3.45219 7.54215 3.41675 7.70975 3.41675C7.87734 3.41675 8.04305 3.45219 8.19598 3.52074C8.34892 3.58929 8.48563 3.68941 8.59715 3.81452C8.70866 3.93963 8.79247 4.08691 8.84305 4.24669C8.89364 4.40647 8.90987 4.57514 8.89068 4.74163V7.68223C8.88656 7.99478 8.75951 8.29314 8.53702 8.51271C8.31453 8.73227 8.01451 8.85536 7.70193 8.85534Z"
        fill="currentColor"
        fill-opacity="0.25"
    ></path>
    <path
        d="M7.6702 19.2567C8.32673 19.2567 8.85895 18.7244 8.85895 18.0679C8.85895 17.4114 8.32673 16.8792 7.6702 16.8792C7.01367 16.8792 6.48145 17.4114 6.48145 18.0679C6.48145 18.7244 7.01367 19.2567 7.6702 19.2567Z"
        fill="currentColor"
        fill-opacity="0.25"
    ></path>
    <path
        d="M7.6702 15.8001C8.32673 15.8001 8.85895 15.2679 8.85895 14.6114C8.85895 13.9548 8.32673 13.4226 7.6702 13.4226C7.01367 13.4226 6.48145 13.9548 6.48145 14.6114C6.48145 15.2679 7.01367 15.8001 7.6702 15.8001Z"
        fill="currentColor"
        fill-opacity="0.25"
    ></path>
    <path
        d="M7.6702 12.3277C8.32673 12.3277 8.85895 11.7955 8.85895 11.1389C8.85895 10.4824 8.32673 9.9502 7.6702 9.9502C7.01367 9.9502 6.48145 10.4824 6.48145 11.1389C6.48145 11.7955 7.01367 12.3277 7.6702 12.3277Z"
        fill="currentColor"
        fill-opacity="0.25"
    ></path>
    <path
        d="M26.4717 12.2961C26.1591 12.292 25.8608 12.1649 25.6412 11.9424C25.4216 11.72 25.2986 11.4199 25.2986 11.1074V8.16676C25.2986 7.85563 25.4222 7.55725 25.6422 7.33725C25.8622 7.11725 26.1606 6.99365 26.4717 6.99365C26.7828 6.99365 27.0812 7.11725 27.3012 7.33725C27.5212 7.55725 27.6448 7.85563 27.6448 8.16676V11.1074C27.6469 11.2627 27.6181 11.417 27.56 11.5611C27.502 11.7052 27.4159 11.8364 27.3068 11.947C27.1976 12.0576 27.0676 12.1454 26.9243 12.2053C26.7809 12.2653 26.6271 12.2961 26.4717 12.2961Z"
        fill="currentColor"
        fill-opacity="0.75"
    ></path>
    <path
        d="M26.5025 19.2725C27.159 19.2725 27.6912 18.7403 27.6912 18.0838C27.6912 17.4272 27.159 16.895 26.5025 16.895C25.8459 16.895 25.3137 17.4272 25.3137 18.0838C25.3137 18.7403 25.8459 19.2725 26.5025 19.2725Z"
        fill="currentColor"
        fill-opacity="0.75"
    ></path>
    <path
        d="M26.5025 15.753C27.159 15.753 27.6912 15.2208 27.6912 14.5642C27.6912 13.9077 27.159 13.3755 26.5025 13.3755C25.8459 13.3755 25.3137 13.9077 25.3137 14.5642C25.3137 15.2208 25.8459 15.753 26.5025 15.753Z"
        fill="currentColor"
        fill-opacity="0.75"
    ></path>
    <path
        d="M26.5025 5.93023C27.159 5.93023 27.6912 5.39801 27.6912 4.74148C27.6912 4.08496 27.159 3.55273 26.5025 3.55273C25.8459 3.55273 25.3137 4.08496 25.3137 4.74148C25.3137 5.39801 25.8459 5.93023 26.5025 5.93023Z"
        fill="currentColor"
        fill-opacity="0.75"
    ></path>
    <path
        d="M17.0867 22.7604C16.7768 22.7563 16.4808 22.6314 16.2616 22.4123C16.0425 22.1932 15.9176 21.8971 15.9136 21.5873V18.5997C15.947 18.31 16.0858 18.0426 16.3035 17.8485C16.5213 17.6544 16.8028 17.5471 17.0945 17.5471C17.3862 17.5471 17.6677 17.6544 17.8855 17.8485C18.1032 18.0426 18.242 18.31 18.2754 18.5997V21.556C18.2775 21.7134 18.2483 21.8697 18.1895 22.0157C18.1307 22.1617 18.0434 22.2946 17.9328 22.4067C17.8222 22.5187 17.6905 22.6077 17.5452 22.6684C17.4 22.7291 17.2441 22.7604 17.0867 22.7604Z"
        fill="currentColor"
        fill-opacity="0.5"
    ></path>
    <path
        d="M17.0872 26.2171C17.7437 26.2171 18.2759 25.6849 18.2759 25.0284C18.2759 24.3718 17.7437 23.8396 17.0872 23.8396C16.4307 23.8396 15.8984 24.3718 15.8984 25.0284C15.8984 25.6849 16.4307 26.2171 17.0872 26.2171Z"
        fill="currentColor"
        fill-opacity="0.5"
    ></path>
    <path
        d="M17.0872 16.3472C17.7437 16.3472 18.2759 15.815 18.2759 15.1585C18.2759 14.5019 17.7437 13.9697 17.0872 13.9697C16.4307 13.9697 15.8984 14.5019 15.8984 15.1585C15.8984 15.815 16.4307 16.3472 17.0872 16.3472Z"
        fill="currentColor"
        fill-opacity="0.5"
    ></path>
    <path
        d="M17.0872 12.8748C17.7437 12.8748 18.2759 12.3426 18.2759 11.6861C18.2759 11.0295 17.7437 10.4973 17.0872 10.4973C16.4307 10.4973 15.8984 11.0295 15.8984 11.6861C15.8984 12.3426 16.4307 12.8748 17.0872 12.8748Z"
        fill="currentColor"
        fill-opacity="0.5"
    ></path>
    <path
        d="M21.7793 15.7843C21.4694 15.7802 21.1734 15.6553 20.9543 15.4362C20.7352 15.2171 20.6103 14.921 20.6062 14.6112V11.6706C20.587 11.5041 20.6032 11.3354 20.6538 11.1756C20.7044 11.0159 20.7882 10.8686 20.8997 10.7435C21.0113 10.6184 21.148 10.5182 21.3009 10.4497C21.4538 10.3811 21.6195 10.3457 21.7871 10.3457C21.9547 10.3457 22.1204 10.3811 22.2734 10.4497C22.4263 10.5182 22.563 10.6184 22.6745 10.7435C22.7861 10.8686 22.8699 11.0159 22.9204 11.1756C22.971 11.3354 22.9873 11.5041 22.9681 11.6706V14.6112C22.964 14.9237 22.8369 15.2221 22.6144 15.4417C22.3919 15.6612 22.0919 15.7843 21.7793 15.7843Z"
        fill="currentColor"
        fill-opacity="0.75"
    ></path>
    <path
        d="M21.7947 9.38678C22.4512 9.38678 22.9835 8.85456 22.9835 8.19803C22.9835 7.5415 22.4512 7.00928 21.7947 7.00928C21.1382 7.00928 20.606 7.5415 20.606 8.19803C20.606 8.85456 21.1382 9.38678 21.7947 9.38678Z"
        fill="currentColor"
        fill-opacity="0.75"
    ></path>
    <path
        d="M21.7947 22.6822C22.4512 22.6822 22.9835 22.15 22.9835 21.4934C22.9835 20.8369 22.4512 20.3047 21.7947 20.3047C21.1382 20.3047 20.606 20.8369 20.606 21.4934C20.606 22.15 21.1382 22.6822 21.7947 22.6822Z"
        fill="currentColor"
        fill-opacity="0.75"
    ></path>
    <path
        d="M21.7947 19.2098C22.4512 19.2098 22.9835 18.6776 22.9835 18.021C22.9835 17.3645 22.4512 16.8323 21.7947 16.8323C21.1382 16.8323 20.606 17.3645 20.606 18.021C20.606 18.6776 21.1382 19.2098 21.7947 19.2098Z"
        fill="currentColor"
        fill-opacity="0.75"
    ></path>
    <path
        d="M12.3794 22.6822C13.036 22.6822 13.5682 22.15 13.5682 21.4934C13.5682 20.8369 13.036 20.3047 12.3794 20.3047C11.7229 20.3047 11.1907 20.8369 11.1907 21.4934C11.1907 22.15 11.7229 22.6822 12.3794 22.6822Z"
        fill="currentColor"
        fill-opacity="0.25"
    ></path>
    <path
        d="M12.3794 12.8748C13.036 12.8748 13.5682 12.3426 13.5682 11.6861C13.5682 11.0295 13.036 10.4973 12.3794 10.4973C11.7229 10.4973 11.1907 11.0295 11.1907 11.6861C11.1907 12.3426 11.7229 12.8748 12.3794 12.8748Z"
        fill="currentColor"
        fill-opacity="0.25"
    ></path>
    <path
        d="M12.3794 9.38678C13.036 9.38678 13.5682 8.85456 13.5682 8.19803C13.5682 7.5415 13.036 7.00928 12.3794 7.00928C11.7229 7.00928 11.1907 7.5415 11.1907 8.19803C11.1907 8.85456 11.7229 9.38678 12.3794 9.38678Z"
        fill="currentColor"
        fill-opacity="0.25"
    ></path>
    <path
        d="M12.3946 19.2099C12.0872 19.2101 11.7918 19.0914 11.5702 18.8785C11.3485 18.6656 11.2179 18.3752 11.2058 18.0681V15.0962C11.2058 14.7851 11.3294 14.4867 11.5494 14.2667C11.7694 14.0467 12.0678 13.9231 12.3789 13.9231C12.69 13.9231 12.9884 14.0467 13.2084 14.2667C13.4284 14.4867 13.552 14.7851 13.552 15.0962V18.0681C13.544 18.3711 13.419 18.6592 13.2032 18.872C12.9874 19.0849 12.6976 19.206 12.3946 19.2099Z"
        fill="currentColor"
        fill-opacity="0.25"
    ></path>
</svg>