<svg width="35" height="35" viewBox="0 0 35 35" fill="none" xmlns="http://www.w3.org/2000/svg"
    name="zeplin" class="mr-2 h-9 w-9 ListItems_ListItemIcon__JEBXv">
    <path fill-rule="evenodd" clip-rule="evenodd"
        d="M32.4152 12.9923C33.7983 16.9994 29.3417 22.2649 22.4093 24.7883C15.4763 27.3113 8.67794 26.1425 7.1615 22.1836L32.4152 12.9923Z"
        fill="currentColor" fill-opacity="0.5"></path>
    <path fill-rule="evenodd" clip-rule="evenodd"
        d="M13.5387 19.8626L13.5133 19.7928L5.47781 22.7175L5.32861 27.4664L10.8981 25.4392C9.07791 24.7901 7.73823 23.6884 7.16178 22.1835L13.5387 19.8626Z"
        fill="currentColor" fill-opacity="0.5"></path>
    <path fill-rule="evenodd" clip-rule="evenodd"
        d="M32.4157 12.992C30.9091 9.02293 24.1034 7.84934 17.1634 10.3749C10.2231 12.9008 5.76425 18.1749 7.16165 22.1839L32.4157 12.992Z"
        fill="currentColor" fill-opacity="0.25"></path>
    <path fill-rule="evenodd" clip-rule="evenodd"
        d="M7.98069 17.184C6.95981 18.8825 6.62073 20.6247 7.15936 22.1775L5.50021 22.7814L2.33337 19.2396L7.98069 17.184Z"
        fill="currentColor" fill-opacity="0.5"></path>
    <path fill-rule="evenodd" clip-rule="evenodd"
        d="M32.4151 12.9926C33.2773 15.6738 28.4388 19.8494 21.5277 22.3645C14.6163 24.8803 8.22577 24.7917 7.16296 22.1836L32.4151 12.9926Z"
        fill="currentColor" fill-opacity="0.5"></path>
    <path fill-rule="evenodd" clip-rule="evenodd"
        d="M32.4137 12.9923C31.3667 10.3718 24.9664 10.2788 18.0439 12.7986C11.1213 15.3182 6.27839 19.5031 7.16057 22.1836L32.4137 12.9923Z"
        fill="currentColor" fill-opacity="0.25"></path>
    <path
        d="M20.7649 9.35539C20.1052 7.07455 19.3548 5.80953 18.5015 5.83365C16.8517 5.88063 16.2972 11.1115 16.8311 17.8144C17.3708 24.5883 18.7704 29.677 20.5154 29.6309C21.556 29.6036 22.142 27.9389 22.3477 25.0486C22.3518 24.9896 22.2861 25.0305 22.2899 24.9702C22.2899 24.9702 22.2813 24.8648 22.2423 24.8623L22.021 24.848C21.8397 27.6542 21.2906 29.2713 20.5065 29.2919C19.0723 29.3294 17.6876 24.2956 17.1695 17.7877C16.6594 11.3864 17.2085 6.20982 18.5113 6.17268C19.1281 6.15522 19.8192 7.32024 20.4306 9.42078C20.4306 9.42078 20.7652 9.35634 20.7649 9.35539L20.7649 9.35539Z"
        fill="currentColor"></path>
    <path
        d="M12.1009 8.29683C10.6956 9.1625 12.8307 13.9696 16.6445 19.5077C20.4986 25.1043 24.2553 28.8114 25.7435 27.8991C26.5752 27.3892 26.3419 25.8414 25.2705 23.505C25.2618 23.4839 25.2489 23.4648 25.2326 23.4488C25.2164 23.4328 25.197 23.4203 25.1758 23.4119C25.1546 23.4036 25.1319 23.3996 25.1091 23.4002C25.0863 23.4009 25.0638 23.4061 25.0431 23.4156C25.0224 23.4251 25.0038 23.4387 24.9884 23.4556C24.9731 23.4725 24.9613 23.4923 24.9538 23.5138C24.9462 23.5353 24.9431 23.5582 24.9446 23.5809C24.9462 23.6037 24.9523 23.6259 24.9626 23.6463C25.9581 25.8185 26.172 27.2385 25.566 27.6099C24.3429 28.3594 20.6272 24.6926 16.9239 19.315C13.2818 14.0267 11.1689 9.26948 12.279 8.5857C12.8682 8.22254 14.27 9.09869 16.1223 10.991C16.143 11.0119 16.2614 11.1348 16.2877 11.1427C16.3452 11.1602 16.3163 11.0386 16.3623 10.9935C16.3783 10.9779 16.391 10.9594 16.3998 10.9389C16.4085 10.9184 16.4132 10.8964 16.4134 10.8741C16.4136 10.8518 16.4095 10.8296 16.4011 10.809C16.3928 10.7883 16.3805 10.7694 16.3649 10.7535C14.3859 8.73204 12.9009 7.80383 12.1009 8.29651V8.29683Z"
        fill="currentColor"></path>
</svg>